<svg width="156" height="35" viewBox="0 0 156 35" fill="none" xmlns="http://www.w3.org/2000/svg">
<path d="M65.3092 20.0497H69.1757V22.698H61.8488V10.251H65.3092V20.0497ZM76.4887 22.8216C75.3235 22.8216 74.2524 22.5509 73.2755 22.0094C72.2986 21.4562 71.5217 20.6971 70.945 19.7319C70.38 18.755 70.0975 17.6545 70.0975 16.4304C70.0975 15.2063 70.38 14.1117 70.945 13.1465C71.5217 12.1696 72.2986 11.4104 73.2755 10.869C74.2524 10.3275 75.3235 10.0568 76.4887 10.0568C77.6658 10.0568 78.7369 10.3275 79.702 10.869C80.6789 11.4104 81.4499 12.1696 82.0148 13.1465C82.5798 14.1117 82.8623 15.2063 82.8623 16.4304C82.8623 17.6545 82.5798 18.755 82.0148 19.7319C81.4499 20.6971 80.6789 21.4562 79.702 22.0094C78.7251 22.5509 77.654 22.8216 76.4887 22.8216ZM76.4887 19.6083C77.3715 19.6083 78.066 19.32 78.5721 18.7432C79.09 18.1665 79.3489 17.3955 79.3489 16.4304C79.3489 15.4417 79.09 14.6648 78.5721 14.0999C78.066 13.5231 77.3715 13.2348 76.4887 13.2348C75.5942 13.2348 74.8939 13.5231 74.3878 14.0999C73.8817 14.6648 73.6286 15.4417 73.6286 16.4304C73.6286 17.4073 73.8817 18.1841 74.3878 18.7609C74.8939 19.3258 75.5942 19.6083 76.4887 19.6083ZM92.3628 14.3471C92.1627 14.0175 91.8861 13.7644 91.533 13.5879C91.1916 13.4113 90.7856 13.323 90.3148 13.323C89.4438 13.323 88.7552 13.6055 88.2491 14.1705C87.7547 14.7355 87.5076 15.4946 87.5076 16.448C87.5076 17.5191 87.7724 18.3371 88.3021 18.9021C88.8435 19.4553 89.6262 19.7319 90.6502 19.7319C91.8625 19.7319 92.7276 19.1846 93.2455 18.09H89.7674V15.6006H96.2293V18.9551C95.9586 19.6142 95.5584 20.2321 95.0287 20.8089C94.5108 21.3856 93.8517 21.8623 93.0513 22.239C92.251 22.6038 91.3388 22.7863 90.3148 22.7863C89.0671 22.7863 87.9607 22.5214 86.9956 21.9918C86.0422 21.4504 85.3007 20.703 84.771 19.7496C84.2531 18.7844 83.9942 17.6839 83.9942 16.448C83.9942 15.2239 84.2531 14.1352 84.771 13.1818C85.3007 12.2167 86.0422 11.4692 86.9956 10.9396C87.9489 10.3982 89.0495 10.1274 90.2971 10.1274C91.8625 10.1274 93.1573 10.5041 94.1813 11.2574C95.2053 12.0107 95.8409 13.0406 96.088 14.3471H92.3628ZM103.748 22.8216C102.582 22.8216 101.511 22.5509 100.534 22.0094C99.5573 21.4562 98.7805 20.6971 98.2038 19.7319C97.6388 18.755 97.3563 17.6545 97.3563 16.4304C97.3563 15.2063 97.6388 14.1117 98.2038 13.1465C98.7805 12.1696 99.5573 11.4104 100.534 10.869C101.511 10.3275 102.582 10.0568 103.748 10.0568C104.925 10.0568 105.996 10.3275 106.961 10.869C107.938 11.4104 108.709 12.1696 109.274 13.1465C109.839 14.1117 110.121 15.2063 110.121 16.4304C110.121 17.6545 109.839 18.755 109.274 19.7319C108.709 20.6971 107.938 21.4562 106.961 22.0094C105.984 22.5509 104.913 22.8216 103.748 22.8216ZM103.748 19.6083C104.63 19.6083 105.325 19.32 105.831 18.7432C106.349 18.1665 106.608 17.3955 106.608 16.4304C106.608 15.4417 106.349 14.6648 105.831 14.0999C105.325 13.5231 104.63 13.2348 103.748 13.2348C102.853 13.2348 102.153 13.5231 101.647 14.0999C101.14 14.6648 100.887 15.4417 100.887 16.4304C100.887 17.4073 101.14 18.1841 101.647 18.7609C102.153 19.3258 102.853 19.6083 103.748 19.6083ZM122.817 10.251V22.698H119.357V17.7016H115.137V22.698H111.677V10.251H115.137V14.9297H119.357V10.251H122.817ZM128.258 13.0229V15.0533H132.23V17.6839H128.258V19.9261H132.76V22.698H124.797V10.251H132.76V13.0229H128.258ZM140.773 22.698L138.301 18.1076H137.93V22.698H134.47V10.251H139.925C140.926 10.251 141.773 10.4276 142.468 10.7807C143.162 11.122 143.686 11.5987 144.039 12.2108C144.392 12.811 144.569 13.4878 144.569 14.2411C144.569 15.0886 144.333 15.836 143.863 16.4833C143.403 17.1189 142.727 17.5721 141.832 17.8428L144.639 22.698H140.773ZM137.93 15.7418H139.643C140.114 15.7418 140.467 15.63 140.702 15.4064C140.938 15.1827 141.055 14.8591 141.055 14.4353C141.055 14.0351 140.932 13.7232 140.685 13.4996C140.449 13.2642 140.102 13.1465 139.643 13.1465H137.93V15.7418ZM149.603 13.0229V15.0533H153.575V17.6839H149.603V19.9261H154.105V22.698H146.142V10.251H154.105V13.0229H149.603Z" fill="#153230"/>
<path d="M0.538086 34.5758V0.246094H53.0135L38.3007 34.5758H0.538086Z" fill="#FF7D05"/>
<path d="M4.28711 34.5758V0.246094H56.7625L42.0498 34.5758H4.28711Z" fill="#153230"/>
</svg>
