<svg width="99" height="145" viewBox="0 0 99 145" fill="none" xmlns="http://www.w3.org/2000/svg">
<path d="M54.99 1L98.0101 58.9837H88.6579L45.2637 1.74818L54.99 1Z" fill="#FF7D05" stroke="#153230" stroke-width="0.46707"/>
<path d="M68.9756 58.8422V85.0287H82.4424V89.7982H58.2197V58.8422H68.9756Z" fill="#FF7D05" stroke="#153230" stroke-width="0.46707"/>
<path fill-rule="evenodd" clip-rule="evenodd" d="M11.8635 84.796H10.3672V88.5363V89.2851V95.2699H29.8198V88.5363H29.8196V84.7961H28.3233V88.5363H26.8307V84.7966H25.3343V88.5363H23.8395V84.7965H22.3431V88.5363H20.8438V84.797H19.3475V88.5363H17.8482V84.7964H16.3518V88.5363H14.8503V84.7969H13.3539V88.5363H11.8635V84.796Z" fill="#153230"/>
<rect x="6.38365" y="95.0372" width="26.6532" height="13.9342" fill="#FF7D05" stroke="#153230" stroke-width="0.46707"/>
<mask id="path-5-inside-1_1845_16572" fill="white">
<path fill-rule="evenodd" clip-rule="evenodd" d="M12.827 128.19H26.5843L31.6925 109.299L7.71875 109.299L12.827 128.19Z"/>
</mask>
<path fill-rule="evenodd" clip-rule="evenodd" d="M12.827 128.19H26.5843L31.6925 109.299L7.71875 109.299L12.827 128.19Z" fill="#FF7D05"/>
<path d="M12.827 128.19L12.3761 128.312L12.4694 128.657H12.827V128.19ZM26.5843 128.19V128.657H26.9418L27.0352 128.312L26.5843 128.19ZM31.6925 109.299L32.1434 109.421L32.3027 108.832L31.6925 108.832V109.299ZM7.71875 109.299L7.71875 108.832L7.10861 108.832L7.26787 109.421L7.71875 109.299ZM12.827 128.657H26.5843V127.723H12.827V128.657ZM31.2416 109.177L26.1334 128.068L27.0352 128.312L32.1434 109.421L31.2416 109.177ZM7.71875 109.766L31.6925 109.766V108.832L7.71875 108.832L7.71875 109.766ZM13.2778 128.068L8.16963 109.177L7.26787 109.421L12.3761 128.312L13.2778 128.068Z" fill="#153230" mask="url(#path-5-inside-1_1845_16572)"/>
<path fill-rule="evenodd" clip-rule="evenodd" d="M84.921 84.7927H83.4247V88.5337H81.9298V84.7932H80.4335V88.5337H78.9342V84.7931H77.4378V88.5337H75.9363V84.7931H74.4399V88.5337H72.9495V84.793H71.4531V89.2821H71.4532V95.2673H90.9058V88.5337H90.9056V84.7929H89.4093V88.5337H87.9167V84.7928H86.4203V88.5337H84.921V84.7927Z" fill="#153230"/>
<rect x="67.4813" y="95.0347" width="26.6532" height="13.9342" fill="#FF7D05" stroke="#153230" stroke-width="0.46707"/>
<mask id="path-9-inside-2_1845_16572" fill="white">
<path fill-rule="evenodd" clip-rule="evenodd" d="M73.9267 128.189H87.6837L92.7921 109.297L68.8184 109.297L73.9267 128.189Z"/>
</mask>
<path fill-rule="evenodd" clip-rule="evenodd" d="M73.9267 128.189H87.6837L92.7921 109.297L68.8184 109.297L73.9267 128.189Z" fill="#FF7D05"/>
<path d="M73.9267 128.189L73.4759 128.311L73.5692 128.656H73.9267V128.189ZM87.6837 128.189V128.656H88.0413L88.1346 128.311L87.6837 128.189ZM92.7921 109.297L93.243 109.419L93.4023 108.83L92.7921 108.83V109.297ZM68.8184 109.297L68.8184 108.83L68.2082 108.83L68.3675 109.419L68.8184 109.297ZM73.9267 128.656H87.6837V127.722H73.9267V128.656ZM92.3412 109.176L87.2329 128.067L88.1346 128.311L93.243 109.419L92.3412 109.176ZM68.8184 109.765L92.7921 109.765V108.83L68.8184 108.83L68.8184 109.765ZM74.3776 128.067L69.2692 109.176L68.3675 109.419L73.4759 128.311L74.3776 128.067Z" fill="#153230" mask="url(#path-9-inside-2_1845_16572)"/>
<path fill-rule="evenodd" clip-rule="evenodd" d="M45.2693 1.74878L1.12695 58.9843H30V90H59V58.9843H88.2895L45.2693 1.74878Z" fill="#FF7D05"/>
<path d="M1.12695 58.9843L0.942028 58.8416L0.65192 59.2178H1.12695V58.9843ZM45.2693 1.74878L45.456 1.60846L45.2717 1.36328L45.0844 1.60616L45.2693 1.74878ZM30 58.9843H30.2335V58.7507H30V58.9843ZM30 90H29.7665V90.2335H30V90ZM59 90V90.2335H59.2335V90H59ZM59 58.9843V58.7507H58.7665V58.9843H59ZM88.2895 58.9843V59.2178H88.7572L88.4762 58.8439L88.2895 58.9843ZM1.31188 59.1269L45.4543 1.8914L45.0844 1.60616L0.942028 58.8416L1.31188 59.1269ZM30 58.7507H1.12695V59.2178H30V58.7507ZM30.2335 90V58.9843H29.7665V90H30.2335ZM59 89.7665H30V90.2335H59V89.7665ZM58.7665 58.9843V90H59.2335V58.9843H58.7665ZM88.2895 58.7507H59V59.2178H88.2895V58.7507ZM45.0827 1.8891L88.1028 59.1246L88.4762 58.8439L45.456 1.60846L45.0827 1.8891Z" fill="#153230"/>
<path fill-rule="evenodd" clip-rule="evenodd" d="M83.0445 145C82.811 139.401 82.5317 133.659 82.2008 127.769L79.8691 127.9C80.1976 133.746 80.4752 139.445 80.7076 145H83.0445Z" fill="#FF7D05"/>
<path fill-rule="evenodd" clip-rule="evenodd" d="M16.9805 145H19.3176C19.556 139.422 19.8477 133.724 20.1991 127.905L17.868 127.764C17.5137 133.631 17.2201 139.376 16.9805 145Z" fill="#FF7D05"/>
</svg>
