<svg width="77" height="74" viewBox="0 0 77 74" fill="none" xmlns="http://www.w3.org/2000/svg">
<path fill-rule="evenodd" clip-rule="evenodd" d="M40.5 73.1401C60.6584 73.1401 77 56.7985 77 36.6401C77 16.4817 60.6584 0.140137 40.5 0.140137C20.3416 0.140137 4 16.4817 4 36.6401C4 42.084 5.19178 47.2495 7.32866 51.89L0 66.1401L15.5449 63.2766C22.0719 69.3941 30.8485 73.1401 40.5 73.1401Z" fill="#3B5998"/>
<path d="M46.3406 13.2722H21.6633C20.818 13.2722 20.1328 13.9574 20.1328 14.8027V39.48C20.1328 40.3253 20.818 41.0105 21.6633 41.0105H46.3406C47.1859 41.0105 47.8711 40.3253 47.8711 39.48V14.8027C47.8711 13.9574 47.1859 13.2722 46.3406 13.2722Z" fill="#3D5A98"/>
<path d="M39.268 41.008V30.2666H42.8727L43.4117 26.0807H39.268V23.4088C39.268 22.1971 39.6055 21.3698 41.3422 21.3698H43.5594V17.6198C42.4857 17.5079 41.4068 17.4547 40.3273 17.4604C37.1352 17.4604 34.9367 19.4057 34.9367 22.994V26.0807H31.332V30.2666H34.9367V41.008H39.268Z" fill="white"/>
<path d="M29.3253 47.4129V56.1401H27.7443V48.9512H27.6932L25.652 50.2552V48.8063L27.821 47.4129H29.3253ZM34.6733 56.2595C34.0597 56.2595 33.5142 56.1543 33.0369 55.9441C32.5625 55.7339 32.1875 55.4413 31.9119 55.0663C31.6364 54.6913 31.4901 54.258 31.473 53.7666H33.0753C33.0895 54.0024 33.1676 54.2083 33.3097 54.3845C33.4517 54.5578 33.6406 54.6927 33.8764 54.7893C34.1122 54.8859 34.3764 54.9342 34.669 54.9342C34.9815 54.9342 35.2585 54.8802 35.5 54.7722C35.7415 54.6614 35.9304 54.508 36.0668 54.312C36.2031 54.116 36.2699 53.8901 36.267 53.6345C36.2699 53.3703 36.2017 53.1373 36.0625 52.9356C35.9233 52.7339 35.7216 52.5762 35.4574 52.4626C35.196 52.3489 34.8807 52.2921 34.5114 52.2921H33.7401V51.0734H34.5114C34.8153 51.0734 35.081 51.0208 35.3082 50.9157C35.5384 50.8106 35.7188 50.6629 35.8494 50.4725C35.9801 50.2793 36.044 50.0563 36.0412 49.8035C36.044 49.5563 35.9886 49.3418 35.875 49.16C35.7642 48.9754 35.6065 48.8319 35.402 48.7296C35.2003 48.6274 34.9631 48.5762 34.6903 48.5762C34.4233 48.5762 34.1761 48.6245 33.9489 48.7211C33.7216 48.8177 33.5384 48.9555 33.3991 49.1345C33.2599 49.3106 33.1861 49.5208 33.1776 49.7651H31.6562C31.6676 49.2765 31.8082 48.8475 32.0781 48.4782C32.3509 48.106 32.7145 47.8163 33.169 47.6089C33.6236 47.3987 34.1335 47.2935 34.6989 47.2935C35.2813 47.2935 35.7869 47.4029 36.2159 47.6217C36.6477 47.8376 36.9815 48.1288 37.2173 48.4953C37.4531 48.8617 37.571 49.2666 37.571 49.7097C37.5739 50.2012 37.429 50.6131 37.1364 50.9455C36.8466 51.2779 36.4659 51.4953 35.9943 51.5975V51.6657C36.608 51.7509 37.0781 51.9782 37.4048 52.3475C37.7344 52.714 37.8977 53.17 37.8949 53.7154C37.8949 54.2041 37.7557 54.6416 37.4773 55.0279C37.2017 55.4114 36.821 55.7126 36.3352 55.9313C35.8523 56.1501 35.2983 56.2595 34.6733 56.2595ZM39.3576 56.1401V54.9981L42.3874 52.0279C42.6772 51.7353 42.9187 51.4754 43.1119 51.2481C43.305 51.0208 43.4499 50.8006 43.5465 50.5876C43.6431 50.3745 43.6914 50.1472 43.6914 49.9058C43.6914 49.6302 43.6289 49.3944 43.5039 49.1984C43.3789 48.9995 43.207 48.8461 42.9883 48.7381C42.7695 48.6302 42.521 48.5762 42.2425 48.5762C41.9556 48.5762 41.7042 48.6359 41.4883 48.7552C41.2724 48.8717 41.1048 49.0379 40.9854 49.2538C40.869 49.4697 40.8107 49.7268 40.8107 50.0251H39.3065C39.3065 49.4711 39.4329 48.9896 39.6857 48.5805C39.9386 48.1714 40.2866 47.8546 40.7298 47.6302C41.1758 47.4058 41.6871 47.2935 42.2638 47.2935C42.8491 47.2935 43.3633 47.4029 43.8065 47.6217C44.2496 47.8404 44.5934 48.1401 44.8377 48.5208C45.0849 48.9015 45.2085 49.3362 45.2085 49.8248C45.2085 50.1515 45.146 50.4725 45.021 50.7879C44.896 51.1032 44.6758 51.4526 44.3604 51.8362C44.0479 52.2197 43.609 52.6842 43.0437 53.2296L41.5394 54.7595V54.8191H45.3406V56.1401H39.3576ZM50.3604 47.4129V56.1401H48.7795V48.9512H48.7283L46.6871 50.2552V48.8063L48.8562 47.4129H50.3604Z" fill="white"/>
</svg>
