<svg width="208" height="66" viewBox="0 0 208 66" fill="none" xmlns="http://www.w3.org/2000/svg">
<path d="M87.9939 58.3895L88.16 57.3957H93.3818L93.2156 58.3895H91.1927L90.2724 63.9404H89.0964L90.0167 58.3895H87.9939ZM94.8869 61.0643L94.414 63.9404H93.254L94.3405 57.3957H95.475L95.0659 59.8659H95.1266C95.2821 59.5868 95.4941 59.3674 95.7626 59.2076C96.0331 59.0478 96.358 58.9679 96.7373 58.9679C97.0739 58.9679 97.3572 59.0393 97.5873 59.1821C97.8174 59.3248 97.9793 59.5336 98.073 59.8084C98.1689 60.0832 98.1849 60.4188 98.121 60.8151L97.5969 63.9404H96.4369L96.929 60.994C96.9823 60.6638 96.9386 60.4071 96.798 60.2238C96.6595 60.0385 96.4401 59.9458 96.1397 59.9458C95.933 59.9458 95.7423 59.9906 95.5676 60.08C95.3929 60.1674 95.2459 60.2942 95.1266 60.4603C95.0095 60.6265 94.9296 60.8278 94.8869 61.0643ZM100.93 64.0363C100.438 64.0363 100.031 63.934 99.7092 63.7295C99.3875 63.5229 99.1617 63.231 99.0318 62.8539C98.9039 62.4747 98.8826 62.0283 98.9678 61.5149C99.0509 61.01 99.2203 60.5669 99.476 60.1855C99.7316 59.802 100.051 59.5038 100.435 59.2907C100.82 59.0755 101.246 58.9679 101.713 58.9679C102.015 58.9679 102.293 59.0169 102.547 59.1149C102.801 59.2108 103.015 59.3599 103.189 59.5623C103.364 59.7647 103.484 60.0225 103.55 60.3357C103.616 60.6467 103.613 61.0174 103.541 61.4478L103.487 61.8025H99.46L99.5846 61.0228H102.499C102.537 60.8012 102.525 60.6041 102.461 60.4316C102.397 60.2569 102.29 60.1195 102.141 60.0193C101.992 59.9192 101.806 59.8691 101.582 59.8691C101.354 59.8691 101.141 59.9277 100.943 60.0449C100.747 60.1599 100.582 60.3091 100.447 60.4923C100.313 60.6755 100.228 60.8683 100.192 61.0707L100.061 61.8185C100.014 62.1253 100.025 62.3756 100.093 62.5695C100.161 62.7634 100.28 62.9061 100.451 62.9977C100.621 63.0893 100.836 63.1351 101.096 63.1351C101.267 63.1351 101.424 63.1117 101.569 63.0648C101.714 63.0179 101.843 62.9476 101.956 62.8539C102.071 62.758 102.167 62.6409 102.243 62.5024L103.301 62.6238C103.184 62.9093 103.013 63.1586 102.787 63.3716C102.561 63.5825 102.29 63.7466 101.975 63.8637C101.662 63.9788 101.313 64.0363 100.93 64.0363ZM107.981 61.0643L107.508 63.9404H106.348L107.166 59.0319H108.275L108.135 59.8659H108.195C108.349 59.5911 108.564 59.3727 108.841 59.2108C109.118 59.0489 109.441 58.9679 109.809 58.9679C110.144 58.9679 110.425 59.0404 110.653 59.1853C110.881 59.328 111.043 59.5378 111.139 59.8148C111.234 60.0896 111.249 60.423 111.183 60.8151L110.659 63.9404H109.502L109.991 60.994C110.047 60.668 110.005 60.4124 109.867 60.227C109.73 60.0396 109.511 59.9458 109.208 59.9458C109.006 59.9458 108.82 59.9906 108.649 60.08C108.479 60.1674 108.335 60.2942 108.218 60.4603C108.103 60.6265 108.024 60.8278 107.981 61.0643ZM113.989 64.0363C113.497 64.0363 113.09 63.934 112.768 63.7295C112.447 63.5229 112.221 63.231 112.091 62.8539C111.963 62.4747 111.942 62.0283 112.027 61.5149C112.11 61.01 112.279 60.5669 112.535 60.1855C112.791 59.802 113.11 59.5038 113.494 59.2907C113.879 59.0755 114.306 58.9679 114.772 58.9679C115.075 58.9679 115.353 59.0169 115.606 59.1149C115.86 59.2108 116.074 59.3599 116.248 59.5623C116.423 59.7647 116.544 60.0225 116.61 60.3357C116.676 60.6467 116.672 61.0174 116.6 61.4478L116.546 61.8025H112.519L112.644 61.0228H115.558C115.597 60.8012 115.584 60.6041 115.52 60.4316C115.456 60.2569 115.349 60.1195 115.2 60.0193C115.051 59.9192 114.865 59.8691 114.641 59.8691C114.413 59.8691 114.2 59.9277 114.002 60.0449C113.806 60.1599 113.641 60.3091 113.507 60.4923C113.372 60.6755 113.287 60.8683 113.251 61.0707L113.12 61.8185C113.073 62.1253 113.084 62.3756 113.152 62.5695C113.22 62.7634 113.339 62.9061 113.51 62.9977C113.68 63.0893 113.895 63.1351 114.155 63.1351C114.326 63.1351 114.483 63.1117 114.628 63.0648C114.773 63.0179 114.902 62.9476 115.015 62.8539C115.13 62.758 115.226 62.6409 115.303 62.5024L116.36 62.6238C116.243 62.9093 116.072 63.1586 115.846 63.3716C115.62 63.5825 115.349 63.7466 115.034 63.8637C114.721 63.9788 114.373 64.0363 113.989 64.0363ZM118.831 59.0319L119.521 60.8438L120.828 59.0319H122.052L120.163 61.4861L121.259 63.9404H120.042L119.297 62.1732L117.974 63.9404H116.747L118.652 61.4861L117.603 59.0319H118.831ZM125.398 59.0319L125.248 59.9267H122.429L122.576 59.0319H125.398ZM123.464 57.8558H124.621L123.854 62.464C123.831 62.6195 123.835 62.7389 123.867 62.8219C123.901 62.9029 123.955 62.9583 124.03 62.9881C124.107 63.0179 124.193 63.0329 124.289 63.0329C124.359 63.0329 124.425 63.0275 124.487 63.0169C124.549 63.0041 124.598 62.9945 124.634 62.9881L124.685 63.8925C124.615 63.9138 124.52 63.9372 124.401 63.9628C124.284 63.9884 124.143 64.0033 123.979 64.0075C123.685 64.0139 123.429 63.9692 123.212 63.8733C122.997 63.7753 122.839 63.6251 122.739 63.4227C122.641 63.2182 122.619 62.9626 122.672 62.6558L123.464 57.8558ZM131.049 59.0319L130.898 59.9267H128.08L128.227 59.0319H131.049ZM129.115 57.8558H130.272L129.505 62.464C129.482 62.6195 129.486 62.7389 129.518 62.8219C129.552 62.9029 129.606 62.9583 129.681 62.9881C129.757 63.0179 129.844 63.0329 129.94 63.0329C130.01 63.0329 130.076 63.0275 130.138 63.0169C130.2 63.0041 130.249 62.9945 130.285 62.9881L130.336 63.8925C130.266 63.9138 130.171 63.9372 130.051 63.9628C129.934 63.9884 129.794 64.0033 129.63 64.0075C129.336 64.0139 129.08 63.9692 128.863 63.8733C128.647 63.7753 128.49 63.6251 128.39 63.4227C128.292 63.2182 128.269 62.9626 128.323 62.6558L129.115 57.8558ZM133.305 64.0363C132.813 64.0363 132.406 63.934 132.085 63.7295C131.763 63.5229 131.537 63.231 131.407 62.8539C131.279 62.4747 131.258 62.0283 131.343 61.5149C131.426 61.01 131.596 60.5669 131.851 60.1855C132.107 59.802 132.427 59.5038 132.81 59.2907C133.196 59.0755 133.622 58.9679 134.088 58.9679C134.391 58.9679 134.669 59.0169 134.922 59.1149C135.176 59.2108 135.39 59.3599 135.565 59.5623C135.74 59.7647 135.86 60.0225 135.926 60.3357C135.992 60.6467 135.989 61.0174 135.916 61.4478L135.862 61.8025H131.835L131.96 61.0228H134.875C134.913 60.8012 134.9 60.6041 134.836 60.4316C134.772 60.2569 134.666 60.1195 134.517 60.0193C134.367 59.9192 134.181 59.8691 133.957 59.8691C133.729 59.8691 133.516 59.9277 133.318 60.0449C133.122 60.1599 132.957 60.3091 132.823 60.4923C132.689 60.6755 132.603 60.8683 132.567 61.0707L132.436 61.8185C132.389 62.1253 132.4 62.3756 132.468 62.5695C132.536 62.7634 132.656 62.9061 132.826 62.9977C132.997 63.0893 133.212 63.1351 133.472 63.1351C133.642 63.1351 133.8 63.1117 133.945 63.0648C134.089 63.0179 134.218 62.9476 134.331 62.8539C134.446 62.758 134.542 62.6409 134.619 62.5024L135.677 62.6238C135.559 62.9093 135.388 63.1586 135.162 63.3716C134.936 63.5825 134.666 63.7466 134.35 63.8637C134.037 63.9788 133.689 64.0363 133.305 64.0363ZM138.617 64.0363C138.127 64.0363 137.724 63.9287 137.409 63.7135C137.093 63.4984 136.873 63.2012 136.747 62.8219C136.624 62.4406 136.603 62.0017 136.686 61.5053C136.767 61.0068 136.935 60.5669 137.188 60.1855C137.444 59.802 137.766 59.5038 138.153 59.2907C138.541 59.0755 138.975 58.9679 139.454 58.9679C139.852 58.9679 140.192 59.0414 140.473 59.1884C140.757 59.3333 140.968 59.5389 141.106 59.8052C141.247 60.0694 141.301 60.3783 141.269 60.732H140.16C140.156 60.4955 140.082 60.2984 139.94 60.1408C139.797 59.981 139.588 59.9011 139.313 59.9011C139.075 59.9011 138.855 59.965 138.655 60.0928C138.455 60.2185 138.285 60.3996 138.147 60.6361C138.008 60.8726 137.913 61.1559 137.859 61.4861C137.804 61.8206 137.805 62.1082 137.863 62.349C137.922 62.5876 138.03 62.7719 138.185 62.9018C138.343 63.0297 138.542 63.0936 138.783 63.0936C138.953 63.0936 139.112 63.0616 139.259 62.9977C139.406 62.9317 139.535 62.8369 139.646 62.7133C139.759 62.5897 139.847 62.4395 139.911 62.2627H141.017C140.929 62.61 140.774 62.9178 140.55 63.1862C140.329 63.4526 140.054 63.6613 139.726 63.8126C139.397 63.9617 139.028 64.0363 138.617 64.0363ZM143.318 61.0643L142.845 63.9404H141.685L142.772 57.3957H143.906L143.497 59.8659H143.558C143.714 59.5868 143.926 59.3674 144.194 59.2076C144.465 59.0478 144.789 58.9679 145.169 58.9679C145.505 58.9679 145.789 59.0393 146.019 59.1821C146.249 59.3248 146.411 59.5336 146.504 59.8084C146.6 60.0832 146.616 60.4188 146.552 60.8151L146.028 63.9404H144.868L145.36 60.994C145.414 60.6638 145.37 60.4071 145.229 60.2238C145.091 60.0385 144.871 59.9458 144.571 59.9458C144.364 59.9458 144.174 59.9906 143.999 60.08C143.824 60.1674 143.677 60.2942 143.558 60.4603C143.441 60.6265 143.361 60.8278 143.318 61.0643ZM151.594 64.0363C151.101 64.0363 150.695 63.934 150.373 63.7295C150.051 63.5229 149.825 63.231 149.695 62.8539C149.567 62.4747 149.546 62.0283 149.631 61.5149C149.714 61.01 149.884 60.5669 150.14 60.1855C150.395 59.802 150.715 59.5038 151.098 59.2907C151.484 59.0755 151.91 58.9679 152.376 58.9679C152.679 58.9679 152.957 59.0169 153.211 59.1149C153.464 59.2108 153.678 59.3599 153.853 59.5623C154.028 59.7647 154.148 60.0225 154.214 60.3357C154.28 60.6467 154.277 61.0174 154.204 61.4478L154.15 61.8025H150.124L150.248 61.0228H153.163C153.201 60.8012 153.188 60.6041 153.124 60.4316C153.06 60.2569 152.954 60.1195 152.805 60.0193C152.656 59.9192 152.469 59.8691 152.245 59.8691C152.018 59.8691 151.804 59.9277 151.606 60.0449C151.41 60.1599 151.245 60.3091 151.111 60.4923C150.977 60.6755 150.892 60.8683 150.855 61.0707L150.724 61.8185C150.677 62.1253 150.688 62.3756 150.756 62.5695C150.824 62.7634 150.944 62.9061 151.114 62.9977C151.285 63.0893 151.5 63.1351 151.76 63.1351C151.93 63.1351 152.088 63.1117 152.233 63.0648C152.378 63.0179 152.506 62.9476 152.619 62.8539C152.734 62.758 152.83 62.6409 152.907 62.5024L153.965 62.6238C153.848 62.9093 153.676 63.1586 153.45 63.3716C153.224 63.5825 152.954 63.7466 152.639 63.8637C152.325 63.9788 151.977 64.0363 151.594 64.0363ZM159.838 59.0319L157.272 63.9404H155.994L155.064 59.0319H156.253L156.777 62.6781H156.828L158.563 59.0319H159.838ZM161.808 64.0363C161.324 64.0363 160.921 63.9298 160.6 63.7167C160.28 63.5037 160.055 63.2044 159.926 62.8187C159.796 62.4331 159.772 61.9857 159.855 61.4766C159.938 60.9738 160.104 60.5338 160.354 60.1567C160.605 59.7796 160.921 59.4878 161.303 59.2811C161.686 59.0723 162.116 58.9679 162.591 58.9679C163.074 58.9679 163.476 59.0755 163.795 59.2907C164.115 59.5038 164.34 59.8031 164.47 60.1887C164.602 60.5743 164.626 61.0238 164.543 61.5373C164.462 62.0379 164.295 62.4757 164.042 62.8507C163.79 63.2257 163.474 63.5175 163.092 63.7263C162.711 63.933 162.283 64.0363 161.808 64.0363ZM161.904 63.1096C162.172 63.1096 162.407 63.0371 162.61 62.8922C162.814 62.7452 162.982 62.5482 163.112 62.301C163.244 62.0518 163.335 61.7748 163.386 61.4702C163.433 61.1762 163.434 60.9099 163.39 60.6712C163.345 60.4305 163.249 60.2398 163.102 60.0992C162.957 59.9565 162.756 59.8851 162.498 59.8851C162.23 59.8851 161.992 59.9597 161.785 60.1088C161.581 60.2558 161.414 60.4539 161.284 60.7032C161.154 60.9503 161.064 61.2262 161.015 61.5309C160.966 61.8249 160.964 62.0912 161.009 62.3298C161.054 62.5684 161.149 62.758 161.296 62.8986C161.443 63.0392 161.646 63.1096 161.904 63.1096ZM167.372 57.3957L166.286 63.9404H165.129L166.215 57.3957H167.372ZM170.946 61.876L171.422 59.0319H172.579L171.761 63.9404H170.639L170.786 63.068H170.735C170.582 63.3428 170.362 63.5676 170.077 63.7423C169.793 63.917 169.467 64.0043 169.099 64.0043C168.777 64.0043 168.505 63.933 168.284 63.7902C168.062 63.6454 167.905 63.4355 167.811 63.1607C167.719 62.8837 167.705 62.5492 167.769 62.1572L168.293 59.0319H169.45L168.958 61.9783C168.909 62.2893 168.954 62.5365 169.092 62.7197C169.233 62.9029 169.442 62.9945 169.719 62.9945C169.889 62.9945 170.061 62.953 170.233 62.8699C170.408 62.7868 170.56 62.6632 170.69 62.4992C170.82 62.333 170.905 62.1253 170.946 61.876ZM176.219 59.0319L176.069 59.9267H173.251L173.398 59.0319H176.219ZM174.286 57.8558H175.443L174.676 62.464C174.653 62.6195 174.657 62.7389 174.689 62.8219C174.723 62.9029 174.777 62.9583 174.852 62.9881C174.928 63.0179 175.015 63.0329 175.111 63.0329C175.181 63.0329 175.247 63.0275 175.309 63.0169C175.371 63.0041 175.42 62.9945 175.456 62.9881L175.507 63.8925C175.437 63.9138 175.342 63.9372 175.222 63.9628C175.105 63.9884 174.965 64.0033 174.801 64.0075C174.507 64.0139 174.251 63.9692 174.034 63.8733C173.818 63.7753 173.661 63.6251 173.561 63.4227C173.463 63.2182 173.44 62.9626 173.494 62.6558L174.286 57.8558ZM176.369 63.9404L177.187 59.0319H178.344L177.526 63.9404H176.369ZM177.935 58.3288C177.749 58.3288 177.596 58.267 177.475 58.1435C177.353 58.0199 177.3 57.8718 177.315 57.6993C177.33 57.5267 177.407 57.3786 177.548 57.2551C177.691 57.1315 177.854 57.0697 178.037 57.0697C178.222 57.0697 178.375 57.1315 178.494 57.2551C178.615 57.3786 178.669 57.5267 178.654 57.6993C178.641 57.8718 178.563 58.0199 178.421 58.1435C178.28 58.267 178.118 58.3288 177.935 58.3288ZM180.869 64.0363C180.386 64.0363 179.983 63.9298 179.661 63.7167C179.342 63.5037 179.117 63.2044 178.987 62.8187C178.857 62.4331 178.834 61.9857 178.917 61.4766C179 60.9738 179.166 60.5338 179.415 60.1567C179.667 59.7796 179.983 59.4878 180.364 59.2811C180.748 59.0723 181.177 58.9679 181.652 58.9679C182.136 58.9679 182.537 59.0755 182.857 59.2907C183.177 59.5038 183.401 59.8031 183.531 60.1887C183.663 60.5743 183.688 61.0238 183.605 61.5373C183.524 62.0379 183.357 62.4757 183.103 62.8507C182.852 63.2257 182.535 63.5175 182.154 63.7263C181.773 63.933 181.344 64.0363 180.869 64.0363ZM180.965 63.1096C181.234 63.1096 181.469 63.0371 181.671 62.8922C181.876 62.7452 182.043 62.5482 182.173 62.301C182.305 62.0518 182.397 61.7748 182.448 61.4702C182.495 61.1762 182.496 60.9099 182.451 60.6712C182.406 60.4305 182.31 60.2398 182.163 60.0992C182.019 59.9565 181.817 59.8851 181.559 59.8851C181.291 59.8851 181.054 59.9597 180.847 60.1088C180.642 60.2558 180.475 60.4539 180.345 60.7032C180.215 60.9503 180.126 61.2262 180.077 61.5309C180.028 61.8249 180.026 62.0912 180.07 62.3298C180.115 62.5684 180.211 62.758 180.358 62.8986C180.505 63.0392 180.707 63.1096 180.965 63.1096ZM185.827 61.0643L185.354 63.9404H184.194L185.012 59.0319H186.121L185.98 59.8659H186.041C186.194 59.5911 186.409 59.3727 186.686 59.2108C186.963 59.0489 187.286 58.9679 187.654 58.9679C187.989 58.9679 188.27 59.0404 188.498 59.1853C188.726 59.328 188.888 59.5378 188.984 59.8148C189.08 60.0896 189.095 60.423 189.029 60.8151L188.505 63.9404H187.348L187.837 60.994C187.892 60.668 187.85 60.4124 187.712 60.227C187.576 60.0396 187.356 59.9458 187.054 59.9458C186.851 59.9458 186.665 59.9906 186.494 60.08C186.324 60.1674 186.18 60.2942 186.063 60.4603C185.948 60.6265 185.869 60.8278 185.827 61.0643ZM190.454 64.0107C190.258 64.0107 190.096 63.9426 189.968 63.8062C189.84 63.6699 189.781 63.5037 189.789 63.3077C189.798 63.1159 189.875 62.953 190.022 62.8187C190.169 62.6845 190.339 62.6174 190.531 62.6174C190.72 62.6174 190.881 62.6856 191.013 62.8219C191.147 62.9583 191.208 63.1202 191.195 63.3077C191.187 63.4398 191.146 63.5591 191.074 63.6656C191.004 63.7721 190.914 63.8563 190.805 63.9181C190.697 63.9798 190.58 64.0107 190.454 64.0107ZM193.064 64.0107C192.868 64.0107 192.706 63.9426 192.578 63.8062C192.45 63.6699 192.391 63.5037 192.399 63.3077C192.408 63.1159 192.486 62.953 192.633 62.8187C192.78 62.6845 192.949 62.6174 193.141 62.6174C193.33 62.6174 193.491 62.6856 193.623 62.8219C193.757 62.9583 193.818 63.1202 193.805 63.3077C193.797 63.4398 193.756 63.5591 193.684 63.6656C193.614 63.7721 193.524 63.8563 193.415 63.9181C193.307 63.9798 193.19 64.0107 193.064 64.0107ZM195.674 64.0107C195.478 64.0107 195.316 63.9426 195.188 63.8062C195.06 63.6699 195.001 63.5037 195.009 63.3077C195.018 63.1159 195.096 62.953 195.243 62.8187C195.39 62.6845 195.559 62.6174 195.751 62.6174C195.94 62.6174 196.101 62.6856 196.233 62.8219C196.367 62.9583 196.428 63.1202 196.415 63.3077C196.407 63.4398 196.366 63.5591 196.294 63.6656C196.224 63.7721 196.134 63.8563 196.026 63.9181C195.917 63.9798 195.8 64.0107 195.674 64.0107Z" fill="white"/>
<rect x="24.3881" y="55.8882" width="16.7602" height="2.56688" rx="1.13245" fill="#4AB68E" stroke="white" stroke-width="0.754965"/>
<rect x="24.3881" y="59.815" width="15.0993" height="2.56688" rx="1.13245" fill="#4AB68E" stroke="white" stroke-width="0.754965"/>
<rect x="42.3559" y="55.8882" width="3.17085" height="2.56688" rx="1.13245" fill="#4AB68E" stroke="white" stroke-width="0.754965"/>
<rect x="46.5832" y="55.8882" width="13.5894" height="2.56688" rx="1.13245" fill="#4AB68E" stroke="white" stroke-width="0.754965"/>
<rect x="20.7637" y="51.9615" width="43.637" height="2.56688" rx="1.13245" fill="#4AB68E" stroke="white" stroke-width="0.754965"/>
<rect x="18.7995" y="48.0367" width="50.1297" height="2.56688" rx="1.13245" fill="#4AB68E" stroke="white" stroke-width="0.754965"/>
<rect x="16.234" y="44.1109" width="55.1124" height="2.56688" rx="1.13245" fill="#4AB68E" stroke="white" stroke-width="0.754965"/>
<rect x="19.7068" y="40.1841" width="53.3005" height="2.56688" rx="1.13245" fill="#4AB68E" stroke="white" stroke-width="0.754965"/>
<rect x="13.3663" y="36.2583" width="59.6422" height="2.56688" rx="1.13245" fill="#4AB68E" stroke="white" stroke-width="0.754965"/>
<rect x="10.4958" y="32.3316" width="26.5748" height="2.56688" rx="1.13245" fill="#4AB68E" stroke="white" stroke-width="0.754965"/>
<rect x="41.9028" y="32.3316" width="14.3443" height="2.56688" rx="1.13245" fill="#4AB68E" stroke="white" stroke-width="0.754965"/>
<rect x="60.9277" y="32.3316" width="12.9854" height="2.56688" rx="1.13245" fill="#4AB68E" stroke="white" stroke-width="0.754965"/>
<rect x="60.9277" y="32.3316" width="14.3443" height="2.56688" rx="1.13245" fill="#4AB68E" stroke="white" stroke-width="0.754965"/>
<rect x="46.5832" y="29.0118" width="3.92582" height="2.56688" rx="1.13245" fill="#4AB68E" stroke="white" stroke-width="0.754965"/>
<rect x="65.4573" y="28.4068" width="13.1364" height="2.56688" rx="1.13245" fill="#4AB68E" stroke="white" stroke-width="0.754965"/>
<rect x="67.873" y="24.481" width="14.4953" height="2.56688" rx="1.13245" fill="#4AB68E" stroke="white" stroke-width="0.754965"/>
<rect x="66.3627" y="20.5542" width="16.9112" height="2.56688" rx="1.13245" fill="#4AB68E" stroke="white" stroke-width="0.754965"/>
<rect x="71.045" y="16.6294" width="5.28475" height="2.56688" rx="1.13245" fill="#4AB68E" stroke="white" stroke-width="0.754965"/>
<rect x="7.32548" y="28.4068" width="30.6516" height="2.56688" rx="1.13245" fill="#4AB68E" stroke="white" stroke-width="0.754965"/>
<rect x="4.0037" y="24.481" width="33.0675" height="2.56688" rx="1.13245" fill="#4AB68E" stroke="white" stroke-width="0.754965"/>
<rect x="4.0037" y="20.5542" width="33.0675" height="2.56688" rx="1.13245" fill="#4AB68E" stroke="white" stroke-width="0.754965"/>
<rect x="0.379435" y="16.6294" width="36.6913" height="2.56688" rx="1.13245" fill="#4AB68E" stroke="white" stroke-width="0.754965"/>
<rect x="4.0037" y="12.7037" width="33.9734" height="2.56688" rx="1.13245" fill="#4AB68E" stroke="white" stroke-width="0.754965"/>
<rect x="8.53251" y="8.77885" width="6.94567" height="2.56688" rx="1.13245" fill="#4AB68E" stroke="white" stroke-width="0.754965"/>
<rect x="19.1028" y="8.77885" width="15.4013" height="2.56688" rx="1.13245" fill="#4AB68E" stroke="white" stroke-width="0.754965"/>
<rect x="20.7637" y="4.85063" width="5.88872" height="2.56688" rx="1.13245" fill="#4AB68E" stroke="white" stroke-width="0.754965"/>
<rect x="21.3669" y="1.07719" width="4.2278" height="2.56688" rx="1.13245" fill="#4AB68E" stroke="white" stroke-width="0.754965"/>
<rect x="24.3881" y="55.8882" width="16.7602" height="2.56688" rx="1.13245" fill="#4AB68E" stroke="white" stroke-width="0.754965"/>
<rect x="24.3881" y="59.815" width="15.0993" height="2.56688" rx="1.13245" fill="#4AB68E" stroke="white" stroke-width="0.754965"/>
<rect x="42.3559" y="55.8882" width="3.17085" height="2.56688" rx="1.13245" fill="#4AB68E" stroke="white" stroke-width="0.754965"/>
<rect x="46.5832" y="55.8882" width="13.5894" height="2.56688" rx="1.13245" fill="#4AB68E" stroke="white" stroke-width="0.754965"/>
<rect x="20.7637" y="51.9615" width="43.637" height="2.56688" rx="1.13245" fill="#4AB68E" stroke="white" stroke-width="0.754965"/>
<rect x="18.7995" y="48.0367" width="50.1297" height="2.56688" rx="1.13245" fill="#4AB68E" stroke="white" stroke-width="0.754965"/>
<rect x="16.234" y="44.1109" width="55.1124" height="2.56688" rx="1.13245" fill="#4AB68E" stroke="white" stroke-width="0.754965"/>
<rect x="19.7068" y="40.1841" width="53.3005" height="2.56688" rx="1.13245" fill="#4AB68E" stroke="white" stroke-width="0.754965"/>
<rect x="13.3663" y="36.2583" width="59.6422" height="2.56688" rx="1.13245" fill="#4AB68E" stroke="white" stroke-width="0.754965"/>
<rect x="10.4958" y="32.3316" width="26.5748" height="2.56688" rx="1.13245" fill="#4AB68E" stroke="white" stroke-width="0.754965"/>
<rect x="41.9028" y="32.3316" width="14.3443" height="2.56688" rx="1.13245" fill="#4AB68E" stroke="white" stroke-width="0.754965"/>
<rect x="60.9277" y="32.3316" width="12.9854" height="2.56688" rx="1.13245" fill="#4AB68E" stroke="white" stroke-width="0.754965"/>
<rect x="60.9277" y="32.3316" width="14.3443" height="2.56688" rx="1.13245" fill="#4AB68E" stroke="white" stroke-width="0.754965"/>
<rect x="46.5832" y="29.0118" width="3.92582" height="2.56688" rx="1.13245" fill="#4AB68E" stroke="white" stroke-width="0.754965"/>
<rect x="65.4573" y="28.4068" width="13.1364" height="2.56688" rx="1.13245" fill="#4AB68E" stroke="white" stroke-width="0.754965"/>
<rect x="67.873" y="24.481" width="14.4953" height="2.56688" rx="1.13245" fill="#4AB68E" stroke="white" stroke-width="0.754965"/>
<rect x="66.3627" y="20.5542" width="16.9112" height="2.56688" rx="1.13245" fill="#4AB68E" stroke="white" stroke-width="0.754965"/>
<rect x="71.045" y="16.6294" width="5.28475" height="2.56688" rx="1.13245" fill="#4AB68E" stroke="white" stroke-width="0.754965"/>
<rect x="7.32548" y="28.4068" width="30.6516" height="2.56688" rx="1.13245" fill="#4AB68E" stroke="white" stroke-width="0.754965"/>
<rect x="4.0037" y="24.481" width="33.0675" height="2.56688" rx="1.13245" fill="#4AB68E" stroke="white" stroke-width="0.754965"/>
<rect x="4.0037" y="20.5542" width="33.0675" height="2.56688" rx="1.13245" fill="#4AB68E" stroke="white" stroke-width="0.754965"/>
<rect x="0.379435" y="16.6294" width="36.6913" height="2.56688" rx="1.13245" fill="#4AB68E" stroke="white" stroke-width="0.754965"/>
<rect x="4.0037" y="12.7037" width="33.9734" height="2.56688" rx="1.13245" fill="#4AB68E" stroke="white" stroke-width="0.754965"/>
<rect x="8.53251" y="8.77885" width="6.94567" height="2.56688" rx="1.13245" fill="#4AB68E" stroke="white" stroke-width="0.754965"/>
<rect x="19.1028" y="8.77885" width="15.4013" height="2.56688" rx="1.13245" fill="#4AB68E" stroke="white" stroke-width="0.754965"/>
<rect x="20.7637" y="4.85063" width="5.88872" height="2.56688" rx="1.13245" fill="#4AB68E" stroke="white" stroke-width="0.754965"/>
<rect x="21.3669" y="1.07719" width="4.2278" height="2.56688" rx="1.13245" fill="#4AB68E" stroke="white" stroke-width="0.754965"/>
<path d="M95.9215 17.6815C95.875 17.1703 95.6682 16.773 95.3011 16.4895C94.9386 16.2014 94.4205 16.0573 93.7467 16.0573C93.3005 16.0573 92.9288 16.1154 92.6314 16.2316C92.334 16.3478 92.1109 16.5081 91.9622 16.7126C91.8135 16.9124 91.7368 17.1424 91.7322 17.4026C91.7229 17.6164 91.7647 17.8046 91.8576 17.9673C91.9552 18.1299 92.0946 18.274 92.2759 18.3994C92.4618 18.5203 92.6848 18.6271 92.945 18.7201C93.2053 18.813 93.498 18.8943 93.8233 18.9641L95.0502 19.2429C95.7565 19.3962 96.3792 19.6007 96.9183 19.8563C97.462 20.1119 97.9174 20.4163 98.2845 20.7694C98.6563 21.1226 98.9374 21.5292 99.1279 21.9893C99.3185 22.4493 99.416 22.9652 99.4207 23.5367C99.416 24.4383 99.1883 25.212 98.7376 25.8579C98.2868 26.5039 97.6386 26.9988 96.7928 27.3427C95.9517 27.6865 94.9363 27.8585 93.7467 27.8585C92.5524 27.8585 91.5114 27.6796 90.6239 27.3217C89.7363 26.9639 89.0462 26.4202 88.5536 25.6906C88.061 24.9611 87.8077 24.0386 87.7938 22.9233H91.0978C91.1257 23.3834 91.2489 23.7668 91.4673 24.0735C91.6857 24.3802 91.9854 24.6125 92.3665 24.7705C92.7522 24.9285 93.1983 25.0075 93.7048 25.0075C94.1695 25.0075 94.5645 24.9448 94.8898 24.8193C95.2198 24.6938 95.473 24.5196 95.6496 24.2965C95.8262 24.0735 95.9168 23.8179 95.9215 23.5298C95.9168 23.2602 95.8332 23.0302 95.6705 22.8397C95.5079 22.6445 95.2569 22.4772 94.9177 22.3378C94.5831 22.1937 94.1556 22.0613 93.6351 21.9405L92.1434 21.592C90.9073 21.3085 89.9338 20.8508 89.2228 20.2188C88.5118 19.5821 88.1586 18.7224 88.1632 17.6396C88.1586 16.7567 88.3956 15.983 88.8742 15.3185C89.3529 14.6539 90.0151 14.1358 90.8609 13.764C91.7066 13.3923 92.6709 13.2064 93.7536 13.2064C94.8596 13.2064 95.8192 13.3946 96.6325 13.771C97.4503 14.1428 98.0847 14.6655 98.5354 15.3394C98.9862 16.0132 99.2162 16.7939 99.2255 17.6815H95.9215ZM100.696 16.2037V13.4016H112.762V16.2037H108.434V27.6772H105.032V16.2037H100.696ZM115.753 27.6772H112.044L116.861 13.4016H121.455L126.271 27.6772H122.563L119.21 16.9984H119.099L115.753 27.6772ZM115.258 22.059H123.009V24.6799H115.258V22.059ZM127.808 27.6772V13.4016H133.705C134.774 13.4016 135.697 13.5944 136.473 13.9801C137.253 14.3612 137.855 14.9095 138.278 15.6252C138.701 16.3362 138.912 17.1796 138.912 18.1555C138.912 19.1453 138.696 19.9864 138.264 20.6788C137.832 21.3666 137.219 21.8917 136.424 22.2542C135.629 22.612 134.688 22.7909 133.601 22.7909H129.872V20.0724H132.96C133.48 20.0724 133.914 20.005 134.263 19.8702C134.616 19.7308 134.883 19.5217 135.065 19.2429C135.246 18.9594 135.336 18.5969 135.336 18.1555C135.336 17.714 135.246 17.3492 135.065 17.0611C134.883 16.7683 134.616 16.5499 134.263 16.4059C133.91 16.2572 133.475 16.1828 132.96 16.1828H131.259V27.6772H127.808ZM135.845 21.1528L139.4 27.6772H135.636L132.151 21.1528H135.845ZM140.338 16.2037V13.4016H152.404V16.2037H148.075V27.6772H144.674V16.2037H140.338ZM162.726 13.4016H166.169V22.6097C166.169 23.6738 165.916 24.6009 165.409 25.3909C164.903 26.1763 164.196 26.785 163.29 27.2172C162.384 27.6447 161.331 27.8585 160.132 27.8585C158.92 27.8585 157.86 27.6447 156.954 27.2172C156.048 26.785 155.344 26.1763 154.842 25.3909C154.34 24.6009 154.089 23.6738 154.089 22.6097V13.4016H157.539V22.3099C157.539 22.8025 157.646 23.2417 157.86 23.6274C158.078 24.0131 158.383 24.3151 158.773 24.5335C159.164 24.7519 159.617 24.8611 160.132 24.8611C160.648 24.8611 161.099 24.7519 161.485 24.5335C161.875 24.3151 162.179 24.0131 162.398 23.6274C162.616 23.2417 162.726 22.8025 162.726 22.3099V13.4016ZM168.332 27.6772V13.4016H174.229C175.297 13.4016 176.22 13.6107 176.996 14.0289C177.777 14.4425 178.378 15.021 178.801 15.7646C179.224 16.5034 179.436 17.3631 179.436 18.3437C179.436 19.3288 179.22 20.1909 178.787 20.9297C178.36 21.664 177.749 22.2332 176.954 22.6375C176.16 23.0418 175.216 23.244 174.124 23.244H170.485V20.5255H173.483C174.003 20.5255 174.438 20.4348 174.786 20.2536C175.139 20.0724 175.407 19.8191 175.588 19.4938C175.769 19.1639 175.86 18.7805 175.86 18.3437C175.86 17.9022 175.769 17.5211 175.588 17.2005C175.407 16.8752 175.139 16.6243 174.786 16.4477C174.433 16.2711 173.999 16.1828 173.483 16.1828H171.782V27.6772H168.332ZM99.6284 43.8921C99.6284 44.1145 99.5498 44.3043 99.3928 44.4613C99.2489 44.6053 99.0657 44.6772 98.8432 44.6772H96.8607C96.6251 44.6772 96.4026 44.6511 96.1933 44.5987C95.997 44.5333 95.8203 44.3239 95.6633 43.9706L91.3056 34.4112C91.2533 34.3065 91.1944 34.2542 91.129 34.2542C91.0635 34.2542 91.0308 34.3065 91.0308 34.4112V44.2847C91.0308 44.3894 90.9916 44.481 90.913 44.5595C90.8476 44.638 90.7626 44.6772 90.6579 44.6772H88.9894C88.8847 44.6772 88.7931 44.638 88.7146 44.5595C88.6361 44.481 88.5968 44.3894 88.5968 44.2847V30.878C88.5968 30.6555 88.6688 30.4723 88.8127 30.3284C88.9698 30.1714 89.1595 30.0928 89.382 30.0928H91.5019C91.7113 30.0928 91.8749 30.1321 91.9926 30.2106C92.1235 30.2891 92.2478 30.4592 92.3656 30.721L96.9392 40.8103C96.9784 40.915 97.0308 40.9673 97.0962 40.9673C97.1616 40.9673 97.1944 40.9085 97.1944 40.7907V30.4658C97.1944 30.2172 97.3187 30.0928 97.5673 30.0928H99.2554C99.504 30.0928 99.6284 30.2172 99.6284 30.4658V43.8921ZM105.299 44.2847C105.299 44.3894 105.26 44.481 105.182 44.5595C105.103 44.638 105.012 44.6772 104.907 44.6772H102.964C102.859 44.6772 102.767 44.638 102.689 44.5595C102.61 44.481 102.571 44.3894 102.571 44.2847V30.4658C102.571 30.3611 102.61 30.276 102.689 30.2106C102.767 30.1321 102.859 30.0928 102.964 30.0928H104.907C105.012 30.0928 105.103 30.1321 105.182 30.2106C105.26 30.276 105.299 30.3611 105.299 30.4658V44.2847ZM117.765 44.0295C117.765 44.2912 117.641 44.4482 117.392 44.5006C116.895 44.6053 116.313 44.6838 115.645 44.7361C114.978 44.8016 114.134 44.8343 113.113 44.8343C112.59 44.8343 112.02 44.7361 111.405 44.5398C110.79 44.3436 110.215 44.0164 109.678 43.5584C109.155 43.1004 108.716 42.4853 108.363 41.7133C108.023 40.9281 107.852 39.9597 107.852 38.8082V35.9816C107.852 34.8169 108.016 33.8485 108.343 33.0765C108.683 32.3044 109.115 31.6893 109.639 31.2313C110.162 30.7602 110.731 30.4265 111.346 30.2302C111.975 30.034 112.583 29.9358 113.172 29.9358C113.643 29.9358 114.095 29.9489 114.526 29.9751C114.971 30.0012 115.377 30.034 115.743 30.0732C116.11 30.1125 116.437 30.1517 116.725 30.191C117.013 30.2302 117.235 30.263 117.392 30.2891C117.641 30.3415 117.765 30.4789 117.765 30.7013V32.0165C117.765 32.1604 117.739 32.2651 117.687 32.3306C117.634 32.396 117.53 32.4287 117.373 32.4287H117.314C116.856 32.3894 116.286 32.3567 115.606 32.3306C114.925 32.2913 114.114 32.2717 113.172 32.2717C112.845 32.2717 112.524 32.3371 112.21 32.468C111.909 32.5857 111.634 32.7886 111.386 33.0765C111.15 33.3644 110.96 33.7504 110.816 34.2346C110.673 34.7057 110.601 35.288 110.601 35.9816V38.8082C110.601 39.5017 110.673 40.084 110.816 40.5551C110.974 41.0262 111.17 41.4057 111.405 41.6936C111.654 41.9815 111.929 42.1909 112.23 42.3218C112.531 42.4395 112.825 42.4984 113.113 42.4984C113.807 42.4984 114.454 42.4788 115.056 42.4395V37.4341C115.056 37.3294 115.089 37.2378 115.155 37.1593C115.233 37.0808 115.325 37.0415 115.429 37.0415H117.373C117.477 37.0415 117.569 37.0808 117.647 37.1593C117.726 37.2378 117.765 37.3294 117.765 37.4341V44.0295ZM129.361 44.1473C129.361 44.2912 129.329 44.3894 129.263 44.4417C129.211 44.494 129.113 44.5333 128.969 44.5595C128.812 44.5856 128.635 44.6184 128.439 44.6576C128.256 44.6838 128.02 44.71 127.732 44.7361C127.457 44.7623 127.117 44.7819 126.711 44.795C126.319 44.8212 125.828 44.8343 125.239 44.8343C124.598 44.8343 124.003 44.7819 123.453 44.6772C122.903 44.5726 122.426 44.3763 122.02 44.0884C121.614 43.7874 121.294 43.3752 121.058 42.8517C120.823 42.3283 120.705 41.6478 120.705 40.8103V33.9598C120.705 33.1223 120.823 32.4418 121.058 31.9183C121.294 31.3949 121.614 30.9892 122.02 30.7013C122.426 30.4004 122.903 30.1975 123.453 30.0928C124.003 29.9882 124.598 29.9358 125.239 29.9358C125.828 29.9358 126.319 29.9489 126.711 29.9751C127.117 29.9882 127.457 30.0078 127.732 30.034C128.02 30.0601 128.256 30.0928 128.439 30.1321C128.635 30.1583 128.812 30.1844 128.969 30.2106C129.113 30.2368 129.211 30.276 129.263 30.3284C129.329 30.3807 129.361 30.4789 129.361 30.6228V31.8791C129.361 31.9838 129.322 32.0754 129.244 32.1539C129.165 32.2324 129.073 32.2717 128.969 32.2717H124.964C124.389 32.2717 123.983 32.3894 123.747 32.625C123.525 32.8605 123.414 33.3055 123.414 33.9598V36.0797H128.733C128.838 36.0797 128.93 36.119 129.008 36.1975C129.087 36.276 129.126 36.3676 129.126 36.4723V37.8856C129.126 37.9903 129.087 38.0819 129.008 38.1604C128.93 38.2389 128.838 38.2782 128.733 38.2782H123.414V40.8103C123.414 41.4646 123.525 41.9095 123.747 42.1451C123.983 42.3806 124.389 42.4984 124.964 42.4984H128.969C129.073 42.4984 129.165 42.5377 129.244 42.6162C129.322 42.6947 129.361 42.7863 129.361 42.891V44.1473ZM142.614 44.4417C142.614 44.5987 142.536 44.6772 142.379 44.6772H139.984C139.879 44.6772 139.801 44.638 139.749 44.5595C139.696 44.481 139.644 44.3894 139.591 44.2847L136.765 39.0437H136.49C136.228 39.0437 135.927 39.0372 135.587 39.0241C135.247 38.9979 134.966 38.9783 134.743 38.9652V44.2847C134.743 44.3894 134.704 44.481 134.625 44.5595C134.56 44.638 134.475 44.6772 134.37 44.6772H132.407C132.303 44.6772 132.211 44.638 132.132 44.5595C132.054 44.481 132.015 44.3894 132.015 44.2847V30.7799C132.015 30.5836 132.067 30.4462 132.172 30.3676C132.289 30.276 132.446 30.2172 132.643 30.191C133.153 30.1125 133.742 30.0536 134.409 30.0143C135.077 29.962 135.77 29.9358 136.49 29.9358C137.249 29.9358 137.969 30.0143 138.649 30.1714C139.33 30.3153 139.925 30.5574 140.436 30.8976C140.959 31.2379 141.371 31.6959 141.672 32.2717C141.986 32.8344 142.143 33.5345 142.143 34.372V34.5486C142.143 35.5955 141.901 36.4461 141.417 37.1004C140.946 37.7547 140.305 38.2389 139.493 38.553L142.575 44.2847C142.601 44.3239 142.614 44.3763 142.614 44.4417ZM139.434 34.372C139.434 33.6261 139.186 33.0895 138.689 32.7624C138.204 32.4352 137.472 32.2717 136.49 32.2717C136.385 32.2717 136.248 32.2782 136.078 32.2913C135.921 32.2913 135.757 32.2978 135.587 32.3109C135.417 32.3109 135.253 32.3175 135.096 32.3306C134.952 32.3306 134.835 32.3371 134.743 32.3502V36.7667C134.822 36.7667 134.939 36.7733 135.096 36.7864C135.267 36.7864 135.437 36.7929 135.607 36.806C135.79 36.806 135.96 36.8125 136.117 36.8256C136.287 36.8256 136.412 36.8256 136.49 36.8256C137.511 36.8256 138.257 36.662 138.728 36.3349C139.199 36.0077 139.434 35.4123 139.434 34.5486V34.372ZM160.287 38.8278C160.287 40.7776 159.75 42.2694 158.677 43.3032C157.617 44.3239 156.099 44.8343 154.123 44.8343C153.77 44.8343 153.397 44.8277 153.004 44.8146C152.625 44.8016 152.252 44.7819 151.886 44.7558C151.532 44.7296 151.205 44.7034 150.904 44.6772C150.616 44.6511 150.4 44.6249 150.256 44.5987C150.086 44.5726 149.955 44.5137 149.864 44.4221C149.785 44.3305 149.746 44.1865 149.746 43.9902V30.7799C149.746 30.5836 149.785 30.4396 149.864 30.348C149.955 30.2564 150.086 30.1975 150.256 30.1714C150.4 30.1452 150.616 30.119 150.904 30.0928C151.205 30.0667 151.532 30.0405 151.886 30.0143C152.252 29.9882 152.625 29.9685 153.004 29.9554C153.397 29.9423 153.77 29.9358 154.123 29.9358C156.099 29.9358 157.617 30.4527 158.677 31.4865C159.75 32.5072 160.287 33.9925 160.287 35.9423V38.8278ZM157.578 35.9423C157.578 35.2095 157.486 34.6075 157.303 34.1364C157.133 33.6522 156.891 33.2728 156.577 32.9979C156.276 32.71 155.916 32.5138 155.497 32.4091C155.079 32.2913 154.621 32.2324 154.123 32.2324C153.757 32.2324 153.443 32.239 153.181 32.252C152.919 32.2651 152.684 32.2782 152.474 32.2913V42.4788C152.684 42.4919 152.919 42.505 153.181 42.518C153.443 42.5311 153.757 42.5377 154.123 42.5377C154.621 42.5377 155.079 42.4853 155.497 42.3806C155.916 42.2629 156.276 42.0666 156.577 41.7918C156.891 41.5039 157.133 41.1244 157.303 40.6533C157.486 40.1691 157.578 39.5606 157.578 38.8278V35.9423ZM171.495 44.1473C171.495 44.2912 171.462 44.3894 171.397 44.4417C171.344 44.494 171.246 44.5333 171.102 44.5595C170.945 44.5856 170.769 44.6184 170.572 44.6576C170.389 44.6838 170.154 44.71 169.866 44.7361C169.591 44.7623 169.251 44.7819 168.845 44.795C168.452 44.8212 167.962 44.8343 167.373 44.8343C166.732 44.8343 166.136 44.7819 165.587 44.6772C165.037 44.5726 164.559 44.3763 164.154 44.0884C163.748 43.7874 163.427 43.3752 163.192 42.8517C162.956 42.3283 162.838 41.6478 162.838 40.8103V33.9598C162.838 33.1223 162.956 32.4418 163.192 31.9183C163.427 31.3949 163.748 30.9892 164.154 30.7013C164.559 30.4004 165.037 30.1975 165.587 30.0928C166.136 29.9882 166.732 29.9358 167.373 29.9358C167.962 29.9358 168.452 29.9489 168.845 29.9751C169.251 29.9882 169.591 30.0078 169.866 30.034C170.154 30.0601 170.389 30.0928 170.572 30.1321C170.769 30.1583 170.945 30.1844 171.102 30.2106C171.246 30.2368 171.344 30.276 171.397 30.3284C171.462 30.3807 171.495 30.4789 171.495 30.6228V31.8791C171.495 31.9838 171.456 32.0754 171.377 32.1539C171.299 32.2324 171.207 32.2717 171.102 32.2717H167.098C166.522 32.2717 166.116 32.3894 165.881 32.625C165.658 32.8605 165.547 33.3055 165.547 33.9598V36.0797H170.867C170.971 36.0797 171.063 36.119 171.142 36.1975C171.22 36.276 171.259 36.3676 171.259 36.4723V37.8856C171.259 37.9903 171.22 38.0819 171.142 38.1604C171.063 38.2389 170.971 38.2782 170.867 38.2782H165.547V40.8103C165.547 41.4646 165.658 41.9095 165.881 42.1451C166.116 42.3806 166.522 42.4984 167.098 42.4984H171.102C171.207 42.4984 171.299 42.5377 171.377 42.6162C171.456 42.6947 171.495 42.7863 171.495 42.891V44.1473ZM182.412 44.1473C182.412 44.2912 182.379 44.3894 182.314 44.4417C182.262 44.494 182.163 44.5333 182.019 44.5595C181.875 44.5987 181.666 44.638 181.391 44.6772C181.13 44.7034 180.842 44.7296 180.528 44.7558C180.214 44.7819 179.893 44.8016 179.566 44.8146C179.239 44.8277 178.944 44.8343 178.682 44.8343C178.041 44.8343 177.446 44.7819 176.896 44.6772C176.347 44.5726 175.869 44.3763 175.463 44.0884C175.058 43.7874 174.737 43.3752 174.501 42.8517C174.266 42.3283 174.148 41.6478 174.148 40.8103V30.4854C174.148 30.3807 174.187 30.2891 174.266 30.2106C174.344 30.1321 174.436 30.0928 174.541 30.0928H176.484C176.589 30.0928 176.68 30.1321 176.759 30.2106C176.837 30.2891 176.877 30.3807 176.877 30.4854V40.8103C176.877 41.4646 176.988 41.9095 177.21 42.1451C177.433 42.3806 177.832 42.4984 178.408 42.4984H182.019C182.124 42.4984 182.216 42.5377 182.294 42.6162C182.373 42.6947 182.412 42.7863 182.412 42.891V44.1473ZM193.672 32.0165C193.672 32.1212 193.632 32.2062 193.554 32.2717C193.475 32.3371 193.384 32.3698 193.279 32.3698H189.844V44.2847C189.844 44.3894 189.805 44.481 189.726 44.5595C189.648 44.638 189.556 44.6772 189.451 44.6772H187.508C187.404 44.6772 187.312 44.638 187.233 44.5595C187.155 44.481 187.116 44.3894 187.116 44.2847V32.3698H183.681C183.576 32.3698 183.484 32.3371 183.406 32.2717C183.327 32.2062 183.288 32.1212 183.288 32.0165V30.4658C183.288 30.3611 183.327 30.276 183.406 30.2106C183.484 30.1321 183.576 30.0928 183.681 30.0928H193.279C193.384 30.0928 193.475 30.1321 193.554 30.2106C193.632 30.276 193.672 30.3611 193.672 30.4658V32.0165ZM206.472 44.3436C206.472 44.4482 206.439 44.5333 206.374 44.5987C206.308 44.6511 206.223 44.6772 206.119 44.6772H204.038C203.946 44.6772 203.868 44.6445 203.802 44.5791C203.737 44.5137 203.691 44.4352 203.665 44.3436L202.762 40.614H198.247L197.344 44.3436C197.318 44.4352 197.272 44.5137 197.207 44.5791C197.142 44.6445 197.063 44.6772 196.971 44.6772H194.891C194.786 44.6772 194.701 44.6511 194.636 44.5987C194.57 44.5333 194.537 44.4482 194.537 44.3436C194.537 44.3305 194.537 44.3174 194.537 44.3043C194.55 44.2912 194.557 44.2716 194.557 44.2454L197.776 31.938C197.894 31.48 198.064 31.1201 198.287 30.8584C198.509 30.5967 198.745 30.4004 198.993 30.2695C199.255 30.1256 199.517 30.034 199.778 29.9947C200.053 29.9554 200.295 29.9358 200.505 29.9358C200.714 29.9358 200.95 29.9554 201.211 29.9947C201.486 30.034 201.748 30.1256 201.996 30.2695C202.258 30.4004 202.5 30.5967 202.723 30.8584C202.945 31.1201 203.115 31.48 203.233 31.938L206.452 44.2454C206.452 44.2716 206.452 44.2912 206.452 44.3043C206.465 44.3174 206.472 44.3305 206.472 44.3436ZM200.819 32.5465C200.793 32.4287 200.76 32.3502 200.721 32.3109C200.681 32.2586 200.609 32.2324 200.505 32.2324C200.4 32.2324 200.328 32.2586 200.289 32.3109C200.249 32.3502 200.217 32.4287 200.191 32.5465L198.777 38.3763H202.232L200.819 32.5465Z" fill="white"/>
<path d="M205 49.6997H206.977C207.377 49.6997 207.702 50.0243 207.702 50.4246V50.9644C207.702 51.3647 207.377 51.6893 206.977 51.6893H205V49.6997Z" fill="#EB813D"/>
<path d="M205 54.6997H206.977C207.377 54.6997 207.702 55.0243 207.702 55.4246V55.9644C207.702 56.3647 207.377 56.6893 206.977 56.6893H205V54.6997Z" fill="#EB813D"/>
<path fill-rule="evenodd" clip-rule="evenodd" d="M200.301 48.6997C199.03 48.6997 198 49.73 198 51.001V51.9981H22.2752C21.6237 51.9981 21.0956 52.5262 21.0956 53.1777V53.2156C21.0956 53.8671 21.6237 54.3952 22.2752 54.3952H198V55.3984C198 56.6694 199.03 57.6997 200.301 57.6997H205V48.6997H200.301Z" fill="#0D726F"/>
</svg>
