<svg width="1440" height="317" viewBox="0 0 1440 317" fill="none" xmlns="http://www.w3.org/2000/svg">
<path opacity="0.9" d="M0 313.798H1216.5V261.298C1216.5 258.536 1218.74 256.298 1221.5 256.298H1269C1271.76 256.298 1274 258.536 1274 261.298V313.798H1439.5H1440" stroke="#FF7D05" stroke-width="5"/>
<path opacity="0.9" d="M1228.03 174.399L1228.01 174.422L1228 174.445C1220.6 183.967 1216.99 196.015 1216.99 210.394V233.648C1216.99 235.666 1217.57 237.613 1219.14 239.005C1220.65 240.347 1222.67 240.798 1224.73 240.798H1264.55C1266.61 240.798 1268.63 240.347 1270.14 239.005C1271.71 237.613 1272.29 235.666 1272.29 233.648V212.72C1272.29 204.919 1274.71 198.391 1279.52 192.988C1284.59 187.283 1292.47 180.426 1303.24 172.407C1313.76 164.625 1322.23 157.58 1328.63 151.274C1335.53 144.82 1341.28 136.492 1345.92 126.359C1351.01 116.03 1353.5 103.864 1353.5 89.9411C1353.5 63.579 1344.52 42.3966 1326.45 26.6739C1308.42 10.6748 1284.38 2.79834 1254.6 2.79834C1224.1 2.79834 1199.2 10.9918 1180.14 27.589C1161.03 43.9118 1151.5 65.5535 1151.5 92.2664V102.498C1151.5 104.516 1152.08 106.464 1153.65 107.856C1155.15 109.184 1157.14 109.64 1159.18 109.649L1198.94 111.506L1199 111.509H1199.06C1201.12 111.509 1203.14 111.058 1204.65 109.716C1206.22 108.324 1206.8 106.376 1206.8 104.358V92.2664C1206.8 78.9127 1211.12 68.4537 1219.61 60.6196L1219.63 60.6042L1219.65 60.5885C1228.19 52.4259 1239.41 48.2594 1253.55 48.2594C1267.35 48.2594 1278.02 52.2771 1285.84 60.0853L1285.87 60.12L1285.91 60.1533C1294.04 67.6582 1298.2 77.9494 1298.2 91.3363C1298.2 102.948 1295.03 112.257 1288.85 119.475L1288.83 119.5L1288.81 119.526C1282.71 127.046 1273.29 135.582 1260.45 145.133C1246.38 155.433 1235.55 165.185 1228.03 174.399Z" stroke="#E8770B" stroke-width="5"/>
</svg>
