<svg width="77" height="74" viewBox="0 0 77 74" fill="none" xmlns="http://www.w3.org/2000/svg">
<path fill-rule="evenodd" clip-rule="evenodd" d="M40.5 73.1401C60.6584 73.1401 77 56.7985 77 36.6401C77 16.4817 60.6584 0.140137 40.5 0.140137C20.3416 0.140137 4 16.4817 4 36.6401C4 42.084 5.19178 47.2495 7.32866 51.89L0 66.1401L15.5449 63.2766C22.0719 69.3941 30.8485 73.1401 40.5 73.1401Z" fill="#E64522"/>
<path d="M50.735 23.8072C50.598 23.2914 50.3279 22.8206 49.9518 22.4421C49.5756 22.0635 49.1066 21.7904 48.5917 21.6501C46.7012 21.1401 39.1208 21.1401 39.1208 21.1401C39.1208 21.1401 31.5404 21.1401 29.65 21.6501C29.1351 21.7904 28.666 22.0635 28.2899 22.4421C27.9137 22.8206 27.6436 23.2914 27.5067 23.8072C27 25.7097 27 29.6797 27 29.6797C27 29.6797 27 33.6497 27.5067 35.5526C27.6436 36.0684 27.9137 36.5392 28.2899 36.9178C28.666 37.2964 29.1351 37.5695 29.65 37.7097C31.5404 38.2193 39.1208 38.2193 39.1208 38.2193C39.1208 38.2193 46.7012 38.2193 48.5917 37.7097C49.1066 37.5695 49.5756 37.2964 49.9518 36.9178C50.3279 36.5392 50.598 36.0684 50.735 35.5526C51.2417 33.6497 51.2417 29.6797 51.2417 29.6797C51.2417 29.6797 51.2417 25.7097 50.735 23.8072Z" fill="white"/>
<path d="M36.6406 33.7442L42.9765 30.1401L36.6406 26.5359V33.7442Z" fill="#E64522"/>
<path d="M29.3253 47.4129V56.1401H27.7443V48.9512H27.6932L25.652 50.2552V48.8063L27.821 47.4129H29.3253ZM34.6733 56.2595C34.0597 56.2595 33.5142 56.1543 33.0369 55.9441C32.5625 55.7339 32.1875 55.4413 31.9119 55.0663C31.6364 54.6913 31.4901 54.258 31.473 53.7666H33.0753C33.0895 54.0024 33.1676 54.2083 33.3097 54.3845C33.4517 54.5578 33.6406 54.6927 33.8764 54.7893C34.1122 54.8859 34.3764 54.9342 34.669 54.9342C34.9815 54.9342 35.2585 54.8802 35.5 54.7722C35.7415 54.6614 35.9304 54.508 36.0668 54.312C36.2031 54.116 36.2699 53.8901 36.267 53.6345C36.2699 53.3703 36.2017 53.1373 36.0625 52.9356C35.9233 52.7339 35.7216 52.5762 35.4574 52.4626C35.196 52.3489 34.8807 52.2921 34.5114 52.2921H33.7401V51.0734H34.5114C34.8153 51.0734 35.081 51.0208 35.3082 50.9157C35.5384 50.8106 35.7188 50.6629 35.8494 50.4725C35.9801 50.2793 36.044 50.0563 36.0412 49.8035C36.044 49.5563 35.9886 49.3418 35.875 49.16C35.7642 48.9754 35.6065 48.8319 35.402 48.7296C35.2003 48.6274 34.9631 48.5762 34.6903 48.5762C34.4233 48.5762 34.1761 48.6245 33.9489 48.7211C33.7216 48.8177 33.5384 48.9555 33.3991 49.1345C33.2599 49.3106 33.1861 49.5208 33.1776 49.7651H31.6562C31.6676 49.2765 31.8082 48.8475 32.0781 48.4782C32.3509 48.106 32.7145 47.8163 33.169 47.6089C33.6236 47.3987 34.1335 47.2935 34.6989 47.2935C35.2813 47.2935 35.7869 47.4029 36.2159 47.6217C36.6477 47.8376 36.9815 48.1288 37.2173 48.4953C37.4531 48.8617 37.571 49.2666 37.571 49.7097C37.5739 50.2012 37.429 50.6131 37.1364 50.9455C36.8466 51.2779 36.4659 51.4953 35.9943 51.5975V51.6657C36.608 51.7509 37.0781 51.9782 37.4048 52.3475C37.7344 52.714 37.8977 53.17 37.8949 53.7154C37.8949 54.2041 37.7557 54.6416 37.4773 55.0279C37.2017 55.4114 36.821 55.7126 36.3352 55.9313C35.8523 56.1501 35.2983 56.2595 34.6733 56.2595ZM39.3576 56.1401V54.9981L42.3874 52.0279C42.6772 51.7353 42.9187 51.4754 43.1119 51.2481C43.305 51.0208 43.4499 50.8006 43.5465 50.5876C43.6431 50.3745 43.6914 50.1472 43.6914 49.9058C43.6914 49.6302 43.6289 49.3944 43.5039 49.1984C43.3789 48.9995 43.207 48.8461 42.9883 48.7381C42.7695 48.6302 42.521 48.5762 42.2425 48.5762C41.9556 48.5762 41.7042 48.6359 41.4883 48.7552C41.2724 48.8717 41.1048 49.0379 40.9854 49.2538C40.869 49.4697 40.8107 49.7268 40.8107 50.0251H39.3065C39.3065 49.4711 39.4329 48.9896 39.6857 48.5805C39.9386 48.1714 40.2866 47.8546 40.7298 47.6302C41.1758 47.4058 41.6871 47.2935 42.2638 47.2935C42.8491 47.2935 43.3633 47.4029 43.8065 47.6217C44.2496 47.8404 44.5934 48.1401 44.8377 48.5208C45.0849 48.9015 45.2085 49.3362 45.2085 49.8248C45.2085 50.1515 45.146 50.4725 45.021 50.7879C44.896 51.1032 44.6758 51.4526 44.3604 51.8362C44.0479 52.2197 43.609 52.6842 43.0437 53.2296L41.5394 54.7595V54.8191H45.3406V56.1401H39.3576ZM50.3604 47.4129V56.1401H48.7795V48.9512H48.7283L46.6871 50.2552V48.8063L48.8562 47.4129H50.3604Z" fill="white"/>
</svg>
