<svg width="31" height="32" viewBox="0 0 31 32" fill="none" xmlns="http://www.w3.org/2000/svg">
<circle cx="15.5" cy="16.125" r="15.5" fill="#FF7D05"/>
<path d="M15.125 15.9375C14.5448 15.9375 13.9884 15.707 13.5782 15.2968C13.168 14.8866 12.9375 14.3302 12.9375 13.75C12.9375 13.1698 13.168 12.6134 13.5782 12.2032C13.9884 11.793 14.5448 11.5625 15.125 11.5625C15.7052 11.5625 16.2616 11.793 16.6718 12.2032C17.082 12.6134 17.3125 13.1698 17.3125 13.75C17.3125 14.0373 17.2559 14.3217 17.146 14.5871C17.0361 14.8525 16.8749 15.0937 16.6718 15.2968C16.4687 15.4999 16.2275 15.6611 15.9621 15.771C15.6967 15.8809 15.4123 15.9375 15.125 15.9375ZM15.125 7.625C13.5005 7.625 11.9426 8.27031 10.794 9.41897C9.64531 10.5676 9 12.1255 9 13.75C9 18.3438 15.125 25.125 15.125 25.125C15.125 25.125 21.25 18.3438 21.25 13.75C21.25 12.1255 20.6047 10.5676 19.456 9.41897C18.3074 8.27031 16.7495 7.625 15.125 7.625Z" fill="white"/>
</svg>
