<svg width="19" height="19" viewBox="0 0 19 19" fill="none" xmlns="http://www.w3.org/2000/svg">
<path d="M14.25 17.4166C13.5903 17.4166 13.0295 17.1857 12.5677 16.7239C12.1059 16.2621 11.875 15.7014 11.875 15.0416C11.875 14.9493 11.8816 14.8535 11.8948 14.7543C11.908 14.655 11.9278 14.5661 11.9542 14.4875L6.37292 11.2416C6.14861 11.4396 5.89792 11.5947 5.62083 11.7071C5.34375 11.8196 5.05347 11.8755 4.75 11.875C4.09028 11.875 3.52951 11.6441 3.06771 11.1823C2.6059 10.7205 2.375 10.1597 2.375 9.49998C2.375 8.84026 2.6059 8.27949 3.06771 7.81769C3.52951 7.35588 4.09028 7.12498 4.75 7.12498C5.05347 7.12498 5.34375 7.18119 5.62083 7.2936C5.89792 7.40602 6.14861 7.56092 6.37292 7.75831L11.9542 4.51248C11.9278 4.43331 11.908 4.34438 11.8948 4.24569C11.8816 4.14699 11.875 4.0512 11.875 3.95831C11.875 3.29859 12.1059 2.73783 12.5677 2.27602C13.0295 1.81422 13.5903 1.58331 14.25 1.58331C14.9097 1.58331 15.4705 1.81422 15.9323 2.27602C16.3941 2.73783 16.625 3.29859 16.625 3.95831C16.625 4.61804 16.3941 5.1788 15.9323 5.6406C15.4705 6.10241 14.9097 6.33331 14.25 6.33331C13.9465 6.33331 13.6562 6.27737 13.3792 6.16548C13.1021 6.05359 12.8514 5.89842 12.6271 5.69998L7.04583 8.94581C7.07222 9.02498 7.09201 9.11417 7.10521 9.2134C7.1184 9.31262 7.125 9.40815 7.125 9.49998C7.125 9.59234 7.1184 9.68813 7.10521 9.78735C7.09201 9.88658 7.07222 9.97551 7.04583 10.0541L12.6271 13.3C12.8514 13.1021 13.1021 12.9472 13.3792 12.8353C13.6562 12.7234 13.9465 12.6672 14.25 12.6666C14.9097 12.6666 15.4705 12.8975 15.9323 13.3594C16.3941 13.8212 16.625 14.3819 16.625 15.0416C16.625 15.7014 16.3941 16.2621 15.9323 16.7239C15.4705 17.1857 14.9097 17.4166 14.25 17.4166Z" fill="#111111"/>
</svg>
