<svg width="169" height="53" viewBox="0 0 169 53" fill="none" xmlns="http://www.w3.org/2000/svg">
<path d="M70.2683 45.7348L70.3983 44.9572H74.4843L74.3543 45.7348H72.7714L72.0512 50.0784H71.131L71.8512 45.7348H70.2683ZM75.6621 47.8278L75.292 50.0784H74.3843L75.2345 44.9572H76.1222L75.8021 46.8901H75.8496C75.9713 46.6717 76.1372 46.5 76.3472 46.375C76.559 46.25 76.8132 46.1874 77.1099 46.1874C77.3733 46.1874 77.595 46.2433 77.7751 46.355C77.9551 46.4667 78.0818 46.6301 78.1552 46.8451C78.2302 47.0602 78.2427 47.3227 78.1927 47.6328L77.7826 50.0784H76.8749L77.26 47.7728C77.3016 47.5144 77.2675 47.3135 77.1574 47.1702C77.0491 47.0251 76.8774 46.9526 76.6423 46.9526C76.4806 46.9526 76.3314 46.9876 76.1947 47.0577C76.058 47.126 75.943 47.2252 75.8496 47.3552C75.7579 47.4853 75.6954 47.6428 75.6621 47.8278ZM80.3907 50.1534C80.0056 50.1534 79.6872 50.0734 79.4355 49.9133C79.1837 49.7516 79.007 49.5232 78.9053 49.2282C78.8053 48.9314 78.7886 48.5822 78.8553 48.1804C78.9203 47.7853 79.0529 47.4386 79.2529 47.1402C79.453 46.8401 79.703 46.6067 80.0031 46.44C80.3048 46.2716 80.6382 46.1874 81.0033 46.1874C81.2401 46.1874 81.4576 46.2258 81.656 46.3025C81.8544 46.3775 82.0219 46.4942 82.1586 46.6526C82.2953 46.8109 82.3895 47.0126 82.4412 47.2577C82.4929 47.5011 82.4904 47.7912 82.4337 48.1279L82.3912 48.4055H79.2404L79.3379 47.7953H81.6185C81.6485 47.622 81.6385 47.4678 81.5885 47.3327C81.5385 47.196 81.4551 47.0885 81.3384 47.0101C81.2217 46.9318 81.0759 46.8926 80.9008 46.8926C80.7224 46.8926 80.5557 46.9385 80.4007 47.0301C80.2473 47.1202 80.1181 47.2369 80.0131 47.3802C79.9081 47.5236 79.8414 47.6745 79.8131 47.8328L79.7105 48.418C79.6739 48.658 79.6822 48.8539 79.7355 49.0056C79.7889 49.1573 79.8822 49.269 80.0156 49.3407C80.149 49.4124 80.3173 49.4482 80.5207 49.4482C80.6541 49.4482 80.7774 49.4299 80.8908 49.3932C81.0042 49.3565 81.105 49.3015 81.1934 49.2282C81.2834 49.1532 81.3584 49.0615 81.4184 48.9531L82.2461 49.0481C82.1544 49.2715 82.0202 49.4666 81.8435 49.6333C81.6668 49.7983 81.4551 49.9267 81.2084 50.0184C80.9633 50.1084 80.6908 50.1534 80.3907 50.1534ZM85.9082 47.8278L85.5382 50.0784H84.6304L85.2706 46.2375H86.1383L86.0283 46.8901H86.0758C86.1958 46.6751 86.3642 46.5042 86.5809 46.3775C86.7976 46.2508 87.0502 46.1874 87.3386 46.1874C87.6003 46.1874 87.8204 46.2441 87.9987 46.3575C88.1771 46.4692 88.3038 46.6334 88.3788 46.8501C88.4538 47.0652 88.4655 47.3261 88.4138 47.6328L88.0037 50.0784H87.0985L87.4811 47.7728C87.5245 47.5178 87.492 47.3177 87.3836 47.1727C87.2769 47.026 87.1052 46.9526 86.8685 46.9526C86.7101 46.9526 86.5642 46.9876 86.4309 47.0577C86.2975 47.126 86.185 47.2252 86.0933 47.3552C86.0033 47.4853 85.9416 47.6428 85.9082 47.8278ZM90.6094 50.1534C90.2243 50.1534 89.9059 50.0734 89.6541 49.9133C89.4024 49.7516 89.2257 49.5232 89.124 49.2282C89.024 48.9314 89.0073 48.5822 89.074 48.1804C89.139 47.7853 89.2715 47.4386 89.4716 47.1402C89.6716 46.8401 89.9217 46.6067 90.2218 46.44C90.5235 46.2716 90.8569 46.1874 91.222 46.1874C91.4587 46.1874 91.6763 46.2258 91.8747 46.3025C92.073 46.3775 92.2406 46.4942 92.3773 46.6526C92.514 46.8109 92.6082 47.0126 92.6598 47.2577C92.7115 47.5011 92.709 47.7912 92.6523 48.1279L92.6098 48.4055H89.4591L89.5566 47.7953H91.8372C91.8672 47.622 91.8572 47.4678 91.8071 47.3327C91.7571 47.196 91.6738 47.0885 91.5571 47.0101C91.4404 46.9318 91.2945 46.8926 91.1195 46.8926C90.9411 46.8926 90.7744 46.9385 90.6194 47.0301C90.466 47.1202 90.3368 47.2369 90.2318 47.3802C90.1267 47.5236 90.0601 47.6745 90.0317 47.8328L89.9292 48.418C89.8925 48.658 89.9009 48.8539 89.9542 49.0056C90.0076 49.1573 90.1009 49.269 90.2343 49.3407C90.3676 49.4124 90.536 49.4482 90.7394 49.4482C90.8728 49.4482 90.9961 49.4299 91.1095 49.3932C91.2228 49.3565 91.3237 49.3015 91.4121 49.2282C91.5021 49.1532 91.5771 49.0615 91.6371 48.9531L92.4648 49.0481C92.3731 49.2715 92.2389 49.4666 92.0622 49.6333C91.8855 49.7983 91.6738 49.9267 91.4271 50.0184C91.182 50.1084 90.9094 50.1534 90.6094 50.1534ZM94.3978 46.2375L94.9379 47.6553L95.9606 46.2375H96.9184L95.4405 48.1579L96.2982 50.0784H95.3455L94.7628 48.6955L93.7276 50.0784H92.7674L94.2577 48.1579L93.4375 46.2375H94.3978ZM99.5365 46.2375L99.4189 46.9376H97.2134L97.3284 46.2375H99.5365ZM98.0236 45.3172H98.9288L98.3287 48.9231C98.3103 49.0448 98.3137 49.1381 98.3387 49.2032C98.3654 49.2665 98.4079 49.3099 98.4662 49.3332C98.5262 49.3565 98.5937 49.3682 98.6688 49.3682C98.7238 49.3682 98.7755 49.364 98.8238 49.3557C98.8721 49.3457 98.9105 49.3382 98.9388 49.3332L98.9788 50.0409C98.9238 50.0575 98.8496 50.0759 98.7563 50.0959C98.6646 50.1159 98.5546 50.1275 98.4262 50.1309C98.1962 50.1359 97.9961 50.1009 97.8261 50.0259C97.6577 49.9492 97.5343 49.8316 97.456 49.6733C97.3793 49.5132 97.3618 49.3132 97.4035 49.0731L98.0236 45.3172ZM103.958 46.2375L103.841 46.9376H101.635L101.75 46.2375H103.958ZM102.445 45.3172H103.35L102.75 48.9231C102.732 49.0448 102.735 49.1381 102.76 49.2032C102.787 49.2665 102.83 49.3099 102.888 49.3332C102.948 49.3565 103.015 49.3682 103.09 49.3682C103.145 49.3682 103.197 49.364 103.245 49.3557C103.294 49.3457 103.332 49.3382 103.361 49.3332L103.401 50.0409C103.345 50.0575 103.271 50.0759 103.178 50.0959C103.086 50.1159 102.976 50.1275 102.848 50.1309C102.618 50.1359 102.418 50.1009 102.248 50.0259C102.079 49.9492 101.956 49.8316 101.878 49.6733C101.801 49.5132 101.783 49.3132 101.825 49.0731L102.445 45.3172ZM105.724 50.1534C105.339 50.1534 105.021 50.0734 104.769 49.9133C104.517 49.7516 104.341 49.5232 104.239 49.2282C104.139 48.9314 104.122 48.5822 104.189 48.1804C104.254 47.7853 104.386 47.4386 104.586 47.1402C104.786 46.8401 105.037 46.6067 105.337 46.44C105.638 46.2716 105.972 46.1874 106.337 46.1874C106.574 46.1874 106.791 46.2258 106.989 46.3025C107.188 46.3775 107.355 46.4942 107.492 46.6526C107.629 46.8109 107.723 47.0126 107.775 47.2577C107.826 47.5011 107.824 47.7912 107.767 48.1279L107.725 48.4055H104.574L104.671 47.7953H106.952C106.982 47.622 106.972 47.4678 106.922 47.3327C106.872 47.196 106.789 47.0885 106.672 47.0101C106.555 46.9318 106.409 46.8926 106.234 46.8926C106.056 46.8926 105.889 46.9385 105.734 47.0301C105.581 47.1202 105.452 47.2369 105.347 47.3802C105.242 47.5236 105.175 47.6745 105.147 47.8328L105.044 48.418C105.007 48.658 105.016 48.8539 105.069 49.0056C105.122 49.1573 105.216 49.269 105.349 49.3407C105.482 49.4124 105.651 49.4482 105.854 49.4482C105.988 49.4482 106.111 49.4299 106.224 49.3932C106.338 49.3565 106.439 49.3015 106.527 49.2282C106.617 49.1532 106.692 49.0615 106.752 48.9531L107.58 49.0481C107.488 49.2715 107.354 49.4666 107.177 49.6333C107 49.7983 106.789 49.9267 106.542 50.0184C106.297 50.1084 106.024 50.1534 105.724 50.1534ZM109.88 50.1534C109.497 50.1534 109.182 50.0692 108.935 49.9008C108.688 49.7325 108.516 49.4999 108.417 49.2032C108.321 48.9048 108.305 48.5613 108.37 48.1729C108.433 47.7828 108.564 47.4386 108.762 47.1402C108.962 46.8401 109.214 46.6067 109.518 46.44C109.821 46.2716 110.16 46.1874 110.535 46.1874C110.847 46.1874 111.113 46.245 111.333 46.36C111.555 46.4733 111.72 46.6342 111.828 46.8426C111.938 47.0493 111.981 47.291 111.956 47.5678H111.088C111.085 47.3827 111.027 47.2285 110.915 47.1052C110.804 46.9801 110.64 46.9176 110.425 46.9176C110.239 46.9176 110.067 46.9676 109.91 47.0677C109.753 47.166 109.621 47.3077 109.513 47.4928C109.404 47.6778 109.329 47.8995 109.288 48.1579C109.244 48.4196 109.245 48.6447 109.29 48.8331C109.337 49.0198 109.421 49.164 109.543 49.2657C109.666 49.3657 109.822 49.4157 110.01 49.4157C110.144 49.4157 110.268 49.3907 110.383 49.3407C110.498 49.289 110.599 49.2148 110.685 49.1181C110.774 49.0215 110.843 48.9039 110.893 48.7656H111.758C111.69 49.0373 111.568 49.2782 111.393 49.4882C111.22 49.6966 111.005 49.86 110.748 49.9783C110.491 50.095 110.202 50.1534 109.88 50.1534ZM113.559 47.8278L113.189 50.0784H112.281L113.132 44.9572H114.019L113.699 46.8901H113.747C113.868 46.6717 114.034 46.5 114.244 46.375C114.456 46.25 114.71 46.1874 115.007 46.1874C115.27 46.1874 115.492 46.2433 115.672 46.355C115.852 46.4667 115.979 46.6301 116.052 46.8451C116.127 47.0602 116.14 47.3227 116.09 47.6328L115.68 50.0784H114.772L115.157 47.7728C115.199 47.5144 115.165 47.3135 115.055 47.1702C114.946 47.0251 114.774 46.9526 114.539 46.9526C114.378 46.9526 114.228 46.9876 114.092 47.0577C113.955 47.126 113.84 47.2252 113.747 47.3552C113.655 47.4853 113.593 47.6428 113.559 47.8278ZM120.034 50.1534C119.649 50.1534 119.331 50.0734 119.079 49.9133C118.827 49.7516 118.651 49.5232 118.549 49.2282C118.449 48.9314 118.432 48.5822 118.499 48.1804C118.564 47.7853 118.697 47.4386 118.897 47.1402C119.097 46.8401 119.347 46.6067 119.647 46.44C119.949 46.2716 120.282 46.1874 120.647 46.1874C120.884 46.1874 121.101 46.2258 121.3 46.3025C121.498 46.3775 121.666 46.4942 121.802 46.6526C121.939 46.8109 122.033 47.0126 122.085 47.2577C122.137 47.5011 122.134 47.7912 122.077 48.1279L122.035 48.4055H118.884L118.982 47.7953H121.262C121.292 47.622 121.282 47.4678 121.232 47.3327C121.182 47.196 121.099 47.0885 120.982 47.0101C120.865 46.9318 120.72 46.8926 120.545 46.8926C120.366 46.8926 120.199 46.9385 120.044 47.0301C119.891 47.1202 119.762 47.2369 119.657 47.3802C119.552 47.5236 119.485 47.6745 119.457 47.8328L119.354 48.418C119.318 48.658 119.326 48.8539 119.379 49.0056C119.433 49.1573 119.526 49.269 119.659 49.3407C119.793 49.4124 119.961 49.4482 120.164 49.4482C120.298 49.4482 120.421 49.4299 120.535 49.3932C120.648 49.3565 120.749 49.3015 120.837 49.2282C120.927 49.1532 121.002 49.0615 121.062 48.9531L121.89 49.0481C121.798 49.2715 121.664 49.4666 121.487 49.6333C121.311 49.7983 121.099 49.9267 120.852 50.0184C120.607 50.1084 120.335 50.1534 120.034 50.1534ZM126.486 46.2375L124.478 50.0784H123.478L122.75 46.2375H123.68L124.09 49.0906H124.13L125.488 46.2375H126.486ZM128.027 50.1534C127.649 50.1534 127.333 50.07 127.082 49.9033C126.832 49.7366 126.656 49.5024 126.554 49.2007C126.452 48.8989 126.434 48.5488 126.499 48.1504C126.564 47.757 126.694 47.4127 126.889 47.1177C127.086 46.8226 127.333 46.5942 127.632 46.4325C127.932 46.2691 128.268 46.1874 128.64 46.1874C129.018 46.1874 129.332 46.2716 129.582 46.44C129.832 46.6067 130.008 46.8409 130.11 47.1427C130.213 47.4444 130.232 47.7962 130.167 48.1979C130.104 48.5897 129.973 48.9323 129.775 49.2257C129.578 49.5191 129.331 49.7475 129.032 49.9108C128.734 50.0725 128.399 50.1534 128.027 50.1534ZM128.102 49.4282C128.312 49.4282 128.496 49.3715 128.655 49.2582C128.815 49.1431 128.946 48.9889 129.047 48.7956C129.151 48.6005 129.222 48.3838 129.262 48.1454C129.299 47.9154 129.3 47.707 129.265 47.5203C129.23 47.3319 129.155 47.1827 129.04 47.0727C128.926 46.961 128.769 46.9051 128.567 46.9051C128.357 46.9051 128.171 46.9635 128.009 47.0802C127.849 47.1952 127.719 47.3502 127.617 47.5453C127.515 47.7386 127.445 47.9545 127.407 48.1929C127.368 48.423 127.367 48.6314 127.402 48.8181C127.437 49.0048 127.512 49.1532 127.627 49.2632C127.742 49.3732 127.9 49.4282 128.102 49.4282ZM132.381 44.9572L131.531 50.0784H130.626L131.476 44.9572H132.381ZM135.177 48.463L135.55 46.2375H136.455L135.815 50.0784H134.937L135.052 49.3957H135.012C134.892 49.6108 134.721 49.7866 134.497 49.9233C134.276 50.06 134.02 50.1284 133.732 50.1284C133.48 50.1284 133.268 50.0725 133.094 49.9608C132.921 49.8475 132.798 49.6833 132.724 49.4682C132.653 49.2515 132.642 48.9898 132.692 48.683L133.102 46.2375H134.007L133.622 48.543C133.584 48.7864 133.619 48.9798 133.727 49.1231C133.837 49.2665 134 49.3382 134.217 49.3382C134.351 49.3382 134.485 49.3057 134.62 49.2407C134.756 49.1757 134.876 49.079 134.977 48.9506C135.079 48.8206 135.146 48.658 135.177 48.463ZM139.304 46.2375L139.186 46.9376H136.981L137.096 46.2375H139.304ZM137.791 45.3172H138.696L138.096 48.9231C138.078 49.0448 138.081 49.1381 138.106 49.2032C138.133 49.2665 138.175 49.3099 138.234 49.3332C138.294 49.3565 138.361 49.3682 138.436 49.3682C138.491 49.3682 138.543 49.364 138.591 49.3557C138.64 49.3457 138.678 49.3382 138.706 49.3332L138.746 50.0409C138.691 50.0575 138.617 50.0759 138.524 50.0959C138.432 50.1159 138.322 50.1275 138.194 50.1309C137.964 50.1359 137.764 50.1009 137.594 50.0259C137.425 49.9492 137.302 49.8316 137.224 49.6733C137.147 49.5132 137.129 49.3132 137.171 49.0731L137.791 45.3172ZM139.421 50.0784L140.061 46.2375H140.966L140.326 50.0784H139.421ZM140.646 45.6873C140.501 45.6873 140.381 45.639 140.286 45.5423C140.191 45.4456 140.149 45.3297 140.161 45.1947C140.173 45.0597 140.234 44.9438 140.344 44.8471C140.455 44.7504 140.583 44.7021 140.726 44.7021C140.871 44.7021 140.99 44.7504 141.084 44.8471C141.179 44.9438 141.221 45.0597 141.209 45.1947C141.199 45.3297 141.138 45.4456 141.026 45.5423C140.916 45.639 140.79 45.6873 140.646 45.6873ZM142.942 50.1534C142.564 50.1534 142.249 50.07 141.997 49.9033C141.747 49.7366 141.571 49.5024 141.47 49.2007C141.368 48.8989 141.349 48.5488 141.415 48.1504C141.48 47.757 141.61 47.4127 141.805 47.1177C142.001 46.8226 142.249 46.5942 142.547 46.4325C142.847 46.2691 143.183 46.1874 143.555 46.1874C143.933 46.1874 144.248 46.2716 144.498 46.44C144.748 46.6067 144.924 46.8409 145.025 47.1427C145.129 47.4444 145.148 47.7962 145.083 48.1979C145.02 48.5897 144.889 48.9323 144.69 49.2257C144.494 49.5191 144.246 49.7475 143.948 49.9108C143.649 50.0725 143.314 50.1534 142.942 50.1534ZM143.017 49.4282C143.227 49.4282 143.412 49.3715 143.57 49.2582C143.73 49.1431 143.861 48.9889 143.963 48.7956C144.066 48.6005 144.138 48.3838 144.178 48.1454C144.214 47.9154 144.215 47.707 144.18 47.5203C144.145 47.3319 144.07 47.1827 143.955 47.0727C143.842 46.961 143.684 46.9051 143.482 46.9051C143.272 46.9051 143.087 46.9635 142.925 47.0802C142.765 47.1952 142.634 47.3502 142.532 47.5453C142.431 47.7386 142.361 47.9545 142.322 48.1929C142.284 48.423 142.282 48.6314 142.317 48.8181C142.352 49.0048 142.427 49.1532 142.542 49.2632C142.657 49.3732 142.816 49.4282 143.017 49.4282ZM146.821 47.8278L146.451 50.0784H145.544L146.184 46.2375H147.051L146.941 46.8901H146.989C147.109 46.6751 147.277 46.5042 147.494 46.3775C147.711 46.2508 147.963 46.1874 148.252 46.1874C148.513 46.1874 148.734 46.2441 148.912 46.3575C149.09 46.4692 149.217 46.6334 149.292 46.8501C149.367 47.0652 149.379 47.3261 149.327 47.6328L148.917 50.0784H148.012L148.394 47.7728C148.438 47.5178 148.405 47.3177 148.297 47.1727C148.19 47.026 148.018 46.9526 147.782 46.9526C147.623 46.9526 147.477 46.9876 147.344 47.0577C147.211 47.126 147.098 47.2252 147.006 47.3552C146.916 47.4853 146.855 47.6428 146.821 47.8278ZM150.442 50.1334C150.289 50.1334 150.162 50.08 150.062 49.9733C149.962 49.8667 149.915 49.7366 149.922 49.5833C149.929 49.4332 149.99 49.3057 150.105 49.2007C150.22 49.0956 150.352 49.0431 150.502 49.0431C150.651 49.0431 150.777 49.0965 150.88 49.2032C150.985 49.3099 151.032 49.4366 151.022 49.5833C151.016 49.6866 150.984 49.78 150.927 49.8633C150.872 49.9467 150.802 50.0125 150.717 50.0609C150.632 50.1092 150.541 50.1334 150.442 50.1334ZM152.485 50.1334C152.331 50.1334 152.205 50.08 152.105 49.9733C152.005 49.8667 151.958 49.7366 151.965 49.5833C151.971 49.4332 152.032 49.3057 152.147 49.2007C152.262 49.0956 152.395 49.0431 152.545 49.0431C152.693 49.0431 152.819 49.0965 152.922 49.2032C153.027 49.3099 153.075 49.4366 153.065 49.5833C153.058 49.6866 153.026 49.78 152.97 49.8633C152.915 49.9467 152.845 50.0125 152.76 50.0609C152.675 50.1092 152.583 50.1334 152.485 50.1334ZM154.527 50.1334C154.374 50.1334 154.247 50.08 154.147 49.9733C154.047 49.8667 154 49.7366 154.007 49.5833C154.014 49.4332 154.074 49.3057 154.189 49.2007C154.304 49.0956 154.437 49.0431 154.587 49.0431C154.735 49.0431 154.861 49.0965 154.965 49.2032C155.07 49.3099 155.117 49.4366 155.107 49.5833C155.1 49.6866 155.069 49.78 155.012 49.8633C154.957 49.9467 154.887 50.0125 154.802 50.0609C154.717 50.1092 154.625 50.1334 154.527 50.1334Z" fill="black"/>
<rect x="19.4547" y="44.2367" width="13.3671" height="2.05749" rx="0.907716" fill="#4AB68E" stroke="white" stroke-width="0.605144"/>
<rect x="19.4547" y="47.3839" width="12.0421" height="2.05749" rx="0.907716" fill="#4AB68E" stroke="white" stroke-width="0.605144"/>
<rect x="33.7882" y="44.2367" width="2.52656" height="2.05749" rx="0.907716" fill="#4AB68E" stroke="white" stroke-width="0.605144"/>
<rect x="37.16" y="44.2367" width="10.8376" height="2.05749" rx="0.907716" fill="#4AB68E" stroke="white" stroke-width="0.605144"/>
<rect x="16.5636" y="41.0889" width="34.8072" height="2.05749" rx="0.907716" fill="#4AB68E" stroke="white" stroke-width="0.605144"/>
<rect x="14.9967" y="37.943" width="39.9866" height="2.05749" rx="0.907716" fill="#4AB68E" stroke="white" stroke-width="0.605144"/>
<rect x="12.9503" y="34.7965" width="43.9614" height="2.05749" rx="0.907716" fill="#4AB68E" stroke="white" stroke-width="0.605144"/>
<rect x="15.7203" y="31.649" width="42.516" height="2.05749" rx="0.907716" fill="#4AB68E" stroke="white" stroke-width="0.605144"/>
<rect x="10.6624" y="28.5023" width="47.5749" height="2.05749" rx="0.907716" fill="#4AB68E" stroke="white" stroke-width="0.605144"/>
<rect x="8.37264" y="25.3546" width="21.1963" height="2.05749" rx="0.907716" fill="#4AB68E" stroke="white" stroke-width="0.605144"/>
<rect x="33.4266" y="25.3546" width="11.4399" height="2.05749" rx="0.907716" fill="#4AB68E" stroke="white" stroke-width="0.605144"/>
<rect x="48.6031" y="25.3546" width="10.3558" height="2.05749" rx="0.907716" fill="#4AB68E" stroke="white" stroke-width="0.605144"/>
<rect x="48.6031" y="25.3546" width="11.4399" height="2.05749" rx="0.907716" fill="#4AB68E" stroke="white" stroke-width="0.605144"/>
<rect x="37.16" y="22.6934" width="3.12881" height="2.05749" rx="0.907716" fill="#4AB68E" stroke="white" stroke-width="0.605144"/>
<rect x="52.2164" y="22.2086" width="10.4763" height="2.05749" rx="0.907716" fill="#4AB68E" stroke="white" stroke-width="0.605144"/>
<rect x="54.1436" y="19.0621" width="11.5603" height="2.05749" rx="0.907716" fill="#4AB68E" stroke="white" stroke-width="0.605144"/>
<rect x="52.9388" y="15.9146" width="13.4875" height="2.05749" rx="0.907716" fill="#4AB68E" stroke="white" stroke-width="0.605144"/>
<rect x="56.6739" y="12.7686" width="4.21286" height="2.05749" rx="0.907716" fill="#4AB68E" stroke="white" stroke-width="0.605144"/>
<rect x="5.84359" y="22.2086" width="24.4485" height="2.05749" rx="0.907716" fill="#4AB68E" stroke="white" stroke-width="0.605144"/>
<rect x="3.19369" y="19.0621" width="26.3757" height="2.05749" rx="0.907716" fill="#4AB68E" stroke="white" stroke-width="0.605144"/>
<rect x="3.19369" y="15.9146" width="26.3757" height="2.05749" rx="0.907716" fill="#4AB68E" stroke="white" stroke-width="0.605144"/>
<rect x="0.302572" y="12.7686" width="29.2665" height="2.05749" rx="0.907716" fill="#4AB68E" stroke="white" stroke-width="0.605144"/>
<rect x="3.19369" y="9.62166" width="27.0984" height="2.05749" rx="0.907716" fill="#4AB68E" stroke="white" stroke-width="0.605144"/>
<rect x="6.80672" y="6.47591" width="5.53781" height="2.05749" rx="0.907716" fill="#4AB68E" stroke="white" stroke-width="0.605144"/>
<rect x="15.2386" y="6.47591" width="12.283" height="2.05749" rx="0.907716" fill="#4AB68E" stroke="white" stroke-width="0.605144"/>
<rect x="16.5636" y="3.32723" width="4.69466" height="2.05749" rx="0.907716" fill="#4AB68E" stroke="white" stroke-width="0.605144"/>
<rect x="17.0445" y="0.302572" width="3.36971" height="2.05749" rx="0.907716" fill="#4AB68E" stroke="white" stroke-width="0.605144"/>
<rect x="19.4547" y="44.2367" width="13.3671" height="2.05749" rx="0.907716" fill="#4AB68E" stroke="white" stroke-width="0.605144"/>
<rect x="19.4547" y="47.3839" width="12.0421" height="2.05749" rx="0.907716" fill="#4AB68E" stroke="white" stroke-width="0.605144"/>
<rect x="33.7882" y="44.2367" width="2.52656" height="2.05749" rx="0.907716" fill="#4AB68E" stroke="white" stroke-width="0.605144"/>
<rect x="37.16" y="44.2367" width="10.8376" height="2.05749" rx="0.907716" fill="#4AB68E" stroke="white" stroke-width="0.605144"/>
<rect x="16.5636" y="41.0889" width="34.8072" height="2.05749" rx="0.907716" fill="#4AB68E" stroke="white" stroke-width="0.605144"/>
<rect x="14.9967" y="37.943" width="39.9866" height="2.05749" rx="0.907716" fill="#4AB68E" stroke="white" stroke-width="0.605144"/>
<rect x="12.9503" y="34.7965" width="43.9614" height="2.05749" rx="0.907716" fill="#4AB68E" stroke="white" stroke-width="0.605144"/>
<rect x="15.7203" y="31.649" width="42.516" height="2.05749" rx="0.907716" fill="#4AB68E" stroke="white" stroke-width="0.605144"/>
<rect x="10.6624" y="28.5023" width="47.5749" height="2.05749" rx="0.907716" fill="#4AB68E" stroke="white" stroke-width="0.605144"/>
<rect x="8.37264" y="25.3546" width="21.1963" height="2.05749" rx="0.907716" fill="#4AB68E" stroke="white" stroke-width="0.605144"/>
<rect x="33.4266" y="25.3546" width="11.4399" height="2.05749" rx="0.907716" fill="#4AB68E" stroke="white" stroke-width="0.605144"/>
<rect x="48.6031" y="25.3546" width="10.3558" height="2.05749" rx="0.907716" fill="#4AB68E" stroke="white" stroke-width="0.605144"/>
<rect x="48.6031" y="25.3546" width="11.4399" height="2.05749" rx="0.907716" fill="#4AB68E" stroke="white" stroke-width="0.605144"/>
<rect x="37.16" y="22.6934" width="3.12881" height="2.05749" rx="0.907716" fill="#4AB68E" stroke="white" stroke-width="0.605144"/>
<rect x="52.2164" y="22.2086" width="10.4763" height="2.05749" rx="0.907716" fill="#4AB68E" stroke="white" stroke-width="0.605144"/>
<rect x="54.1436" y="19.0621" width="11.5603" height="2.05749" rx="0.907716" fill="#4AB68E" stroke="white" stroke-width="0.605144"/>
<rect x="52.9388" y="15.9146" width="13.4875" height="2.05749" rx="0.907716" fill="#4AB68E" stroke="white" stroke-width="0.605144"/>
<rect x="56.6739" y="12.7686" width="4.21286" height="2.05749" rx="0.907716" fill="#4AB68E" stroke="white" stroke-width="0.605144"/>
<rect x="5.84359" y="22.2086" width="24.4485" height="2.05749" rx="0.907716" fill="#4AB68E" stroke="white" stroke-width="0.605144"/>
<rect x="3.19369" y="19.0621" width="26.3757" height="2.05749" rx="0.907716" fill="#4AB68E" stroke="white" stroke-width="0.605144"/>
<rect x="3.19369" y="15.9146" width="26.3757" height="2.05749" rx="0.907716" fill="#4AB68E" stroke="white" stroke-width="0.605144"/>
<rect x="0.302572" y="12.7686" width="29.2665" height="2.05749" rx="0.907716" fill="#4AB68E" stroke="white" stroke-width="0.605144"/>
<rect x="3.19369" y="9.62166" width="27.0984" height="2.05749" rx="0.907716" fill="#4AB68E" stroke="white" stroke-width="0.605144"/>
<rect x="6.80672" y="6.47591" width="5.53781" height="2.05749" rx="0.907716" fill="#4AB68E" stroke="white" stroke-width="0.605144"/>
<rect x="15.2386" y="6.47591" width="12.283" height="2.05749" rx="0.907716" fill="#4AB68E" stroke="white" stroke-width="0.605144"/>
<rect x="16.5636" y="3.32723" width="4.69466" height="2.05749" rx="0.907716" fill="#4AB68E" stroke="white" stroke-width="0.605144"/>
<rect x="17.0445" y="0.302572" width="3.36971" height="2.05749" rx="0.907716" fill="#4AB68E" stroke="white" stroke-width="0.605144"/>
<path d="M76.6393 13.2723C76.602 12.8625 76.4363 12.5441 76.142 12.3169C75.8515 12.0859 75.4361 11.9704 74.896 11.9704C74.5385 11.9704 74.2405 12.017 74.0021 12.1101C73.7637 12.2033 73.5849 12.3318 73.4657 12.4957C73.3465 12.6558 73.285 12.8402 73.2813 13.0488C73.2739 13.2201 73.3074 13.371 73.3819 13.5014C73.4601 13.6317 73.5719 13.7472 73.7171 13.8478C73.8661 13.9446 74.0449 14.0303 74.2535 14.1048C74.4621 14.1793 74.6968 14.2445 74.9575 14.3003L75.9409 14.5238C76.507 14.6467 77.0062 14.8106 77.4382 15.0155C77.8741 15.2204 78.2391 15.4644 78.5334 15.7474C78.8313 16.0305 79.0567 16.3565 79.2094 16.7252C79.3621 17.094 79.4404 17.5074 79.4441 17.9656C79.4404 18.6882 79.2578 19.3084 78.8965 19.8261C78.5352 20.3439 78.0156 20.7406 77.3377 21.0162C76.6635 21.2919 75.8496 21.4297 74.896 21.4297C73.9388 21.4297 73.1044 21.2863 72.3929 20.9995C71.6815 20.7127 71.1284 20.2769 70.7335 19.6921C70.3387 19.1073 70.1357 18.3679 70.1245 17.4739H72.7729C72.7952 17.8427 72.8939 18.15 73.069 18.3958C73.2441 18.6416 73.4843 18.8279 73.7898 18.9545C74.0989 19.0812 74.4565 19.1445 74.8625 19.1445C75.235 19.1445 75.5516 19.0942 75.8124 18.9936C76.0768 18.8931 76.2798 18.7534 76.4214 18.5746C76.5629 18.3958 76.6355 18.1909 76.6393 17.96C76.6355 17.744 76.5685 17.5596 76.4381 17.4069C76.3078 17.2504 76.1066 17.1163 75.8347 17.0046C75.5665 16.8891 75.2238 16.7829 74.8066 16.6861L73.611 16.4067C72.6202 16.1795 71.8398 15.8126 71.2699 15.306C70.7 14.7957 70.4169 14.1066 70.4206 13.2388C70.4169 12.531 70.6069 11.9109 70.9905 11.3782C71.3742 10.8455 71.905 10.4302 72.5829 10.1322C73.2608 9.83425 74.0337 9.68526 74.9016 9.68526C75.7881 9.68526 76.5573 9.83611 77.2092 10.1378C77.8647 10.4358 78.3732 10.8549 78.7345 11.395C79.0958 11.9351 79.2802 12.5608 79.2876 13.2723H76.6393ZM80.4665 12.0878V9.8417H90.1381V12.0878H86.6684V21.2844H83.9418V12.0878H80.4665ZM92.535 21.2844H89.5626L93.4234 9.8417H97.1054L100.966 21.2844H97.9938L95.3063 12.7247H95.2169L92.535 21.2844ZM92.1383 16.7811H98.3514V18.8819H92.1383V16.7811ZM102.198 21.2844V9.8417H106.925C107.782 9.8417 108.521 9.99628 109.143 10.3054C109.769 10.6109 110.251 11.0504 110.59 11.624C110.929 12.1939 111.099 12.87 111.099 13.6522C111.099 14.4456 110.926 15.1198 110.579 15.6748C110.233 16.2261 109.741 16.647 109.104 16.9375C108.467 17.2243 107.713 17.3677 106.841 17.3677H103.852V15.1887H106.327C106.744 15.1887 107.093 15.1347 107.372 15.0267C107.655 14.9149 107.869 14.7473 108.015 14.5238C108.16 14.2966 108.232 14.0061 108.232 13.6522C108.232 13.2984 108.16 13.006 108.015 12.775C107.869 12.5403 107.655 12.3653 107.372 12.2498C107.089 12.1306 106.741 12.071 106.327 12.071H104.964V21.2844H102.198ZM108.64 16.0547L111.49 21.2844H108.473L105.679 16.0547H108.64ZM112.241 12.0878V9.8417H121.913V12.0878H118.443V21.2844H115.717V12.0878H112.241ZM130.186 9.8417H132.946V17.2225C132.946 18.0755 132.743 18.8186 132.337 19.4518C131.931 20.0813 131.365 20.5693 130.639 20.9157C129.912 21.2583 129.069 21.4297 128.108 21.4297C127.136 21.4297 126.286 21.2583 125.56 20.9157C124.834 20.5693 124.269 20.0813 123.867 19.4518C123.465 18.8186 123.264 18.0755 123.264 17.2225V9.8417H126.029V16.9822C126.029 17.3771 126.115 17.7291 126.286 18.0382C126.461 18.3474 126.705 18.5895 127.018 18.7646C127.331 18.9396 127.694 19.0272 128.108 19.0272C128.521 19.0272 128.883 18.9396 129.192 18.7646C129.505 18.5895 129.749 18.3474 129.924 18.0382C130.099 17.7291 130.186 17.3771 130.186 16.9822V9.8417ZM134.68 21.2844V9.8417H139.407C140.263 9.8417 141.003 10.0093 141.625 10.3446C142.251 10.6761 142.733 11.1398 143.072 11.7358C143.411 12.328 143.58 13.0171 143.58 13.8031C143.58 14.5927 143.407 15.2837 143.061 15.8759C142.718 16.4645 142.228 16.9208 141.591 17.2448C140.954 17.5689 140.198 17.7309 139.323 17.7309H136.406V15.5519H138.809C139.226 15.5519 139.574 15.4793 139.854 15.334C140.137 15.1887 140.351 14.9857 140.496 14.725C140.641 14.4605 140.714 14.1532 140.714 13.8031C140.714 13.4492 140.641 13.1438 140.496 12.8868C140.351 12.626 140.137 12.4249 139.854 12.2833C139.571 12.1418 139.222 12.071 138.809 12.071H137.445V21.2844H134.68Z" fill="#0D726F"/>
<path d="M79.6105 35.6551C79.6105 35.8334 79.5476 35.9855 79.4217 36.1114C79.3063 36.2267 79.1595 36.2844 78.9812 36.2844H77.3921C77.2033 36.2844 77.025 36.2634 76.8571 36.2215C76.6998 36.169 76.5582 36.0012 76.4323 35.718L72.9394 28.0557C72.8975 27.9718 72.8503 27.9298 72.7978 27.9298C72.7454 27.9298 72.7192 27.9718 72.7192 28.0557V35.9697C72.7192 36.0537 72.6877 36.1271 72.6247 36.19C72.5723 36.253 72.5041 36.2844 72.4202 36.2844H71.0828C70.9989 36.2844 70.9255 36.253 70.8626 36.19C70.7996 36.1271 70.7682 36.0537 70.7682 35.9697V25.2236C70.7682 25.0453 70.8259 24.8984 70.9412 24.7831C71.0671 24.6572 71.2192 24.5943 71.3975 24.5943H73.0968C73.2646 24.5943 73.3957 24.6257 73.4901 24.6887C73.595 24.7516 73.6946 24.8879 73.789 25.0977L77.455 33.1849C77.4865 33.2688 77.5284 33.3107 77.5809 33.3107C77.6333 33.3107 77.6595 33.2635 77.6595 33.1691V24.8932C77.6595 24.6939 77.7592 24.5943 77.9585 24.5943H79.3116C79.5109 24.5943 79.6105 24.6939 79.6105 24.8932V35.6551ZM84.1562 35.9697C84.1562 36.0537 84.1248 36.1271 84.0618 36.19C83.9989 36.253 83.9255 36.2844 83.8416 36.2844H82.2839C82.2 36.2844 82.1266 36.253 82.0636 36.19C82.0007 36.1271 81.9692 36.0537 81.9692 35.9697V24.8932C81.9692 24.8093 82.0007 24.7411 82.0636 24.6887C82.1266 24.6257 82.2 24.5943 82.2839 24.5943H83.8416C83.9255 24.5943 83.9989 24.6257 84.0618 24.6887C84.1248 24.7411 84.1562 24.8093 84.1562 24.8932V35.9697ZM94.1481 35.7652C94.1481 35.975 94.0485 36.1009 93.8492 36.1428C93.4506 36.2267 92.9838 36.2897 92.4489 36.3316C91.914 36.3841 91.2374 36.4103 90.4192 36.4103C89.9997 36.4103 89.5434 36.3316 89.0504 36.1743C88.5574 36.017 88.0959 35.7547 87.6658 35.3876C87.2463 35.0205 86.8949 34.5275 86.6117 33.9086C86.339 33.2793 86.2026 32.5031 86.2026 31.58V29.3144C86.2026 28.3808 86.3337 27.6046 86.5959 26.9858C86.8687 26.3669 87.2148 25.8739 87.6344 25.5068C88.0539 25.1292 88.5102 24.8617 89.0032 24.7044C89.5067 24.547 89.9944 24.4684 90.4664 24.4684C90.8441 24.4684 91.2059 24.4789 91.5521 24.4998C91.9087 24.5208 92.2339 24.547 92.5276 24.5785C92.8213 24.61 93.0835 24.6415 93.3143 24.6729C93.545 24.7044 93.7233 24.7306 93.8492 24.7516C94.0485 24.7935 94.1481 24.9037 94.1481 25.082V26.1362C94.1481 26.2515 94.1272 26.3355 94.0852 26.3879C94.0433 26.4403 93.9593 26.4666 93.8335 26.4666H93.7863C93.4191 26.4351 92.9629 26.4089 92.4174 26.3879C91.872 26.3564 91.2217 26.3407 90.4664 26.3407C90.2042 26.3407 89.9472 26.3931 89.6955 26.498C89.4542 26.5924 89.234 26.755 89.0347 26.9858C88.8459 27.2165 88.6938 27.526 88.5784 27.9141C88.463 28.2917 88.4053 28.7584 88.4053 29.3144V31.58C88.4053 32.136 88.463 32.6027 88.5784 32.9803C88.7043 33.3579 88.8616 33.6621 89.0504 33.8929C89.2497 34.1237 89.47 34.2915 89.7112 34.3964C89.9525 34.4908 90.1885 34.538 90.4192 34.538C90.9752 34.538 91.4944 34.5222 91.9769 34.4908V30.4787C91.9769 30.3948 92.0031 30.3213 92.0556 30.2584C92.1185 30.1955 92.1919 30.164 92.2758 30.164H93.8335C93.9174 30.164 93.9908 30.1955 94.0537 30.2584C94.1167 30.3213 94.1481 30.3948 94.1481 30.4787V35.7652ZM103.443 35.8596C103.443 35.975 103.417 36.0537 103.364 36.0956C103.322 36.1376 103.244 36.169 103.128 36.19C103.003 36.211 102.861 36.2372 102.704 36.2687C102.557 36.2897 102.368 36.3106 102.137 36.3316C101.917 36.3526 101.644 36.3683 101.319 36.3788C101.004 36.3998 100.611 36.4103 100.139 36.4103C99.625 36.4103 99.1478 36.3683 98.7072 36.2844C98.2667 36.2005 97.8838 36.0432 97.5587 35.8124C97.2335 35.5712 96.9765 35.2408 96.7877 34.8212C96.5989 34.4016 96.5045 33.8562 96.5045 33.1849V27.6938C96.5045 27.0225 96.5989 26.4771 96.7877 26.0575C96.9765 25.6379 97.2335 25.3128 97.5587 25.082C97.8838 24.8407 98.2667 24.6782 98.7072 24.5943C99.1478 24.5103 99.625 24.4684 100.139 24.4684C100.611 24.4684 101.004 24.4789 101.319 24.4998C101.644 24.5103 101.917 24.5261 102.137 24.547C102.368 24.568 102.557 24.5943 102.704 24.6257C102.861 24.6467 103.003 24.6677 103.128 24.6887C103.244 24.7096 103.322 24.7411 103.364 24.7831C103.417 24.825 103.443 24.9037 103.443 25.0191V26.026C103.443 26.1099 103.412 26.1834 103.349 26.2463C103.286 26.3092 103.212 26.3407 103.128 26.3407H99.9187C99.4572 26.3407 99.1321 26.4351 98.9432 26.6239C98.7649 26.8127 98.6758 27.1693 98.6758 27.6938V29.393H102.94C103.024 29.393 103.097 29.4245 103.16 29.4874C103.223 29.5504 103.254 29.6238 103.254 29.7077V30.8405C103.254 30.9245 103.223 30.9979 103.16 31.0608C103.097 31.1238 103.024 31.1552 102.94 31.1552H98.6758V33.1849C98.6758 33.7093 98.7649 34.066 98.9432 34.2548C99.1321 34.4436 99.4572 34.538 99.9187 34.538H103.128C103.212 34.538 103.286 34.5694 103.349 34.6324C103.412 34.6953 103.443 34.7687 103.443 34.8527V35.8596ZM114.066 36.0956C114.066 36.2215 114.003 36.2844 113.877 36.2844H111.958C111.874 36.2844 111.811 36.253 111.769 36.19C111.727 36.1271 111.685 36.0537 111.643 35.9697L109.377 31.7688H109.157C108.947 31.7688 108.706 31.7636 108.433 31.7531C108.161 31.7321 107.935 31.7164 107.757 31.7059V35.9697C107.757 36.0537 107.725 36.1271 107.662 36.19C107.61 36.253 107.542 36.2844 107.458 36.2844H105.885C105.801 36.2844 105.727 36.253 105.664 36.19C105.601 36.1271 105.57 36.0537 105.57 35.9697V25.1449C105.57 24.9876 105.612 24.8775 105.696 24.8145C105.79 24.7411 105.916 24.6939 106.073 24.6729C106.482 24.61 106.954 24.5628 107.489 24.5313C108.024 24.4894 108.58 24.4684 109.157 24.4684C109.766 24.4684 110.342 24.5313 110.888 24.6572C111.433 24.7726 111.911 24.9666 112.32 25.2393C112.739 25.5121 113.07 25.8792 113.311 26.3407C113.563 26.7917 113.688 27.3529 113.688 28.0242V28.1658C113.688 29.0049 113.494 29.6867 113.106 30.2112C112.729 30.7357 112.215 31.1238 111.564 31.3755L114.035 35.9697C114.056 36.0012 114.066 36.0432 114.066 36.0956ZM111.517 28.0242C111.517 27.4263 111.318 26.9963 110.919 26.734C110.531 26.4718 109.944 26.3407 109.157 26.3407C109.073 26.3407 108.963 26.3459 108.827 26.3564C108.701 26.3564 108.57 26.3617 108.433 26.3722C108.297 26.3722 108.166 26.3774 108.04 26.3879C107.925 26.3879 107.83 26.3931 107.757 26.4036V29.9437C107.82 29.9437 107.914 29.949 108.04 29.9595C108.176 29.9595 108.313 29.9647 108.449 29.9752C108.596 29.9752 108.732 29.9804 108.858 29.9909C108.995 29.9909 109.094 29.9909 109.157 29.9909C109.975 29.9909 110.573 29.8598 110.951 29.5976C111.328 29.3354 111.517 28.8581 111.517 28.1658V28.0242ZM128.231 31.5958C128.231 33.1587 127.801 34.3544 126.941 35.1831C126.092 36.0012 124.875 36.4103 123.291 36.4103C123.008 36.4103 122.709 36.405 122.394 36.3946C122.09 36.3841 121.791 36.3683 121.497 36.3474C121.214 36.3264 120.952 36.3054 120.711 36.2844C120.48 36.2634 120.307 36.2425 120.192 36.2215C120.055 36.2005 119.95 36.1533 119.877 36.0799C119.814 36.0065 119.782 35.8911 119.782 35.7337V25.1449C119.782 24.9876 119.814 24.8722 119.877 24.7988C119.95 24.7254 120.055 24.6782 120.192 24.6572C120.307 24.6362 120.48 24.6152 120.711 24.5943C120.952 24.5733 121.214 24.5523 121.497 24.5313C121.791 24.5103 122.09 24.4946 122.394 24.4841C122.709 24.4736 123.008 24.4684 123.291 24.4684C124.875 24.4684 126.092 24.8827 126.941 25.7113C127.801 26.5295 128.231 27.72 128.231 29.2829V31.5958ZM126.06 29.2829C126.06 28.6955 125.987 28.213 125.84 27.8354C125.704 27.4473 125.51 27.1431 125.258 26.9228C125.017 26.6921 124.728 26.5347 124.392 26.4508C124.057 26.3564 123.69 26.3092 123.291 26.3092C122.997 26.3092 122.746 26.3145 122.536 26.325C122.326 26.3355 122.137 26.3459 121.969 26.3564V34.5222C122.137 34.5327 122.326 34.5432 122.536 34.5537C122.746 34.5642 122.997 34.5694 123.291 34.5694C123.69 34.5694 124.057 34.5275 124.392 34.4436C124.728 34.3492 125.017 34.1918 125.258 33.9716C125.51 33.7408 125.704 33.4366 125.84 33.059C125.987 32.6709 126.06 32.1832 126.06 31.5958V29.2829ZM137.215 35.8596C137.215 35.975 137.189 36.0537 137.137 36.0956C137.095 36.1376 137.016 36.169 136.901 36.19C136.775 36.211 136.633 36.2372 136.476 36.2687C136.329 36.2897 136.14 36.3106 135.909 36.3316C135.689 36.3526 135.416 36.3683 135.091 36.3788C134.777 36.3998 134.383 36.4103 133.911 36.4103C133.397 36.4103 132.92 36.3683 132.479 36.2844C132.039 36.2005 131.656 36.0432 131.331 35.8124C131.006 35.5712 130.749 35.2408 130.56 34.8212C130.371 34.4016 130.277 33.8562 130.277 33.1849V27.6938C130.277 27.0225 130.371 26.4771 130.56 26.0575C130.749 25.6379 131.006 25.3128 131.331 25.082C131.656 24.8407 132.039 24.6782 132.479 24.5943C132.92 24.5103 133.397 24.4684 133.911 24.4684C134.383 24.4684 134.777 24.4789 135.091 24.4998C135.416 24.5103 135.689 24.5261 135.909 24.547C136.14 24.568 136.329 24.5943 136.476 24.6257C136.633 24.6467 136.775 24.6677 136.901 24.6887C137.016 24.7096 137.095 24.7411 137.137 24.7831C137.189 24.825 137.215 24.9037 137.215 25.0191V26.026C137.215 26.1099 137.184 26.1834 137.121 26.2463C137.058 26.3092 136.985 26.3407 136.901 26.3407H133.691C133.229 26.3407 132.904 26.4351 132.715 26.6239C132.537 26.8127 132.448 27.1693 132.448 27.6938V29.393H136.712C136.796 29.393 136.869 29.4245 136.932 29.4874C136.995 29.5504 137.027 29.6238 137.027 29.7077V30.8405C137.027 30.9245 136.995 30.9979 136.932 31.0608C136.869 31.1238 136.796 31.1552 136.712 31.1552H132.448V33.1849C132.448 33.7093 132.537 34.066 132.715 34.2548C132.904 34.4436 133.229 34.538 133.691 34.538H136.901C136.985 34.538 137.058 34.5694 137.121 34.6324C137.184 34.6953 137.215 34.7687 137.215 34.8527V35.8596ZM145.966 35.8596C145.966 35.975 145.94 36.0537 145.887 36.0956C145.845 36.1376 145.767 36.169 145.651 36.19C145.536 36.2215 145.368 36.253 145.148 36.2844C144.938 36.3054 144.707 36.3264 144.456 36.3474C144.204 36.3683 143.947 36.3841 143.685 36.3946C143.422 36.405 143.186 36.4103 142.977 36.4103C142.463 36.4103 141.985 36.3683 141.545 36.2844C141.104 36.2005 140.721 36.0432 140.396 35.8124C140.071 35.5712 139.814 35.2408 139.625 34.8212C139.436 34.4016 139.342 33.8562 139.342 33.1849V24.9089C139.342 24.825 139.374 24.7516 139.436 24.6887C139.499 24.6257 139.573 24.5943 139.657 24.5943H141.214C141.298 24.5943 141.372 24.6257 141.435 24.6887C141.498 24.7516 141.529 24.825 141.529 24.9089V33.1849C141.529 33.7093 141.618 34.066 141.797 34.2548C141.975 34.4436 142.295 34.538 142.756 34.538H145.651C145.735 34.538 145.809 34.5694 145.872 34.6324C145.935 34.6953 145.966 34.7687 145.966 34.8527V35.8596ZM154.991 26.1362C154.991 26.2201 154.96 26.2883 154.897 26.3407C154.834 26.3931 154.761 26.4194 154.677 26.4194H151.923V35.9697C151.923 36.0537 151.892 36.1271 151.829 36.19C151.766 36.253 151.692 36.2844 151.609 36.2844H150.051C149.967 36.2844 149.894 36.253 149.831 36.19C149.768 36.1271 149.736 36.0537 149.736 35.9697V26.4194H146.983C146.899 26.4194 146.825 26.3931 146.763 26.3407C146.7 26.2883 146.668 26.2201 146.668 26.1362V24.8932C146.668 24.8093 146.7 24.7411 146.763 24.6887C146.825 24.6257 146.899 24.5943 146.983 24.5943H154.677C154.761 24.5943 154.834 24.6257 154.897 24.6887C154.96 24.7411 154.991 24.8093 154.991 24.8932V26.1362ZM165.251 36.017C165.251 36.1009 165.225 36.169 165.173 36.2215C165.12 36.2634 165.052 36.2844 164.968 36.2844H163.3C163.227 36.2844 163.164 36.2582 163.111 36.2058C163.059 36.1533 163.022 36.0904 163.001 36.017L162.278 33.0275H158.659L157.935 36.017C157.914 36.0904 157.877 36.1533 157.825 36.2058C157.773 36.2582 157.71 36.2844 157.636 36.2844H155.968C155.884 36.2844 155.816 36.2634 155.764 36.2215C155.711 36.169 155.685 36.1009 155.685 36.017C155.685 36.0065 155.685 35.996 155.685 35.9855C155.696 35.975 155.701 35.9593 155.701 35.9383L158.281 26.0732C158.376 25.7061 158.512 25.4176 158.69 25.2079C158.869 24.9981 159.057 24.8407 159.257 24.7359C159.466 24.6205 159.676 24.547 159.886 24.5156C160.106 24.4841 160.3 24.4684 160.468 24.4684C160.636 24.4684 160.825 24.4841 161.035 24.5156C161.255 24.547 161.465 24.6205 161.664 24.7359C161.874 24.8407 162.068 24.9981 162.246 25.2079C162.424 25.4176 162.561 25.7061 162.655 26.0732L165.236 35.9383C165.236 35.9593 165.236 35.975 165.236 35.9855C165.246 35.996 165.251 36.0065 165.251 36.017ZM160.72 26.561C160.699 26.4666 160.673 26.4036 160.641 26.3722C160.61 26.3302 160.552 26.3092 160.468 26.3092C160.384 26.3092 160.327 26.3302 160.295 26.3722C160.264 26.4036 160.237 26.4666 160.216 26.561L159.084 31.2339H161.853L160.72 26.561Z" fill="#FA9B03"/>
<path d="M163.531 39.2764H165.105C165.426 39.2764 165.686 39.5365 165.686 39.8574V40.2901C165.686 40.611 165.426 40.8711 165.105 40.8711H163.531V39.2764Z" fill="#FA9B03"/>
<path d="M163.531 43.2839H165.105C165.426 43.2839 165.686 43.5441 165.686 43.865V44.2976C165.686 44.6185 165.426 44.8787 165.105 44.8787H163.531V43.2839Z" fill="#FA9B03"/>
<path fill-rule="evenodd" clip-rule="evenodd" d="M159.792 38.4746C158.773 38.4746 157.947 39.3005 157.947 40.3192V41.1185H17.7727C17.2505 41.1185 16.8271 41.5418 16.8271 42.064V42.0944C16.8271 42.6166 17.2505 43.0399 17.7727 43.0399H157.947V43.844C157.947 44.8627 158.773 45.6886 159.792 45.6886H163.531V38.4746H159.792Z" fill="#0D726F"/>
</svg>
