<svg width="1478" height="270" viewBox="0 0 1478 270" fill="none" xmlns="http://www.w3.org/2000/svg">
<path d="M135.37 237.243C135.37 237.243 62.1178 117.158 135.37 37.608C178.527 -9.25928 258.614 -10.3883 309.344 23.5001C379.764 70.5422 338.16 215.809 313.284 231.244L135.37 237.243Z" fill="#599EA8"/>
<path d="M173.169 226.528C173.169 226.528 97.4622 118.498 159.413 53.5052C193.807 17.4228 286.85 28.6873 309.344 62.2536C348.341 120.447 295.318 205.903 281.507 217.923L173.169 226.528Z" fill="#397D87"/>
<path opacity="0.5" d="M1435.85 142.595C1447.46 145.733 1457.19 153.966 1453.86 172.925C1450.52 191.883 1432.68 189.005 1423.26 186.544C1413.83 184.083 1400.8 173.683 1406.08 157.605C1410.85 143.082 1425.38 139.766 1435.85 142.595Z" fill="white"/>
<path opacity="0.5" d="M1434.52 147.418C1443.64 149.881 1451.27 156.342 1448.66 171.219C1446.04 186.097 1432.03 183.838 1424.64 181.907C1417.25 179.976 1407.02 171.814 1411.16 159.197C1414.9 147.801 1426.31 145.198 1434.52 147.418Z" fill="white"/>
<path d="M1414.94 209.657C1414.94 209.657 1418.28 208.475 1421.84 210.409L1412.5 252.187C1412.5 252.187 1408.5 252.777 1404.49 249.46L1414.94 209.657Z" fill="#13353A"/>
<path d="M1416.94 211.536C1416.94 211.536 1424.28 177.995 1424.95 175.236H1426.95C1426.95 175.236 1419.84 209.093 1419.39 212.777L1416.94 211.536Z" fill="#13353A"/>
<path d="M1422.43 174.101L1427.74 174.837L1429.69 176.527L1437.24 163.281L1432.2 153.938L1423.67 157.934L1422.43 174.101Z" fill="white" stroke="#13353A" stroke-width="2" stroke-miterlimit="10"/>
<path d="M1423.67 157.934L1432.52 159.378L1437.24 163.281" stroke="#13353A" stroke-width="2" stroke-miterlimit="10"/>
<path d="M1427.74 174.837L1432.52 159.378L1432.2 153.938" stroke="#13353A" stroke-width="2" stroke-miterlimit="10"/>
<path d="M1422.25 174.288L1426.06 176.001L1429.69 176.713L1427.74 174.837L1422.25 174.288Z" fill="#13353A"/>
<path d="M1424.71 181.852C1424.5 180.237 1425.49 178.543 1427.02 177.893C1428.55 177.242 1430.5 177.689 1431.57 178.938C1431.93 179.352 1432.19 179.837 1432.4 180.336C1432.84 181.37 1433.08 182.576 1432.6 183.594C1432.11 184.618 1430.9 185.26 1429.75 185.095C1428.61 184.929 1427.63 183.969 1427.48 182.852C1427.42 182.455 1427.47 182.029 1427.7 181.697C1427.92 181.377 1428.28 181.178 1428.66 181.07C1429.24 180.906 1429.96 180.978 1430.31 181.454C1430.66 181.929 1430.29 182.79 1429.7 182.696" stroke="#13353A" stroke-width="2" stroke-miterlimit="10" stroke-linecap="round"/>
<path d="M1423.79 183.928C1423.88 183.103 1423.98 182.279 1424.07 181.455C1424.27 179.801 1424.35 177.859 1423.06 176.772C1421.99 175.871 1420.22 176.001 1419.17 176.929C1418.13 177.858 1417.8 179.416 1418.2 180.74C1418.38 181.363 1418.73 181.959 1419.27 182.344C1419.81 182.729 1420.55 182.871 1421.16 182.608C1421.77 182.344 1422.17 181.633 1421.98 181.012C1421.78 180.39 1420.93 180.029 1420.38 180.385" stroke="#13353A" stroke-width="2" stroke-miterlimit="10" stroke-linecap="round"/>
<path d="M1408.08 249.95L1412.84 230.827C1412.88 230.653 1413.06 230.546 1413.24 230.588C1413.42 230.63 1413.53 230.804 1413.49 230.977L1408.94 250.15C1408.89 250.383 1408.65 250.529 1408.41 250.475C1408.17 250.421 1408.02 250.188 1408.08 249.955C1408.08 249.954 1408.08 249.951 1408.08 249.95Z" fill="#0E282C"/>
<path d="M1406.11 248.875L1410.87 229.752C1410.92 229.577 1411.1 229.47 1411.28 229.513C1411.45 229.555 1411.56 229.728 1411.52 229.902L1406.98 249.075C1406.92 249.308 1406.68 249.453 1406.44 249.399C1406.2 249.345 1406.05 249.113 1406.11 248.879C1406.11 248.879 1406.11 248.876 1406.11 248.875Z" fill="#0E282C"/>
<path d="M1410.66 250.133L1415.33 230.693C1415.37 230.519 1415.55 230.41 1415.73 230.451C1415.91 230.491 1416.02 230.661 1415.98 230.833L1411.84 250.387C1411.77 250.707 1411.45 250.912 1411.12 250.846C1410.8 250.78 1410.58 250.468 1410.65 250.148C1410.65 250.144 1410.65 250.137 1410.66 250.133Z" fill="#0E282C"/>
<path d="M1407.99 151.831C1407.99 151.831 1412.64 156.651 1405.28 168.639C1405.28 168.639 1399.96 160.548 1407.99 151.831Z" fill="#BD5B1C"/>
<path d="M1466.33 181.888C1466.33 181.888 1466.65 187.655 1457.58 193.025C1457.58 193.025 1458.34 184.526 1466.33 181.888Z" fill="#BD5B1C"/>
<path d="M1410.19 122.947C1410.19 122.947 1413.41 126.847 1410.19 131.614C1406.96 136.381 1397.07 134.972 1397.07 134.972C1397.07 134.972 1407.96 128.689 1410.19 122.947Z" fill="#BD703F"/>
<path d="M1391.73 133.269C1391.73 133.269 1395.73 136.235 1400.85 132.408C1405.96 128.58 1409.74 122.297 1410.19 122.947C1410.63 123.597 1411.78 129.556 1407.96 132.408C1403.63 135.647 1397.29 137.957 1391.73 133.269Z" fill="#BD5B1C"/>
<path d="M1456.29 199.489C1456.29 199.489 1455.36 203.642 1450.41 204.099C1445.46 204.556 1441.15 197.427 1441.15 197.427C1441.15 197.427 1451.21 201.109 1456.29 199.489Z" fill="#BD703F"/>
<path d="M1439.47 193.08C1439.47 193.08 1439.58 197.238 1444.9 198.5C1450.22 199.761 1456.5 198.856 1456.29 199.489C1456.09 200.121 1452.65 204.032 1448.69 203.088C1444.18 202.016 1439.24 199.158 1439.47 193.08Z" fill="#BD5B1C"/>
<path d="M1431.8 133.99C1431.8 133.99 1434.53 141.253 1430.84 144.828C1427.16 148.403 1421.6 145.362 1421.6 145.362C1421.6 145.362 1431.99 143.518 1431.8 133.99Z" fill="#BD703F"/>
<path d="M1421.13 145.362C1421.13 145.362 1430.8 141.241 1431.87 133.556C1431.87 133.556 1434.67 148.603 1421.13 145.362Z" fill="#BD5B1C"/>
<path d="M1393.83 187.108C1393.83 187.108 1387.84 186.792 1386.38 183.231C1384.93 179.67 1388.76 176.809 1388.76 176.809C1388.76 176.809 1386.98 184.402 1393.83 187.108Z" fill="#BD703F"/>
<path d="M1388.9 176.491C1388.9 176.491 1388.96 184.273 1394.12 187.286C1394.12 187.286 1382.55 184.7 1388.9 176.491Z" fill="#BD5B1C"/>
<path d="M1379.18 163.049C1379.18 163.049 1380.57 156.717 1386.91 152.817C1386.91 152.817 1389.8 161.744 1379.18 163.049Z" fill="#BD703F"/>
<path d="M1379.18 163.049C1379.18 163.049 1378.63 156.284 1386.91 152.817C1386.91 152.817 1384.85 161.798 1379.18 163.049Z" fill="#BD5B1C"/>
<path d="M0.1875 249.383V267.546L1478.01 269V261.655C1091.31 163.477 331.671 212.566 0.1875 249.383Z" fill="#69826E"/>
<path d="M770.067 218.77C770.067 218.77 768.688 218.753 766.274 218.724C763.859 218.696 760.417 218.642 756.252 218.64C747.935 218.607 736.847 218.565 725.759 218.522C714.705 218.438 703.495 218.527 695.126 218.548C686.75 218.578 681.166 218.597 681.166 218.597C673.768 218.625 667.486 217.581 667.149 216.285L665.928 211.415C665.581 210.102 671.64 209.028 679.452 208.999C679.452 208.999 685.322 208.978 694.129 208.946C702.932 208.924 714.69 208.834 726.392 208.92C738.105 208.965 749.821 209.011 758.607 209.045C763.005 209.049 766.649 209.105 769.205 209.134C771.76 209.165 773.219 209.182 773.219 209.182C780.995 209.274 786.85 210.403 786.296 211.706L784.304 216.569C783.751 217.871 777.377 218.857 770.067 218.77Z" fill="#7B9982"/>
<path d="M830.488 231.31C830.488 231.31 825.398 231.211 817.759 231.062C813.941 230.986 809.488 230.898 804.717 230.803C802.325 230.761 799.878 230.693 797.349 230.666C794.822 230.638 792.255 230.609 789.688 230.58C779.424 230.458 769.16 230.337 761.463 230.245C757.624 230.185 754.386 230.186 752.126 230.178C749.866 230.17 748.573 230.165 748.573 230.165C741.728 230.141 736.31 229.061 736.468 227.756L737.132 222.882C737.29 221.577 743.336 220.542 750.632 220.569C750.632 220.569 752.002 220.574 754.401 220.583C756.798 220.592 760.231 220.593 764.312 220.655C772.492 220.751 783.399 220.88 794.306 221.009C797.033 221.04 799.76 221.072 802.445 221.102C805.13 221.132 807.741 221.202 810.284 221.247C815.362 221.347 820.103 221.441 824.165 221.521C832.294 221.68 837.712 221.786 837.712 221.786C841.309 221.859 844.371 222.174 846.359 222.656C848.34 223.145 849.277 223.77 848.729 224.416L844.659 229.241C844.114 229.887 842.247 230.434 839.697 230.795C837.142 231.165 833.863 231.378 830.488 231.31Z" fill="#7B9982"/>
<path d="M42.3529 263.925C45.6103 263.769 48.0762 263.352 50.4048 262.947C53.399 262.415 56.5687 261.906 59.683 261.388C62.8202 260.875 65.8888 260.35 69.0794 259.843L78.6989 258.329L83.5049 257.571L88.4386 256.833C93.2026 256.124 98.329 255.232 97.6481 254.118C97.1866 253.319 93.6889 252.656 90.3648 252.063C80.6518 250.331 68.4767 248.449 54.6177 248.937C51.1028 249.059 47.8702 249.325 44.8494 249.664C41.8494 250.006 39.1337 250.435 36.5095 250.856C33.0442 251.419 29.6267 251.991 26.3655 252.587C23.1501 253.191 20.0281 253.808 17.0034 254.436C13.9482 255.06 11.1028 255.712 8.37939 256.377C5.66364 257.043 2.9746 257.707 0.544922 258.4C5.41 260.857 17.4306 262.832 31.4747 263.714C34.98 263.933 38.8419 264.091 42.3529 263.925Z" fill="#7B9982"/>
<path d="M175.259 235.79C170.169 235.791 165.401 236.212 160.91 236.633L157.133 236.989L153.445 237.37L146.118 238.147C141.257 238.672 136.424 239.205 131.666 239.757C126.995 240.331 122.372 240.916 117.807 241.512C113.237 242.107 108.698 242.708 104.39 243.359C100.858 243.879 97.0342 244.539 97.5606 245.322C97.8848 245.803 99.8129 246.202 101.657 246.573L123.019 250.873C125.431 251.361 128.246 251.886 131.86 251.953C134.332 251.999 136.657 251.817 138.821 251.633C144.842 251.106 150.933 250.588 156.834 250.023C162.756 249.462 168.41 248.836 174.193 248.237C179.914 247.623 185.481 246.97 190.892 246.277C196.388 245.607 201.802 244.916 207.018 244.175C208.818 243.921 210.724 243.622 210.972 243.209C211.191 242.844 210.047 242.492 208.944 242.17L198.545 239.136C193.15 237.564 185.962 235.789 175.259 235.79Z" fill="#7B9982"/>
<path d="M299.903 233.594C307.332 231.729 302.083 228.802 290.656 227.494C284.942 226.841 278.217 226.524 271.256 226.47C264.381 226.446 257.266 226.68 250.69 227.078C237.426 227.843 226.168 229.331 214.371 230.584C212.53 230.784 210.581 230.982 208.96 231.234C207.339 231.486 205.981 231.773 205.23 232.121C204 232.691 204.642 233.321 205.567 233.903C208.857 235.971 215.631 237.867 224.595 239.352C235.135 239.178 245.304 238.708 255.017 238.016C257.447 237.844 259.852 237.659 262.236 237.465L265.802 237.169L269.405 236.883C274.19 236.494 278.908 236.082 283.575 235.67C286.615 235.403 289.717 235.124 292.532 234.787C295.338 234.446 297.97 234.087 299.903 233.594Z" fill="#7B9982"/>
<path d="M419.671 226.192C420.177 225.945 419.892 225.669 419.583 225.409C416.553 222.872 411.68 220.4 404.876 218.095C403.623 217.67 402.093 217.218 399.458 217.055C397.505 216.934 395.321 216.998 393.259 217.065C385.488 217.319 377.716 217.6 369.989 217.916C362.356 218.279 354.753 218.672 347.197 219.093C343.419 219.303 339.654 219.521 335.903 219.745C332.149 219.969 328.511 220.243 324.834 220.5C317.506 221.025 310.248 221.577 303.075 222.155C309.838 224.898 318.866 227.485 329.487 229.844C331.146 230.213 332.966 230.591 335.439 230.764C338.74 230.994 342.36 230.802 345.644 230.609L352.851 230.183L356.45 229.968L360.1 229.777L374.69 229.012L389.237 228.238C394.104 227.991 399.046 227.78 403.937 227.547C408.053 227.355 412.195 227.159 415.962 226.813C417.507 226.672 419.072 226.485 419.671 226.192Z" fill="#7B9982"/>
<path d="M548.523 222.697C546.757 219.647 542.994 216.624 537.017 213.721C533.005 211.731 516.466 211.46 498.844 211.913C494.454 212.033 489.98 212.18 485.683 212.396C481.4 212.622 477.246 212.881 473.401 213.158C465.712 213.711 459.275 214.334 455.478 214.91C453.224 215.251 451.307 215.629 449.701 216.035C448.117 216.455 446.843 216.903 445.845 217.37C443.848 218.303 442.962 219.313 442.916 220.338C442.824 222.389 446.082 224.505 450.516 226.206C454.536 226.116 458.564 226.001 462.596 225.866C466.635 225.737 470.752 225.631 474.834 225.486C483.013 225.208 491.208 224.869 499.392 224.504C501.428 224.407 503.494 224.327 505.563 224.252L511.757 224.015C515.883 223.854 520.002 223.694 524.1 223.534C532.314 223.228 540.395 222.87 548.523 222.697Z" fill="#7B9982"/>
<path d="M565.143 211.517C563.532 211.57 561.77 211.639 560.774 211.86C560.007 212.031 559.872 212.257 559.78 212.47C558.482 215.471 560.303 218.5 564.726 221.406L575.333 221.263C578.863 221.21 582.387 221.155 585.952 221.137C593.058 221.08 600.15 221.011 607.232 220.932L617.847 220.804C621.382 220.759 624.911 220.703 628.475 220.691C635.585 220.645 642.685 220.587 649.783 220.519C649.808 217.221 645.895 213.923 637.786 210.918C636.817 210.56 635.652 210.18 633.552 210.003C631.706 209.848 629.524 209.881 627.478 209.918L619.632 210.061L611.824 210.258L596.226 210.657L580.646 211.054C578.054 211.125 575.449 211.176 572.873 211.262L565.143 211.517Z" fill="#7B9982"/>
<path d="M101.528 257.694C96.554 259.732 103.53 262.418 115.618 263.402C127.781 264.393 142.293 263.528 147.158 261.607C148.157 261.199 148.756 260.741 148.374 260.274C148.123 259.965 147.451 259.664 146.763 259.368C143.853 258.122 140.227 256.827 133.884 256.04C125.128 254.947 111.807 255.245 105.735 256.684C107.083 256.314 108.531 255.961 109.953 255.601" fill="#7B9982"/>
<path d="M244.486 252.305C238.12 249.911 229.173 247.11 214.59 246.918C207.747 246.834 201.265 247.36 195.539 247.968C189.786 248.591 184.23 249.268 178.921 249.994C176.241 250.351 173.712 250.742 171.264 251.146C168.805 251.549 166.416 251.962 164.099 252.386C165.573 253.205 164.652 253.989 163.086 254.762C161.554 255.542 159.468 256.332 158.427 257.125C155.638 259.259 161.797 261.735 172.623 263.104C200.935 261.691 225.399 258.855 243.336 254.847C244.936 254.485 246.536 254.083 246.624 253.591C246.704 253.155 245.58 252.718 244.486 252.305Z" fill="#7B9982"/>
<path d="M316.947 240.08C313.371 239.371 309.087 238.658 303.906 238.509C299.912 238.404 295.995 238.651 292.265 238.894C283.646 239.466 274.847 239.988 266.376 240.629L253.531 241.551C249.236 241.857 244.928 242.161 240.742 242.504C239.035 242.639 237.227 242.789 236.283 243.073C235.017 243.454 235.686 243.952 236.489 244.39C240.494 246.574 247.11 248.629 255.516 250.416C257.059 250.744 258.829 251.083 261.058 251.185C263.008 251.274 264.92 251.165 266.704 251.053C273.014 250.639 279.453 250.263 285.739 249.84C288.883 249.629 292.002 249.411 295.097 249.183C298.184 248.955 301.249 248.718 304.383 248.504C309.82 248.115 315.522 247.608 319.928 246.915C322.134 246.57 324.005 246.174 325.382 245.73C326.789 245.298 327.676 244.809 327.842 244.253C328.294 242.738 322.924 241.266 316.947 240.08Z" fill="#7B9982"/>
<path d="M347.386 240.363C349.337 240.76 351.416 241.175 354.098 241.359C356.131 241.498 358.289 241.487 360.363 241.46C366.812 241.376 373.094 241.15 379.096 240.789C385.142 240.446 391.014 240.013 396.434 239.426C394.502 237.959 392.566 236.459 388.252 235.149C383.942 233.839 376.684 232.733 368.3 232.6C366.24 232.569 364.177 232.59 362.167 232.654C360.17 232.723 358.196 232.825 356.249 232.929C350.316 233.245 344.427 233.592 338.602 233.968C335.694 234.158 332.784 234.348 329.925 234.558C327.098 234.78 324.289 235.01 321.503 235.246C330.291 236.943 338.856 238.624 347.386 240.363Z" fill="#7B9982"/>
<path d="M492.874 235.441C494.877 234.849 493.984 234.048 493.015 233.34L488.902 230.327C487.662 229.42 485.965 228.4 481.348 227.972C478.268 227.687 474.65 227.745 471.263 227.81C450.145 228.327 428.879 228.865 407.866 229.624C405.843 229.691 403.665 229.774 402.343 230.049C400.88 230.352 400.894 230.803 401.06 231.212C401.821 233.102 404.3 234.981 408.228 236.772C409.27 237.247 410.475 237.732 412.514 238.09C416.156 238.729 421.454 238.812 426.186 238.807C436.914 238.806 447.304 238.506 457.631 238.124C462.759 237.915 467.794 237.646 472.716 237.318C475.178 237.154 477.612 236.975 480.015 236.781C482.437 236.598 484.859 236.417 487.231 236.212C489.381 236.028 491.6 235.817 492.874 235.441Z" fill="#7B9982"/>
<path d="M587.377 233.762C588.649 233.71 589.978 233.641 591.168 233.54C592.364 233.445 593.407 233.308 594.08 233.098C595.119 232.774 594.99 232.359 594.826 231.971L593.249 228.19C592.682 226.82 591.3 225.199 584.445 224.564C580.702 224.237 576.311 224.336 572.198 224.437L544.789 225.107C535.713 225.378 526.68 225.682 517.618 225.964C515.56 228.511 516.8 231.147 520.833 233.652C521.4 234.004 522.094 234.375 523.585 234.619C525.521 234.935 528.244 234.955 530.712 234.95C535.497 234.94 540.259 234.903 544.998 234.837C547.367 234.804 549.73 234.764 552.087 234.716L559.212 234.605C568.702 234.437 578.091 234.156 587.377 233.762Z" fill="#7B9982"/>
<path d="M695.706 226.385C695.397 225.544 694.886 224.626 691.606 224.027C689.187 223.585 685.695 223.402 682.343 223.253C679.337 223.119 676.309 222.998 673.259 222.892C671.735 222.841 670.202 222.784 668.674 222.747C667.149 222.713 665.619 222.682 664.086 222.654C657.954 222.543 651.771 222.488 645.581 222.487C639.392 222.486 633.198 222.54 627.047 222.649C620.918 222.78 614.869 223.01 608.892 223.27C606.853 226.313 607.316 229.406 609.906 232.442C616.41 232.735 622.915 232.869 629.435 232.882C635.992 232.932 642.596 232.893 649.191 232.756C655.79 232.624 662.4 232.41 668.995 232.155C672.281 232.014 675.622 231.931 678.925 231.808C682.236 231.687 685.539 231.568 688.821 231.448C691.636 231.344 694.823 231.189 696.15 230.707C696.928 230.424 696.867 230.088 696.781 229.77C696.474 228.641 696.118 227.513 695.706 226.385Z" fill="#7B9982"/>
<path d="M770.067 218.77C770.067 218.77 768.688 218.753 766.274 218.724C763.859 218.696 760.417 218.642 756.252 218.64C747.935 218.607 736.847 218.565 725.759 218.522C714.705 218.438 703.495 218.527 695.126 218.548C686.75 218.578 681.166 218.597 681.166 218.597C673.768 218.625 667.486 217.581 667.149 216.285L665.928 211.415C665.581 210.102 671.64 209.028 679.452 208.999C679.452 208.999 685.322 208.978 694.129 208.946C702.932 208.924 714.69 208.834 726.392 208.92C738.105 208.965 749.821 209.011 758.607 209.045C763.005 209.049 766.649 209.105 769.205 209.134C771.76 209.165 773.219 209.182 773.219 209.182C780.995 209.274 786.85 210.403 786.296 211.706L784.304 216.569C783.751 217.871 777.377 218.857 770.067 218.77Z" fill="#7B9982"/>
<path d="M815.735 219.54C818.547 219.875 822.056 219.941 825.416 219.996L838.554 220.212C842.929 220.289 847.335 220.338 851.666 220.462L877.763 221.1C880.908 221.176 884.321 221.236 887.523 221.175C890.722 221.117 893.67 220.973 895.972 220.573C899.289 220.004 900.048 219.122 900.599 218.307C901.407 217.12 901.989 215.825 900.999 214.63C900.505 214.033 899.615 213.461 898.163 212.94C896.699 212.429 894.656 211.982 891.889 211.611C886.269 210.862 878.774 210.633 871.614 210.475C866.856 210.37 862.086 210.285 857.317 210.22C852.535 210.168 847.714 210.179 842.925 210.187C833.336 210.214 823.789 210.322 814.37 210.512C810.302 211.593 807.901 212.84 807.134 214.13C806.373 215.411 807.247 216.729 809.722 217.952C810.964 218.565 812.718 219.181 815.735 219.54Z" fill="#7B9982"/>
<path d="M1028.27 219.032C1026.66 218.694 1024.62 218.433 1022.4 218.214C1021.28 218.106 1020.13 218.005 1018.95 217.916C1017.75 217.833 1016.54 217.757 1015.34 217.683C1004.54 217.017 993.598 216.404 982.57 215.846C971.451 215.343 960.161 214.947 948.884 214.58C944.299 214.435 938.919 214.328 935.685 214.923C933.711 215.278 933.141 215.786 932.649 216.264L926.893 221.805C926.231 222.434 925.67 223.131 927.683 223.645C929.044 224.005 931.34 224.201 933.539 224.376C939.711 224.867 945.962 225.313 952.294 225.713C955.46 225.913 958.647 226.102 961.852 226.279C965.056 226.458 968.207 226.669 971.417 226.844C977.819 227.206 984.299 227.522 990.86 227.793C994.133 227.932 997.455 228.044 1000.74 228.173C1004.02 228.311 1007.31 228.437 1010.62 228.552C1012.9 228.631 1015.44 228.697 1017.46 228.469C1019.24 228.268 1020.1 227.893 1020.85 227.544L1027.94 224.244C1031.61 222.533 1035.05 220.456 1028.27 219.032Z" fill="#7B9982"/>
<path d="M1117.37 234.004C1130.55 233.783 1140.5 231.23 1139.15 228.904C1137.78 226.587 1127.77 224.553 1115.65 223.386C1109.65 222.785 1103.22 222.324 1096.68 221.915C1093.43 221.699 1090.03 221.55 1086.69 221.375C1083.34 221.206 1079.99 221.038 1076.67 220.859C1072.51 220.635 1068.01 220.39 1063.93 220.626C1060.59 220.818 1058.16 221.299 1056.13 221.788C1048.9 223.527 1044.64 225.626 1043.6 227.761C1050.95 229.094 1059.63 230.085 1068.96 230.898C1078.2 231.75 1087.96 232.483 1097.66 233.163C1099.24 233.275 1100.84 233.387 1102.46 233.491C1104.07 233.595 1105.66 233.708 1107.3 233.792C1110.57 233.965 1113.92 234.061 1117.37 234.004Z" fill="#7B9982"/>
<path d="M1226.8 245.061C1228.24 244.974 1229.31 244.762 1230.29 244.557C1239.86 242.553 1248 240.343 1254.18 237.977C1255.32 237.542 1256.41 237.052 1255.5 236.595C1254.83 236.256 1253.18 236.003 1251.59 235.768C1245.49 234.911 1239.2 234.091 1232.82 233.284C1229.62 232.885 1226.43 232.479 1223.15 232.1C1219.83 231.73 1216.48 231.366 1213.11 231.007C1206.36 230.296 1199.58 229.584 1192.58 228.945C1185.53 228.322 1178.39 227.725 1171.19 227.156C1163.06 229.788 1157.07 232.617 1153.12 235.508C1152.5 235.96 1151.94 236.438 1152.74 236.871C1153.79 237.448 1156.97 237.799 1159.94 238.104C1164.33 238.537 1168.52 239.033 1172.8 239.501L1185.58 240.913C1187.7 241.15 1189.86 241.376 1191.96 241.621L1198.22 242.362L1210.75 243.836C1212.51 244.041 1214.27 244.247 1216.09 244.435C1217.91 244.623 1219.73 244.812 1221.69 244.954C1223.29 245.072 1225.11 245.165 1226.8 245.061Z" fill="#7B9982"/>
<path d="M1324.08 259.795C1336.82 257.639 1348.26 255.226 1357.63 252.618C1360.78 251.742 1360.15 250.707 1357.07 249.628C1355.53 249.089 1353.39 248.54 1350.81 247.996C1348.23 247.452 1345.1 246.941 1341.78 246.438C1328.56 244.404 1310.72 242.892 1300.75 242.613C1276.52 242.037 1256.14 245.79 1246.31 249.119C1249.24 249.597 1252.28 250.062 1255.41 250.514C1258.58 250.961 1261.76 251.41 1264.97 251.862C1271.37 252.769 1278.16 253.617 1284.88 254.485C1291.53 255.37 1298.33 256.227 1304.97 257.1C1311.48 257.997 1317.95 258.885 1324.08 259.795Z" fill="#7B9982"/>
<path d="M1385.39 254.931C1384.17 254.745 1382.76 254.555 1381.11 254.564C1379.85 254.571 1378.74 254.696 1377.71 254.818C1363.21 256.54 1350.57 258.691 1340.12 261.106C1359.36 264.619 1378.04 265.959 1396.42 269.5C1411.6 267.454 1424.64 267.091 1433.43 264.151C1434.49 263.8 1435.51 263.41 1435.02 263.021C1434.59 262.681 1433.1 262.411 1431.61 262.171C1416.68 259.669 1401.18 257.268 1385.39 254.931Z" fill="#7B9982"/>
<path d="M820.226 233.611C825.854 233.649 832.296 233.568 836.156 232.723C838.771 232.15 839.475 231.383 840.077 230.643L844.613 225.082C844.832 224.812 845.042 224.526 844.454 224.276C843.676 223.951 841.727 223.794 839.921 223.663C809.741 221.431 775.35 220.634 742.578 221.665L742.534 228.146C742.52 228.973 742.711 229.894 745.755 230.473C747.468 230.799 749.834 230.961 752.13 231.105C757.705 231.43 763.239 231.82 768.86 232.109C774.472 232.408 780.131 232.655 785.827 232.851C797.272 233.196 808.658 233.545 820.226 233.611Z" fill="#7B9982"/>
<path d="M882.278 223.347C869.805 224.03 862.059 226.668 865.373 228.87C867.019 229.97 871.217 230.86 876.452 231.384C881.658 231.934 887.854 232.166 893.788 231.855C896.271 231.727 898.727 231.515 900.596 231.167C901.83 230.937 902.762 230.657 903.659 230.378C907.431 229.202 910.959 227.901 910.46 226.565C909.8 224.711 899.915 223.166 889.548 223.258L897.131 223.137" fill="#7B9982"/>
<path d="M997.708 238.669C1004.45 236.312 1011.41 233.353 1003.07 231.29C1001.1 230.805 998.505 230.432 995.595 230.136C992.645 229.862 989.397 229.659 986.198 229.48C973.26 228.77 959.939 228.238 946.265 228.179C940.746 229.618 929.757 229.722 921.299 230.441C919.882 230.562 918.53 230.703 917.244 230.866C915.948 231.037 914.723 231.225 913.579 231.429C911.29 231.838 909.326 232.308 907.749 232.816C904.591 233.833 902.977 235.006 903.351 236.143C909.541 236.804 915.805 237.481 922.367 238C928.914 238.529 935.694 238.941 942.649 239.249C949.503 239.613 956.545 239.862 963.734 239.997C967.329 240.064 970.961 240.103 974.624 240.112C978.301 240.114 981.89 240.149 985.573 240.12C988.203 240.105 991.016 240.065 993.283 239.766C995.29 239.501 996.541 239.076 997.708 238.669Z" fill="#7B9982"/>
<path d="M1098.81 240.369C1099.76 239.446 1100.24 238.442 1097.66 237.658C1096.65 237.355 1095.27 237.105 1093.7 236.894C1092.1 236.692 1090.33 236.521 1088.59 236.357L1064.37 234.05L1039.58 231.908C1037.91 231.763 1036.1 231.613 1034.23 231.665C1031.73 231.733 1029.91 232.135 1028.44 232.524C1021.1 234.452 1016.02 236.633 1013.3 238.868C1012.8 239.28 1012.41 239.721 1013.36 240.079C1014.18 240.397 1015.86 240.586 1017.48 240.756C1023.24 241.364 1029.08 241.937 1035 242.476L1039.45 242.875L1041.69 243.069L1043.89 243.279C1046.83 243.557 1049.79 243.826 1052.77 244.087C1057.99 244.544 1063.91 244.959 1069.85 245.087C1075.74 245.231 1081.57 245.126 1086.83 244.454C1093.98 243.545 1097.24 241.905 1098.81 240.369Z" fill="#7B9982"/>
<path d="M1116.78 244.551C1116.22 245.06 1115.66 245.595 1116.53 246.062C1117.2 246.416 1118.62 246.69 1120.06 246.943C1122.3 247.337 1124.67 247.702 1127.17 248.038C1128.42 248.206 1129.7 248.367 1131.01 248.52C1132.29 248.68 1133.59 248.838 1134.93 248.985C1140.26 249.578 1146.02 250.047 1152.13 250.383C1157.56 249.196 1163.15 247.987 1166.35 246.591C1169.55 245.194 1169.94 243.545 1165.2 242.368C1162.86 241.789 1159.5 241.367 1156.15 240.967C1150.95 240.393 1145.62 239.847 1140.2 239.327C1137.5 239.067 1134.77 238.813 1132.02 238.567L1127.87 238.203C1126.47 238.09 1125.04 237.984 1123.62 237.877C1121.57 240.089 1119.24 242.332 1116.78 244.551Z" fill="#7B9982"/>
<path d="M1231.17 260.545C1235.12 260.434 1238.19 259.809 1240.79 259.232L1251.88 256.782C1255.21 256.045 1258.77 255.175 1257.8 254.296C1257.13 253.713 1254.63 253.262 1252.13 252.873L1240.32 251.032C1236.36 250.421 1232.48 249.786 1228.38 249.206L1216.18 247.424L1210.07 246.529C1208.01 246.237 1205.9 245.957 1203.81 245.67C1202.21 245.451 1200.43 245.221 1198.34 245.226C1196.02 245.23 1193.98 245.519 1192.22 245.802C1184.11 247.107 1177.15 248.629 1171.51 250.281C1170.02 250.72 1168.59 251.185 1168.26 251.678C1167.69 252.557 1170.7 253.295 1173.76 253.904C1175.47 254.253 1177.3 254.573 1179.08 254.912C1180.87 255.248 1182.73 255.571 1184.64 255.883C1188.45 256.506 1192.5 257.081 1196.76 257.605C1201.02 258.128 1205.3 258.651 1209.88 259.093C1214.43 259.547 1219.25 259.93 1224.11 260.291C1226.3 260.457 1228.66 260.615 1231.17 260.545Z" fill="#7B9982"/>
<path d="M1297.87 269.037C1299.88 269.309 1302.26 269.131 1305.02 269.037C1307.16 268.964 1308.97 269.303 1310.64 269.037L1326.91 269.136C1332.8 268.198 1339.33 266.997 1337.87 265.717C1337.06 265.015 1333.99 264.479 1330.99 263.998L1320.87 262.415C1317.5 261.887 1314.17 261.353 1310.67 260.847L1300.3 259.308C1298.57 259.053 1296.86 258.791 1295.11 258.541L1289.79 257.796C1276.88 259.147 1265.68 260.983 1256.85 263.097C1255.61 263.395 1254.37 263.72 1254.21 264.068C1254 264.52 1255.64 264.885 1257.24 265.201C1260.37 265.805 1263.41 266.428 1266.64 267.016C1269.86 267.607 1273.19 268.175 1276.63 268.725C1279.96 269.292 1283.05 268.513 1286.61 269.037C1288.39 269.299 1290.42 268.786 1292.26 269.037C1294.08 269.291 1296.02 268.789 1297.87 269.037Z" fill="#7B9982"/>
<path d="M1437.12 257.577L1437.45 262.29L1437.47 262.586L1437.12 262.614L1437.11 262.615L1433.06 262.29L1437.11 261.965L1437.12 261.965L1436.78 262.29L1437.12 257.577Z" fill="black"/>
<path d="M1433.94 263.256C1434.43 262.981 1434.94 262.786 1435.46 262.608C1435.72 262.526 1435.98 262.44 1436.24 262.37C1436.51 262.296 1436.77 262.233 1437.04 262.172L1437.05 262.17C1437.23 262.129 1437.4 262.236 1437.44 262.408C1437.47 262.524 1437.43 262.64 1437.35 262.715C1437.18 262.871 1437 263.023 1436.82 263.171C1436.64 263.323 1436.46 263.466 1436.27 263.608C1436.09 263.751 1435.89 263.887 1435.7 264.02C1435.5 264.151 1435.3 264.279 1435.09 264.393C1435.21 264.19 1435.35 263.999 1435.49 263.813C1435.64 263.627 1435.78 263.444 1435.94 263.269C1436.09 263.093 1436.24 262.918 1436.4 262.752C1436.56 262.581 1436.72 262.415 1436.89 262.253L1437.2 262.796C1436.93 262.864 1436.67 262.929 1436.4 262.984C1436.13 263.043 1435.86 263.085 1435.59 263.132C1435.05 263.212 1434.5 263.274 1433.94 263.256Z" fill="black"/>
<path d="M1419.06 240.127C1419.06 240.127 1425.55 234.595 1432 238.444C1438.45 242.294 1441.56 251.327 1445.57 252.444C1449.57 253.56 1457.57 254.661 1457.57 254.661C1457.57 254.661 1446.79 264.692 1433.84 259.776C1420.88 254.86 1430.36 242.293 1419.06 240.127Z" fill="white"/>
<path d="M1426 240.668C1426.43 240.668 1426.78 240.329 1426.78 239.91C1426.78 239.491 1426.43 239.152 1426 239.152C1425.57 239.152 1425.22 239.491 1425.22 239.91C1425.22 240.329 1425.57 240.668 1426 240.668Z" fill="black"/>
<path d="M1432.71 248.062C1432.72 249.171 1432.86 250.274 1433.16 251.331C1433.32 251.858 1433.5 252.375 1433.73 252.876C1433.95 253.381 1434.22 253.846 1434.55 254.272C1434.88 254.693 1435.27 255.068 1435.73 255.304C1435.96 255.425 1436.2 255.504 1436.45 255.539C1436.69 255.575 1436.95 255.579 1437.18 255.52C1437.65 255.419 1437.97 255.062 1438.08 254.602C1438.18 254.15 1438.05 253.666 1437.78 253.242C1437.71 253.136 1437.64 253.033 1437.56 252.934C1437.47 252.83 1437.4 252.744 1437.32 252.69C1437.25 252.629 1437.16 252.61 1437.17 252.616C1437.18 252.618 1437.18 252.587 1437.14 252.685C1436.97 253.122 1436.98 253.638 1437.12 254.11C1437.26 254.589 1437.54 255.022 1437.92 255.372C1438.29 255.721 1438.75 255.987 1439.25 256.173C1439.74 256.349 1440.3 256.501 1440.77 256.458C1441 256.433 1441.18 256.355 1441.31 256.2C1441.42 256.06 1441.48 255.824 1441.49 255.57C1441.53 255.057 1441.48 254.511 1441.33 254.02C1441.26 253.776 1441.15 253.542 1441 253.372C1440.85 253.203 1440.66 253.125 1440.44 253.15L1440.51 253.13C1440.42 253.171 1440.36 253.224 1440.33 253.296C1440.29 253.369 1440.28 253.471 1440.3 253.58C1440.33 253.8 1440.45 254.033 1440.58 254.246C1440.86 254.668 1441.24 255.065 1441.68 255.323C1441.78 255.381 1441.92 255.441 1442.04 255.48C1442.15 255.524 1442.29 255.559 1442.41 255.584C1442.67 255.636 1442.94 255.653 1443.21 255.638C1443.75 255.606 1444.29 255.467 1444.78 255.231C1444.31 255.511 1443.78 255.712 1443.23 255.779C1442.95 255.813 1442.66 255.817 1442.38 255.781C1442.24 255.763 1442.1 255.737 1441.96 255.696C1441.82 255.657 1441.7 255.614 1441.56 255.551C1441.04 255.289 1440.61 254.9 1440.28 254.441C1440.12 254.208 1439.97 253.956 1439.9 253.647C1439.87 253.494 1439.86 253.317 1439.93 253.141C1440 252.964 1440.16 252.82 1440.31 252.744L1440.34 252.73L1440.38 252.724C1440.55 252.695 1440.74 252.705 1440.91 252.769C1441.09 252.832 1441.24 252.939 1441.35 253.059C1441.58 253.304 1441.71 253.588 1441.81 253.869C1442 254.437 1442.07 255.012 1442.05 255.605C1442.04 255.898 1442 256.235 1441.77 256.548C1441.66 256.688 1441.5 256.816 1441.34 256.895C1441.18 256.977 1441 257.019 1440.84 257.04C1440.51 257.083 1440.18 257.046 1439.89 256.99C1439.6 256.934 1439.31 256.859 1439.02 256.756C1438.46 256.548 1437.92 256.249 1437.46 255.83C1437.01 255.418 1436.66 254.881 1436.48 254.293C1436.31 253.706 1436.29 253.057 1436.53 252.449C1436.56 252.365 1436.61 252.264 1436.71 252.167C1436.81 252.068 1436.94 252 1437.09 251.983C1437.38 251.961 1437.57 252.083 1437.72 252.186C1437.87 252.299 1437.98 252.431 1438.07 252.543C1438.16 252.662 1438.25 252.786 1438.33 252.917C1438.66 253.431 1438.84 254.1 1438.68 254.739C1438.6 255.052 1438.44 255.356 1438.2 255.598C1437.96 255.843 1437.63 256.002 1437.31 256.068C1436.67 256.202 1436.01 256.057 1435.47 255.75C1434.93 255.445 1434.52 255.006 1434.17 254.536C1433.84 254.064 1433.58 253.538 1433.38 253.012C1433.17 252.485 1433.02 251.942 1432.9 251.392C1432.67 250.294 1432.6 249.167 1432.71 248.062Z" fill="black"/>
<path d="M1441.06 259.681C1441.2 260.466 1441.27 261.251 1441.32 262.037C1441.35 262.43 1441.36 262.822 1441.38 263.215C1441.39 263.608 1441.39 264.001 1441.4 264.393L1441.4 264.608L1441.2 264.691C1440.83 264.842 1440.46 264.996 1440.08 265.142C1439.71 265.281 1439.34 265.432 1438.96 265.56C1438.2 265.828 1437.44 266.074 1436.64 266.262C1437.33 265.826 1438.03 265.45 1438.75 265.095C1439.11 264.912 1439.47 264.751 1439.83 264.578C1440.2 264.414 1440.57 264.256 1440.93 264.095L1440.73 264.393C1440.74 264.001 1440.74 263.608 1440.75 263.215C1440.77 262.822 1440.77 262.43 1440.8 262.037C1440.85 261.252 1440.93 260.466 1441.06 259.681Z" fill="black"/>
<path d="M1438.32 267.047C1438.67 266.498 1439.07 266.007 1439.5 265.528C1439.71 265.295 1439.92 265.057 1440.15 264.831C1440.37 264.604 1440.6 264.383 1440.83 264.165L1441.41 263.621L1441.39 264.393C1441.39 264.641 1441.38 264.89 1441.36 265.138C1441.35 265.386 1441.33 265.634 1441.31 265.883C1441.28 266.131 1441.25 266.379 1441.21 266.628C1441.17 266.876 1441.13 267.124 1441.06 267.373C1441 267.124 1440.96 266.876 1440.92 266.628C1440.88 266.379 1440.84 266.131 1440.82 265.883C1440.8 265.634 1440.77 265.386 1440.76 265.138C1440.75 264.89 1440.74 264.641 1440.73 264.393L1441.3 264.621C1441.07 264.845 1440.84 265.067 1440.61 265.282C1440.37 265.498 1440.13 265.703 1439.89 265.912C1439.39 266.318 1438.88 266.712 1438.32 267.047Z" fill="black"/>
<path d="M1313.88 121.47C1315.44 109.535 1321.24 96.7314 1321.24 96.7314L1330.97 99.634L1325.95 133.74L1323.94 141.411L1315.44 145.285C1315.44 145.285 1312.33 133.404 1313.88 121.47Z" fill="#54482F"/>
<path d="M1321.65 99.73C1321.55 99.6357 1321.43 99.5473 1321.3 99.5226C1320.91 99.4518 1320.66 99.8986 1320.53 100.264C1320.1 101.54 1319.67 102.815 1319.24 104.09C1318.18 107.228 1317.11 110.424 1317.06 113.726C1319.21 110.687 1320.88 107.324 1321.99 103.793C1322.42 102.424 1322.69 100.738 1321.65 99.73Z" fill="#473D26"/>
<path d="M1293.59 183.31C1293.59 183.31 1294.26 188.347 1292.26 190.46C1290.26 192.572 1284.75 195.172 1284.59 196.472C1284.42 197.772 1284.71 198.923 1286.81 198.517C1288.91 198.112 1296.45 194.915 1296.8 194.704C1297.14 194.493 1299.19 191.956 1299.19 191.956L1299.8 193.883C1299.8 193.883 1303.71 192.75 1305.15 190.955C1305.15 190.955 1302.93 185.26 1300.43 184.122L1298.09 180.129L1293.59 183.31Z" fill="#1B1F30"/>
<path d="M1295.56 182.835C1296.92 182.695 1297.96 181.519 1298.34 180.248C1298.73 178.977 1298.59 177.62 1298.44 176.302C1298.08 173.065 1297.73 169.828 1297.37 166.59C1297.18 164.837 1296.98 163.06 1296.32 161.419C1295.65 159.778 1294.46 158.262 1292.79 157.584C1294.13 157.632 1295.47 157.679 1296.8 157.727C1296.17 156.947 1295.54 156.168 1294.9 155.388C1296.29 155.195 1297.52 156.416 1298.93 156.429C1299.55 156.435 1300.15 156.201 1300.73 155.97C1304.79 154.349 1308.85 152.729 1312.9 151.108C1312.68 149.458 1312.24 147.837 1311.59 146.299C1312.4 147.542 1313.45 148.638 1314.66 149.519C1314.73 146.802 1313.85 144.076 1312.23 141.866C1302.96 144.865 1289.08 149.579 1287.76 151.297C1285.75 153.897 1287.3 162.411 1289.03 169.773C1290.76 177.134 1292.38 185.038 1292.38 185.038C1292.38 185.038 1293.35 185.878 1295.18 185.916C1296.33 184.804 1297.49 183.692 1298.64 182.58C1297.61 182.665 1296.59 182.75 1295.56 182.835Z" fill="#323859"/>
<path d="M1320.52 139.24C1320.52 139.24 1316.98 140.328 1312.23 141.866C1313.85 144.077 1314.73 146.802 1314.66 149.52C1313.45 148.639 1312.4 147.542 1311.59 146.3C1312.24 147.838 1312.68 149.459 1312.9 151.108C1308.85 152.729 1304.79 154.35 1300.73 155.971C1300.15 156.201 1299.55 156.436 1298.93 156.43C1297.53 156.416 1296.29 155.196 1294.9 155.389C1295.54 156.168 1296.17 156.948 1296.81 157.727C1295.47 157.68 1294.13 157.632 1292.79 157.585C1294.46 158.263 1295.66 159.779 1296.32 161.42C1296.98 163.061 1297.18 164.838 1297.37 166.591C1297.73 169.828 1298.09 173.066 1298.44 176.303C1298.59 177.62 1298.73 178.978 1298.35 180.249C1297.96 181.519 1296.92 182.696 1295.57 182.836C1296.59 182.751 1297.62 182.666 1298.64 182.581C1297.49 183.693 1296.33 184.805 1295.18 185.917C1296.5 185.945 1298.26 185.555 1300.43 184.123C1300.43 184.123 1299.26 164.298 1298.93 160.236C1298.93 160.236 1317.76 154.386 1320.52 153.248C1323.28 152.111 1327.9 140.063 1327.9 140.063L1320.52 139.24Z" fill="#23294D"/>
<path d="M1377.54 259.685C1387.63 259.685 1395.81 251.717 1395.81 241.889C1395.81 232.06 1387.63 224.092 1377.54 224.092C1367.46 224.092 1359.28 232.06 1359.28 241.889C1359.28 251.717 1367.46 259.685 1377.54 259.685Z" stroke="black" stroke-width="6" stroke-miterlimit="10"/>
<path d="M1377.54 243.707C1378.57 243.707 1379.41 242.893 1379.41 241.889C1379.41 240.884 1378.57 240.07 1377.54 240.07C1376.51 240.07 1375.68 240.884 1375.68 241.889C1375.68 242.893 1376.51 243.707 1377.54 243.707Z" fill="black"/>
<path d="M1377.54 224.092V259.685" stroke="black" stroke-width="2" stroke-miterlimit="10"/>
<path d="M1373.23 224.596L1381.86 259.182" stroke="black" stroke-width="2" stroke-miterlimit="10"/>
<path d="M1369.16 226.077L1385.92 257.7" stroke="black" stroke-width="2" stroke-miterlimit="10"/>
<path d="M1365.56 228.454L1389.52 255.323" stroke="black" stroke-width="2" stroke-miterlimit="10"/>
<path d="M1362.65 231.59L1392.44 252.187" stroke="black" stroke-width="2" stroke-miterlimit="10"/>
<path d="M1360.57 235.31L1394.51 248.468" stroke="black" stroke-width="2" stroke-miterlimit="10"/>
<path d="M1359.46 239.401L1395.63 244.376" stroke="black" stroke-width="2" stroke-miterlimit="10"/>
<path d="M1359.37 243.633L1395.72 240.145" stroke="black" stroke-width="2" stroke-miterlimit="10"/>
<path d="M1360.3 247.767L1394.78 236.011" stroke="black" stroke-width="2" stroke-miterlimit="10"/>
<path d="M1362.22 251.568L1392.87 232.21" stroke="black" stroke-width="2" stroke-miterlimit="10"/>
<path d="M1365 254.821L1390.09 228.957" stroke="black" stroke-width="2" stroke-miterlimit="10"/>
<path d="M1368.48 257.343L1386.6 226.435" stroke="black" stroke-width="2" stroke-miterlimit="10"/>
<path d="M1372.49 258.989L1382.6 224.788" stroke="black" stroke-width="2" stroke-miterlimit="10"/>
<path d="M1304.76 259.035C1332.76 259.035 1355.46 236.918 1355.46 209.635C1355.46 182.352 1332.76 160.235 1304.76 160.235C1276.77 160.235 1254.07 182.352 1254.07 209.635C1254.07 236.918 1276.77 259.035 1304.76 259.035Z" stroke="black" stroke-width="14" stroke-miterlimit="10"/>
<path d="M1304.77 211.454C1305.8 211.454 1306.63 210.64 1306.63 209.635C1306.63 208.631 1305.8 207.817 1304.77 207.817C1303.73 207.817 1302.9 208.631 1302.9 209.635C1302.9 210.64 1303.73 211.454 1304.77 211.454Z" fill="black"/>
<path d="M1304.77 160.235V258.99" stroke="black" stroke-width="2" stroke-miterlimit="10"/>
<path d="M1297.26 160.78L1312.26 258.446" stroke="black" stroke-width="2" stroke-miterlimit="10"/>
<path d="M1312.74 160.851L1296.8 258.376" stroke="black" stroke-width="2" stroke-miterlimit="10"/>
<path d="M1320.52 162.681L1289.03 256.547" stroke="black" stroke-width="2" stroke-miterlimit="10"/>
<path d="M1327.9 165.68L1281.65 253.551" stroke="black" stroke-width="2" stroke-miterlimit="10"/>
<path d="M1334.71 169.774L1274.85 249.461" stroke="black" stroke-width="2" stroke-miterlimit="10"/>
<path d="M1340.77 174.86L1268.79 244.379" stroke="black" stroke-width="2" stroke-miterlimit="10"/>
<path d="M1345.94 180.812L1263.63 238.431" stroke="black" stroke-width="2" stroke-miterlimit="10"/>
<path d="M1350.08 187.483L1259.49 231.767" stroke="black" stroke-width="2" stroke-miterlimit="10"/>
<path d="M1353.09 194.705L1256.48 224.552" stroke="black" stroke-width="2" stroke-miterlimit="10"/>
<path d="M1354.9 202.299L1254.68 216.965" stroke="black" stroke-width="2" stroke-miterlimit="10"/>
<path d="M1355.46 210.075L1254.12 209.196" stroke="black" stroke-width="2" stroke-miterlimit="10"/>
<path d="M1354.76 217.841L1254.82 201.438" stroke="black" stroke-width="2" stroke-miterlimit="10"/>
<path d="M1352.81 225.402L1256.76 193.884" stroke="black" stroke-width="2" stroke-miterlimit="10"/>
<path d="M1349.67 232.571L1259.9 186.722" stroke="black" stroke-width="2" stroke-miterlimit="10"/>
<path d="M1345.41 239.168L1264.16 180.13" stroke="black" stroke-width="2" stroke-miterlimit="10"/>
<path d="M1340.13 245.03L1269.43 174.274" stroke="black" stroke-width="2" stroke-miterlimit="10"/>
<path d="M1333.98 250.011L1275.58 169.298" stroke="black" stroke-width="2" stroke-miterlimit="10"/>
<path d="M1327.1 253.986L1282.46 165.326" stroke="black" stroke-width="2" stroke-miterlimit="10"/>
<path d="M1319.66 256.856L1289.89 162.458" stroke="black" stroke-width="2" stroke-miterlimit="10"/>
<path d="M1302.9 137.377V154.71C1302.9 154.71 1320.41 153.06 1341.01 167.71C1368.8 187.483 1360.75 240.386 1379.12 242.381" stroke="black" stroke-width="5" stroke-miterlimit="10"/>
<path d="M1302.9 151.798C1302.9 151.798 1312.42 149.918 1325.99 154.101" stroke="black" stroke-width="5" stroke-miterlimit="10"/>
<path d="M1305.77 206.1C1305.77 206.1 1304.42 211.007 1301.75 212.22C1299.07 213.433 1292.97 213.801 1292.3 214.942C1291.64 216.082 1291.47 217.256 1293.57 217.657C1295.66 218.058 1303.89 217.895 1304.29 217.827C1304.69 217.759 1307.57 216.171 1307.57 216.171L1307.38 218.178C1307.38 218.178 1311.44 218.577 1313.48 217.453C1313.48 217.453 1313.65 211.362 1311.77 209.383L1311.17 204.826L1305.77 206.1Z" fill="#1B1F30"/>
<path d="M1327.83 157.834C1326.17 153.448 1323.06 149.601 1319.08 146.99C1315.03 154.158 1303.78 174.365 1304.22 177.298C1304.76 180.873 1302.9 208.682 1302.9 208.682C1302.9 208.682 1303.44 209.133 1304.48 209.574C1305.99 209.507 1307.57 209.582 1309.03 209.31C1309.5 209.221 1310.09 208.9 1309.95 208.449C1308.9 208.171 1307.84 207.893 1306.78 207.615C1307.87 207.789 1308.99 207.244 1309.72 206.438C1310.46 205.633 1310.87 204.6 1311.19 203.569C1312.75 198.578 1312.49 193.25 1312.75 188.039C1313.01 182.828 1313.94 177.342 1317.39 173.351C1318.51 172.058 1319.85 170.971 1321.1 169.792C1323.56 167.457 1325.95 164.204 1327.88 160.324C1327.15 158.808 1326.01 157.502 1324.88 156.227C1325.97 156.538 1326.99 157.091 1327.83 157.834Z" fill="#323859"/>
<path d="M1332.14 143.733L1330.11 141.222L1323.61 140.062L1320.52 144.472C1320.52 144.472 1319.97 145.42 1319.08 146.99C1323.06 149.601 1326.17 153.448 1327.83 157.833C1326.99 157.091 1325.97 156.537 1324.88 156.227C1326 157.503 1327.15 158.808 1327.88 160.324C1328.03 160.031 1328.17 159.736 1328.31 159.437C1326.31 163.709 1323.75 167.281 1321.09 169.792C1319.85 170.97 1318.51 172.057 1317.39 173.351C1313.94 177.342 1313.01 182.828 1312.75 188.039C1312.49 193.25 1312.75 198.578 1311.19 203.569C1310.87 204.6 1310.46 205.633 1309.72 206.438C1308.99 207.243 1307.87 207.789 1306.78 207.615C1307.84 207.893 1308.9 208.171 1309.95 208.449C1310.09 208.9 1309.5 209.221 1309.03 209.31C1307.57 209.582 1305.99 209.507 1304.48 209.574C1306.2 210.301 1309.25 211 1313.44 209.612C1313.44 209.612 1314.6 182.54 1316.44 180.813C1318.27 179.085 1336.22 161.535 1339.59 152.923L1332.14 143.733ZM1330.8 152.576C1330.34 154.301 1329.78 155.96 1329.14 157.538C1329.78 155.96 1330.34 154.3 1330.8 152.576ZM1331.67 148.478C1331.64 148.7 1331.6 148.921 1331.56 149.141C1331.6 148.921 1331.64 148.699 1331.67 148.478ZM1331.49 149.525C1331.45 149.755 1331.4 149.983 1331.36 150.211C1331.4 149.983 1331.45 149.755 1331.49 149.525ZM1331.05 151.573C1330.99 151.855 1330.92 152.135 1330.84 152.413C1330.92 152.135 1330.99 151.855 1331.05 151.573ZM1328.72 158.524C1328.59 158.82 1328.46 159.113 1328.32 159.403C1328.46 159.113 1328.59 158.82 1328.72 158.524ZM1329.12 157.576C1329 157.878 1328.87 158.178 1328.74 158.474C1328.87 158.178 1329 157.878 1329.12 157.576Z" fill="#23294D"/>
<path d="M1324.89 69.127C1324.89 69.127 1319.69 70.8602 1319.11 72.1602C1318.52 73.4602 1318.22 75.5184 1318.22 75.5184C1318.22 75.5184 1312.66 76.8184 1310.1 76.1684C1310.1 76.1684 1311.15 79.2289 1314.26 81.0704C1314.26 81.0704 1314.44 83.1016 1314.44 84.0766C1314.44 85.0516 1312.66 87.4349 1312.66 87.4349C1312.66 87.4349 1312.32 93.0681 1315.66 94.0431C1319 95.0181 1322 96.3181 1322 96.3181L1322.11 100.868L1332.95 99.7849C1332.95 99.7849 1332.95 94.396 1333.61 92.7974C1334.7 90.1974 1336.78 88.0849 1336.78 88.0849L1340.34 84.9974V79.0931C1340.34 79.0931 1335.67 72.1599 1335.34 72.1599C1335 72.1599 1324.89 69.127 1324.89 69.127Z" fill="#FFCF99"/>
<path d="M1322.1 82.3277C1321.7 82.5773 1321.34 82.875 1321.05 83.2406C1320.37 84.1113 1320.24 85.3212 1320.58 86.3622C1320.92 87.4032 1321.7 88.2758 1322.64 88.8758C1323.48 89.4149 1324.46 89.751 1325.47 89.8459C1327.05 89.996 1328.88 89.3623 1329.45 87.9099C1329.74 87.164 1329.65 86.3177 1329.37 85.5673C1329.09 84.8168 1328.63 84.1441 1328.18 83.4808C1327.94 83.1268 1327.69 82.7706 1327.38 82.4723C1326.02 81.1752 1323.7 81.3198 1322.1 82.3277Z" fill="#FFAD73"/>
<path d="M1316.14 80.0704C1316.12 79.9641 1316.07 79.8646 1316.06 79.7574C1316.03 79.5481 1316.15 79.3508 1316.27 79.1727C1316.58 78.693 1316.89 78.2136 1317.2 77.7339C1317.64 77.0534 1318.09 76.3065 1318.18 75.5278C1317.69 75.6383 1312.54 76.7879 1310.1 76.1684C1310.1 76.1684 1311.14 79.2208 1314.25 81.0632C1314.61 80.9934 1315 81.0164 1315.36 80.9352C1315.79 80.8403 1316.22 80.4883 1316.14 80.0704Z" fill="#FFAD73"/>
<path d="M1299.68 134.397C1299.68 134.397 1295.09 137.044 1297.76 138.189C1300.43 139.334 1305.76 139.412 1307.96 139.002C1308.6 138.883 1311.6 137.729 1311.6 137.729L1310.51 136.169C1310.51 136.169 1308.66 136.683 1305.92 136.886C1303.5 137.064 1302.41 136.844 1301.75 136.387C1301.08 135.93 1302.9 134.922 1302.9 134.922C1302.9 134.922 1302.1 133.91 1299.68 134.397Z" fill="black"/>
<path d="M1304.79 130.86C1303.5 131.028 1304.99 136.382 1306.41 136.163C1307.84 135.944 1307.73 135.57 1307.07 132.585C1306.78 131.264 1306.09 130.691 1304.79 130.86Z" fill="#2E2719"/>
<path d="M1303.43 136.65C1303.43 136.65 1304.51 134.568 1305.54 134.922C1306.58 135.276 1307.39 133.949 1307.96 133.55C1308.54 133.152 1307.96 130.831 1307.96 130.831C1307.96 130.831 1303.7 131.906 1302.9 131.933C1302.1 131.96 1297.98 132.465 1297.76 135.734L1299.43 134.922C1299.43 134.922 1300.54 135.001 1301.32 134.727C1301.32 134.727 1299.57 136.473 1303.43 136.65Z" fill="#FFCF99"/>
<path d="M1304.79 130.831L1317.22 127.194L1320 132.677L1306.41 136.163C1306.41 136.163 1308.6 133.71 1304.79 130.831Z" fill="#54482F"/>
<path d="M1336.45 143.742C1337.37 140.167 1336.12 136.649 1336.12 136.649L1334.41 137.445L1334.89 107.044L1323.48 102.02C1323.48 102.02 1314.64 106.448 1314.66 133.152C1314.66 135.665 1314.84 138.225 1315.53 140.656C1315.53 140.657 1315.53 140.658 1315.53 140.66C1317.21 141.118 1319.4 141.901 1322.21 143.227C1325.87 144.96 1329.08 147.092 1330.78 148.401C1333.36 148.624 1335.66 146.822 1336.45 143.742Z" fill="#C7AA6F"/>
<path d="M1322.28 104.985C1322.28 104.985 1320.94 103.468 1320.56 100.868C1320.4 99.7963 1320.56 97.2935 1320.56 97.2935C1320.56 97.2935 1322.78 95.3435 1324.11 95.1267C1325.44 94.9099 1333 94.0435 1333 94.0435L1333.67 102.06L1322.28 104.985Z" fill="#730938"/>
<path d="M1320.89 98.4311C1320.89 98.4311 1320.5 98.8104 1320.78 99.5143C1320.78 99.5143 1329 95.6013 1333.16 95.3569C1333.16 95.3569 1324.25 96.3862 1320.89 98.4311Z" fill="#5C072D"/>
<path d="M1321.36 102.02C1321.36 102.02 1321.07 101.613 1321.02 101.085C1321.02 101.085 1328.74 97.338 1331.24 96.4692C1331.24 96.4692 1323.07 100.557 1321.36 102.02Z" fill="#5C072D"/>
<path d="M1321.24 99.7243C1324.34 97.7805 1328.02 96.9709 1331.41 95.5874C1329.28 96.7434 1327.09 97.8221 1324.84 98.7523C1323.69 99.2277 1322.49 99.6701 1321.24 99.7243Z" fill="#5C072D"/>
<path d="M1330.22 96.6439C1330.22 96.6439 1336.61 94.9106 1339.59 94.9106C1345.2 94.9106 1348.08 97.1385 1349.63 97.1044C1353.29 97.0231 1358.21 95.2626 1360.21 95.1544C1360.21 95.1544 1359.45 98.1606 1360.67 100.869C1360.67 100.869 1358.06 102.382 1353.04 102.386C1347.54 102.389 1346.06 99.3414 1341.29 98.991C1336.62 98.6481 1331.56 100.677 1331.56 100.677L1330.22 96.6439Z" fill="#5C072D"/>
<path d="M1352.27 99.7218C1351.67 99.8986 1351.04 100.052 1350.42 100.005C1349.72 99.9516 1349.07 99.6509 1348.41 99.4088C1345.08 98.1806 1341.32 98.4163 1337.91 99.4257C1335.63 100.101 1333.16 101.109 1330.97 100.188C1330.97 100.004 1330.97 99.819 1330.97 99.6344C1335.24 97.1081 1340.01 95.385 1344.95 94.5868C1345.56 94.4877 1346.2 94.4038 1346.79 94.5744C1347.38 94.7415 1347.86 95.137 1348.43 95.347C1349.81 95.8559 1351.32 95.1981 1352.67 94.631C1354.35 93.9313 1356.07 93.3524 1357.83 92.901C1359.09 92.5763 1360.4 92.316 1361.7 92.3966C1361.87 92.4067 1362.05 92.4301 1362.16 92.5497C1362.26 92.6699 1362.26 92.8467 1362.26 93.0066C1362.21 94.4844 1362.15 95.9622 1362.1 97.4403C1358.72 97.074 1355.52 98.7643 1352.27 99.7218Z" fill="#730938"/>
<path d="M1334.26 98.2725C1337.46 97.0944 1340.73 96.107 1344.05 95.3169C1344.78 95.1424 1345.72 95.0465 1346.14 95.6556C1346.34 95.9367 1346.37 96.3196 1346.63 96.5477C1346.87 96.7596 1347.23 96.772 1347.55 96.7645C1348.92 96.733 1350.29 96.5575 1351.63 96.2416C1350.44 97.1239 1348.92 97.5627 1347.44 97.4486C1346.8 97.3995 1346.13 97.2283 1345.7 96.7635C1345.52 96.5682 1345.39 96.3274 1345.18 96.1645C1344.73 95.8207 1344.09 95.9299 1343.54 96.056C1342.14 96.3732 1340.75 96.6907 1339.36 97.0079C1336.94 97.5581 1334.48 98.1246 1332.35 99.3593C1332.84 98.8136 1333.56 98.5292 1334.26 98.2725Z" fill="#5C072D"/>
<path d="M1347.77 98.5495C1346.23 98.4988 1344.78 97.8228 1343.24 97.6307C1341.75 97.4428 1340.24 97.723 1338.75 98.0018C1337.24 98.2869 1335.72 98.5719 1334.21 98.8569C1336.64 98.1049 1339.12 97.4848 1341.62 96.9999C1342.05 96.9167 1342.5 96.8377 1342.93 96.915C1343.37 96.995 1343.76 97.2355 1344.17 97.4285C1345.59 98.1023 1347.24 98.2134 1348.8 97.9986C1350.37 97.7834 1351.87 97.2599 1353.34 96.71C1351.6 97.6486 1349.76 98.6148 1347.77 98.5495Z" fill="#5C072D"/>
<path d="M1336.45 127.194C1337.37 125.996 1338.21 124.598 1338.94 123.165C1339.14 113.962 1338.98 102.074 1334.23 99.6768C1334.23 99.6768 1334.12 97.5101 1334.67 96.7518C1335.23 95.9936 1336.78 94.4768 1336.34 94.0436C1335.89 93.6104 1333 94.0436 1333 94.0436C1333 94.0436 1326 97.9436 1322.27 103.685C1318.55 109.427 1315.1 123.619 1315.55 129.685C1315.7 131.74 1315.94 133.552 1316.29 135.097C1321.94 133.861 1333.58 130.928 1336.45 127.194Z" fill="#54482F"/>
<path d="M1323.86 103.937C1323.86 103.937 1327.62 96.8599 1333 95.1536C1335.32 94.4207 1335.57 94.9099 1335.57 94.9099C1335.57 94.9099 1333.13 96.4266 1333.46 99.5141C1333.46 99.5141 1328.56 100.381 1323.86 103.937Z" fill="#473D26"/>
<path d="M1315.72 131.561C1318.78 131.029 1322.97 130.019 1325.93 129.091C1327.69 128.538 1329.52 127.753 1330.48 126.213C1331.13 125.175 1331.29 123.927 1331.4 122.719C1331.93 117.166 1331.75 111.551 1330.86 106.042C1330.83 105.872 1330.8 105.698 1330.71 105.549C1330.46 105.132 1329.83 105.082 1329.4 105.328C1328.97 105.573 1328.72 106.021 1328.52 106.46C1327.31 109.055 1327.17 112.001 1327.36 114.843C1327.54 117.686 1328.04 120.512 1328.03 123.361C1328.02 123.733 1328.01 124.124 1327.81 124.44C1327.55 124.85 1327.04 125.033 1326.57 125.185C1323.1 126.308 1319.1 128.049 1315.51 128.752C1315.44 129.969 1315.61 130.472 1315.72 131.561Z" fill="#473D26"/>
<path d="M1345.41 158.61C1345.41 158.61 1354.8 166.085 1364.36 159.043C1364.36 159.043 1351.02 159.585 1344.79 151.026C1339.1 143.211 1338.89 139.82 1338.81 133.352C1334.88 137.122 1324.55 139.588 1319.42 140.62C1319.5 140.659 1319.58 140.703 1319.66 140.735C1322.11 141.71 1326.92 143.698 1328.25 146.623C1329.59 149.548 1338.01 164.351 1344.12 167.818C1350.24 171.285 1358.91 171.501 1358.91 171.501C1358.91 171.501 1348.13 168.577 1345.41 158.61Z" fill="#54482F"/>
<path d="M1340.86 158.059C1339.64 155.528 1338.82 152.779 1337.13 150.52C1337.09 151.239 1336.1 151.575 1335.41 151.316C1334.72 151.057 1334.26 150.445 1333.75 149.924C1333.23 149.404 1332.54 148.926 1331.82 149.065C1333.57 151.97 1334.9 155.099 1336.6 158.03C1338.31 160.961 1340.46 163.754 1343.41 165.509C1345.06 166.488 1346.9 167.111 1348.75 167.656C1345.39 165.122 1342.67 161.804 1340.86 158.059Z" fill="#473D26"/>
<path d="M1342.1 153.04C1344.99 157.882 1350.82 160.904 1356.56 160.537C1351.18 159.889 1346.22 156.505 1343.76 151.797C1343.2 152.211 1342.65 152.625 1342.1 153.04Z" fill="#473D26"/>
<path d="M1338.79 131.418C1338.76 129.372 1338.87 126.438 1338.94 123.165C1338.21 124.598 1337.37 125.996 1336.45 127.193C1333.58 130.928 1321.94 133.861 1316.29 135.097C1316.93 137.963 1317.93 139.883 1319.42 140.62C1324.55 139.588 1334.88 137.122 1338.81 133.352C1338.8 132.737 1338.8 132.096 1338.79 131.418Z" fill="#473D26"/>
<path d="M1313.88 130.877C1311.8 131.147 1313.22 139.354 1315.51 139.002C1317.81 138.65 1318.61 138.454 1317.55 133.652C1317.08 131.527 1315.97 130.606 1313.88 130.877Z" fill="#2E2719"/>
<path d="M1316.54 131.933C1316.54 131.933 1315.08 132.162 1314.47 132.116C1313.86 132.071 1310.9 131.979 1309.77 132.483C1308.65 132.986 1306.77 134.177 1306.58 135.276C1306.39 136.375 1305.87 138.115 1307.1 138.573C1307.1 138.573 1306.75 141.173 1309.14 141.173C1309.14 141.173 1310.01 142.19 1311.18 141.411C1311.18 141.411 1312.22 142.373 1313.06 141.411C1313.91 140.45 1312.5 139.671 1312.55 138.939C1312.59 138.206 1313.06 137.611 1313.81 137.428C1314.57 137.245 1316.63 137.794 1317.62 136.558C1317.62 136.558 1318.12 132.777 1316.54 131.933Z" fill="#FFCF99"/>
<path d="M1307.1 138.572C1307.1 138.572 1307.03 138.294 1307.03 137.869C1307.03 137.657 1307.04 137.409 1307.08 137.145C1307.1 137.014 1307.11 136.876 1307.15 136.74C1307.18 136.603 1307.22 136.464 1307.27 136.328C1307.31 136.191 1307.37 136.058 1307.43 135.928C1307.48 135.795 1307.58 135.68 1307.64 135.561C1307.72 135.446 1307.81 135.347 1307.89 135.25C1307.98 135.161 1308.08 135.084 1308.16 135.013C1308.26 134.951 1308.35 134.904 1308.42 134.86C1308.5 134.81 1308.58 134.801 1308.64 134.779C1308.77 134.742 1308.83 134.726 1308.83 134.726C1308.83 134.726 1308.77 134.766 1308.67 134.837C1308.62 134.874 1308.55 134.902 1308.49 134.964C1308.43 135.02 1308.36 135.083 1308.29 135.152C1308.23 135.23 1308.16 135.314 1308.08 135.403C1308.02 135.502 1307.96 135.6 1307.89 135.709C1307.84 135.823 1307.77 135.932 1307.73 136.056C1307.67 136.178 1307.62 136.301 1307.58 136.431C1307.49 136.683 1307.43 136.949 1307.36 137.196C1307.31 137.445 1307.26 137.681 1307.22 137.885C1307.14 138.297 1307.1 138.572 1307.1 138.572Z" fill="#CF9F6B"/>
<path d="M1309.14 141.172C1309.14 141.172 1309.09 141.094 1309.02 140.949C1308.95 140.804 1308.86 140.594 1308.77 140.333C1308.68 140.072 1308.59 139.761 1308.53 139.419C1308.5 139.248 1308.47 139.07 1308.46 138.887C1308.44 138.706 1308.45 138.518 1308.45 138.332C1308.46 138.146 1308.48 137.959 1308.5 137.777C1308.54 137.596 1308.57 137.416 1308.63 137.249C1308.7 137.084 1308.74 136.917 1308.83 136.778C1308.91 136.637 1308.97 136.496 1309.06 136.387C1309.15 136.275 1309.23 136.176 1309.31 136.09C1309.39 136.009 1309.47 135.948 1309.53 135.894C1309.65 135.789 1309.73 135.733 1309.73 135.733C1309.73 135.733 1309.67 135.811 1309.58 135.937C1309.53 136.001 1309.46 136.073 1309.4 136.165C1309.35 136.262 1309.29 136.37 1309.23 136.484C1309.15 136.596 1309.12 136.739 1309.05 136.874C1308.99 137.009 1308.97 137.172 1308.91 137.326C1308.86 137.482 1308.86 137.654 1308.82 137.822C1308.8 137.993 1308.79 138.168 1308.78 138.343C1308.78 138.519 1308.77 138.695 1308.78 138.869C1308.79 139.043 1308.8 139.214 1308.82 139.38C1308.85 139.712 1308.91 140.02 1308.95 140.287C1309 140.551 1309.04 140.775 1309.09 140.928C1309.12 141.084 1309.14 141.172 1309.14 141.172Z" fill="#CF9F6B"/>
<path d="M1311.18 141.411C1311.18 141.411 1311 141.165 1310.81 140.749C1310.76 140.646 1310.71 140.531 1310.66 140.409C1310.62 140.285 1310.57 140.156 1310.54 140.017C1310.45 139.742 1310.4 139.439 1310.37 139.131C1310.35 138.978 1310.36 138.821 1310.36 138.67C1310.36 138.517 1310.39 138.367 1310.41 138.222C1310.44 138.079 1310.47 137.941 1310.52 137.815C1310.57 137.69 1310.62 137.572 1310.68 137.469C1310.74 137.37 1310.8 137.282 1310.86 137.205C1310.91 137.127 1310.98 137.077 1311.03 137.028C1311.13 136.937 1311.18 136.886 1311.18 136.886C1311.18 136.886 1311.15 136.952 1311.08 137.067C1311.05 137.126 1311 137.187 1310.97 137.271C1310.93 137.354 1310.9 137.447 1310.85 137.545C1310.82 137.649 1310.79 137.765 1310.76 137.881C1310.73 138.001 1310.72 138.132 1310.7 138.262C1310.69 138.396 1310.69 138.535 1310.68 138.676C1310.69 138.818 1310.68 138.961 1310.7 139.105C1310.72 139.393 1310.77 139.681 1310.82 139.951C1310.87 140.221 1310.93 140.472 1310.99 140.688C1311.1 141.119 1311.18 141.411 1311.18 141.411Z" fill="#CF9F6B"/>
<path d="M1328.56 110.294C1328.56 110.294 1329.34 116.36 1329.45 118.744C1329.56 121.127 1328.56 125.46 1328.56 125.46C1328.56 125.46 1315.1 129.794 1313.88 130.877C1313.88 130.877 1315.63 130.619 1316.33 133.531C1316.95 136.109 1317.25 139.002 1315.51 139.002C1315.51 139.002 1334.45 135.776 1337.67 132.677C1340.9 129.577 1339.45 110.402 1337.67 106.394C1337.67 106.394 1329.56 98.8101 1328.56 110.294Z" fill="#54482F"/>
<path d="M1318.76 77.2303C1318.76 77.2303 1319.74 76.7554 1320.66 76.1708C1321.11 75.8792 1321.55 75.5588 1321.85 75.279C1321.92 75.2097 1321.99 75.1454 1322.04 75.081C1322.09 75.0177 1322.15 74.9679 1322.18 74.9159C1322.24 74.8168 1322.28 74.7603 1322.28 74.7603C1322.28 74.7603 1322.24 74.8197 1322.19 74.9234C1322.16 74.9783 1322.11 75.0316 1322.07 75.0996C1322.02 75.1685 1321.96 75.2383 1321.89 75.3137C1321.61 75.6186 1321.19 75.9751 1320.75 76.3034C1319.87 76.9612 1318.92 77.5153 1318.92 77.5153C1318.84 77.5614 1318.74 77.5367 1318.69 77.4597C1318.64 77.3827 1318.67 77.2829 1318.74 77.2364C1318.75 77.2345 1318.75 77.2322 1318.76 77.2303Z" fill="#BD703F"/>
<path d="M1318.85 76.5008C1318.85 76.5008 1318.85 76.5197 1318.85 76.5158C1318.85 76.5197 1318.84 76.5476 1318.84 76.5811C1318.84 76.6487 1318.85 76.7605 1318.9 76.898C1318.94 77.0348 1319.01 77.1983 1319.11 77.3653C1319.15 77.4508 1319.21 77.535 1319.27 77.6205C1319.33 77.7085 1319.4 77.7885 1319.47 77.874C1319.53 77.9601 1319.61 78.0358 1319.68 78.1167C1319.75 78.1983 1319.83 78.2692 1319.91 78.342C1320.05 78.4898 1320.21 78.6101 1320.33 78.7212C1320.46 78.8285 1320.57 78.911 1320.65 78.9721C1320.73 79.0323 1320.77 79.067 1320.77 79.067C1320.77 79.067 1320.72 79.041 1320.64 78.9959C1320.55 78.9494 1320.42 78.888 1320.27 78.8044C1320.13 78.7167 1319.95 78.6237 1319.77 78.5012C1319.69 78.4411 1319.59 78.3832 1319.5 78.313C1319.41 78.2432 1319.32 78.1795 1319.23 78.1015C1318.87 77.806 1318.55 77.4466 1318.38 77.1053C1318.29 76.9383 1318.24 76.7777 1318.21 76.6546C1318.2 76.5925 1318.19 76.5441 1318.19 76.4966C1318.19 76.4547 1318.19 76.4323 1318.19 76.4323C1318.19 76.2519 1318.34 76.106 1318.53 76.106C1318.71 76.106 1318.86 76.2525 1318.86 76.4329C1318.86 76.4488 1318.86 76.4641 1318.86 76.4794L1318.85 76.5008Z" fill="#8F552F"/>
<path d="M1313.83 85.6526C1313.83 85.6526 1313.13 87.8025 1315.69 88.1275C1318.25 88.4525 1319.44 86.8398 1319.44 86.8398C1319.44 86.8398 1319.44 89.2773 1322.22 88.8441C1325 88.4109 1331.34 82.2359 1331.34 82.2359C1331.34 82.2359 1328.67 78.0109 1332.45 73.8941C1332.45 73.8941 1324.09 75.1515 1322.66 70.298C1321.22 65.4444 1323.89 63.1691 1327.78 63.2776C1327.78 63.2776 1326.22 64.2526 1327.22 65.9859C1327.22 65.9859 1329 63.8191 1331.78 64.3609C1331.78 64.3609 1330.22 66.9609 1332.45 67.9359C1334.67 68.9109 1341.34 67.1776 1344.01 73.1359C1346.68 79.0941 1344.01 79.7441 1344.01 79.7441C1344.01 79.7441 1346.12 86.6724 1338.45 88.8958C1338.45 88.8958 1337.78 89.7109 1339.01 91.1191C1339.01 91.1191 1337.33 91.1269 1336.78 89.9273C1336.78 89.9273 1336.56 91.6605 1337.78 92.9605C1337.04 92.8728 1336.29 92.6706 1335.6 92.3807C1335.09 92.1627 1334.58 91.8747 1334.21 91.4509C1333.8 90.9689 1333.74 90.279 1333.6 89.6858C1333.37 88.7576 1333.12 87.8418 1333 86.8938C1333 86.8938 1327 97.2938 1319.77 99.352C1312.55 101.41 1308.32 101.085 1306.21 98.2688C1304.1 95.452 1304.76 94.477 1305.54 94.0438C1306.32 93.6105 1309.41 93.177 1310.09 90.7938C1310.77 88.4102 1312.77 85.7849 1313.83 85.6526Z" fill="#BD703F"/>
<path d="M1321.17 94.7262C1321.37 94.3726 1321.54 93.9202 1321.31 93.5822C1320.81 93.5247 1320.39 93.9546 1319.89 94.0622C1319.26 94.1987 1318.62 93.7713 1318.31 93.2195C1318 92.6676 1317.95 92.0186 1317.91 91.392C1317.4 92.0768 1316.81 92.8097 1315.95 92.9952C1314.94 93.2166 1313.9 92.5334 1313.39 91.6465C1312.89 90.7596 1312.79 89.7127 1312.71 88.7017C1311.7 89.1011 1311.56 90.3949 1311.23 91.406C1310.78 92.7742 1309.68 93.9244 1308.31 94.4584C1307.47 94.7844 1306.35 95.1266 1306.34 96.0038C1306.34 96.2852 1306.47 96.5517 1306.64 96.7847C1307.38 97.8511 1308.7 98.3737 1309.99 98.6639C1312.06 99.1309 1314.27 99.1433 1316.29 98.5024C1318.31 97.8615 1320.13 96.5361 1321.17 94.7262Z" fill="#BD5B1C"/>
<path d="M1333.37 74.7057C1332.92 75.4285 1332.54 76.2104 1332.43 77.0486C1332.32 77.8868 1332.5 78.7919 1333.08 79.425C1333.71 80.1267 1334.75 80.4016 1335.7 80.2749C1336.66 80.1481 1337.53 79.6639 1338.26 79.0574C1337.74 79.5245 1336.89 79.5193 1336.28 79.166C1335.67 78.8127 1335.27 78.1783 1335.06 77.5176C1334.85 76.8569 1334.81 76.1601 1334.73 75.4727C1334.69 75.1331 1334.64 74.785 1334.47 74.4863C1334.3 74.1876 1333.98 73.9471 1333.63 73.967C1333.51 74.0108 1333.54 74.173 1333.54 74.2939C1333.54 74.4434 1333.45 74.578 1333.37 74.7057Z" fill="#BD5B1C"/>
<path d="M1325 64.5151C1324.17 65.4134 1323.98 66.7173 1324 67.9302C1324.02 68.4411 1324.06 68.9676 1324.3 69.4217C1324.77 70.2927 1325.81 70.6911 1326.78 70.941C1327.97 71.2469 1329.32 71.4188 1330.38 70.8042C1329.57 70.827 1328.74 70.8455 1327.99 70.5575C1327.23 70.266 1326.62 69.6758 1326.2 68.9943C1325.77 68.3128 1325.53 67.5409 1325.35 66.7645C1325.18 66.0244 1325.06 65.2721 1325 64.5151Z" fill="#BD5B1C"/>
<path d="M1329.21 65.3706C1328.45 66.0577 1327.82 67.0619 1328.1 68.0314C1328.27 68.6183 1328.76 69.0828 1329.32 69.3515C1329.88 69.6206 1330.52 69.7155 1331.14 69.7565C1329.79 68.7438 1329.03 67.0239 1329.21 65.3706Z" fill="#BD5B1C"/>
<path d="M1339.2 78.2302C1338.61 78.2562 1338.12 77.758 1337.89 77.2279C1337.66 76.6975 1337.6 76.1086 1337.37 75.5788C1337.07 74.8947 1336.48 74.3357 1335.77 74.0598C1335.38 73.907 1334.9 73.8476 1334.55 74.0747C1335.16 74.2346 1335.53 74.8372 1335.72 75.4254C1335.91 76.0137 1335.97 76.6455 1336.27 77.1863C1336.82 78.1587 1338.14 78.6322 1339.2 78.2302Z" fill="#BD5B1C"/>
<path d="M1340.18 78.3837C1340.86 77.6713 1341.27 76.7119 1341.24 75.7424C1341.21 74.7729 1340.71 73.8106 1339.87 73.2864C1339.03 72.7622 1337.87 72.7274 1337.05 73.2666C1338.12 73.4827 1338.98 74.3134 1339.47 75.2741C1339.95 76.2348 1340.1 77.318 1340.18 78.3837Z" fill="#BD5B1C"/>
<path d="M1343.96 75.907C1343.91 74.8692 1343.55 73.8149 1342.8 73.0795C1342.05 72.344 1340.87 71.9858 1339.87 72.3336C1340.62 72.2686 1341.21 72.9212 1341.61 73.541C1342.06 74.2335 1342.45 74.9765 1342.63 75.7757C1342.81 76.5748 1342.78 77.438 1342.42 78.18C1342.95 78.1842 1343.42 77.8339 1343.67 77.3877C1343.92 76.9414 1343.98 76.4149 1343.96 75.907Z" fill="#BD5B1C"/>
<path d="M1326.26 72.1597C1327.75 72.8932 1329.5 73.1181 1331.14 72.787C1331.52 72.7093 1331.91 72.6014 1332.3 72.6241C1332.69 72.6472 1333.1 72.8348 1333.25 73.1867C1333.41 72.4776 1332.89 71.6927 1332.16 71.5442C1331.64 71.4369 1331.1 71.6261 1330.58 71.7762C1329.19 72.1821 1327.71 72.3134 1326.26 72.1597Z" fill="#BD5B1C"/>
<path d="M1334.89 73.0107C1335.54 72.6636 1335.86 71.8498 1335.67 71.1536C1335.48 70.4575 1334.83 69.9206 1334.1 69.7994C1333.37 69.6785 1332.6 69.9524 1332.07 70.4617C1332.76 70.2557 1333.53 70.5894 1334 71.1172C1334.47 71.6454 1334.71 72.3331 1334.89 73.0107Z" fill="#BD5B1C"/>
<path d="M1338.66 70.1449C1338.49 69.983 1338.25 69.9255 1338.01 69.8816C1337.25 69.7367 1336.47 69.6629 1335.69 69.6616C1336.29 69.7373 1336.85 70.0721 1337.19 70.5593C1337.53 71.0461 1337.65 71.6776 1337.51 72.2515C1338.21 72.1644 1338.81 71.5596 1338.88 70.8709C1338.9 70.6109 1338.85 70.3279 1338.66 70.1449Z" fill="#BD5B1C"/>
<path d="M1338.39 81.1896C1338.88 81.3316 1339.27 81.7418 1339.48 82.2039C1339.69 82.6661 1339.75 83.1786 1339.78 83.6833C1339.82 84.2621 1339.82 84.8663 1339.56 85.3915C1338.99 86.5914 1337.33 86.9778 1336.67 88.1378C1336.94 87.7101 1337.45 87.4904 1337.91 87.2762C1338.68 86.9226 1339.45 86.5046 1339.99 85.8689C1340.55 85.2212 1340.84 84.3863 1340.93 83.5471C1341.02 82.797 1340.93 81.9767 1340.43 81.4005C1339.93 80.8243 1338.92 80.6429 1338.39 81.1896Z" fill="#BD5B1C"/>
<path d="M1341.31 80.9757C1342.26 82.3296 1342.32 84.2315 1341.44 85.6339C1340.97 86.3869 1340.27 86.9781 1339.59 87.5563C1341.02 86.4549 1342.51 85.2075 1342.97 83.4899C1343.11 82.9874 1343.15 82.4635 1343.13 81.9439C1343.12 81.393 1343.02 80.8008 1342.61 80.4128C1342.1 79.9142 1341.14 79.9627 1340.68 80.5109C1340.95 80.5366 1341.15 80.7573 1341.31 80.9757Z" fill="#BD5B1C"/>
<path d="M1335.46 91.1183C1335.63 91.286 1335.86 91.4351 1336.11 91.3887C1335.79 90.8862 1335.71 90.2778 1335.66 89.6896C1335.6 89.0347 1335.56 88.3779 1335.55 87.7207C1335.06 88.1422 1334.76 88.7653 1334.75 89.4C1334.73 90.0347 1334.99 90.672 1335.46 91.1183Z" fill="#BD5B1C"/>
<path d="M1337.49 87.8794C1336.87 88.5034 1337.01 89.6705 1337.76 90.1391C1337.68 89.4257 1337.59 88.712 1337.5 87.9987" fill="#BD5B1C"/>
<path d="M1325.35 91.0952C1325.73 92.8369 1325.19 94.7424 1323.96 96.0537C1322.72 97.3651 1320.82 98.0489 1319.01 97.8328C1320.53 96.8753 1321.87 95.6517 1323.11 94.3595C1324.03 93.3946 1324.93 92.3513 1325.35 91.0952Z" fill="#BD5B1C"/>
<path d="M1326.08 88.3071C1325.17 89.1099 1324.22 89.9006 1323.09 90.3566C1321.96 90.8126 1320.6 90.8889 1319.55 90.2841C1319.2 90.5997 1319.17 91.1597 1319.41 91.5568C1319.65 91.954 1320.11 92.1919 1320.58 92.2468C1321.05 92.3017 1321.53 92.1935 1321.97 92.0251C1323.73 91.3508 1324.95 89.793 1326.08 88.3071Z" fill="#BD5B1C"/>
<path d="M1313.6 84.0229C1313.6 84.0229 1313.27 81.9104 1314.1 81.5041C1314.94 81.0979 1316.27 81.2272 1316.85 81.975C1317.44 82.7229 1318.44 85.2416 1319.61 85.4041C1320.77 85.5666 1322.36 85.8104 1322.69 84.4291C1322.69 84.4291 1323.11 86.2166 1320.52 86.1354C1317.94 86.0541 1314.27 84.5916 1313.6 84.0229Z" fill="#BD703F"/>
<path d="M1318 88.9028C1316.73 89.8443 1314.78 89.7949 1313.56 88.79C1313.77 89.7384 1314.45 90.7079 1315.45 90.7813C1316.01 90.8229 1316.55 90.5639 1316.97 90.1979C1317.39 89.8317 1317.7 89.364 1318 88.9028Z" fill="#BD5B1C"/>
<path d="M1332.18 83.5405C1331.67 85.3589 1331.08 87.1679 1330.16 88.8296C1329.25 90.4913 1328 92.01 1326.38 93.0393C1326.42 92.2843 1326.29 91.5193 1325.98 90.8241C1326.65 90.5615 1327.11 89.9239 1327.32 89.2498C1327.53 88.5758 1327.52 87.8591 1327.52 87.1549C1329.37 86.3898 1331 85.1259 1332.18 83.5405Z" fill="#BD5B1C"/>
<path d="M1335.12 81.2395C1334.04 81.246 1333 80.7078 1332.3 79.9047C1331.61 79.1016 1331.24 78.0574 1331.16 77.0093C1330.82 77.8442 1330.93 78.7981 1331.22 79.6548C1331.42 80.2697 1331.74 80.8901 1332.3 81.2317C1333.12 81.7299 1334.19 81.4923 1335.12 81.2395Z" fill="#BD5B1C"/>
<path d="M1314.44 82.0762C1314.13 82.4983 1314.23 83.1422 1314.64 83.4649C1314.98 83.733 1315.48 83.7831 1315.78 84.098C1315.4 83.9098 1315.28 83.4603 1315.18 83.0648C1315.08 82.6693 1314.91 82.2214 1314.51 82.0989" fill="#BD5B1C"/>
<path d="M1315.56 82.376C1315.73 82.7868 1315.9 83.1976 1316.07 83.6081C1316.17 83.8597 1316.28 84.1167 1316.46 84.3173C1316.65 84.5178 1316.94 84.6533 1317.21 84.5909C1316.81 84.2623 1316.76 83.6991 1316.61 83.2129C1316.46 82.7267 1316.03 82.2048 1315.53 82.338" fill="#BD5B1C"/>
<path d="M1334.53 82.3976C1334.53 82.3976 1336.62 81.0163 1337.62 82.3976C1338.62 83.7788 1337.95 85.1656 1337.2 86.1377C1336.45 87.1098 1335.14 88.2203 1333 86.8933C1333 86.8933 1334.2 84.9976 1334.53 82.3976Z" fill="#FFCF99"/>
<path d="M1336.16 83.2461C1335.91 83.0667 1335.43 82.7797 1335.4 82.8369C1335.55 82.5324 1335.99 82.4394 1336.31 82.5678C1336.63 82.6962 1336.85 82.9871 1337.01 83.2893C1337.29 83.8379 1337.4 84.4788 1337.26 85.0775C1337.12 85.6761 1336.71 86.2228 1336.15 86.486C1335.84 86.6264 1335.51 86.6843 1335.17 86.7259C1334.91 86.758 1334.61 86.7658 1334.44 86.5757C1334.3 86.4223 1334.3 86.1922 1334.35 85.993C1334.5 85.3271 1335.12 84.7895 1335.82 84.7183C1335.55 84.8558 1335.35 85.121 1335.3 85.4148C1335.29 85.4548 1335.29 85.498 1335.31 85.5341C1335.33 85.5744 1335.37 85.5971 1335.42 85.6127C1335.93 85.796 1336.32 85.393 1336.38 84.9195C1336.43 84.5149 1336.43 84.0046 1336.37 83.6016C1336.36 83.5207 1336.34 83.4391 1336.3 83.368C1336.29 83.3462 1336.23 83.3013 1336.16 83.2461Z" fill="#FFAD73"/>
<path d="M1366.26 59.3105C1358.64 66.9282 1356.99 78.1251 1356.99 78.1251C1358.72 78.2941 1360.42 78.6071 1362.08 79.014C1362.71 70.7232 1365.19 65.8362 1369.54 61.4874C1367.57 60.2277 1366.26 59.3105 1366.26 59.3105Z" fill="#730938"/>
<path d="M1384.44 68.6711C1380.46 68.1293 1373.61 64.0795 1369.54 61.4873C1365.19 65.8358 1362.71 70.7232 1362.08 79.0139C1371.96 81.4397 1380.06 87.3086 1380.06 87.3086C1388.31 77.1575 1384.44 68.6711 1384.44 68.6711Z" fill="#473D26"/>
<path d="M1370.34 55.7168C1370.34 55.7168 1362.99 59.037 1359.99 68.5809C1356.99 78.1249 1358.14 85.0321 1358.14 85.0321" stroke="#473D26" stroke-width="9" stroke-miterlimit="10" stroke-linecap="round"/>
</svg>
