<svg width="1561" height="272" viewBox="0 0 1561 272" fill="none" xmlns="http://www.w3.org/2000/svg">
<path d="M212.782 237.243C212.782 237.243 141.404 117.158 212.782 37.608C254.835 -9.25928 332.872 -10.3883 382.303 23.5001C450.921 70.5422 410.382 215.809 386.142 231.244L212.782 237.243Z" fill="#599EA8"/>
<path d="M249.613 226.528C249.613 226.528 175.844 118.498 236.209 53.5052C269.722 17.4228 360.385 28.6873 382.303 62.2536C420.302 120.447 368.636 205.903 355.178 217.923L249.613 226.528Z" fill="#397D87"/>
<path opacity="0.5" d="M1479.98 142.595C1491.29 145.733 1500.78 153.966 1497.53 172.925C1494.28 191.883 1476.89 189.005 1467.71 186.544C1458.53 184.083 1445.82 173.683 1450.97 157.605C1455.61 143.082 1469.77 139.766 1479.98 142.595Z" fill="white"/>
<path opacity="0.5" d="M1478.68 147.418C1487.57 149.881 1495.01 156.342 1492.46 171.219C1489.91 186.097 1476.26 183.838 1469.06 181.907C1461.85 179.976 1451.88 171.814 1455.92 159.197C1459.57 147.801 1470.68 145.198 1478.68 147.418Z" fill="white"/>
<path d="M1459.61 209.657C1459.61 209.657 1462.86 208.475 1466.32 210.409L1457.22 252.187C1457.22 252.187 1453.32 252.777 1449.42 249.46L1459.61 209.657Z" fill="#13353A"/>
<path d="M1461.56 211.536C1461.56 211.536 1468.71 177.995 1469.36 175.236H1471.31C1471.31 175.236 1464.37 209.093 1463.94 212.777L1461.56 211.536Z" fill="#13353A"/>
<path d="M1466.9 174.101L1472.08 174.837L1473.98 176.527L1481.33 163.281L1476.42 153.938L1468.11 157.934L1466.9 174.101Z" fill="white" stroke="#13353A" stroke-width="2" stroke-miterlimit="10"/>
<path d="M1468.11 157.934L1476.74 159.378L1481.33 163.281" stroke="#13353A" stroke-width="2" stroke-miterlimit="10"/>
<path d="M1472.08 174.837L1476.74 159.378L1476.42 153.938" stroke="#13353A" stroke-width="2" stroke-miterlimit="10"/>
<path d="M1466.72 174.288L1470.44 176.001L1473.98 176.713L1472.08 174.837L1466.72 174.288Z" fill="#13353A"/>
<path d="M1469.12 181.852C1468.92 180.237 1469.88 178.543 1471.38 177.893C1472.87 177.242 1474.76 177.689 1475.81 178.938C1476.16 179.352 1476.41 179.837 1476.62 180.336C1477.05 181.37 1477.28 182.576 1476.81 183.594C1476.34 184.618 1475.15 185.26 1474.04 185.095C1472.92 184.929 1471.97 183.969 1471.82 182.852C1471.77 182.455 1471.81 182.029 1472.03 181.697C1472.25 181.377 1472.6 181.178 1472.97 181.07C1473.54 180.906 1474.24 180.978 1474.58 181.454C1474.92 181.929 1474.56 182.79 1473.98 182.696" stroke="#13353A" stroke-width="2" stroke-miterlimit="10" stroke-linecap="round"/>
<path d="M1468.22 183.928C1468.32 183.103 1468.41 182.279 1468.5 181.455C1468.69 179.801 1468.77 177.859 1467.51 176.772C1466.47 175.871 1464.75 176.001 1463.73 176.929C1462.71 177.858 1462.38 179.416 1462.77 180.74C1462.96 181.363 1463.3 181.959 1463.82 182.344C1464.35 182.729 1465.07 182.871 1465.66 182.608C1466.26 182.344 1466.65 181.633 1466.46 181.012C1466.27 180.39 1465.44 180.029 1464.9 180.385" stroke="#13353A" stroke-width="2" stroke-miterlimit="10" stroke-linecap="round"/>
<path d="M1452.91 249.95L1457.56 230.827C1457.6 230.653 1457.77 230.546 1457.95 230.588C1458.12 230.63 1458.23 230.804 1458.19 230.977L1453.76 250.15C1453.7 250.383 1453.47 250.529 1453.24 250.475C1453 250.421 1452.86 250.188 1452.91 249.955C1452.91 249.954 1452.91 249.951 1452.91 249.95Z" fill="#0E282C"/>
<path d="M1451 248.875L1455.64 229.752C1455.68 229.577 1455.86 229.47 1456.03 229.513C1456.21 229.555 1456.31 229.728 1456.27 229.902L1451.84 249.075C1451.79 249.308 1451.56 249.453 1451.32 249.399C1451.09 249.345 1450.94 249.113 1451 248.879C1451 248.879 1451 248.876 1451 248.875Z" fill="#0E282C"/>
<path d="M1455.43 250.133L1459.98 230.693C1460.02 230.519 1460.2 230.41 1460.37 230.451C1460.55 230.491 1460.65 230.661 1460.62 230.833L1456.58 250.387C1456.52 250.707 1456.2 250.912 1455.88 250.846C1455.56 250.78 1455.36 250.468 1455.42 250.148C1455.43 250.144 1455.43 250.137 1455.43 250.133Z" fill="#0E282C"/>
<path d="M1452.83 151.831C1452.83 151.831 1457.36 156.651 1450.19 168.639C1450.19 168.639 1445 160.548 1452.83 151.831Z" fill="#BD5B1C"/>
<path d="M1509.67 181.888C1509.67 181.888 1509.98 187.655 1501.15 193.025C1501.15 193.025 1501.89 184.526 1509.67 181.888Z" fill="#BD5B1C"/>
<path d="M1454.97 122.947C1454.97 122.947 1458.11 126.847 1454.97 131.614C1451.83 136.381 1442.19 134.972 1442.19 134.972C1442.19 134.972 1452.8 128.689 1454.97 122.947Z" fill="#BD703F"/>
<path d="M1436.99 133.269C1436.99 133.269 1440.89 136.235 1445.87 132.408C1450.85 128.58 1454.54 122.297 1454.97 122.947C1455.4 123.597 1456.52 129.556 1452.8 132.408C1448.58 135.647 1442.4 137.957 1436.99 133.269Z" fill="#BD5B1C"/>
<path d="M1499.9 199.489C1499.9 199.489 1498.99 203.642 1494.16 204.099C1489.34 204.556 1485.14 197.427 1485.14 197.427C1485.14 197.427 1494.95 201.109 1499.9 199.489Z" fill="#BD703F"/>
<path d="M1483.5 193.08C1483.5 193.08 1483.61 197.238 1488.8 198.5C1493.98 199.761 1500.1 198.856 1499.9 199.489C1499.7 200.121 1496.35 204.032 1492.49 203.088C1488.09 202.016 1483.28 199.158 1483.5 193.08Z" fill="#BD5B1C"/>
<path d="M1476.03 133.99C1476.03 133.99 1478.69 141.253 1475.1 144.828C1471.51 148.403 1466.09 145.362 1466.09 145.362C1466.09 145.362 1476.22 143.518 1476.03 133.99Z" fill="#BD703F"/>
<path d="M1465.63 145.362C1465.63 145.362 1475.06 141.241 1476.1 133.556C1476.1 133.556 1478.83 148.603 1465.63 145.362Z" fill="#BD5B1C"/>
<path d="M1439.04 187.108C1439.04 187.108 1433.19 186.792 1431.78 183.231C1430.36 179.67 1434.09 176.809 1434.09 176.809C1434.09 176.809 1432.35 184.402 1439.04 187.108Z" fill="#BD703F"/>
<path d="M1434.23 176.491C1434.23 176.491 1434.28 184.273 1439.32 187.286C1439.32 187.286 1428.04 184.7 1434.23 176.491Z" fill="#BD5B1C"/>
<path d="M1424.76 163.049C1424.76 163.049 1426.12 156.717 1432.29 152.817C1432.29 152.817 1435.11 161.744 1424.76 163.049Z" fill="#BD703F"/>
<path d="M1424.76 163.049C1424.76 163.049 1424.22 156.284 1432.29 152.817C1432.29 152.817 1430.29 161.798 1424.76 163.049Z" fill="#BD5B1C"/>
<path d="M81.0586 249.383V267.546L1521.06 269V261.655C1144.26 163.477 404.059 212.566 81.0586 249.383Z" fill="#69826E"/>
<path d="M831.234 218.77C831.234 218.77 829.891 218.753 827.538 218.724C825.185 218.696 821.831 218.642 817.773 218.64C809.668 218.607 798.864 218.565 788.06 218.522C777.289 218.438 766.366 218.527 758.212 218.548C750.05 218.578 744.609 218.597 744.609 218.597C737.4 218.625 731.279 217.581 730.95 216.285L729.761 211.415C729.423 210.102 735.327 209.028 742.938 208.999C742.938 208.999 748.658 208.978 757.24 208.946C765.818 208.924 777.274 208.834 788.677 208.92C800.091 208.965 811.506 209.011 820.068 209.045C824.353 209.049 827.904 209.105 830.394 209.134C832.884 209.165 834.306 209.182 834.306 209.182C841.882 209.274 847.587 210.403 847.049 211.706L845.107 216.569C844.568 217.871 838.357 218.857 831.234 218.77Z" fill="#7B9982"/>
<path d="M890.109 231.31C890.109 231.31 885.149 231.211 877.706 231.062C873.986 230.986 869.647 230.898 864.997 230.803C862.667 230.761 860.283 230.693 857.818 230.666C855.356 230.638 852.855 230.609 850.354 230.58C840.352 230.458 830.351 230.337 822.851 230.245C819.11 230.185 815.954 230.186 813.752 230.178C811.55 230.17 810.29 230.165 810.29 230.165C803.621 230.141 798.341 229.061 798.495 227.756L799.142 222.882C799.296 221.577 805.187 220.542 812.297 220.569C812.297 220.569 813.631 220.574 815.969 220.583C818.305 220.592 821.65 220.593 825.627 220.655C833.597 220.751 844.225 220.88 854.853 221.009C857.51 221.04 860.167 221.072 862.784 221.102C865.4 221.132 867.944 221.202 870.422 221.247C875.37 221.347 879.99 221.441 883.948 221.521C891.868 221.68 897.148 221.786 897.148 221.786C900.653 221.859 903.637 222.174 905.573 222.656C907.504 223.145 908.417 223.77 907.883 224.416L903.918 229.241C903.386 229.887 901.567 230.434 899.082 230.795C896.592 231.165 893.398 231.378 890.109 231.31Z" fill="#7B9982"/>
<path d="M122.145 263.925C125.319 263.769 127.722 263.352 129.991 262.947C132.908 262.415 135.997 261.906 139.031 261.388C142.088 260.875 145.078 260.35 148.187 259.843L157.561 258.329L162.243 257.571L167.051 256.833C171.693 256.124 176.688 255.232 176.025 254.118C175.575 253.319 172.167 252.656 168.928 252.063C159.463 250.331 147.6 248.449 134.096 248.937C130.671 249.059 127.521 249.325 124.577 249.664C121.654 250.006 119.008 250.435 116.451 250.856C113.074 251.419 109.744 251.991 106.566 252.587C103.433 253.191 100.391 253.808 97.444 254.436C94.467 255.06 91.6944 255.712 89.0407 256.377C86.3945 257.043 83.7742 257.707 81.4067 258.4C86.1473 260.857 97.8603 262.832 111.545 263.714C114.96 263.933 118.724 264.091 122.145 263.925Z" fill="#7B9982"/>
<path d="M251.649 235.79C246.689 235.791 242.043 236.212 237.667 236.633L233.987 236.989L230.393 237.37L223.254 238.147C218.517 238.672 213.808 239.205 209.171 239.757C204.62 240.331 200.116 240.916 195.667 241.512C191.215 242.107 186.792 242.708 182.594 243.359C179.152 243.879 175.426 244.539 175.939 245.322C176.255 245.803 178.134 246.202 179.931 246.573L200.746 250.873C203.097 251.361 205.84 251.886 209.361 251.953C211.769 251.999 214.035 251.817 216.144 251.633C222.011 251.106 227.946 250.588 233.696 250.023C239.466 249.462 244.976 248.836 250.61 248.237C256.185 247.623 261.609 246.97 266.881 246.277C272.237 245.607 277.513 244.916 282.595 244.175C284.35 243.921 286.206 243.622 286.448 243.209C286.661 242.844 285.546 242.492 284.472 242.17L274.339 239.136C269.082 237.564 262.078 235.789 251.649 235.79Z" fill="#7B9982"/>
<path d="M373.104 233.594C380.342 231.729 375.228 228.802 364.093 227.494C358.525 226.841 351.973 226.524 345.19 226.47C338.491 226.446 331.557 226.68 325.15 227.078C312.225 227.843 301.256 229.331 289.76 230.584C287.967 230.784 286.068 230.982 284.488 231.234C282.908 231.486 281.585 231.773 280.853 232.121C279.654 232.691 280.281 233.321 281.182 233.903C284.388 235.971 290.988 237.867 299.722 239.352C309.993 239.178 319.902 238.708 329.366 238.016C331.734 237.844 334.077 237.659 336.4 237.465L339.875 237.169L343.385 236.883C348.048 236.494 352.645 236.082 357.193 235.67C360.155 235.403 363.178 235.124 365.921 234.787C368.655 234.446 371.219 234.087 373.104 233.594Z" fill="#7B9982"/>
<path d="M489.806 226.192C490.299 225.945 490.022 225.669 489.721 225.409C486.768 222.872 482.02 220.4 475.389 218.095C474.168 217.67 472.678 217.218 470.11 217.055C468.207 216.934 466.079 216.998 464.07 217.065C456.498 217.319 448.925 217.6 441.395 217.916C433.958 218.279 426.549 218.672 419.186 219.093C415.505 219.303 411.837 219.521 408.182 219.745C404.524 219.969 400.979 220.243 397.396 220.5C390.256 221.025 383.183 221.577 376.194 222.155C382.784 224.898 391.581 227.485 401.93 229.844C403.547 230.213 405.32 230.591 407.73 230.764C410.947 230.994 414.474 230.802 417.674 230.609L424.696 230.183L428.203 229.968L431.76 229.777L445.976 229.012L460.151 228.238C464.894 227.991 469.709 227.78 474.475 227.547C478.485 227.355 482.522 227.159 486.192 226.813C487.697 226.672 489.223 226.485 489.806 226.192Z" fill="#7B9982"/>
<path d="M615.36 222.697C613.639 219.647 609.973 216.624 604.149 213.721C600.239 211.731 584.124 211.46 566.953 211.913C562.675 212.033 558.315 212.18 554.129 212.396C549.955 212.622 545.907 212.881 542.161 213.158C534.668 213.711 528.397 214.334 524.697 214.91C522.5 215.251 520.632 215.629 519.068 216.035C517.524 216.455 516.282 216.903 515.31 217.37C513.365 218.303 512.501 219.313 512.456 220.338C512.367 222.389 515.541 224.505 519.861 226.206C523.779 226.116 527.703 226.001 531.632 225.866C535.568 225.737 539.58 225.631 543.557 225.486C551.527 225.208 559.512 224.869 567.486 224.504C569.471 224.407 571.483 224.327 573.5 224.252L579.536 224.015C583.555 223.854 587.569 223.694 591.563 223.534C599.566 223.228 607.44 222.87 615.36 222.697Z" fill="#7B9982"/>
<path d="M631.555 211.517C629.985 211.57 628.268 211.639 627.298 211.86C626.551 212.031 626.419 212.257 626.329 212.47C625.064 215.471 626.839 218.5 631.148 221.406L641.484 221.263C644.924 221.21 648.358 221.155 651.831 221.137C658.755 221.08 665.666 221.011 672.566 220.932L682.91 220.804C686.355 220.759 689.793 220.703 693.266 220.691C700.194 220.645 707.112 220.587 714.029 220.519C714.053 217.221 710.24 213.923 702.338 210.918C701.394 210.56 700.259 210.18 698.213 210.003C696.414 209.848 694.288 209.881 692.294 209.918L684.649 210.061L677.041 210.258L661.842 210.657L646.661 211.054C644.136 211.125 641.597 211.176 639.087 211.262L631.555 211.517Z" fill="#7B9982"/>
<path d="M179.805 257.694C174.958 259.732 181.756 262.418 193.534 263.402C205.386 264.393 219.526 263.528 224.267 261.607C225.24 261.199 225.824 260.741 225.452 260.274C225.207 259.965 224.553 259.664 223.882 259.368C221.046 258.122 217.514 256.827 211.333 256.04C202.801 254.947 189.821 255.245 183.904 256.684C185.218 256.314 186.628 255.961 188.015 255.601" fill="#7B9982"/>
<path d="M319.104 252.305C312.901 249.911 304.184 247.11 289.973 246.918C283.305 246.834 276.989 247.36 271.41 247.968C265.804 248.591 260.391 249.268 255.217 249.994C252.606 250.351 250.142 250.742 247.756 251.146C245.36 251.549 243.032 251.962 240.774 252.386C242.211 253.205 241.313 253.989 239.787 254.762C238.295 255.542 236.262 256.332 235.247 257.125C232.531 259.259 238.531 261.735 249.081 263.104C276.667 261.691 300.506 258.855 317.983 254.847C319.543 254.485 321.102 254.083 321.187 253.591C321.265 253.155 320.171 252.718 319.104 252.305Z" fill="#7B9982"/>
<path d="M389.711 240.08C386.227 239.371 382.053 238.658 377.004 238.509C373.112 238.404 369.295 238.651 365.661 238.894C357.263 239.466 348.689 239.988 340.434 240.629L327.918 241.551C323.733 241.857 319.535 242.161 315.456 242.504C313.793 242.639 312.031 242.789 311.112 243.073C309.878 243.454 310.53 243.952 311.312 244.39C315.215 246.574 321.661 248.629 329.853 250.416C331.356 250.744 333.081 251.083 335.253 251.185C337.152 251.274 339.016 251.165 340.754 251.053C346.903 250.639 353.176 250.263 359.301 249.84C362.366 249.629 365.404 249.411 368.42 249.183C371.429 248.955 374.415 248.718 377.468 248.504C382.766 248.115 388.323 247.608 392.615 246.915C394.766 246.57 396.589 246.174 397.93 245.73C399.302 245.298 400.166 244.809 400.327 244.253C400.768 242.738 395.535 241.266 389.711 240.08Z" fill="#7B9982"/>
<path d="M419.371 240.363C421.273 240.76 423.298 241.175 425.911 241.359C427.892 241.498 429.995 241.487 432.015 241.46C438.3 241.376 444.422 241.15 450.27 240.789C456.161 240.446 461.882 240.013 467.164 239.426C465.281 237.959 463.395 236.459 459.191 235.149C454.992 233.839 447.919 232.733 439.75 232.6C437.743 232.569 435.732 232.59 433.773 232.654C431.828 232.723 429.904 232.825 428.007 232.929C422.226 233.245 416.487 233.592 410.812 233.968C407.978 234.158 405.142 234.348 402.357 234.558C399.603 234.78 396.865 235.01 394.15 235.246C402.714 236.943 411.059 238.624 419.371 240.363Z" fill="#7B9982"/>
<path d="M561.136 235.441C563.087 234.849 562.217 234.048 561.273 233.34L557.265 230.327C556.057 229.42 554.403 228.4 549.904 227.972C546.903 227.687 543.378 227.745 540.077 227.81C519.5 228.327 498.778 228.865 478.303 229.624C476.332 229.691 474.209 229.774 472.922 230.049C471.496 230.352 471.509 230.803 471.671 231.212C472.412 233.102 474.828 234.981 478.656 236.772C479.671 237.247 480.845 237.732 482.832 238.09C486.381 238.729 491.544 238.812 496.154 238.807C506.607 238.806 516.731 238.506 526.794 238.124C531.791 237.915 536.697 237.646 541.493 237.318C543.893 237.154 546.264 236.975 548.605 236.781C550.965 236.598 553.325 236.417 555.637 236.212C557.731 236.028 559.895 235.817 561.136 235.441Z" fill="#7B9982"/>
<path d="M653.219 233.762C654.459 233.71 655.754 233.641 656.914 233.54C658.079 233.445 659.095 233.308 659.751 233.098C660.764 232.774 660.638 232.359 660.478 231.971L658.941 228.19C658.389 226.82 657.042 225.199 650.363 224.564C646.715 224.237 642.438 224.336 638.429 224.437L611.721 225.107C602.878 225.378 594.077 225.682 585.246 225.964C583.241 228.511 584.449 231.147 588.379 233.652C588.931 234.004 589.607 234.375 591.061 234.619C592.947 234.935 595.601 234.955 598.005 234.95C602.668 234.94 607.308 234.903 611.926 234.837C614.234 234.804 616.536 234.764 618.833 234.716L625.776 234.605C635.023 234.437 644.171 234.156 653.219 233.762Z" fill="#7B9982"/>
<path d="M758.777 226.385C758.476 225.544 757.978 224.626 754.781 224.027C752.425 223.585 749.022 223.402 745.755 223.253C742.827 223.119 739.876 222.998 736.904 222.892C735.419 222.841 733.925 222.784 732.437 222.747C730.95 222.713 729.46 222.682 727.966 222.654C721.991 222.543 715.967 222.488 709.935 222.487C703.904 222.486 697.869 222.54 691.875 222.649C685.903 222.78 680.008 223.01 674.184 223.27C672.198 226.313 672.649 229.406 675.173 232.442C681.51 232.735 687.848 232.869 694.202 232.882C700.591 232.932 707.026 232.893 713.452 232.756C719.882 232.624 726.323 232.41 732.749 232.155C735.951 232.014 739.207 231.931 742.425 231.808C745.651 231.687 748.87 231.568 752.068 231.448C754.811 231.344 757.916 231.189 759.21 230.707C759.968 230.424 759.908 230.088 759.825 229.77C759.526 228.641 759.178 227.513 758.777 226.385Z" fill="#7B9982"/>
<path d="M831.234 218.77C831.234 218.77 829.891 218.753 827.538 218.724C825.185 218.696 821.831 218.642 817.773 218.64C809.668 218.607 798.864 218.565 788.06 218.522C777.289 218.438 766.366 218.527 758.212 218.548C750.05 218.578 744.609 218.597 744.609 218.597C737.4 218.625 731.279 217.581 730.95 216.285L729.761 211.415C729.423 210.102 735.327 209.028 742.938 208.999C742.938 208.999 748.658 208.978 757.24 208.946C765.818 208.924 777.274 208.834 788.677 208.92C800.091 208.965 811.506 209.011 820.068 209.045C824.353 209.049 827.904 209.105 830.394 209.134C832.884 209.165 834.306 209.182 834.306 209.182C841.882 209.274 847.587 210.403 847.049 211.706L845.107 216.569C844.568 217.871 838.357 218.857 831.234 218.77Z" fill="#7B9982"/>
<path d="M875.734 219.54C878.473 219.875 881.893 219.941 885.167 219.996L897.969 220.212C902.232 220.289 906.525 220.338 910.745 220.462L936.174 221.1C939.238 221.176 942.565 221.236 945.685 221.175C948.801 221.117 951.674 220.973 953.917 220.573C957.149 220.004 957.888 219.122 958.425 218.307C959.213 217.12 959.78 215.825 958.816 214.63C958.334 214.033 957.467 213.461 956.052 212.94C954.625 212.429 952.635 211.982 949.939 211.611C944.462 210.862 937.159 210.633 930.183 210.475C925.546 210.37 920.899 210.285 916.251 210.22C911.592 210.168 906.894 210.179 902.228 210.187C892.884 210.214 883.582 210.322 874.404 210.512C870.44 211.593 868.1 212.84 867.353 214.13C866.612 215.411 867.463 216.729 869.875 217.952C871.085 218.565 872.794 219.181 875.734 219.54Z" fill="#7B9982"/>
<path d="M1082.83 219.032C1081.26 218.694 1079.28 218.433 1077.11 218.214C1076.02 218.106 1074.9 218.005 1073.74 217.916C1072.58 217.833 1071.4 217.757 1070.23 217.683C1059.71 217.017 1049.04 216.404 1038.3 215.846C1027.46 215.343 1016.46 214.947 1005.47 214.58C1001.01 214.435 995.765 214.328 992.613 214.923C990.69 215.278 990.134 215.786 989.655 216.264L984.046 221.805C983.401 222.434 982.855 223.131 984.816 223.645C986.142 224.005 988.38 224.201 990.523 224.376C996.536 224.867 1002.63 225.313 1008.8 225.713C1011.88 225.913 1014.99 226.102 1018.11 226.279C1021.23 226.458 1024.3 226.669 1027.43 226.844C1033.67 227.206 1039.98 227.522 1046.38 227.793C1049.56 227.932 1052.8 228.044 1056.01 228.173C1059.19 228.311 1062.4 228.437 1065.63 228.552C1067.85 228.631 1070.33 228.697 1072.29 228.469C1074.03 228.268 1074.87 227.893 1075.6 227.544L1082.51 224.244C1086.08 222.533 1089.44 220.456 1082.83 219.032Z" fill="#7B9982"/>
<path d="M1169.65 234.004C1182.5 233.783 1192.19 231.23 1190.87 228.904C1189.54 226.587 1179.79 224.553 1167.97 223.386C1162.12 222.785 1155.86 222.324 1149.49 221.915C1146.32 221.699 1143.01 221.55 1139.75 221.375C1136.49 221.206 1133.22 221.038 1129.99 220.859C1125.93 220.635 1121.55 220.39 1117.57 220.626C1114.32 220.818 1111.95 221.299 1109.97 221.788C1102.93 223.527 1098.78 225.626 1097.76 227.761C1104.93 229.094 1113.38 230.085 1122.48 230.898C1131.48 231.75 1140.99 232.483 1150.45 233.163C1151.98 233.275 1153.54 233.387 1155.12 233.491C1156.69 233.595 1158.24 233.708 1159.84 233.792C1163.02 233.965 1166.29 234.061 1169.65 234.004Z" fill="#7B9982"/>
<path d="M1276.28 245.061C1277.68 244.974 1278.72 244.762 1279.67 244.557C1289.01 242.553 1296.93 240.343 1302.96 237.977C1304.06 237.542 1305.13 237.052 1304.24 236.595C1303.59 236.256 1301.98 236.003 1300.43 235.768C1294.49 234.911 1288.36 234.091 1282.15 233.284C1279.03 232.885 1275.92 232.479 1272.72 232.1C1269.48 231.73 1266.23 231.366 1262.94 231.007C1256.36 230.296 1249.76 229.584 1242.94 228.945C1236.06 228.322 1229.11 227.725 1222.09 227.156C1214.16 229.788 1208.33 232.617 1204.48 235.508C1203.88 235.96 1203.34 236.438 1204.11 236.871C1205.14 237.448 1208.23 237.799 1211.12 238.104C1215.4 238.537 1219.49 239.033 1223.66 239.501L1236.11 240.913C1238.18 241.15 1240.29 241.376 1242.33 241.621L1248.43 242.362L1260.64 243.836C1262.35 244.041 1264.07 244.247 1265.84 244.435C1267.62 244.623 1269.39 244.812 1271.3 244.954C1272.86 245.072 1274.63 245.165 1276.28 245.061Z" fill="#7B9982"/>
<path d="M1371.06 259.795C1383.48 257.639 1394.63 255.226 1403.76 252.618C1406.83 251.742 1406.21 250.707 1403.21 249.628C1401.71 249.089 1399.62 248.54 1397.11 247.996C1394.6 247.452 1391.55 246.941 1388.31 246.438C1375.44 244.404 1358.05 242.892 1348.34 242.613C1324.73 242.037 1304.87 245.79 1295.29 249.119C1298.15 249.597 1301.11 250.062 1304.16 250.514C1307.24 250.961 1310.35 251.41 1313.47 251.862C1319.71 252.769 1326.32 253.617 1332.87 254.485C1339.35 255.37 1345.98 256.227 1352.45 257.1C1358.79 257.997 1365.1 258.885 1371.06 259.795Z" fill="#7B9982"/>
<path d="M1430.81 254.931C1429.62 254.745 1428.24 254.555 1426.64 254.564C1425.41 254.571 1424.33 254.696 1423.32 254.818C1409.2 256.54 1396.88 258.691 1386.69 261.106C1405.45 264.619 1423.65 265.959 1441.56 269.5C1456.35 267.454 1469.06 267.091 1477.62 264.151C1478.65 263.8 1479.64 263.41 1479.17 263.021C1478.75 262.681 1477.3 262.411 1475.85 262.171C1461.3 259.669 1446.19 257.268 1430.81 254.931Z" fill="#7B9982"/>
<path d="M880.11 233.611C885.594 233.649 891.871 233.568 895.632 232.723C898.18 232.15 898.866 231.383 899.453 230.643L903.872 225.082C904.086 224.812 904.29 224.526 903.718 224.276C902.96 223.951 901.061 223.794 899.301 223.663C869.893 221.431 836.382 220.634 804.449 221.665L804.406 228.146C804.393 228.973 804.579 229.894 807.545 230.473C809.213 230.799 811.519 230.961 813.757 231.105C819.189 231.43 824.582 231.82 830.058 232.109C835.527 232.408 841.041 232.655 846.591 232.851C857.743 233.196 868.837 233.545 880.11 233.611Z" fill="#7B9982"/>
<path d="M940.574 223.347C928.42 224.03 920.872 226.668 924.102 228.87C925.705 229.97 929.796 230.86 934.897 231.384C939.97 231.934 946.007 232.166 951.789 231.855C954.208 231.727 956.602 231.515 958.423 231.167C959.625 230.937 960.534 230.657 961.407 230.378C965.083 229.202 968.521 227.901 968.034 226.565C967.391 224.711 957.759 223.166 947.658 223.258L955.046 223.137" fill="#7B9982"/>
<path d="M1053.05 238.669C1059.62 236.312 1066.4 233.353 1058.27 231.29C1056.36 230.805 1053.83 230.432 1050.99 230.136C1048.12 229.862 1044.95 229.659 1041.83 229.48C1029.23 228.77 1016.25 228.238 1002.92 228.179C997.545 229.618 986.838 229.722 978.596 230.441C977.215 230.562 975.898 230.703 974.645 230.866C973.382 231.037 972.189 231.225 971.074 231.429C968.844 231.838 966.93 232.308 965.393 232.816C962.315 233.833 960.743 235.006 961.107 236.143C967.14 236.804 973.242 237.481 979.637 238C986.016 238.529 992.623 238.941 999.4 239.249C1006.08 239.613 1012.94 239.862 1019.95 239.997C1023.45 240.064 1026.99 240.103 1030.56 240.112C1034.14 240.114 1037.64 240.149 1041.23 240.12C1043.79 240.105 1046.53 240.065 1048.74 239.766C1050.69 239.501 1051.91 239.076 1053.05 238.669Z" fill="#7B9982"/>
<path d="M1151.56 240.369C1152.49 239.446 1152.96 238.442 1150.44 237.658C1149.46 237.355 1148.11 237.105 1146.58 236.894C1145.03 236.692 1143.3 236.521 1141.61 236.357L1118 234.05L1093.85 231.908C1092.22 231.763 1090.46 231.613 1088.64 231.665C1086.2 231.733 1084.43 232.135 1082.99 232.524C1075.84 234.452 1070.9 236.633 1068.24 238.868C1067.75 239.28 1067.37 239.721 1068.3 240.079C1069.09 240.397 1070.74 240.586 1072.31 240.756C1077.93 241.364 1083.62 241.937 1089.38 242.476L1093.72 242.875L1095.9 243.069L1098.05 243.279C1100.91 243.557 1103.8 243.826 1106.7 244.087C1111.79 244.544 1117.55 244.959 1123.34 245.087C1129.08 245.231 1134.77 245.126 1139.89 244.454C1146.86 243.545 1150.03 241.905 1151.56 240.369Z" fill="#7B9982"/>
<path d="M1169.08 244.551C1168.53 245.06 1167.98 245.595 1168.83 246.062C1169.48 246.416 1170.86 246.69 1172.27 246.943C1174.45 247.337 1176.77 247.702 1179.2 248.038C1180.42 248.206 1181.66 248.367 1182.94 248.52C1184.19 248.68 1185.45 248.838 1186.75 248.985C1191.95 249.578 1197.57 250.047 1203.52 250.383C1208.81 249.196 1214.25 247.987 1217.37 246.591C1220.49 245.194 1220.88 243.545 1216.25 242.368C1213.98 241.789 1210.7 241.367 1207.44 240.967C1202.36 240.393 1197.17 239.847 1191.9 239.327C1189.26 239.067 1186.6 238.813 1183.92 238.567L1179.88 238.203C1178.51 238.09 1177.12 237.984 1175.74 237.877C1173.74 240.089 1171.47 242.332 1169.08 244.551Z" fill="#7B9982"/>
<path d="M1280.54 260.545C1284.38 260.434 1287.38 259.809 1289.91 259.232L1300.71 256.782C1303.96 256.045 1307.43 255.175 1306.48 254.296C1305.83 253.713 1303.4 253.262 1300.96 252.873L1289.45 251.032C1285.6 250.421 1281.82 249.786 1277.81 249.206L1265.93 247.424L1259.98 246.529C1257.97 246.237 1255.91 245.957 1253.88 245.67C1252.31 245.451 1250.59 245.221 1248.54 245.226C1246.28 245.23 1244.3 245.519 1242.58 245.802C1234.68 247.107 1227.9 248.629 1222.41 250.281C1220.95 250.72 1219.55 251.185 1219.24 251.678C1218.68 252.557 1221.62 253.295 1224.59 253.904C1226.26 254.253 1228.05 254.573 1229.78 254.912C1231.53 255.248 1233.33 255.571 1235.19 255.883C1238.91 256.506 1242.85 257.081 1247 257.605C1251.16 258.128 1255.33 258.651 1259.79 259.093C1264.22 259.547 1268.92 259.93 1273.66 260.291C1275.79 260.457 1278.09 260.615 1280.54 260.545Z" fill="#7B9982"/>
<path d="M1345.52 269.037C1347.49 269.309 1349.8 269.131 1352.5 269.037C1354.58 268.964 1356.35 269.303 1357.97 269.037L1373.82 269.136C1379.57 268.198 1385.93 266.997 1384.51 265.717C1383.71 265.015 1380.73 264.479 1377.8 263.998L1367.95 262.415C1364.66 261.887 1361.41 261.353 1358 260.847L1347.9 259.308C1346.21 259.053 1344.55 258.791 1342.84 258.541L1337.66 257.796C1325.08 259.147 1314.16 260.983 1305.56 263.097C1304.35 263.395 1303.14 263.72 1302.98 264.068C1302.78 264.52 1304.38 264.885 1305.94 265.201C1308.99 265.805 1311.96 266.428 1315.1 267.016C1318.23 267.607 1321.48 268.175 1324.83 268.725C1328.08 269.292 1331.09 268.513 1334.56 269.037C1336.29 269.299 1338.27 268.786 1340.06 269.037C1341.83 269.291 1343.72 268.789 1345.52 269.037Z" fill="#7B9982"/>
<path d="M1481.21 257.577L1481.54 262.29L1481.56 262.586L1481.21 262.614L1481.21 262.615L1477.26 262.29L1481.21 261.965L1481.21 261.965L1480.89 262.29L1481.21 257.577Z" fill="black"/>
<path d="M1478.11 263.256C1478.59 262.981 1479.09 262.786 1479.6 262.608C1479.85 262.526 1480.1 262.44 1480.36 262.37C1480.62 262.296 1480.88 262.233 1481.14 262.172L1481.15 262.17C1481.32 262.129 1481.49 262.236 1481.53 262.408C1481.56 262.524 1481.52 262.64 1481.44 262.715C1481.27 262.871 1481.1 263.023 1480.92 263.171C1480.75 263.323 1480.57 263.466 1480.39 263.608C1480.21 263.751 1480.02 263.887 1479.83 264.02C1479.64 264.151 1479.44 264.279 1479.24 264.393C1479.36 264.19 1479.49 263.999 1479.63 263.813C1479.77 263.627 1479.91 263.444 1480.06 263.269C1480.21 263.093 1480.36 262.918 1480.52 262.752C1480.67 262.581 1480.83 262.415 1480.99 262.253L1481.29 262.796C1481.03 262.864 1480.78 262.929 1480.51 262.984C1480.25 263.043 1479.99 263.085 1479.73 263.132C1479.2 263.212 1478.67 263.274 1478.11 263.256Z" fill="black"/>
<path d="M1463.62 240.127C1463.62 240.127 1469.95 234.595 1476.23 238.444C1482.51 242.294 1485.55 251.327 1489.45 252.444C1493.35 253.56 1501.15 254.661 1501.15 254.661C1501.15 254.661 1490.64 264.692 1478.02 259.776C1465.4 254.86 1474.63 242.293 1463.62 240.127Z" fill="white"/>
<path d="M1470.38 240.668C1470.8 240.668 1471.14 240.329 1471.14 239.91C1471.14 239.491 1470.8 239.152 1470.38 239.152C1469.96 239.152 1469.62 239.491 1469.62 239.91C1469.62 240.329 1469.96 240.668 1470.38 240.668Z" fill="black"/>
<path d="M1476.92 248.062C1476.93 249.171 1477.06 250.274 1477.36 251.331C1477.51 251.858 1477.69 252.375 1477.91 252.876C1478.12 253.381 1478.39 253.846 1478.71 254.272C1479.03 254.693 1479.41 255.068 1479.86 255.304C1480.08 255.425 1480.32 255.504 1480.56 255.539C1480.8 255.575 1481.05 255.579 1481.28 255.52C1481.74 255.419 1482.05 255.062 1482.15 254.602C1482.25 254.15 1482.12 253.666 1481.86 253.242C1481.79 253.136 1481.72 253.033 1481.64 252.934C1481.56 252.83 1481.49 252.744 1481.41 252.69C1481.34 252.629 1481.26 252.61 1481.26 252.616C1481.28 252.618 1481.28 252.587 1481.23 252.685C1481.07 253.122 1481.08 253.638 1481.22 254.11C1481.36 254.589 1481.63 255.022 1481.99 255.372C1482.35 255.721 1482.81 255.987 1483.29 256.173C1483.77 256.349 1484.31 256.501 1484.77 256.458C1485 256.433 1485.18 256.355 1485.29 256.2C1485.4 256.06 1485.46 255.824 1485.48 255.57C1485.51 255.057 1485.47 254.511 1485.32 254.02C1485.25 253.776 1485.14 253.542 1485 253.372C1484.85 253.203 1484.67 253.125 1484.45 253.15L1484.52 253.13C1484.43 253.171 1484.37 253.224 1484.34 253.296C1484.3 253.369 1484.3 253.471 1484.31 253.58C1484.35 253.8 1484.46 254.033 1484.59 254.246C1484.86 254.668 1485.23 255.065 1485.66 255.323C1485.76 255.381 1485.89 255.441 1486.01 255.48C1486.12 255.524 1486.25 255.559 1486.37 255.584C1486.63 255.636 1486.89 255.653 1487.15 255.638C1487.68 255.606 1488.2 255.467 1488.68 255.231C1488.22 255.511 1487.71 255.712 1487.17 255.779C1486.89 255.813 1486.62 255.817 1486.34 255.781C1486.2 255.763 1486.07 255.737 1485.93 255.696C1485.79 255.657 1485.67 255.614 1485.54 255.551C1485.03 255.289 1484.62 254.9 1484.29 254.441C1484.14 254.208 1483.99 253.956 1483.93 253.647C1483.9 253.494 1483.89 253.317 1483.96 253.141C1484.03 252.964 1484.17 252.82 1484.33 252.744L1484.35 252.73L1484.39 252.724C1484.56 252.695 1484.74 252.705 1484.91 252.769C1485.08 252.832 1485.23 252.939 1485.34 253.059C1485.56 253.304 1485.69 253.588 1485.79 253.869C1485.98 254.437 1486.04 255.012 1486.02 255.605C1486.01 255.898 1485.97 256.235 1485.74 256.548C1485.64 256.688 1485.49 256.816 1485.33 256.895C1485.17 256.977 1485 257.019 1484.84 257.04C1484.52 257.083 1484.2 257.046 1483.92 256.99C1483.63 256.934 1483.35 256.859 1483.07 256.756C1482.52 256.548 1481.99 256.249 1481.55 255.83C1481.11 255.418 1480.77 254.881 1480.6 254.293C1480.42 253.706 1480.41 253.057 1480.64 252.449C1480.67 252.365 1480.72 252.264 1480.81 252.167C1480.91 252.068 1481.04 252 1481.19 251.983C1481.47 251.961 1481.65 252.083 1481.8 252.186C1481.95 252.299 1482.05 252.431 1482.14 252.543C1482.23 252.662 1482.32 252.786 1482.4 252.917C1482.71 253.431 1482.89 254.1 1482.73 254.739C1482.65 255.052 1482.5 255.356 1482.27 255.598C1482.03 255.843 1481.72 256.002 1481.4 256.068C1480.78 256.202 1480.13 256.057 1479.61 255.75C1479.09 255.445 1478.68 255.006 1478.35 254.536C1478.02 254.064 1477.76 253.538 1477.57 253.012C1477.37 252.485 1477.22 251.942 1477.11 251.392C1476.88 250.294 1476.81 249.167 1476.92 248.062Z" fill="black"/>
<path d="M1485.06 259.681C1485.19 260.466 1485.26 261.251 1485.31 262.037C1485.34 262.43 1485.35 262.822 1485.37 263.215C1485.38 263.608 1485.38 264.001 1485.38 264.393L1485.39 264.608L1485.19 264.691C1484.83 264.842 1484.47 264.996 1484.1 265.142C1483.74 265.281 1483.38 265.432 1483.01 265.56C1482.27 265.828 1481.52 266.074 1480.75 266.262C1481.42 265.826 1482.11 265.45 1482.8 265.095C1483.15 264.912 1483.51 264.751 1483.86 264.578C1484.21 264.414 1484.57 264.256 1484.93 264.095L1484.73 264.393C1484.74 264.001 1484.74 263.608 1484.75 263.215C1484.77 262.822 1484.78 262.43 1484.81 262.037C1484.85 261.252 1484.92 260.466 1485.06 259.681Z" fill="black"/>
<path d="M1482.38 267.047C1482.72 266.498 1483.12 266.007 1483.53 265.528C1483.74 265.295 1483.95 265.057 1484.17 264.831C1484.38 264.604 1484.61 264.383 1484.83 264.165L1485.39 263.621L1485.38 264.393C1485.37 264.641 1485.37 264.89 1485.35 265.138C1485.34 265.386 1485.32 265.634 1485.29 265.883C1485.27 266.131 1485.24 266.379 1485.2 266.628C1485.16 266.876 1485.12 267.124 1485.06 267.373C1485 267.124 1484.95 266.876 1484.91 266.628C1484.88 266.379 1484.84 266.131 1484.82 265.883C1484.8 265.634 1484.78 265.386 1484.77 265.138C1484.75 264.89 1484.74 264.641 1484.74 264.393L1485.28 264.621C1485.06 264.845 1484.84 265.067 1484.61 265.282C1484.38 265.498 1484.14 265.703 1483.91 265.912C1483.43 266.318 1482.93 266.712 1482.38 267.047Z" fill="black"/>
<path d="M1361.13 121.47C1362.65 109.535 1368.3 96.7314 1368.3 96.7314L1377.78 99.634L1372.89 133.74L1370.94 141.411L1362.65 145.285C1362.65 145.285 1359.62 133.404 1361.13 121.47Z" fill="#54482F"/>
<path d="M1368.69 99.73C1368.6 99.6357 1368.49 99.5473 1368.36 99.5226C1367.98 99.4518 1367.73 99.8986 1367.61 100.264C1367.19 101.54 1366.77 102.815 1366.35 104.09C1365.32 107.228 1364.28 110.424 1364.22 113.726C1366.32 110.687 1367.95 107.324 1369.03 103.793C1369.45 102.424 1369.71 100.738 1368.69 99.73Z" fill="#473D26"/>
<path d="M1341.36 183.31C1341.36 183.31 1342.01 188.347 1340.06 190.46C1338.11 192.572 1332.75 195.172 1332.59 196.472C1332.42 197.772 1332.71 198.923 1334.75 198.517C1336.8 198.112 1344.15 194.915 1344.48 194.704C1344.82 194.493 1346.82 191.956 1346.82 191.956L1347.41 193.883C1347.41 193.883 1351.22 192.75 1352.63 190.955C1352.63 190.955 1350.46 185.26 1348.02 184.122L1345.75 180.129L1341.36 183.31Z" fill="#1B1F30"/>
<path d="M1343.28 182.835C1344.6 182.695 1345.62 181.519 1345.99 180.248C1346.36 178.977 1346.23 177.62 1346.08 176.302C1345.74 173.065 1345.39 169.828 1345.04 166.59C1344.85 164.837 1344.66 163.06 1344.01 161.419C1343.37 159.778 1342.21 158.262 1340.58 157.584C1341.88 157.632 1343.19 157.679 1344.49 157.727C1343.87 156.947 1343.25 156.168 1342.64 155.388C1343.99 155.195 1345.19 156.416 1346.56 156.429C1347.17 156.435 1347.75 156.201 1348.31 155.97C1352.27 154.349 1356.22 152.729 1360.18 151.108C1359.96 149.458 1359.53 147.837 1358.89 146.299C1359.69 147.542 1360.71 148.638 1361.89 149.519C1361.96 146.802 1361.1 144.076 1359.52 141.866C1350.49 144.865 1336.96 149.579 1335.67 151.297C1333.72 153.897 1335.23 162.411 1336.91 169.773C1338.6 177.134 1340.18 185.038 1340.18 185.038C1340.18 185.038 1341.13 185.878 1342.91 185.916C1344.03 184.804 1345.15 183.692 1346.28 182.58C1345.28 182.665 1344.28 182.75 1343.28 182.835Z" fill="#323859"/>
<path d="M1367.6 139.24C1367.6 139.24 1364.15 140.328 1359.52 141.866C1361.1 144.077 1361.96 146.802 1361.89 149.52C1360.71 148.639 1359.69 147.542 1358.9 146.3C1359.53 147.838 1359.96 149.459 1360.18 151.108C1356.22 152.729 1352.27 154.35 1348.31 155.971C1347.75 156.201 1347.17 156.436 1346.56 156.43C1345.19 156.416 1343.99 155.196 1342.64 155.389C1343.25 156.168 1343.87 156.948 1344.49 157.727C1343.19 157.68 1341.88 157.632 1340.58 157.585C1342.21 158.263 1343.37 159.779 1344.01 161.42C1344.66 163.061 1344.85 164.838 1345.04 166.591C1345.39 169.828 1345.74 173.066 1346.09 176.303C1346.23 177.62 1346.37 178.978 1345.99 180.249C1345.62 181.519 1344.6 182.696 1343.28 182.836C1344.28 182.751 1345.28 182.666 1346.28 182.581C1345.16 183.693 1344.03 184.805 1342.91 185.917C1344.19 185.945 1345.91 185.555 1348.02 184.123C1348.02 184.123 1346.89 164.298 1346.56 160.236C1346.56 160.236 1364.91 154.386 1367.6 153.248C1370.29 152.111 1374.79 140.063 1374.79 140.063L1367.6 139.24Z" fill="#23294D"/>
<path d="M1423.16 259.685C1432.99 259.685 1440.96 251.717 1440.96 241.889C1440.96 232.06 1432.99 224.092 1423.16 224.092C1413.33 224.092 1405.37 232.06 1405.37 241.889C1405.37 251.717 1413.33 259.685 1423.16 259.685Z" stroke="black" stroke-width="6" stroke-miterlimit="10"/>
<path d="M1423.16 243.707C1424.17 243.707 1424.98 242.893 1424.98 241.889C1424.98 240.884 1424.17 240.07 1423.16 240.07C1422.16 240.07 1421.34 240.884 1421.34 241.889C1421.34 242.893 1422.16 243.707 1423.16 243.707Z" fill="black"/>
<path d="M1423.16 224.092V259.685" stroke="black" stroke-width="2" stroke-miterlimit="10"/>
<path d="M1418.96 224.596L1427.36 259.182" stroke="black" stroke-width="2" stroke-miterlimit="10"/>
<path d="M1414.99 226.077L1431.33 257.7" stroke="black" stroke-width="2" stroke-miterlimit="10"/>
<path d="M1411.49 228.454L1434.83 255.323" stroke="black" stroke-width="2" stroke-miterlimit="10"/>
<path d="M1408.65 231.59L1437.68 252.187" stroke="black" stroke-width="2" stroke-miterlimit="10"/>
<path d="M1406.63 235.31L1439.7 248.468" stroke="black" stroke-width="2" stroke-miterlimit="10"/>
<path d="M1405.54 239.401L1440.78 244.376" stroke="black" stroke-width="2" stroke-miterlimit="10"/>
<path d="M1405.45 243.633L1440.87 240.145" stroke="black" stroke-width="2" stroke-miterlimit="10"/>
<path d="M1406.36 247.767L1439.96 236.011" stroke="black" stroke-width="2" stroke-miterlimit="10"/>
<path d="M1408.23 251.568L1438.1 232.21" stroke="black" stroke-width="2" stroke-miterlimit="10"/>
<path d="M1410.94 254.821L1435.39 228.957" stroke="black" stroke-width="2" stroke-miterlimit="10"/>
<path d="M1414.34 257.343L1431.99 226.435" stroke="black" stroke-width="2" stroke-miterlimit="10"/>
<path d="M1418.24 258.989L1428.09 224.788" stroke="black" stroke-width="2" stroke-miterlimit="10"/>
<path d="M1352.25 259.035C1379.53 259.035 1401.65 236.918 1401.65 209.635C1401.65 182.352 1379.53 160.235 1352.25 160.235C1324.96 160.235 1302.85 182.352 1302.85 209.635C1302.85 236.918 1324.96 259.035 1352.25 259.035Z" stroke="black" stroke-width="14" stroke-miterlimit="10"/>
<path d="M1352.25 211.454C1353.25 211.454 1354.07 210.64 1354.07 209.635C1354.07 208.631 1353.25 207.817 1352.25 207.817C1351.24 207.817 1350.43 208.631 1350.43 209.635C1350.43 210.64 1351.24 211.454 1352.25 211.454Z" fill="black"/>
<path d="M1352.25 160.235V258.99" stroke="black" stroke-width="2" stroke-miterlimit="10"/>
<path d="M1344.93 160.78L1359.55 258.446" stroke="black" stroke-width="2" stroke-miterlimit="10"/>
<path d="M1360.02 160.851L1344.48 258.376" stroke="black" stroke-width="2" stroke-miterlimit="10"/>
<path d="M1367.6 162.681L1336.91 256.547" stroke="black" stroke-width="2" stroke-miterlimit="10"/>
<path d="M1374.79 165.68L1329.72 253.551" stroke="black" stroke-width="2" stroke-miterlimit="10"/>
<path d="M1381.43 169.774L1323.1 249.461" stroke="black" stroke-width="2" stroke-miterlimit="10"/>
<path d="M1387.33 174.86L1317.19 244.379" stroke="black" stroke-width="2" stroke-miterlimit="10"/>
<path d="M1392.37 180.812L1312.17 238.431" stroke="black" stroke-width="2" stroke-miterlimit="10"/>
<path d="M1396.4 187.483L1308.13 231.767" stroke="black" stroke-width="2" stroke-miterlimit="10"/>
<path d="M1399.34 194.705L1305.2 224.552" stroke="black" stroke-width="2" stroke-miterlimit="10"/>
<path d="M1401.1 202.299L1303.44 216.965" stroke="black" stroke-width="2" stroke-miterlimit="10"/>
<path d="M1401.65 210.075L1302.9 209.196" stroke="black" stroke-width="2" stroke-miterlimit="10"/>
<path d="M1400.96 217.841L1303.58 201.438" stroke="black" stroke-width="2" stroke-miterlimit="10"/>
<path d="M1399.06 225.402L1305.47 193.884" stroke="black" stroke-width="2" stroke-miterlimit="10"/>
<path d="M1396 232.571L1308.54 186.722" stroke="black" stroke-width="2" stroke-miterlimit="10"/>
<path d="M1391.85 239.168L1312.68 180.13" stroke="black" stroke-width="2" stroke-miterlimit="10"/>
<path d="M1386.71 245.03L1317.82 174.274" stroke="black" stroke-width="2" stroke-miterlimit="10"/>
<path d="M1380.71 250.011L1323.81 169.298" stroke="black" stroke-width="2" stroke-miterlimit="10"/>
<path d="M1374.01 253.986L1330.51 165.326" stroke="black" stroke-width="2" stroke-miterlimit="10"/>
<path d="M1366.76 256.856L1337.75 162.458" stroke="black" stroke-width="2" stroke-miterlimit="10"/>
<path d="M1350.43 137.377V154.71C1350.43 154.71 1367.5 153.06 1387.56 167.71C1414.65 187.483 1406.8 240.386 1424.7 242.381" stroke="black" stroke-width="5" stroke-miterlimit="10"/>
<path d="M1350.43 151.798C1350.43 151.798 1359.71 149.918 1372.93 154.101" stroke="black" stroke-width="5" stroke-miterlimit="10"/>
<path d="M1353.22 206.1C1353.22 206.1 1351.91 211.007 1349.31 212.22C1346.7 213.433 1340.75 213.801 1340.11 214.942C1339.46 216.082 1339.29 217.256 1341.33 217.657C1343.38 218.058 1351.39 217.895 1351.78 217.827C1352.17 217.759 1354.99 216.171 1354.99 216.171L1354.8 218.178C1354.8 218.178 1358.76 218.577 1360.74 217.453C1360.74 217.453 1360.9 211.362 1359.08 209.383L1358.49 204.826L1353.22 206.1Z" fill="#1B1F30"/>
<path d="M1374.72 157.834C1373.11 153.448 1370.08 149.601 1366.2 146.99C1362.25 154.158 1351.29 174.365 1351.72 177.298C1352.25 180.873 1350.43 208.682 1350.43 208.682C1350.43 208.682 1350.96 209.133 1351.97 209.574C1353.44 209.507 1354.99 209.582 1356.4 209.31C1356.86 209.221 1357.44 208.9 1357.3 208.449C1356.27 208.171 1355.24 207.893 1354.21 207.615C1355.28 207.789 1356.36 207.244 1357.08 206.438C1357.79 205.633 1358.2 204.6 1358.51 203.569C1360.03 198.578 1359.77 193.25 1360.03 188.039C1360.28 182.828 1361.19 177.342 1364.55 173.351C1365.64 172.058 1366.95 170.971 1368.16 169.792C1370.56 167.457 1372.89 164.204 1374.77 160.324C1374.06 158.808 1372.95 157.502 1371.85 156.227C1372.91 156.538 1373.9 157.091 1374.72 157.834Z" fill="#323859"/>
<path d="M1378.93 143.733L1376.95 141.222L1370.61 140.062L1367.6 144.472C1367.6 144.472 1367.07 145.42 1366.2 146.99C1370.07 149.601 1373.11 153.448 1374.72 157.833C1373.9 157.091 1372.91 156.537 1371.85 156.227C1372.94 157.503 1374.06 158.808 1374.77 160.324C1374.91 160.031 1375.05 159.736 1375.19 159.437C1373.24 163.709 1370.74 167.281 1368.16 169.792C1366.95 170.97 1365.64 172.057 1364.55 173.351C1361.19 177.342 1360.28 182.828 1360.03 188.039C1359.77 193.25 1360.03 198.578 1358.51 203.569C1358.2 204.6 1357.79 205.633 1357.08 206.438C1356.36 207.243 1355.28 207.789 1354.21 207.615C1355.24 207.893 1356.27 208.171 1357.3 208.449C1357.44 208.9 1356.86 209.221 1356.4 209.31C1354.99 209.582 1353.44 209.507 1351.97 209.574C1353.64 210.301 1356.62 211 1360.7 209.612C1360.7 209.612 1361.84 182.54 1363.62 180.813C1365.41 179.085 1382.9 161.535 1386.18 152.923L1378.93 143.733ZM1377.62 152.576C1377.17 154.301 1376.62 155.96 1376 157.538C1376.62 155.96 1377.17 154.3 1377.62 152.576ZM1378.47 148.478C1378.43 148.7 1378.4 148.921 1378.36 149.141C1378.4 148.921 1378.43 148.699 1378.47 148.478ZM1378.29 149.525C1378.25 149.755 1378.2 149.983 1378.16 150.211C1378.2 149.983 1378.25 149.755 1378.29 149.525ZM1377.87 151.573C1377.8 151.855 1377.73 152.135 1377.66 152.413C1377.73 152.135 1377.8 151.855 1377.87 151.573ZM1375.59 158.524C1375.46 158.82 1375.34 159.113 1375.2 159.403C1375.34 159.113 1375.46 158.82 1375.59 158.524ZM1375.98 157.576C1375.86 157.878 1375.74 158.178 1375.61 158.474C1375.74 158.178 1375.86 157.878 1375.98 157.576Z" fill="#23294D"/>
<path d="M1371.86 69.127C1371.86 69.127 1366.79 70.8602 1366.22 72.1602C1365.65 73.4602 1365.36 75.5184 1365.36 75.5184C1365.36 75.5184 1359.94 76.8184 1357.45 76.1684C1357.45 76.1684 1358.47 79.2289 1361.5 81.0704C1361.5 81.0704 1361.67 83.1016 1361.67 84.0766C1361.67 85.0516 1359.94 87.4349 1359.94 87.4349C1359.94 87.4349 1359.61 93.0681 1362.86 94.0431C1366.11 95.0181 1369.04 96.3181 1369.04 96.3181L1369.15 100.868L1379.71 99.7849C1379.71 99.7849 1379.71 94.396 1380.36 92.7974C1381.42 90.1974 1383.45 88.0849 1383.45 88.0849L1386.91 84.9974V79.0931C1386.91 79.0931 1382.36 72.1599 1382.04 72.1599C1381.71 72.1599 1371.86 69.127 1371.86 69.127Z" fill="#FFCF99"/>
<path d="M1369.14 82.3277C1368.75 82.5773 1368.39 82.875 1368.12 83.2406C1367.46 84.1113 1367.32 85.3212 1367.66 86.3622C1367.99 87.4032 1368.75 88.2758 1369.67 88.8758C1370.49 89.4149 1371.44 89.751 1372.42 89.8459C1373.97 89.996 1375.75 89.3623 1376.3 87.9099C1376.58 87.164 1376.5 86.3177 1376.22 85.5673C1375.95 84.8168 1375.51 84.1441 1375.06 83.4808C1374.83 83.1268 1374.59 82.7706 1374.28 82.4723C1372.96 81.1752 1370.69 81.3198 1369.14 82.3277Z" fill="#FFAD73"/>
<path d="M1363.33 80.0704C1363.31 79.9641 1363.26 79.8646 1363.25 79.7574C1363.22 79.5481 1363.34 79.3508 1363.45 79.1727C1363.76 78.693 1364.06 78.2136 1364.36 77.7339C1364.79 77.0534 1365.23 76.3065 1365.32 75.5278C1364.84 75.6383 1359.82 76.7879 1357.45 76.1684C1357.45 76.1684 1358.46 79.2208 1361.49 81.0632C1361.84 80.9934 1362.22 81.0164 1362.57 80.9352C1362.99 80.8403 1363.41 80.4883 1363.33 80.0704Z" fill="#FFAD73"/>
<path d="M1347.29 134.397C1347.29 134.397 1342.82 137.044 1345.42 138.189C1348.02 139.334 1353.22 139.412 1355.36 139.002C1355.98 138.883 1358.91 137.729 1358.91 137.729L1357.85 136.169C1357.85 136.169 1356.04 136.683 1353.37 136.886C1351.02 137.064 1349.96 136.844 1349.31 136.387C1348.66 135.93 1350.43 134.922 1350.43 134.922C1350.43 134.922 1349.65 133.91 1347.29 134.397Z" fill="black"/>
<path d="M1352.27 130.86C1351.01 131.028 1352.46 136.382 1353.85 136.163C1355.24 135.944 1355.13 135.57 1354.49 132.585C1354.21 131.264 1353.54 130.691 1352.27 130.86Z" fill="#2E2719"/>
<path d="M1350.95 136.65C1350.95 136.65 1352 134.568 1353.01 134.922C1354.01 135.276 1354.8 133.949 1355.36 133.55C1355.92 133.152 1355.36 130.831 1355.36 130.831C1355.36 130.831 1351.21 131.906 1350.43 131.933C1349.65 131.96 1345.64 132.465 1345.42 135.734L1347.05 134.922C1347.05 134.922 1348.13 135.001 1348.89 134.727C1348.89 134.727 1347.18 136.473 1350.95 136.65Z" fill="#FFCF99"/>
<path d="M1352.27 130.831L1364.38 127.194L1367.09 132.677L1353.85 136.163C1353.85 136.163 1355.98 133.71 1352.27 130.831Z" fill="#54482F"/>
<path d="M1383.12 143.742C1384.02 140.167 1382.8 136.649 1382.8 136.649L1381.13 137.445L1381.61 107.044L1370.49 102.02C1370.49 102.02 1361.87 106.448 1361.89 133.152C1361.89 135.665 1362.06 138.225 1362.74 140.656C1362.74 140.657 1362.74 140.658 1362.74 140.66C1364.37 141.118 1366.51 141.901 1369.24 143.227C1372.81 144.96 1375.94 147.092 1377.6 148.401C1380.11 148.624 1382.35 146.822 1383.12 143.742Z" fill="#C7AA6F"/>
<path d="M1369.31 104.985C1369.31 104.985 1368.01 103.468 1367.63 100.868C1367.48 99.7963 1367.63 97.2935 1367.63 97.2935C1367.63 97.2935 1369.8 95.3435 1371.1 95.1267C1372.4 94.9099 1379.76 94.0435 1379.76 94.0435L1380.41 102.06L1369.31 104.985Z" fill="#730938"/>
<path d="M1367.96 98.4311C1367.96 98.4311 1367.58 98.8104 1367.85 99.5143C1367.85 99.5143 1375.86 95.6013 1379.91 95.3569C1379.91 95.3569 1371.23 96.3862 1367.96 98.4311Z" fill="#5C072D"/>
<path d="M1368.42 102.02C1368.42 102.02 1368.13 101.613 1368.09 101.085C1368.09 101.085 1375.61 97.338 1378.04 96.4692C1378.04 96.4692 1370.08 100.557 1368.42 102.02Z" fill="#5C072D"/>
<path d="M1368.3 99.7243C1371.32 97.7805 1374.91 96.9709 1378.22 95.5874C1376.13 96.7434 1374 97.8221 1371.81 98.7523C1370.69 99.2277 1369.52 99.6701 1368.3 99.7243Z" fill="#5C072D"/>
<path d="M1377.06 96.6439C1377.06 96.6439 1383.27 94.9106 1386.18 94.9106C1391.64 94.9106 1394.45 97.1385 1395.96 97.1044C1399.53 97.0231 1404.33 95.2626 1406.28 95.1544C1406.28 95.1544 1405.53 98.1606 1406.72 100.869C1406.72 100.869 1404.18 102.382 1399.29 102.386C1393.93 102.389 1392.48 99.3414 1387.83 98.991C1383.28 98.6481 1378.36 100.677 1378.36 100.677L1377.06 96.6439Z" fill="#5C072D"/>
<path d="M1398.53 99.7218C1397.95 99.8986 1397.34 100.052 1396.73 100.005C1396.05 99.9516 1395.41 99.6509 1394.77 99.4088C1391.53 98.1806 1387.87 98.4163 1384.55 99.4257C1382.32 100.101 1379.91 101.109 1377.78 100.188C1377.78 100.004 1377.78 99.819 1377.78 99.6344C1381.94 97.1081 1386.59 95.385 1391.4 94.5868C1392 94.4877 1392.62 94.4038 1393.2 94.5744C1393.77 94.7415 1394.24 95.137 1394.8 95.347C1396.14 95.8559 1397.61 95.1981 1398.93 94.631C1400.56 93.9313 1402.24 93.3524 1403.95 92.901C1405.19 92.5763 1406.46 92.316 1407.73 92.3966C1407.89 92.4067 1408.06 92.4301 1408.17 92.5497C1408.27 92.6699 1408.27 92.8467 1408.27 93.0066C1408.22 94.4844 1408.17 95.9622 1408.12 97.4403C1404.82 97.074 1401.71 98.7643 1398.53 99.7218Z" fill="#730938"/>
<path d="M1380.98 98.2725C1384.1 97.0944 1387.29 96.107 1390.52 95.3169C1391.24 95.1424 1392.15 95.0465 1392.56 95.6556C1392.75 95.9367 1392.79 96.3196 1393.04 96.5477C1393.27 96.7596 1393.62 96.772 1393.94 96.7645C1395.27 96.733 1396.61 96.5575 1397.91 96.2416C1396.76 97.1239 1395.28 97.5627 1393.83 97.4486C1393.21 97.3995 1392.55 97.2283 1392.14 96.7635C1391.96 96.5682 1391.83 96.3274 1391.63 96.1645C1391.19 95.8207 1390.57 95.9299 1390.03 96.056C1388.67 96.3732 1387.31 96.6907 1385.95 97.0079C1383.6 97.5581 1381.2 98.1246 1379.12 99.3593C1379.6 98.8136 1380.31 98.5292 1380.98 98.2725Z" fill="#5C072D"/>
<path d="M1394.16 98.5495C1392.65 98.4988 1391.24 97.8228 1389.74 97.6307C1388.28 97.4428 1386.81 97.723 1385.37 98.0018C1383.89 98.2869 1382.41 98.5719 1380.94 98.8569C1383.31 98.1049 1385.72 97.4848 1388.16 96.9999C1388.58 96.9167 1389.01 96.8377 1389.43 96.915C1389.87 96.995 1390.25 97.2355 1390.65 97.4285C1392.03 98.1023 1393.63 98.2134 1395.16 97.9986C1396.68 97.7834 1398.14 97.2599 1399.58 96.71C1397.89 97.6486 1396.09 98.6148 1394.16 98.5495Z" fill="#5C072D"/>
<path d="M1383.12 127.194C1384.02 125.996 1384.83 124.598 1385.55 123.165C1385.75 113.962 1385.59 102.074 1380.96 99.6768C1380.96 99.6768 1380.85 97.5101 1381.39 96.7518C1381.93 95.9936 1383.45 94.4768 1383.01 94.0436C1382.58 93.6104 1379.76 94.0436 1379.76 94.0436C1379.76 94.0436 1372.94 97.9436 1369.31 103.685C1365.68 109.427 1362.32 123.619 1362.76 129.685C1362.9 131.74 1363.14 133.552 1363.47 135.097C1368.98 133.861 1380.32 130.928 1383.12 127.194Z" fill="#54482F"/>
<path d="M1370.85 103.937C1370.85 103.937 1374.51 96.8599 1379.77 95.1536C1382.02 94.4207 1382.26 94.9099 1382.26 94.9099C1382.26 94.9099 1379.88 96.4266 1380.21 99.5141C1380.21 99.5141 1375.43 100.381 1370.85 103.937Z" fill="#473D26"/>
<path d="M1362.92 131.561C1365.91 131.029 1369.99 130.019 1372.87 129.091C1374.58 128.538 1376.37 127.753 1377.31 126.213C1377.93 125.175 1378.09 123.927 1378.2 122.719C1378.72 117.166 1378.54 111.551 1377.67 106.042C1377.65 105.872 1377.62 105.698 1377.53 105.549C1377.29 105.132 1376.67 105.082 1376.25 105.328C1375.84 105.573 1375.59 106.021 1375.39 106.46C1374.22 109.055 1374.08 112.001 1374.26 114.843C1374.44 117.686 1374.92 120.512 1374.91 123.361C1374.91 123.733 1374.9 124.124 1374.7 124.44C1374.45 124.85 1373.95 125.033 1373.5 125.185C1370.11 126.308 1366.21 128.049 1362.72 128.752C1362.65 129.969 1362.81 130.472 1362.92 131.561Z" fill="#473D26"/>
<path d="M1391.85 158.61C1391.85 158.61 1401 166.085 1410.31 159.043C1410.31 159.043 1397.31 159.585 1391.25 151.026C1385.71 143.211 1385.5 139.82 1385.42 133.352C1381.59 137.122 1371.53 139.588 1366.53 140.62C1366.61 140.659 1366.68 140.703 1366.76 140.735C1369.15 141.71 1373.83 143.698 1375.13 146.623C1376.43 149.548 1384.64 164.351 1390.6 167.818C1396.56 171.285 1405.01 171.501 1405.01 171.501C1405.01 171.501 1394.51 168.577 1391.85 158.61Z" fill="#54482F"/>
<path d="M1387.42 158.059C1386.23 155.528 1385.43 152.779 1383.79 150.52C1383.74 151.239 1382.78 151.575 1382.11 151.316C1381.44 151.057 1380.98 150.445 1380.49 149.924C1379.99 149.404 1379.31 148.926 1378.61 149.065C1380.31 151.97 1381.61 155.099 1383.27 158.03C1384.93 160.961 1387.03 163.754 1389.91 165.509C1391.51 166.488 1393.31 167.111 1395.11 167.656C1391.84 165.122 1389.18 161.804 1387.42 158.059Z" fill="#473D26"/>
<path d="M1388.63 153.04C1391.45 157.882 1397.13 160.904 1402.72 160.537C1397.47 159.889 1392.64 156.505 1390.24 151.797C1389.7 152.211 1389.17 152.625 1388.63 153.04Z" fill="#473D26"/>
<path d="M1385.4 131.418C1385.37 129.372 1385.48 126.438 1385.55 123.165C1384.83 124.598 1384.02 125.996 1383.12 127.193C1380.32 130.928 1368.98 133.861 1363.47 135.097C1364.1 137.963 1365.08 139.883 1366.53 140.62C1371.53 139.588 1381.59 137.122 1385.42 133.352C1385.41 132.737 1385.41 132.096 1385.4 131.418Z" fill="#473D26"/>
<path d="M1361.13 130.877C1359.1 131.147 1360.48 139.354 1362.72 139.002C1364.95 138.65 1365.73 138.454 1364.7 133.652C1364.25 131.527 1363.16 130.606 1361.13 130.877Z" fill="#2E2719"/>
<path d="M1363.72 131.933C1363.72 131.933 1362.3 132.162 1361.71 132.116C1361.11 132.071 1358.23 131.979 1357.13 132.483C1356.03 132.986 1354.2 134.177 1354.01 135.276C1353.83 136.375 1353.33 138.115 1354.52 138.573C1354.52 138.573 1354.18 141.173 1356.51 141.173C1356.51 141.173 1357.36 142.19 1358.5 141.411C1358.5 141.411 1359.51 142.373 1360.33 141.411C1361.16 140.45 1359.78 139.671 1359.83 138.939C1359.87 138.206 1360.33 137.611 1361.07 137.428C1361.8 137.245 1363.81 137.794 1364.77 136.558C1364.77 136.558 1365.26 132.777 1363.72 131.933Z" fill="#FFCF99"/>
<path d="M1354.52 138.572C1354.52 138.572 1354.46 138.294 1354.45 137.869C1354.45 137.657 1354.46 137.409 1354.5 137.145C1354.52 137.014 1354.53 136.876 1354.57 136.74C1354.6 136.603 1354.64 136.464 1354.69 136.328C1354.73 136.191 1354.79 136.058 1354.85 135.928C1354.9 135.795 1354.99 135.68 1355.05 135.561C1355.12 135.446 1355.22 135.347 1355.29 135.25C1355.38 135.161 1355.47 135.084 1355.56 135.013C1355.65 134.951 1355.74 134.904 1355.81 134.86C1355.88 134.81 1355.97 134.801 1356.02 134.779C1356.14 134.742 1356.21 134.726 1356.21 134.726C1356.21 134.726 1356.15 134.766 1356.05 134.837C1356.01 134.874 1355.94 134.902 1355.88 134.964C1355.82 135.02 1355.75 135.083 1355.68 135.152C1355.62 135.23 1355.55 135.314 1355.48 135.403C1355.42 135.502 1355.36 135.6 1355.3 135.709C1355.24 135.823 1355.18 135.932 1355.13 136.056C1355.08 136.178 1355.03 136.301 1354.99 136.431C1354.9 136.683 1354.84 136.949 1354.78 137.196C1354.72 137.445 1354.68 137.681 1354.64 137.885C1354.57 138.297 1354.52 138.572 1354.52 138.572Z" fill="#CF9F6B"/>
<path d="M1356.51 141.172C1356.51 141.172 1356.46 141.094 1356.4 140.949C1356.33 140.804 1356.24 140.594 1356.15 140.333C1356.06 140.072 1355.97 139.761 1355.92 139.419C1355.89 139.248 1355.86 139.07 1355.85 138.887C1355.83 138.706 1355.84 138.518 1355.83 138.332C1355.84 138.146 1355.87 137.959 1355.89 137.777C1355.93 137.596 1355.95 137.416 1356.01 137.249C1356.08 137.084 1356.12 136.917 1356.2 136.778C1356.28 136.637 1356.34 136.496 1356.43 136.387C1356.52 136.275 1356.6 136.176 1356.67 136.09C1356.75 136.009 1356.83 135.948 1356.89 135.894C1357.01 135.789 1357.08 135.733 1357.08 135.733C1357.08 135.733 1357.03 135.811 1356.93 135.937C1356.89 136.001 1356.83 136.073 1356.77 136.165C1356.72 136.262 1356.66 136.37 1356.59 136.484C1356.52 136.596 1356.49 136.739 1356.43 136.874C1356.36 137.009 1356.34 137.172 1356.29 137.326C1356.24 137.482 1356.23 137.654 1356.2 137.822C1356.18 137.993 1356.16 138.168 1356.16 138.343C1356.16 138.519 1356.15 138.695 1356.16 138.869C1356.17 139.043 1356.18 139.214 1356.2 139.38C1356.23 139.712 1356.28 140.02 1356.33 140.287C1356.38 140.551 1356.42 140.775 1356.46 140.928C1356.49 141.084 1356.51 141.172 1356.51 141.172Z" fill="#CF9F6B"/>
<path d="M1358.5 141.411C1358.5 141.411 1358.32 141.165 1358.13 140.749C1358.09 140.646 1358.04 140.531 1357.99 140.409C1357.95 140.285 1357.9 140.156 1357.87 140.017C1357.79 139.742 1357.73 139.439 1357.71 139.131C1357.69 138.978 1357.7 138.821 1357.7 138.67C1357.7 138.517 1357.73 138.367 1357.74 138.222C1357.78 138.079 1357.81 137.941 1357.85 137.815C1357.91 137.69 1357.95 137.572 1358.01 137.469C1358.07 137.37 1358.13 137.282 1358.18 137.205C1358.23 137.127 1358.3 137.077 1358.35 137.028C1358.45 136.937 1358.5 136.886 1358.5 136.886C1358.5 136.886 1358.46 136.952 1358.4 137.067C1358.37 137.126 1358.32 137.187 1358.29 137.271C1358.26 137.354 1358.22 137.447 1358.18 137.545C1358.14 137.649 1358.12 137.765 1358.09 137.881C1358.06 138.001 1358.05 138.132 1358.03 138.262C1358.02 138.396 1358.02 138.535 1358.01 138.676C1358.02 138.818 1358.01 138.961 1358.03 139.105C1358.05 139.393 1358.1 139.681 1358.15 139.951C1358.2 140.221 1358.26 140.472 1358.31 140.688C1358.42 141.119 1358.5 141.411 1358.5 141.411Z" fill="#CF9F6B"/>
<path d="M1375.43 110.294C1375.43 110.294 1376.19 116.36 1376.3 118.744C1376.41 121.127 1375.43 125.46 1375.43 125.46C1375.43 125.46 1362.32 129.794 1361.13 130.877C1361.13 130.877 1362.83 130.619 1363.51 133.531C1364.12 136.109 1364.41 139.002 1362.72 139.002C1362.72 139.002 1381.17 135.776 1384.31 132.677C1387.46 129.577 1386.05 110.402 1384.31 106.394C1384.31 106.394 1376.41 98.8101 1375.43 110.294Z" fill="#54482F"/>
<path d="M1365.88 77.2303C1365.88 77.2303 1366.84 76.7554 1367.73 76.1708C1368.18 75.8792 1368.61 75.5588 1368.89 75.279C1368.97 75.2097 1369.03 75.1454 1369.08 75.081C1369.13 75.0177 1369.18 74.9679 1369.21 74.9159C1369.28 74.8168 1369.31 74.7603 1369.31 74.7603C1369.31 74.7603 1369.28 74.8197 1369.22 74.9234C1369.2 74.9783 1369.15 75.0316 1369.11 75.0996C1369.06 75.1685 1369 75.2383 1368.93 75.3137C1368.66 75.6186 1368.25 75.9751 1367.83 76.3034C1366.97 76.9612 1366.04 77.5153 1366.04 77.5153C1365.96 77.5614 1365.86 77.5367 1365.81 77.4597C1365.77 77.3827 1365.79 77.2829 1365.87 77.2364C1365.87 77.2345 1365.88 77.2322 1365.88 77.2303Z" fill="#BD703F"/>
<path d="M1365.98 76.5008C1365.98 76.5008 1365.97 76.5197 1365.97 76.5158C1365.97 76.5197 1365.97 76.5476 1365.97 76.5811C1365.97 76.6487 1365.98 76.7605 1366.02 76.898C1366.06 77.0348 1366.13 77.1983 1366.22 77.3653C1366.27 77.4508 1366.32 77.535 1366.38 77.6205C1366.44 77.7085 1366.51 77.7885 1366.57 77.874C1366.64 77.9601 1366.72 78.0358 1366.78 78.1167C1366.85 78.1983 1366.93 78.2692 1367 78.342C1367.15 78.4898 1367.3 78.6101 1367.42 78.7212C1367.54 78.8285 1367.65 78.911 1367.73 78.9721C1367.8 79.0323 1367.85 79.067 1367.85 79.067C1367.85 79.067 1367.8 79.041 1367.71 78.9959C1367.63 78.9494 1367.5 78.888 1367.36 78.8044C1367.22 78.7167 1367.04 78.6237 1366.87 78.5012C1366.79 78.4411 1366.69 78.3832 1366.61 78.313C1366.52 78.2432 1366.43 78.1795 1366.34 78.1015C1365.99 77.806 1365.68 77.4466 1365.51 77.1053C1365.42 76.9383 1365.37 76.7777 1365.35 76.6546C1365.34 76.5925 1365.33 76.5441 1365.33 76.4966C1365.33 76.4547 1365.33 76.4323 1365.33 76.4323C1365.33 76.2519 1365.48 76.106 1365.66 76.106C1365.84 76.106 1365.98 76.2525 1365.98 76.4329C1365.98 76.4488 1365.98 76.4641 1365.98 76.4794L1365.98 76.5008Z" fill="#8F552F"/>
<path d="M1361.08 85.6526C1361.08 85.6526 1360.4 87.8025 1362.89 88.1275C1365.38 88.4525 1366.55 86.8398 1366.55 86.8398C1366.55 86.8398 1366.55 89.2773 1369.26 88.8441C1371.96 88.4109 1378.14 82.2359 1378.14 82.2359C1378.14 82.2359 1375.54 78.0109 1379.22 73.8941C1379.22 73.8941 1371.08 75.1515 1369.68 70.298C1368.28 65.4444 1370.88 63.1691 1374.67 63.2776C1374.67 63.2776 1373.16 64.2526 1374.13 65.9859C1374.13 65.9859 1375.86 63.8191 1378.57 64.3609C1378.57 64.3609 1377.06 66.9609 1379.22 67.9359C1381.39 68.9109 1387.89 67.1776 1390.49 73.1359C1393.09 79.0941 1390.49 79.7441 1390.49 79.7441C1390.49 79.7441 1392.55 86.6724 1385.07 88.8958C1385.07 88.8958 1384.42 89.7109 1385.61 91.1191C1385.61 91.1191 1383.98 91.1269 1383.45 89.9273C1383.45 89.9273 1383.23 91.6605 1384.42 92.9605C1383.7 92.8728 1382.97 92.6706 1382.3 92.3807C1381.8 92.1627 1381.3 91.8747 1380.94 91.4509C1380.54 90.9689 1380.48 90.279 1380.34 89.6858C1380.12 88.7576 1379.88 87.8418 1379.76 86.8938C1379.76 86.8938 1373.91 97.2938 1366.87 99.352C1359.83 101.41 1355.71 101.085 1353.66 98.2688C1351.6 95.452 1352.25 94.477 1353.01 94.0438C1353.76 93.6105 1356.78 93.177 1357.44 90.7938C1358.1 88.4102 1360.05 85.7849 1361.08 85.6526Z" fill="#BD703F"/>
<path d="M1368.23 94.7262C1368.43 94.3726 1368.59 93.9202 1368.37 93.5822C1367.88 93.5247 1367.47 93.9546 1366.99 94.0622C1366.37 94.1987 1365.75 93.7713 1365.45 93.2195C1365.15 92.6676 1365.1 92.0186 1365.06 91.392C1364.55 92.0768 1363.98 92.8097 1363.15 92.9952C1362.16 93.2166 1361.15 92.5334 1360.65 91.6465C1360.16 90.7596 1360.07 89.7127 1359.99 88.7017C1359.01 89.1011 1358.87 90.3949 1358.55 91.406C1358.11 92.7742 1357.03 93.9244 1355.7 94.4584C1354.89 94.7844 1353.79 95.1266 1353.79 96.0038C1353.78 96.2852 1353.91 96.5517 1354.07 96.7847C1354.79 97.8511 1356.09 98.3737 1357.34 98.6639C1359.36 99.1309 1361.51 99.1433 1363.48 98.5024C1365.45 97.8615 1367.22 96.5361 1368.23 94.7262Z" fill="#BD5B1C"/>
<path d="M1380.12 74.7057C1379.68 75.4285 1379.31 76.2104 1379.2 77.0486C1379.09 77.8868 1379.28 78.7919 1379.84 79.425C1380.46 80.1267 1381.47 80.4016 1382.4 80.2749C1383.32 80.1481 1384.17 79.6639 1384.89 79.0574C1384.38 79.5245 1383.55 79.5193 1382.95 79.166C1382.36 78.8127 1381.98 78.1783 1381.77 77.5176C1381.57 76.8569 1381.52 76.1601 1381.45 75.4727C1381.41 75.1331 1381.36 74.785 1381.2 74.4863C1381.03 74.1876 1380.72 73.9471 1380.38 73.967C1380.26 74.0108 1380.29 74.173 1380.29 74.2939C1380.28 74.4434 1380.2 74.578 1380.12 74.7057Z" fill="#BD5B1C"/>
<path d="M1371.97 64.5151C1371.15 65.4134 1370.97 66.7173 1370.99 67.9302C1371.01 68.4411 1371.05 68.9676 1371.29 69.4217C1371.74 70.2927 1372.75 70.6911 1373.7 70.941C1374.86 71.2469 1376.17 71.4188 1377.21 70.8042C1376.42 70.827 1375.61 70.8455 1374.88 70.5575C1374.14 70.266 1373.54 69.6758 1373.13 68.9943C1372.72 68.3128 1372.48 67.5409 1372.3 66.7645C1372.14 66.0244 1372.02 65.2721 1371.97 64.5151Z" fill="#BD5B1C"/>
<path d="M1376.06 65.3706C1375.33 66.0577 1374.71 67.0619 1374.99 68.0314C1375.15 68.6183 1375.63 69.0828 1376.18 69.3515C1376.72 69.6206 1377.34 69.7155 1377.95 69.7565C1376.63 68.7438 1375.89 67.0239 1376.06 65.3706Z" fill="#BD5B1C"/>
<path d="M1385.8 78.2302C1385.23 78.2562 1384.75 77.758 1384.53 77.2279C1384.3 76.6975 1384.24 76.1086 1384.02 75.5788C1383.72 74.8947 1383.15 74.3357 1382.46 74.0598C1382.08 73.907 1381.61 73.8476 1381.27 74.0747C1381.86 74.2346 1382.23 74.8372 1382.41 75.4254C1382.59 76.0137 1382.66 76.6455 1382.95 77.1863C1383.48 78.1587 1384.77 78.6322 1385.8 78.2302Z" fill="#BD5B1C"/>
<path d="M1386.76 78.3837C1387.41 77.6713 1387.82 76.7119 1387.79 75.7424C1387.76 74.7729 1387.27 73.8106 1386.45 73.2864C1385.64 72.7622 1384.51 72.7274 1383.7 73.2666C1384.75 73.4827 1385.59 74.3134 1386.06 75.2741C1386.53 76.2348 1386.68 77.318 1386.76 78.3837Z" fill="#BD5B1C"/>
<path d="M1390.44 75.907C1390.4 74.8692 1390.04 73.8149 1389.31 73.0795C1388.58 72.344 1387.43 71.9858 1386.45 72.3336C1387.18 72.2686 1387.76 72.9212 1388.15 73.541C1388.59 74.2335 1388.96 74.9765 1389.14 75.7757C1389.32 76.5748 1389.29 77.438 1388.94 78.18C1389.45 78.1842 1389.92 77.8339 1390.16 77.3877C1390.4 76.9414 1390.46 76.4149 1390.44 75.907Z" fill="#BD5B1C"/>
<path d="M1373.2 72.1597C1374.65 72.8932 1376.35 73.1181 1377.95 72.787C1378.32 72.7093 1378.7 72.6014 1379.08 72.6241C1379.46 72.6472 1379.86 72.8348 1380.01 73.1867C1380.16 72.4776 1379.65 71.6927 1378.94 71.5442C1378.43 71.4369 1377.91 71.6261 1377.41 71.7762C1376.05 72.1821 1374.61 72.3134 1373.2 72.1597Z" fill="#BD5B1C"/>
<path d="M1381.61 73.0107C1382.24 72.6636 1382.55 71.8498 1382.36 71.1536C1382.18 70.4575 1381.54 69.9206 1380.83 69.7994C1380.12 69.6785 1379.37 69.9524 1378.86 70.4617C1379.53 70.2557 1380.27 70.5894 1380.74 71.1172C1381.2 71.6454 1381.43 72.3331 1381.61 73.0107Z" fill="#BD5B1C"/>
<path d="M1385.27 70.1449C1385.11 69.983 1384.87 69.9255 1384.65 69.8816C1383.9 69.7367 1383.14 69.6629 1382.38 69.6616C1382.96 69.7373 1383.51 70.0721 1383.84 70.5593C1384.18 71.0461 1384.29 71.6776 1384.15 72.2515C1384.84 72.1644 1385.43 71.5596 1385.49 70.8709C1385.51 70.6109 1385.46 70.3279 1385.27 70.1449Z" fill="#BD5B1C"/>
<path d="M1385.01 81.1896C1385.49 81.3316 1385.87 81.7418 1386.07 82.2039C1386.28 82.6661 1386.34 83.1786 1386.37 83.6833C1386.4 84.2621 1386.4 84.8663 1386.16 85.3915C1385.59 86.5914 1383.98 86.9778 1383.34 88.1378C1383.6 87.7101 1384.09 87.4904 1384.55 87.2762C1385.3 86.9226 1386.04 86.5046 1386.57 85.8689C1387.11 85.2212 1387.4 84.3863 1387.49 83.5471C1387.57 82.797 1387.49 81.9767 1387 81.4005C1386.52 80.8243 1385.53 80.6429 1385.01 81.1896Z" fill="#BD5B1C"/>
<path d="M1387.86 80.9757C1388.79 82.3296 1388.84 84.2315 1387.98 85.6339C1387.52 86.3869 1386.85 86.9781 1386.18 87.5563C1387.58 86.4549 1389.02 85.2075 1389.48 83.4899C1389.61 82.9874 1389.65 82.4635 1389.63 81.9439C1389.62 81.393 1389.52 80.8008 1389.13 80.4128C1388.63 79.9142 1387.69 79.9627 1387.24 80.5109C1387.51 80.5366 1387.71 80.7573 1387.86 80.9757Z" fill="#BD5B1C"/>
<path d="M1382.15 91.1183C1382.32 91.286 1382.55 91.4351 1382.79 91.3887C1382.48 90.8862 1382.4 90.2778 1382.35 89.6896C1382.29 89.0347 1382.26 88.3779 1382.24 87.7207C1381.77 88.1422 1381.48 88.7653 1381.46 89.4C1381.45 90.0347 1381.7 90.672 1382.15 91.1183Z" fill="#BD5B1C"/>
<path d="M1384.14 87.8794C1383.54 88.5034 1383.67 89.6705 1384.4 90.1391C1384.32 89.4257 1384.23 88.712 1384.15 87.9987" fill="#BD5B1C"/>
<path d="M1372.31 91.0952C1372.67 92.8369 1372.15 94.7424 1370.95 96.0537C1369.75 97.3651 1367.89 98.0489 1366.12 97.8328C1367.61 96.8753 1368.91 95.6517 1370.12 94.3595C1371.02 93.3946 1371.9 92.3513 1372.31 91.0952Z" fill="#BD5B1C"/>
<path d="M1373.02 88.3071C1372.13 89.1099 1371.21 89.9006 1370.1 90.3566C1369 90.8126 1367.68 90.8889 1366.65 90.2841C1366.32 90.5997 1366.29 91.1597 1366.52 91.5568C1366.75 91.954 1367.2 92.1919 1367.66 92.2468C1368.12 92.3017 1368.58 92.1935 1369.01 92.0251C1370.73 91.3508 1371.92 89.793 1373.02 88.3071Z" fill="#BD5B1C"/>
<path d="M1360.86 84.0229C1360.86 84.0229 1360.54 81.9104 1361.35 81.5041C1362.16 81.0979 1363.46 81.2272 1364.03 81.975C1364.6 82.7229 1365.57 85.2416 1366.71 85.4041C1367.85 85.5666 1369.39 85.8104 1369.72 84.4291C1369.72 84.4291 1370.12 86.2166 1367.6 86.1354C1365.09 86.0541 1361.51 84.5916 1360.86 84.0229Z" fill="#BD703F"/>
<path d="M1365.15 88.9028C1363.9 89.8443 1362.01 89.7949 1360.81 88.79C1361.02 89.7384 1361.69 90.7079 1362.65 90.7813C1363.2 90.8229 1363.74 90.5639 1364.14 90.1979C1364.55 89.8317 1364.85 89.364 1365.15 88.9028Z" fill="#BD5B1C"/>
<path d="M1378.97 83.5405C1378.47 85.3589 1377.89 87.1679 1376.99 88.8296C1376.1 90.4913 1374.89 92.01 1373.31 93.0393C1373.35 92.2843 1373.22 91.5193 1372.92 90.8241C1373.57 90.5615 1374.02 89.9239 1374.22 89.2498C1374.43 88.5758 1374.43 87.8591 1374.42 87.1549C1376.23 86.3898 1377.81 85.1259 1378.97 83.5405Z" fill="#BD5B1C"/>
<path d="M1381.83 81.2395C1380.77 81.246 1379.76 80.7078 1379.08 79.9047C1378.4 79.1016 1378.05 78.0574 1377.97 77.0093C1377.63 77.8442 1377.75 78.7981 1378.02 79.6548C1378.22 80.2697 1378.53 80.8901 1379.08 81.2317C1379.88 81.7299 1380.92 81.4923 1381.83 81.2395Z" fill="#BD5B1C"/>
<path d="M1361.67 82.0762C1361.38 82.4983 1361.47 83.1422 1361.87 83.4649C1362.2 83.733 1362.69 83.7831 1362.98 84.098C1362.62 83.9098 1362.5 83.4603 1362.4 83.0648C1362.3 82.6693 1362.13 82.2214 1361.75 82.0989" fill="#BD5B1C"/>
<path d="M1362.76 82.376C1362.93 82.7868 1363.09 83.1976 1363.26 83.6081C1363.36 83.8597 1363.46 84.1167 1363.65 84.3173C1363.83 84.5178 1364.11 84.6533 1364.37 84.5909C1363.98 84.2623 1363.93 83.6991 1363.79 83.2129C1363.65 82.7267 1363.22 82.2048 1362.74 82.338" fill="#BD5B1C"/>
<path d="M1381.25 82.3976C1381.25 82.3976 1383.29 81.0163 1384.26 82.3976C1385.24 83.7788 1384.59 85.1656 1383.85 86.1377C1383.12 87.1098 1381.85 88.2203 1379.76 86.8933C1379.76 86.8933 1380.93 84.9976 1381.25 82.3976Z" fill="#FFCF99"/>
<path d="M1382.84 83.2461C1382.6 83.0667 1382.13 82.7797 1382.1 82.8369C1382.25 82.5324 1382.67 82.4394 1382.98 82.5678C1383.29 82.6962 1383.51 82.9871 1383.66 83.2893C1383.94 83.8379 1384.05 84.4788 1383.91 85.0775C1383.78 85.6761 1383.38 86.2228 1382.83 86.486C1382.53 86.6264 1382.2 86.6843 1381.88 86.7259C1381.63 86.758 1381.33 86.7658 1381.16 86.5757C1381.03 86.4223 1381.03 86.1922 1381.07 85.993C1381.23 85.3271 1381.83 84.7895 1382.51 84.7183C1382.24 84.8558 1382.05 85.121 1382 85.4148C1381.99 85.4548 1381.99 85.498 1382.01 85.5341C1382.03 85.5744 1382.07 85.5971 1382.12 85.6127C1382.62 85.796 1382.99 85.393 1383.05 84.9195C1383.1 84.5149 1383.1 84.0046 1383.05 83.6016C1383.04 83.5207 1383.02 83.4391 1382.98 83.368C1382.96 83.3462 1382.91 83.3013 1382.84 83.2461Z" fill="#FFAD73"/>
<path d="M1412.16 59.3105C1404.74 66.9282 1403.14 78.1251 1403.14 78.1251C1404.82 78.2941 1406.48 78.6071 1408.1 79.014C1408.71 70.7232 1411.12 65.8362 1415.37 61.4874C1413.45 60.2277 1412.16 59.3105 1412.16 59.3105Z" fill="#730938"/>
<path d="M1429.88 68.6711C1426.01 68.1293 1419.33 64.0795 1415.37 61.4873C1411.12 65.8358 1408.71 70.7232 1408.1 79.0139C1417.73 81.4397 1425.62 87.3086 1425.62 87.3086C1433.65 77.1575 1429.88 68.6711 1429.88 68.6711Z" fill="#473D26"/>
<path d="M1416.14 55.7168C1416.14 55.7168 1408.99 59.037 1406.06 68.5809C1403.14 78.1249 1404.26 85.0321 1404.26 85.0321" stroke="#473D26" stroke-width="9" stroke-miterlimit="10" stroke-linecap="round"/>
</svg>
