<svg width="1561" height="272" viewBox="0 0 1561 272" fill="none" xmlns="http://www.w3.org/2000/svg">
<path d="M212.782 237.243C212.782 237.243 141.404 117.158 212.782 37.608C254.835 -9.25928 332.872 -10.3883 382.303 23.5001C450.921 70.5422 410.382 215.809 386.142 231.244L212.782 237.243Z" fill="#599EA8"/>
<path d="M249.613 226.528C249.613 226.528 175.844 118.498 236.209 53.5052C269.722 17.4228 360.385 28.6873 382.303 62.2536C420.302 120.447 368.636 205.903 355.178 217.923L249.613 226.528Z" fill="#397D87"/>
<path opacity="0.5" d="M1479.98 142.595C1491.29 145.733 1500.78 153.966 1497.53 172.925C1494.28 191.883 1476.89 189.005 1467.71 186.544C1458.53 184.083 1445.82 173.683 1450.97 157.605C1455.61 143.082 1469.77 139.766 1479.98 142.595Z" fill="white"/>
<path opacity="0.5" d="M1478.68 147.418C1487.57 149.881 1495.01 156.342 1492.46 171.219C1489.91 186.097 1476.26 183.838 1469.06 181.907C1461.85 179.976 1451.88 171.814 1455.92 159.197C1459.57 147.801 1470.68 145.198 1478.68 147.418Z" fill="white"/>
<path d="M1459.61 209.657C1459.61 209.657 1462.86 208.475 1466.32 210.409L1457.22 252.187C1457.22 252.187 1453.32 252.777 1449.42 249.46L1459.61 209.657Z" fill="#13353A"/>
<path d="M1461.56 211.536C1461.56 211.536 1468.71 177.995 1469.36 175.236H1471.31C1471.31 175.236 1464.37 209.093 1463.94 212.777L1461.56 211.536Z" fill="#13353A"/>
<path d="M1466.9 174.101L1472.08 174.837L1473.98 176.527L1481.33 163.281L1476.42 153.938L1468.11 157.934L1466.9 174.101Z" fill="white" stroke="#13353A" stroke-width="2" stroke-miterlimit="10"/>
<path d="M1468.11 157.934L1476.74 159.378L1481.33 163.281" stroke="#13353A" stroke-width="2" stroke-miterlimit="10"/>
<path d="M1472.08 174.837L1476.74 159.378L1476.42 153.938" stroke="#13353A" stroke-width="2" stroke-miterlimit="10"/>
<path d="M1466.72 174.288L1470.44 176.001L1473.98 176.713L1472.08 174.837L1466.72 174.288Z" fill="#13353A"/>
<path d="M1469.12 181.852C1468.92 180.237 1469.88 178.543 1471.38 177.893C1472.87 177.242 1474.76 177.689 1475.81 178.938C1476.16 179.352 1476.41 179.837 1476.62 180.336C1477.05 181.37 1477.28 182.576 1476.81 183.594C1476.34 184.618 1475.15 185.26 1474.04 185.095C1472.92 184.929 1471.97 183.969 1471.82 182.852C1471.77 182.455 1471.81 182.029 1472.03 181.697C1472.25 181.377 1472.6 181.178 1472.97 181.07C1473.54 180.906 1474.24 180.978 1474.58 181.454C1474.92 181.929 1474.56 182.79 1473.98 182.696" stroke="#13353A" stroke-width="2" stroke-miterlimit="10" stroke-linecap="round"/>
<path d="M1468.22 183.928C1468.32 183.103 1468.41 182.279 1468.5 181.455C1468.69 179.801 1468.77 177.859 1467.51 176.772C1466.47 175.871 1464.75 176.001 1463.73 176.929C1462.71 177.858 1462.38 179.416 1462.77 180.74C1462.96 181.363 1463.3 181.959 1463.82 182.344C1464.35 182.729 1465.07 182.871 1465.66 182.608C1466.26 182.344 1466.65 181.633 1466.46 181.012C1466.27 180.39 1465.44 180.029 1464.9 180.385" stroke="#13353A" stroke-width="2" stroke-miterlimit="10" stroke-linecap="round"/>
<path d="M1452.91 249.95L1457.56 230.827C1457.6 230.653 1457.77 230.546 1457.95 230.588C1458.12 230.63 1458.23 230.804 1458.19 230.977L1453.76 250.15C1453.7 250.383 1453.47 250.529 1453.24 250.475C1453 250.421 1452.86 250.188 1452.91 249.955C1452.91 249.954 1452.91 249.951 1452.91 249.95Z" fill="#0E282C"/>
<path d="M1451 248.875L1455.64 229.752C1455.68 229.577 1455.86 229.47 1456.03 229.513C1456.21 229.555 1456.31 229.728 1456.27 229.902L1451.84 249.075C1451.79 249.308 1451.56 249.453 1451.32 249.399C1451.09 249.345 1450.94 249.113 1451 248.879C1451 248.879 1451 248.876 1451 248.875Z" fill="#0E282C"/>
<path d="M1455.43 250.133L1459.98 230.693C1460.02 230.519 1460.2 230.41 1460.37 230.451C1460.55 230.491 1460.65 230.661 1460.62 230.833L1456.58 250.387C1456.52 250.707 1456.2 250.912 1455.88 250.846C1455.56 250.78 1455.36 250.468 1455.42 250.148C1455.43 250.144 1455.43 250.137 1455.43 250.133Z" fill="#0E282C"/>
<path d="M1452.83 151.831C1452.83 151.831 1457.36 156.651 1450.19 168.639C1450.19 168.639 1445 160.548 1452.83 151.831Z" fill="#BD5B1C"/>
<path d="M1509.67 181.888C1509.67 181.888 1509.98 187.655 1501.15 193.025C1501.15 193.025 1501.89 184.526 1509.67 181.888Z" fill="#BD5B1C"/>
<path d="M1454.97 122.947C1454.97 122.947 1458.11 126.847 1454.97 131.614C1451.83 136.381 1442.19 134.972 1442.19 134.972C1442.19 134.972 1452.8 128.689 1454.97 122.947Z" fill="#BD703F"/>
<path d="M1436.99 133.269C1436.99 133.269 1440.89 136.235 1445.87 132.408C1450.85 128.58 1454.54 122.297 1454.97 122.947C1455.4 123.597 1456.52 129.556 1452.8 132.408C1448.58 135.647 1442.4 137.957 1436.99 133.269Z" fill="#BD5B1C"/>
<path d="M1499.9 199.489C1499.9 199.489 1498.99 203.642 1494.16 204.099C1489.34 204.556 1485.14 197.427 1485.14 197.427C1485.14 197.427 1494.95 201.109 1499.9 199.489Z" fill="#BD703F"/>
<path d="M1483.5 193.08C1483.5 193.08 1483.61 197.238 1488.8 198.5C1493.98 199.761 1500.1 198.856 1499.9 199.489C1499.7 200.121 1496.35 204.032 1492.49 203.088C1488.09 202.016 1483.28 199.158 1483.5 193.08Z" fill="#BD5B1C"/>
<path d="M1476.03 133.99C1476.03 133.99 1478.69 141.253 1475.1 144.828C1471.51 148.403 1466.09 145.362 1466.09 145.362C1466.09 145.362 1476.22 143.518 1476.03 133.99Z" fill="#BD703F"/>
<path d="M1465.63 145.362C1465.63 145.362 1475.06 141.241 1476.1 133.556C1476.1 133.556 1478.83 148.603 1465.63 145.362Z" fill="#BD5B1C"/>
<path d="M1439.04 187.108C1439.04 187.108 1433.19 186.792 1431.78 183.231C1430.36 179.67 1434.09 176.809 1434.09 176.809C1434.09 176.809 1432.35 184.402 1439.04 187.108Z" fill="#BD703F"/>
<path d="M1434.23 176.491C1434.23 176.491 1434.28 184.273 1439.32 187.286C1439.32 187.286 1428.04 184.7 1434.23 176.491Z" fill="#BD5B1C"/>
<path d="M1424.76 163.049C1424.76 163.049 1426.12 156.717 1432.29 152.817C1432.29 152.817 1435.11 161.744 1424.76 163.049Z" fill="#BD703F"/>
<path d="M1424.76 163.049C1424.76 163.049 1424.22 156.284 1432.29 152.817C1432.29 152.817 1430.29 161.798 1424.76 163.049Z" fill="#BD5B1C"/>
<path d="M81.0586 249.383V267.546L1521.06 269V261.655C1144.26 163.477 404.059 212.566 81.0586 249.383Z" fill="#69826E"/>
<path d="M831.233 218.77C831.233 218.77 829.89 218.753 827.537 218.724C825.184 218.696 821.83 218.642 817.772 218.64C809.668 218.607 798.863 218.565 788.059 218.522C777.288 218.438 766.365 218.527 758.211 218.548C750.049 218.578 744.608 218.597 744.608 218.597C737.399 218.625 731.278 217.581 730.949 216.285L729.76 211.415C729.422 210.102 735.326 209.028 742.937 208.999C742.937 208.999 748.657 208.978 757.239 208.946C765.817 208.924 777.273 208.834 788.676 208.92C800.09 208.965 811.505 209.011 820.067 209.045C824.352 209.049 827.903 209.105 830.393 209.134C832.883 209.165 834.305 209.182 834.305 209.182C841.881 209.274 847.586 210.403 847.048 211.706L845.106 216.569C844.567 217.871 838.356 218.857 831.233 218.77Z" fill="#7B9982"/>
<path d="M890.109 231.31C890.109 231.31 885.149 231.211 877.706 231.062C873.986 230.986 869.647 230.898 864.997 230.803C862.667 230.761 860.283 230.693 857.818 230.666C855.356 230.638 852.855 230.609 850.354 230.58C840.352 230.458 830.351 230.337 822.851 230.245C819.11 230.185 815.954 230.186 813.752 230.178C811.55 230.17 810.29 230.165 810.29 230.165C803.621 230.141 798.341 229.061 798.495 227.756L799.142 222.882C799.296 221.577 805.187 220.542 812.297 220.569C812.297 220.569 813.631 220.574 815.969 220.583C818.305 220.592 821.65 220.593 825.627 220.655C833.597 220.751 844.225 220.88 854.853 221.009C857.51 221.04 860.167 221.072 862.784 221.102C865.4 221.132 867.944 221.202 870.422 221.247C875.37 221.347 879.99 221.441 883.948 221.521C891.868 221.68 897.148 221.786 897.148 221.786C900.653 221.859 903.637 222.174 905.573 222.656C907.504 223.145 908.417 223.77 907.883 224.416L903.918 229.241C903.386 229.887 901.567 230.434 899.082 230.795C896.592 231.165 893.398 231.378 890.109 231.31Z" fill="#7B9982"/>
<path d="M122.144 263.925C125.318 263.769 127.721 263.352 129.99 262.947C132.908 262.415 135.996 261.906 139.031 261.388C142.088 260.875 145.078 260.35 148.187 259.843L157.56 258.329L162.243 257.571L167.05 256.833C171.693 256.124 176.688 255.232 176.024 254.118C175.575 253.319 172.166 252.656 168.927 252.063C159.463 250.331 147.599 248.449 134.095 248.937C130.67 249.059 127.52 249.325 124.577 249.664C121.654 250.006 119.007 250.435 116.45 250.856C113.074 251.419 109.744 251.991 106.566 252.587C103.433 253.191 100.391 253.808 97.4435 254.436C94.4665 255.06 91.6939 255.712 89.0402 256.377C86.394 257.043 83.7737 257.707 81.4062 258.4C86.1468 260.857 97.8598 262.832 111.544 263.714C114.96 263.933 118.723 264.091 122.144 263.925Z" fill="#7B9982"/>
<path d="M251.649 235.79C246.689 235.791 242.043 236.212 237.667 236.633L233.987 236.989L230.393 237.37L223.254 238.147C218.517 238.672 213.808 239.205 209.171 239.757C204.62 240.331 200.116 240.916 195.667 241.512C191.215 242.107 186.792 242.708 182.594 243.359C179.152 243.879 175.426 244.539 175.939 245.322C176.255 245.803 178.134 246.202 179.931 246.573L200.746 250.873C203.097 251.361 205.84 251.886 209.361 251.953C211.769 251.999 214.035 251.817 216.144 251.633C222.011 251.106 227.946 250.588 233.696 250.023C239.466 249.462 244.976 248.836 250.61 248.237C256.185 247.623 261.609 246.97 266.881 246.277C272.237 245.607 277.513 244.916 282.595 244.175C284.35 243.921 286.206 243.622 286.448 243.209C286.661 242.844 285.546 242.492 284.472 242.17L274.339 239.136C269.082 237.564 262.078 235.789 251.649 235.79Z" fill="#7B9982"/>
<path d="M373.103 233.594C380.341 231.729 375.227 228.802 364.092 227.494C358.524 226.841 351.972 226.524 345.189 226.47C338.49 226.446 331.556 226.68 325.149 227.078C312.224 227.843 301.255 229.331 289.759 230.584C287.966 230.784 286.067 230.982 284.487 231.234C282.907 231.486 281.584 231.773 280.852 232.121C279.654 232.691 280.28 233.321 281.181 233.903C284.387 235.971 290.987 237.867 299.721 239.352C309.992 239.178 319.901 238.708 329.365 238.016C331.733 237.844 334.076 237.659 336.399 237.465L339.874 237.169L343.384 236.883C348.047 236.494 352.644 236.082 357.192 235.67C360.154 235.403 363.177 235.124 365.92 234.787C368.654 234.446 371.218 234.087 373.103 233.594Z" fill="#7B9982"/>
<path d="M489.806 226.192C490.299 225.945 490.022 225.669 489.721 225.409C486.768 222.872 482.02 220.4 475.389 218.095C474.168 217.67 472.678 217.218 470.11 217.055C468.207 216.934 466.079 216.998 464.07 217.065C456.498 217.319 448.925 217.6 441.395 217.916C433.958 218.279 426.549 218.672 419.186 219.093C415.505 219.303 411.837 219.521 408.182 219.745C404.524 219.969 400.979 220.243 397.396 220.5C390.256 221.025 383.183 221.577 376.194 222.155C382.784 224.898 391.581 227.485 401.93 229.844C403.547 230.213 405.32 230.591 407.73 230.764C410.947 230.994 414.474 230.802 417.674 230.609L424.696 230.183L428.203 229.968L431.76 229.777L445.976 229.012L460.151 228.238C464.894 227.991 469.709 227.78 474.475 227.547C478.485 227.355 482.522 227.159 486.192 226.813C487.697 226.672 489.223 226.485 489.806 226.192Z" fill="#7B9982"/>
<path d="M615.36 222.697C613.639 219.647 609.973 216.624 604.149 213.721C600.239 211.731 584.124 211.46 566.953 211.913C562.675 212.033 558.315 212.18 554.129 212.396C549.955 212.622 545.907 212.881 542.161 213.158C534.668 213.711 528.397 214.334 524.697 214.91C522.5 215.251 520.632 215.629 519.068 216.035C517.524 216.455 516.282 216.903 515.31 217.37C513.365 218.303 512.501 219.313 512.456 220.338C512.367 222.389 515.541 224.505 519.861 226.206C523.779 226.116 527.703 226.001 531.632 225.866C535.568 225.737 539.58 225.631 543.557 225.486C551.527 225.208 559.512 224.869 567.486 224.504C569.471 224.407 571.483 224.327 573.5 224.252L579.536 224.015C583.555 223.854 587.569 223.694 591.563 223.534C599.566 223.228 607.44 222.87 615.36 222.697Z" fill="#7B9982"/>
<path d="M631.555 211.517C629.985 211.57 628.268 211.639 627.298 211.86C626.551 212.031 626.419 212.257 626.329 212.47C625.064 215.471 626.839 218.5 631.148 221.406L641.484 221.263C644.924 221.21 648.358 221.155 651.831 221.137C658.755 221.08 665.666 221.011 672.566 220.932L682.91 220.804C686.355 220.759 689.793 220.703 693.266 220.691C700.194 220.645 707.112 220.587 714.029 220.519C714.053 217.221 710.24 213.923 702.338 210.918C701.394 210.56 700.259 210.18 698.213 210.003C696.414 209.848 694.288 209.881 692.294 209.918L684.649 210.061L677.041 210.258L661.842 210.657L646.661 211.054C644.136 211.125 641.597 211.176 639.087 211.262L631.555 211.517Z" fill="#7B9982"/>
<path d="M179.804 257.694C174.957 259.732 181.755 262.418 193.533 263.402C205.385 264.393 219.525 263.528 224.266 261.607C225.239 261.199 225.823 260.741 225.451 260.274C225.206 259.965 224.552 259.664 223.881 259.368C221.045 258.122 217.513 256.827 211.332 256.04C202.8 254.947 189.82 255.245 183.903 256.684C185.217 256.314 186.627 255.961 188.014 255.601" fill="#7B9982"/>
<path d="M319.103 252.305C312.9 249.911 304.183 247.11 289.972 246.918C283.304 246.834 276.988 247.36 271.409 247.968C265.803 248.591 260.39 249.268 255.216 249.994C252.605 250.351 250.141 250.742 247.755 251.146C245.359 251.549 243.031 251.962 240.773 252.386C242.21 253.205 241.312 253.989 239.786 254.762C238.294 255.542 236.261 256.332 235.247 257.125C232.53 259.259 238.53 261.735 249.08 263.104C276.667 261.691 300.505 258.855 317.982 254.847C319.542 254.485 321.101 254.083 321.186 253.591C321.264 253.155 320.17 252.718 319.103 252.305Z" fill="#7B9982"/>
<path d="M389.711 240.08C386.227 239.371 382.053 238.658 377.004 238.509C373.112 238.404 369.295 238.651 365.661 238.894C357.263 239.466 348.689 239.988 340.434 240.629L327.918 241.551C323.733 241.857 319.535 242.161 315.456 242.504C313.793 242.639 312.031 242.789 311.112 243.073C309.878 243.454 310.53 243.952 311.312 244.39C315.215 246.574 321.661 248.629 329.853 250.416C331.356 250.744 333.081 251.083 335.253 251.185C337.152 251.274 339.016 251.165 340.754 251.053C346.903 250.639 353.176 250.263 359.301 249.84C362.366 249.629 365.404 249.411 368.42 249.183C371.429 248.955 374.415 248.718 377.468 248.504C382.766 248.115 388.323 247.608 392.615 246.915C394.766 246.57 396.589 246.174 397.93 245.73C399.302 245.298 400.166 244.809 400.327 244.253C400.768 242.738 395.535 241.266 389.711 240.08Z" fill="#7B9982"/>
<path d="M419.37 240.363C421.272 240.76 423.297 241.175 425.91 241.359C427.891 241.498 429.994 241.487 432.014 241.46C438.299 241.376 444.421 241.15 450.269 240.789C456.16 240.446 461.881 240.013 467.163 239.426C465.28 237.959 463.394 236.459 459.19 235.149C454.991 233.839 447.918 232.733 439.749 232.6C437.742 232.569 435.731 232.59 433.772 232.654C431.827 232.723 429.903 232.825 428.006 232.929C422.225 233.245 416.486 233.592 410.811 233.968C407.977 234.158 405.141 234.348 402.356 234.558C399.602 234.78 396.864 235.01 394.149 235.246C402.713 236.943 411.058 238.624 419.37 240.363Z" fill="#7B9982"/>
<path d="M561.136 235.441C563.087 234.849 562.217 234.048 561.273 233.34L557.265 230.327C556.057 229.42 554.403 228.4 549.904 227.972C546.903 227.687 543.378 227.745 540.077 227.81C519.5 228.327 498.778 228.865 478.303 229.624C476.332 229.691 474.209 229.774 472.922 230.049C471.496 230.352 471.509 230.803 471.671 231.212C472.412 233.102 474.828 234.981 478.656 236.772C479.671 237.247 480.845 237.732 482.832 238.09C486.381 238.729 491.544 238.812 496.154 238.807C506.607 238.806 516.731 238.506 526.794 238.124C531.791 237.915 536.697 237.646 541.493 237.318C543.893 237.154 546.264 236.975 548.605 236.781C550.965 236.598 553.325 236.417 555.637 236.212C557.731 236.028 559.895 235.817 561.136 235.441Z" fill="#7B9982"/>
<path d="M653.218 233.762C654.458 233.71 655.753 233.641 656.913 233.54C658.078 233.445 659.094 233.308 659.75 233.098C660.763 232.774 660.637 232.359 660.477 231.971L658.94 228.19C658.388 226.82 657.041 225.199 650.362 224.564C646.714 224.237 642.437 224.336 638.428 224.437L611.72 225.107C602.877 225.378 594.076 225.682 585.245 225.964C583.24 228.511 584.448 231.147 588.378 233.652C588.93 234.004 589.606 234.375 591.06 234.619C592.946 234.935 595.6 234.955 598.004 234.95C602.667 234.94 607.307 234.903 611.925 234.837C614.233 234.804 616.535 234.764 618.832 234.716L625.775 234.605C635.022 234.437 644.17 234.156 653.218 233.762Z" fill="#7B9982"/>
<path d="M758.776 226.385C758.475 225.544 757.977 224.626 754.78 224.027C752.424 223.585 749.021 223.402 745.754 223.253C742.826 223.119 739.875 222.998 736.903 222.892C735.419 222.841 733.924 222.784 732.436 222.747C730.949 222.713 729.459 222.682 727.965 222.654C721.99 222.543 715.966 222.488 709.934 222.487C703.903 222.486 697.868 222.54 691.874 222.649C685.902 222.78 680.007 223.01 674.183 223.27C672.197 226.313 672.648 229.406 675.172 232.442C681.509 232.735 687.847 232.869 694.201 232.882C700.59 232.932 707.025 232.893 713.451 232.756C719.881 232.624 726.322 232.41 732.748 232.155C735.95 232.014 739.206 231.931 742.424 231.808C745.65 231.687 748.869 231.568 752.067 231.448C754.81 231.344 757.915 231.189 759.209 230.707C759.967 230.424 759.907 230.088 759.824 229.77C759.525 228.641 759.177 227.513 758.776 226.385Z" fill="#7B9982"/>
<path d="M831.233 218.77C831.233 218.77 829.89 218.753 827.537 218.724C825.184 218.696 821.83 218.642 817.772 218.64C809.668 218.607 798.863 218.565 788.059 218.522C777.288 218.438 766.365 218.527 758.211 218.548C750.049 218.578 744.608 218.597 744.608 218.597C737.399 218.625 731.278 217.581 730.949 216.285L729.76 211.415C729.422 210.102 735.326 209.028 742.937 208.999C742.937 208.999 748.657 208.978 757.239 208.946C765.817 208.924 777.273 208.834 788.676 208.92C800.09 208.965 811.505 209.011 820.067 209.045C824.352 209.049 827.903 209.105 830.393 209.134C832.883 209.165 834.305 209.182 834.305 209.182C841.881 209.274 847.586 210.403 847.048 211.706L845.106 216.569C844.567 217.871 838.356 218.857 831.233 218.77Z" fill="#7B9982"/>
<path d="M875.733 219.54C878.472 219.875 881.892 219.941 885.166 219.996L897.968 220.212C902.231 220.289 906.524 220.338 910.744 220.462L936.173 221.1C939.237 221.176 942.564 221.236 945.684 221.175C948.8 221.117 951.673 220.973 953.916 220.573C957.148 220.004 957.887 219.122 958.424 218.307C959.212 217.12 959.779 215.825 958.815 214.63C958.333 214.033 957.466 213.461 956.051 212.94C954.624 212.429 952.634 211.982 949.938 211.611C944.461 210.862 937.158 210.633 930.182 210.475C925.545 210.37 920.898 210.285 916.25 210.22C911.591 210.168 906.893 210.179 902.227 210.187C892.883 210.214 883.581 210.322 874.403 210.512C870.439 211.593 868.099 212.84 867.352 214.13C866.611 215.411 867.462 216.729 869.874 217.952C871.084 218.565 872.793 219.181 875.733 219.54Z" fill="#7B9982"/>
<path d="M1082.83 219.032C1081.26 218.694 1079.27 218.433 1077.11 218.214C1076.02 218.106 1074.89 218.005 1073.74 217.916C1072.58 217.833 1071.4 217.757 1070.22 217.683C1059.7 217.017 1049.04 216.404 1038.3 215.846C1027.46 215.343 1016.46 214.947 1005.47 214.58C1001.01 214.435 995.764 214.328 992.612 214.923C990.689 215.278 990.133 215.786 989.654 216.264L984.045 221.805C983.4 222.434 982.854 223.131 984.815 223.645C986.142 224.005 988.379 224.201 990.522 224.376C996.535 224.867 1002.63 225.313 1008.8 225.713C1011.88 225.913 1014.99 226.102 1018.11 226.279C1021.23 226.458 1024.3 226.669 1027.43 226.844C1033.67 227.206 1039.98 227.522 1046.38 227.793C1049.56 227.932 1052.8 228.044 1056.01 228.173C1059.19 228.311 1062.4 228.437 1065.63 228.552C1067.85 228.631 1070.33 228.697 1072.29 228.469C1074.03 228.268 1074.87 227.893 1075.6 227.544L1082.5 224.244C1086.08 222.533 1089.44 220.456 1082.83 219.032Z" fill="#7B9982"/>
<path d="M1169.65 234.004C1182.5 233.783 1192.18 231.23 1190.87 228.904C1189.54 226.587 1179.79 224.553 1167.97 223.386C1162.12 222.785 1155.86 222.324 1149.49 221.915C1146.32 221.699 1143.01 221.55 1139.75 221.375C1136.49 221.206 1133.22 221.038 1129.99 220.859C1125.93 220.635 1121.55 220.39 1117.57 220.626C1114.32 220.818 1111.95 221.299 1109.97 221.788C1102.93 223.527 1098.78 225.626 1097.76 227.761C1104.93 229.094 1113.38 230.085 1122.48 230.898C1131.48 231.75 1140.99 232.483 1150.45 233.163C1151.98 233.275 1153.54 233.387 1155.12 233.491C1156.69 233.595 1158.24 233.708 1159.84 233.792C1163.02 233.965 1166.29 234.061 1169.65 234.004Z" fill="#7B9982"/>
<path d="M1276.28 245.061C1277.68 244.974 1278.72 244.762 1279.67 244.557C1289.01 242.553 1296.93 240.343 1302.95 237.977C1304.06 237.542 1305.12 237.052 1304.24 236.595C1303.59 236.256 1301.98 236.003 1300.43 235.768C1294.49 234.911 1288.36 234.091 1282.15 233.284C1279.03 232.885 1275.92 232.479 1272.72 232.1C1269.48 231.73 1266.22 231.366 1262.94 231.007C1256.36 230.296 1249.76 229.584 1242.93 228.945C1236.06 228.322 1229.11 227.725 1222.09 227.156C1214.16 229.788 1208.33 232.617 1204.48 235.508C1203.88 235.96 1203.34 236.438 1204.11 236.871C1205.14 237.448 1208.23 237.799 1211.12 238.104C1215.4 238.537 1219.49 239.033 1223.65 239.501L1236.11 240.913C1238.18 241.15 1240.29 241.376 1242.33 241.621L1248.43 242.362L1260.64 243.836C1262.35 244.041 1264.07 244.247 1265.84 244.435C1267.62 244.623 1269.39 244.812 1271.3 244.954C1272.86 245.072 1274.63 245.165 1276.28 245.061Z" fill="#7B9982"/>
<path d="M1371.06 259.795C1383.48 257.639 1394.63 255.226 1403.76 252.618C1406.83 251.742 1406.21 250.707 1403.21 249.628C1401.71 249.089 1399.62 248.54 1397.11 247.996C1394.6 247.452 1391.55 246.941 1388.31 246.438C1375.44 244.404 1358.05 242.892 1348.34 242.613C1324.73 242.037 1304.87 245.79 1295.29 249.119C1298.15 249.597 1301.11 250.062 1304.16 250.514C1307.24 250.961 1310.35 251.41 1313.47 251.862C1319.71 252.769 1326.32 253.617 1332.87 254.485C1339.35 255.37 1345.98 256.227 1352.45 257.1C1358.79 257.997 1365.09 258.885 1371.06 259.795Z" fill="#7B9982"/>
<path d="M1430.81 254.931C1429.62 254.745 1428.24 254.555 1426.64 254.564C1425.41 254.571 1424.33 254.696 1423.32 254.818C1409.2 256.54 1396.88 258.691 1386.69 261.106C1405.45 264.619 1423.65 265.959 1441.56 269.5C1456.35 267.454 1469.06 267.091 1477.62 264.151C1478.65 263.8 1479.64 263.41 1479.17 263.021C1478.75 262.681 1477.29 262.411 1475.85 262.171C1461.3 259.669 1446.19 257.268 1430.81 254.931Z" fill="#7B9982"/>
<path d="M880.109 233.611C885.593 233.649 891.87 233.568 895.631 232.723C898.179 232.15 898.865 231.383 899.452 230.643L903.871 225.082C904.085 224.812 904.289 224.526 903.717 224.276C902.959 223.951 901.06 223.794 899.3 223.663C869.892 221.431 836.381 220.634 804.448 221.665L804.405 228.146C804.392 228.973 804.578 229.894 807.544 230.473C809.212 230.799 811.518 230.961 813.756 231.105C819.188 231.43 824.581 231.82 830.057 232.109C835.526 232.408 841.04 232.655 846.59 232.851C857.742 233.196 868.836 233.545 880.109 233.611Z" fill="#7B9982"/>
<path d="M940.573 223.347C928.419 224.03 920.871 226.668 924.101 228.87C925.704 229.97 929.795 230.86 934.896 231.384C939.969 231.934 946.006 232.166 951.788 231.855C954.207 231.727 956.601 231.515 958.422 231.167C959.624 230.937 960.533 230.657 961.406 230.378C965.082 229.202 968.52 227.901 968.033 226.565C967.39 224.711 957.758 223.166 947.657 223.258L955.045 223.137" fill="#7B9982"/>
<path d="M1053.05 238.669C1059.62 236.312 1066.4 233.353 1058.27 231.29C1056.36 230.805 1053.83 230.432 1050.99 230.136C1048.11 229.862 1044.95 229.659 1041.83 229.48C1029.23 228.77 1016.25 228.238 1002.92 228.179C997.544 229.618 986.837 229.722 978.595 230.441C977.214 230.562 975.897 230.703 974.644 230.866C973.381 231.037 972.188 231.225 971.073 231.429C968.843 231.838 966.929 232.308 965.392 232.816C962.314 233.833 960.742 235.006 961.106 236.143C967.139 236.804 973.241 237.481 979.636 238C986.015 238.529 992.622 238.941 999.399 239.249C1006.08 239.613 1012.94 239.862 1019.94 239.997C1023.45 240.064 1026.99 240.103 1030.56 240.112C1034.14 240.114 1037.64 240.149 1041.22 240.12C1043.79 240.105 1046.53 240.065 1048.74 239.766C1050.69 239.501 1051.91 239.076 1053.05 238.669Z" fill="#7B9982"/>
<path d="M1151.56 240.369C1152.49 239.446 1152.96 238.442 1150.44 237.658C1149.46 237.355 1148.11 237.105 1146.58 236.894C1145.03 236.692 1143.3 236.521 1141.61 236.357L1118 234.05L1093.85 231.908C1092.22 231.763 1090.46 231.613 1088.64 231.665C1086.2 231.733 1084.43 232.135 1082.99 232.524C1075.84 234.452 1070.9 236.633 1068.24 238.868C1067.75 239.28 1067.37 239.721 1068.3 240.079C1069.09 240.397 1070.74 240.586 1072.31 240.756C1077.93 241.364 1083.62 241.937 1089.38 242.476L1093.72 242.875L1095.9 243.069L1098.05 243.279C1100.91 243.557 1103.8 243.826 1106.7 244.087C1111.79 244.544 1117.55 244.959 1123.34 245.087C1129.08 245.231 1134.77 245.126 1139.89 244.454C1146.86 243.545 1150.03 241.905 1151.56 240.369Z" fill="#7B9982"/>
<path d="M1169.08 244.551C1168.53 245.06 1167.98 245.595 1168.83 246.062C1169.48 246.416 1170.86 246.69 1172.27 246.943C1174.45 247.337 1176.77 247.702 1179.2 248.038C1180.42 248.206 1181.66 248.367 1182.93 248.52C1184.19 248.68 1185.45 248.838 1186.75 248.985C1191.95 249.578 1197.57 250.047 1203.52 250.383C1208.81 249.196 1214.25 247.987 1217.37 246.591C1220.49 245.194 1220.87 243.545 1216.25 242.368C1213.98 241.789 1210.7 241.367 1207.44 240.967C1202.36 240.393 1197.17 239.847 1191.9 239.327C1189.26 239.067 1186.6 238.813 1183.92 238.567L1179.88 238.203C1178.51 238.09 1177.12 237.984 1175.74 237.877C1173.74 240.089 1171.47 242.332 1169.08 244.551Z" fill="#7B9982"/>
<path d="M1280.54 260.545C1284.38 260.434 1287.38 259.809 1289.91 259.232L1300.71 256.782C1303.96 256.045 1307.43 255.175 1306.48 254.296C1305.83 253.713 1303.4 253.262 1300.96 252.873L1289.45 251.032C1285.59 250.421 1281.81 249.786 1277.81 249.206L1265.93 247.424L1259.98 246.529C1257.97 246.237 1255.91 245.957 1253.88 245.67C1252.31 245.451 1250.59 245.221 1248.54 245.226C1246.28 245.23 1244.3 245.519 1242.58 245.802C1234.68 247.107 1227.9 248.629 1222.41 250.281C1220.95 250.72 1219.55 251.185 1219.24 251.678C1218.68 252.557 1221.62 253.295 1224.59 253.904C1226.26 254.253 1228.04 254.573 1229.78 254.912C1231.53 255.248 1233.33 255.571 1235.19 255.883C1238.91 256.506 1242.85 257.081 1247 257.605C1251.15 258.128 1255.32 258.651 1259.79 259.093C1264.22 259.547 1268.92 259.93 1273.66 260.291C1275.79 260.457 1278.09 260.615 1280.54 260.545Z" fill="#7B9982"/>
<path d="M1345.52 269.037C1347.49 269.309 1349.8 269.131 1352.5 269.037C1354.58 268.964 1356.35 269.303 1357.97 269.037L1373.82 269.136C1379.57 268.198 1385.93 266.997 1384.51 265.717C1383.71 265.015 1380.73 264.479 1377.8 263.998L1367.94 262.415C1364.66 261.887 1361.41 261.353 1358 260.847L1347.9 259.308C1346.21 259.053 1344.55 258.791 1342.83 258.541L1337.66 257.796C1325.08 259.147 1314.16 260.983 1305.56 263.097C1304.35 263.395 1303.14 263.72 1302.98 264.068C1302.78 264.52 1304.38 264.885 1305.93 265.201C1308.99 265.805 1311.96 266.428 1315.1 267.016C1318.23 267.607 1321.48 268.175 1324.83 268.725C1328.08 269.292 1331.09 268.513 1334.56 269.037C1336.29 269.299 1338.27 268.786 1340.06 269.037C1341.83 269.291 1343.72 268.789 1345.52 269.037Z" fill="#7B9982"/>
<path d="M1481.21 257.577L1481.54 262.29L1481.56 262.586L1481.21 262.614L1481.21 262.615L1477.26 262.29L1481.21 261.965L1481.21 261.965L1480.89 262.29L1481.21 257.577Z" fill="black"/>
<path d="M1478.11 263.256C1478.59 262.981 1479.09 262.786 1479.6 262.608C1479.85 262.526 1480.1 262.44 1480.36 262.37C1480.62 262.296 1480.88 262.233 1481.14 262.172L1481.15 262.17C1481.32 262.129 1481.49 262.236 1481.53 262.408C1481.56 262.524 1481.52 262.64 1481.44 262.715C1481.27 262.871 1481.1 263.023 1480.92 263.171C1480.75 263.323 1480.57 263.466 1480.39 263.608C1480.21 263.751 1480.02 263.887 1479.83 264.02C1479.64 264.151 1479.44 264.279 1479.24 264.393C1479.36 264.19 1479.49 263.999 1479.63 263.813C1479.77 263.627 1479.91 263.444 1480.06 263.269C1480.21 263.093 1480.36 262.918 1480.52 262.752C1480.67 262.581 1480.83 262.415 1480.99 262.253L1481.29 262.796C1481.03 262.864 1480.78 262.929 1480.51 262.984C1480.25 263.043 1479.99 263.085 1479.73 263.132C1479.2 263.212 1478.67 263.274 1478.11 263.256Z" fill="black"/>
<path d="M1463.62 240.127C1463.62 240.127 1469.95 234.595 1476.23 238.444C1482.51 242.294 1485.55 251.327 1489.45 252.444C1493.35 253.56 1501.15 254.661 1501.15 254.661C1501.15 254.661 1490.64 264.692 1478.02 259.776C1465.4 254.86 1474.63 242.293 1463.62 240.127Z" fill="white"/>
<path d="M1470.38 240.668C1470.8 240.668 1471.14 240.329 1471.14 239.91C1471.14 239.491 1470.8 239.152 1470.38 239.152C1469.96 239.152 1469.62 239.491 1469.62 239.91C1469.62 240.329 1469.96 240.668 1470.38 240.668Z" fill="black"/>
<path d="M1476.92 248.062C1476.93 249.171 1477.06 250.274 1477.36 251.331C1477.51 251.858 1477.69 252.375 1477.91 252.876C1478.12 253.381 1478.39 253.846 1478.71 254.272C1479.03 254.693 1479.41 255.068 1479.86 255.304C1480.08 255.425 1480.32 255.504 1480.56 255.539C1480.8 255.575 1481.05 255.579 1481.28 255.52C1481.74 255.419 1482.05 255.062 1482.15 254.602C1482.25 254.15 1482.12 253.666 1481.86 253.242C1481.79 253.136 1481.72 253.033 1481.64 252.934C1481.56 252.83 1481.49 252.744 1481.41 252.69C1481.34 252.629 1481.26 252.61 1481.26 252.616C1481.28 252.618 1481.28 252.587 1481.23 252.685C1481.07 253.122 1481.08 253.638 1481.22 254.11C1481.36 254.589 1481.63 255.022 1481.99 255.372C1482.35 255.721 1482.81 255.987 1483.29 256.173C1483.77 256.349 1484.31 256.501 1484.77 256.458C1485 256.433 1485.18 256.355 1485.29 256.2C1485.4 256.06 1485.46 255.824 1485.48 255.57C1485.51 255.057 1485.47 254.511 1485.32 254.02C1485.25 253.776 1485.14 253.542 1485 253.372C1484.85 253.203 1484.67 253.125 1484.45 253.15L1484.52 253.13C1484.43 253.171 1484.37 253.224 1484.34 253.296C1484.3 253.369 1484.3 253.471 1484.31 253.58C1484.35 253.8 1484.46 254.033 1484.59 254.246C1484.86 254.668 1485.23 255.065 1485.66 255.323C1485.76 255.381 1485.89 255.441 1486.01 255.48C1486.12 255.524 1486.25 255.559 1486.37 255.584C1486.63 255.636 1486.89 255.653 1487.15 255.638C1487.68 255.606 1488.2 255.467 1488.68 255.231C1488.22 255.511 1487.71 255.712 1487.17 255.779C1486.89 255.813 1486.62 255.817 1486.34 255.781C1486.2 255.763 1486.07 255.737 1485.93 255.696C1485.79 255.657 1485.67 255.614 1485.54 255.551C1485.03 255.289 1484.62 254.9 1484.29 254.441C1484.14 254.208 1483.99 253.956 1483.93 253.647C1483.9 253.494 1483.89 253.317 1483.96 253.141C1484.03 252.964 1484.17 252.82 1484.33 252.744L1484.35 252.73L1484.39 252.724C1484.56 252.695 1484.74 252.705 1484.91 252.769C1485.08 252.832 1485.23 252.939 1485.34 253.059C1485.56 253.304 1485.69 253.588 1485.79 253.869C1485.98 254.437 1486.04 255.012 1486.02 255.605C1486.01 255.898 1485.97 256.235 1485.74 256.548C1485.64 256.688 1485.49 256.816 1485.33 256.895C1485.17 256.977 1485 257.019 1484.84 257.04C1484.52 257.083 1484.2 257.046 1483.92 256.99C1483.63 256.934 1483.35 256.859 1483.07 256.756C1482.52 256.548 1481.99 256.249 1481.55 255.83C1481.11 255.418 1480.77 254.881 1480.6 254.293C1480.42 253.706 1480.41 253.057 1480.64 252.449C1480.67 252.365 1480.72 252.264 1480.81 252.167C1480.91 252.068 1481.04 252 1481.19 251.983C1481.47 251.961 1481.65 252.083 1481.8 252.186C1481.95 252.299 1482.05 252.431 1482.14 252.543C1482.23 252.662 1482.32 252.786 1482.4 252.917C1482.71 253.431 1482.89 254.1 1482.73 254.739C1482.65 255.052 1482.5 255.356 1482.27 255.598C1482.03 255.843 1481.72 256.002 1481.4 256.068C1480.78 256.202 1480.13 256.057 1479.61 255.75C1479.09 255.445 1478.68 255.006 1478.35 254.536C1478.02 254.064 1477.76 253.538 1477.57 253.012C1477.37 252.485 1477.22 251.942 1477.11 251.392C1476.88 250.294 1476.81 249.167 1476.92 248.062Z" fill="black"/>
<path d="M1485.06 259.681C1485.19 260.466 1485.26 261.251 1485.31 262.037C1485.34 262.43 1485.35 262.822 1485.37 263.215C1485.38 263.608 1485.38 264.001 1485.38 264.393L1485.39 264.608L1485.19 264.691C1484.83 264.842 1484.47 264.996 1484.1 265.142C1483.74 265.281 1483.38 265.432 1483.01 265.56C1482.27 265.828 1481.52 266.074 1480.75 266.262C1481.42 265.826 1482.11 265.45 1482.8 265.095C1483.15 264.912 1483.51 264.751 1483.86 264.578C1484.21 264.414 1484.57 264.256 1484.93 264.095L1484.73 264.393C1484.74 264.001 1484.74 263.608 1484.75 263.215C1484.77 262.822 1484.78 262.43 1484.81 262.037C1484.85 261.252 1484.92 260.466 1485.06 259.681Z" fill="black"/>
<path d="M1482.38 267.047C1482.72 266.498 1483.12 266.007 1483.53 265.528C1483.74 265.295 1483.95 265.057 1484.17 264.831C1484.38 264.604 1484.61 264.383 1484.83 264.165L1485.39 263.621L1485.38 264.393C1485.37 264.641 1485.37 264.89 1485.35 265.138C1485.34 265.386 1485.32 265.634 1485.29 265.883C1485.27 266.131 1485.24 266.379 1485.2 266.628C1485.16 266.876 1485.12 267.124 1485.06 267.373C1485 267.124 1484.95 266.876 1484.91 266.628C1484.88 266.379 1484.84 266.131 1484.82 265.883C1484.8 265.634 1484.78 265.386 1484.77 265.138C1484.75 264.89 1484.74 264.641 1484.74 264.393L1485.28 264.621C1485.06 264.845 1484.84 265.067 1484.61 265.282C1484.38 265.498 1484.14 265.703 1483.91 265.912C1483.43 266.318 1482.93 266.712 1482.38 267.047Z" fill="black"/>
<path d="M838.342 121.47C839.858 109.535 845.515 96.7314 845.515 96.7314L854.99 99.634L850.096 133.74L848.146 141.411L839.857 145.285C839.857 145.285 836.827 133.404 838.342 121.47Z" fill="#54482F"/>
<path d="M845.906 99.73C845.811 99.6357 845.701 99.5473 845.569 99.5226C845.191 99.4518 844.943 99.8986 844.823 100.264C844.403 101.54 843.984 102.815 843.564 104.09C842.531 107.228 841.488 110.424 841.435 113.726C843.532 110.687 845.158 107.324 846.238 103.793C846.657 102.424 846.922 100.738 845.906 99.73Z" fill="#473D26"/>
<path d="M818.571 183.31C818.571 183.31 819.221 188.347 817.271 190.46C815.321 192.572 809.959 195.172 809.796 196.472C809.634 197.772 809.921 198.923 811.964 198.517C814.008 198.112 821.359 194.915 821.694 194.704C822.03 194.493 824.026 191.956 824.026 191.956L824.618 193.883C824.618 193.883 828.427 192.75 829.837 190.955C829.837 190.955 827.671 185.26 825.234 184.122L822.959 180.129L818.571 183.31Z" fill="#1B1F30"/>
<path d="M820.493 182.835C821.81 182.695 822.829 181.519 823.202 180.248C823.575 178.977 823.437 177.62 823.296 176.302C822.948 173.065 822.6 169.828 822.252 166.59C822.064 164.837 821.87 163.06 821.225 161.419C820.58 159.778 819.419 158.262 817.791 157.584C819.095 157.632 820.398 157.679 821.701 157.727C821.083 156.947 820.465 156.168 819.847 155.388C821.202 155.195 822.403 156.416 823.772 156.429C824.38 156.435 824.962 156.201 825.525 155.97C829.479 154.349 833.434 152.729 837.388 151.108C837.173 149.458 836.74 147.837 836.105 146.299C836.898 147.542 837.917 148.638 839.098 149.519C839.166 146.802 838.307 144.076 836.729 141.866C827.702 144.865 814.172 149.579 812.884 151.297C810.934 153.897 812.439 162.411 814.124 169.773C815.809 177.134 817.392 185.038 817.392 185.038C817.392 185.038 818.338 185.878 820.116 185.916C821.24 184.804 822.364 183.692 823.488 182.58C822.49 182.665 821.491 182.75 820.493 182.835Z" fill="#323859"/>
<path d="M844.808 139.24C844.808 139.24 841.361 140.328 836.73 141.866C838.308 144.077 839.167 146.802 839.099 149.52C837.918 148.639 836.899 147.542 836.106 146.3C836.741 147.838 837.174 149.459 837.389 151.108C833.434 152.729 829.48 154.35 825.525 155.971C824.962 156.201 824.381 156.436 823.772 156.43C822.403 156.416 821.203 155.196 819.847 155.389C820.465 156.168 821.083 156.948 821.701 157.727C820.398 157.68 819.095 157.632 817.792 157.585C819.42 158.263 820.581 159.779 821.226 161.42C821.87 163.061 822.064 164.838 822.253 166.591C822.601 169.828 822.949 173.066 823.297 176.303C823.438 177.62 823.576 178.978 823.203 180.249C822.829 181.519 821.811 182.696 820.494 182.836C821.492 182.751 822.491 182.666 823.49 182.581C822.366 183.693 821.242 184.805 820.118 185.917C821.403 185.945 823.122 185.555 825.235 184.123C825.235 184.123 824.098 164.298 823.773 160.236C823.773 160.236 842.121 154.386 844.809 153.248C847.498 152.111 852.005 140.063 852.005 140.063L844.808 139.24Z" fill="#23294D"/>
<path d="M900.373 259.685C910.201 259.685 918.169 251.717 918.169 241.889C918.169 232.06 910.201 224.092 900.373 224.092C890.544 224.092 882.576 232.06 882.576 241.889C882.576 251.717 890.544 259.685 900.373 259.685Z" stroke="black" stroke-width="6" stroke-miterlimit="10"/>
<path d="M900.372 243.707C901.376 243.707 902.19 242.893 902.19 241.889C902.19 240.884 901.376 240.07 900.372 240.07C899.368 240.07 898.554 240.884 898.554 241.889C898.554 242.893 899.368 243.707 900.372 243.707Z" fill="black"/>
<path d="M900.372 224.092V259.685" stroke="black" stroke-width="2" stroke-miterlimit="10"/>
<path d="M896.169 224.596L904.575 259.182" stroke="black" stroke-width="2" stroke-miterlimit="10"/>
<path d="M892.204 226.077L908.541 257.7" stroke="black" stroke-width="2" stroke-miterlimit="10"/>
<path d="M888.701 228.454L912.044 255.323" stroke="black" stroke-width="2" stroke-miterlimit="10"/>
<path d="M885.858 231.59L914.887 252.187" stroke="black" stroke-width="2" stroke-miterlimit="10"/>
<path d="M883.837 235.31L916.908 248.468" stroke="black" stroke-width="2" stroke-miterlimit="10"/>
<path d="M882.751 239.401L917.995 244.376" stroke="black" stroke-width="2" stroke-miterlimit="10"/>
<path d="M882.662 243.633L918.084 240.145" stroke="black" stroke-width="2" stroke-miterlimit="10"/>
<path d="M883.574 247.767L917.17 236.011" stroke="black" stroke-width="2" stroke-miterlimit="10"/>
<path d="M885.438 251.568L915.307 232.21" stroke="black" stroke-width="2" stroke-miterlimit="10"/>
<path d="M888.146 254.821L912.599 228.957" stroke="black" stroke-width="2" stroke-miterlimit="10"/>
<path d="M891.547 257.343L909.199 226.435" stroke="black" stroke-width="2" stroke-miterlimit="10"/>
<path d="M895.446 258.989L905.299 224.788" stroke="black" stroke-width="2" stroke-miterlimit="10"/>
<path d="M829.459 259.035C856.741 259.035 878.859 236.918 878.859 209.635C878.859 182.352 856.741 160.235 829.459 160.235C802.176 160.235 780.059 182.352 780.059 209.635C780.059 236.918 802.176 259.035 829.459 259.035Z" stroke="black" stroke-width="14" stroke-miterlimit="10"/>
<path d="M829.459 211.454C830.463 211.454 831.277 210.64 831.277 209.635C831.277 208.631 830.463 207.817 829.459 207.817C828.455 207.817 827.641 208.631 827.641 209.635C827.641 210.64 828.455 211.454 829.459 211.454Z" fill="black"/>
<path d="M829.459 160.235V258.99" stroke="black" stroke-width="2" stroke-miterlimit="10"/>
<path d="M822.145 160.78L836.766 258.446" stroke="black" stroke-width="2" stroke-miterlimit="10"/>
<path d="M837.23 160.851L821.694 258.376" stroke="black" stroke-width="2" stroke-miterlimit="10"/>
<path d="M844.808 162.681L814.124 256.547" stroke="black" stroke-width="2" stroke-miterlimit="10"/>
<path d="M852.003 165.68L806.935 253.551" stroke="black" stroke-width="2" stroke-miterlimit="10"/>
<path d="M858.637 169.774L800.307 249.461" stroke="black" stroke-width="2" stroke-miterlimit="10"/>
<path d="M864.544 174.86L794.404 244.379" stroke="black" stroke-width="2" stroke-miterlimit="10"/>
<path d="M869.579 180.812L789.376 238.431" stroke="black" stroke-width="2" stroke-miterlimit="10"/>
<path d="M873.613 187.483L785.345 231.767" stroke="black" stroke-width="2" stroke-miterlimit="10"/>
<path d="M876.548 194.705L782.412 224.552" stroke="black" stroke-width="2" stroke-miterlimit="10"/>
<path d="M878.311 202.299L780.651 216.965" stroke="black" stroke-width="2" stroke-miterlimit="10"/>
<path d="M878.857 210.075L780.106 209.196" stroke="black" stroke-width="2" stroke-miterlimit="10"/>
<path d="M878.173 217.841L780.79 201.438" stroke="black" stroke-width="2" stroke-miterlimit="10"/>
<path d="M876.275 225.402L782.686 193.884" stroke="black" stroke-width="2" stroke-miterlimit="10"/>
<path d="M873.212 232.571L785.746 186.722" stroke="black" stroke-width="2" stroke-miterlimit="10"/>
<path d="M869.059 239.168L789.895 180.13" stroke="black" stroke-width="2" stroke-miterlimit="10"/>
<path d="M863.92 245.03L795.028 174.274" stroke="black" stroke-width="2" stroke-miterlimit="10"/>
<path d="M857.923 250.011L801.021 169.298" stroke="black" stroke-width="2" stroke-miterlimit="10"/>
<path d="M851.217 253.986L807.721 165.326" stroke="black" stroke-width="2" stroke-miterlimit="10"/>
<path d="M843.969 256.856L814.961 162.458" stroke="black" stroke-width="2" stroke-miterlimit="10"/>
<path d="M827.641 137.377V154.71C827.641 154.71 844.708 153.06 864.775 167.71C891.859 187.483 884.007 240.386 901.91 242.381" stroke="black" stroke-width="5" stroke-miterlimit="10"/>
<path d="M827.641 151.798C827.641 151.798 836.918 149.918 850.143 154.101" stroke="black" stroke-width="5" stroke-miterlimit="10"/>
<path d="M830.436 206.1C830.436 206.1 829.123 211.007 826.516 212.22C823.91 213.433 817.962 213.801 817.318 214.942C816.673 216.082 816.502 217.256 818.546 217.657C820.59 218.058 828.605 217.895 828.995 217.827C829.386 217.759 832.196 216.171 832.196 216.171L832.012 218.178C832.012 218.178 835.966 218.577 837.952 217.453C837.952 217.453 838.112 211.362 836.289 209.383L835.702 204.826L830.436 206.1Z" fill="#1B1F30"/>
<path d="M851.935 157.834C850.319 153.448 847.286 149.601 843.411 146.99C839.458 154.158 828.498 174.365 828.931 177.298C829.459 180.873 827.641 208.682 827.641 208.682C827.641 208.682 828.172 209.133 829.185 209.574C830.655 209.507 832.196 209.582 833.613 209.31C834.076 209.221 834.649 208.9 834.515 208.449C833.485 208.171 832.455 207.893 831.425 207.615C832.488 207.789 833.574 207.244 834.29 206.438C835.006 205.633 835.409 204.6 835.723 203.569C837.243 198.578 836.984 193.25 837.238 188.039C837.491 182.828 838.402 177.342 841.762 173.351C842.851 172.058 844.159 170.971 845.372 169.792C847.775 167.457 850.105 164.204 851.984 160.324C851.269 158.808 850.156 157.502 849.057 156.227C850.121 156.538 851.113 157.091 851.935 157.834Z" fill="#323859"/>
<path d="M856.139 143.733L854.159 141.222L847.821 140.062L844.808 144.472C844.808 144.472 844.276 145.42 843.41 146.99C847.286 149.601 850.319 153.448 851.935 157.833C851.112 157.091 850.12 156.537 849.057 156.227C850.156 157.503 851.269 158.808 851.983 160.324C852.125 160.031 852.263 159.736 852.399 159.437C850.455 163.709 847.955 167.281 845.371 169.792C844.159 170.97 842.85 172.057 841.761 173.351C838.401 177.342 837.491 182.828 837.237 188.039C836.984 193.25 837.243 198.578 835.722 203.569C835.408 204.6 835.005 205.633 834.289 206.438C833.573 207.243 832.488 207.789 831.424 207.615C832.455 207.893 833.485 208.171 834.515 208.449C834.648 208.9 834.075 209.221 833.613 209.31C832.196 209.582 830.654 209.507 829.185 209.574C830.853 210.301 833.832 211 837.909 209.612C837.909 209.612 839.046 182.54 840.834 180.813C842.621 179.085 860.109 161.535 863.39 152.923L856.139 143.733ZM854.829 152.576C854.381 154.301 853.833 155.96 853.207 157.538C853.833 155.96 854.381 154.3 854.829 152.576ZM855.678 148.478C855.643 148.7 855.607 148.921 855.569 149.141C855.607 148.921 855.643 148.699 855.678 148.478ZM855.501 149.525C855.459 149.755 855.415 149.983 855.37 150.211C855.416 149.983 855.459 149.755 855.501 149.525ZM855.076 151.573C855.01 151.855 854.941 152.135 854.87 152.413C854.941 152.135 855.01 151.855 855.076 151.573ZM852.801 158.524C852.675 158.82 852.546 159.113 852.415 159.403C852.546 159.113 852.675 158.82 852.801 158.524ZM853.192 157.576C853.072 157.878 852.949 158.178 852.822 158.474C852.948 158.178 853.071 157.878 853.192 157.576Z" fill="#23294D"/>
<path d="M849.066 69.127C849.066 69.127 844.004 70.8602 843.433 72.1602C842.862 73.4602 842.566 75.5184 842.566 75.5184C842.566 75.5184 837.15 76.8184 834.658 76.1684C834.658 76.1684 835.677 79.2289 838.711 81.0704C838.711 81.0704 838.883 83.1016 838.883 84.0766C838.883 85.0516 837.15 87.4349 837.15 87.4349C837.15 87.4349 836.825 93.0681 840.075 94.0431C843.325 95.0181 846.25 96.3181 846.25 96.3181L846.358 100.868L856.921 99.7849C856.921 99.7849 856.921 94.396 857.571 92.7974C858.627 90.1974 860.658 88.0849 860.658 88.0849L864.125 84.9974V79.0931C864.125 79.0931 859.575 72.1599 859.25 72.1599C858.925 72.1599 849.066 69.127 849.066 69.127Z" fill="#FFCF99"/>
<path d="M846.35 82.3277C845.965 82.5773 845.605 82.875 845.327 83.2406C844.666 84.1113 844.535 85.3212 844.87 86.3622C845.204 87.4032 845.963 88.2758 846.877 88.8758C847.699 89.4149 848.652 89.751 849.63 89.8459C851.177 89.996 852.956 89.3623 853.509 87.9099C853.793 87.164 853.707 86.3177 853.435 85.5673C853.163 84.8168 852.718 84.1441 852.274 83.4808C852.037 83.1268 851.797 82.7706 851.493 82.4723C850.169 81.1752 847.906 81.3198 846.35 82.3277Z" fill="#FFAD73"/>
<path d="M840.545 80.0704C840.525 79.9641 840.475 79.8646 840.461 79.7574C840.435 79.5481 840.553 79.3508 840.665 79.1727C840.968 78.693 841.271 78.2136 841.574 77.7339C842.004 77.0534 842.443 76.3065 842.527 75.5278C842.056 75.6383 837.032 76.7879 834.658 76.1684C834.658 76.1684 835.675 79.2208 838.7 81.0632C839.055 80.9934 839.429 81.0164 839.784 80.9352C840.197 80.8403 840.62 80.4883 840.545 80.0704Z" fill="#FFAD73"/>
<path d="M824.502 134.397C824.502 134.397 820.033 137.044 822.633 138.189C825.233 139.334 830.433 139.412 832.575 139.002C833.194 138.883 836.121 137.729 836.121 137.729L835.06 136.169C835.06 136.169 833.253 136.683 830.58 136.886C828.23 137.064 827.169 136.844 826.519 136.387C825.869 135.93 827.64 134.922 827.64 134.922C827.64 134.922 826.858 133.91 824.502 134.397Z" fill="black"/>
<path d="M829.485 130.86C828.222 131.028 829.674 136.382 831.063 136.163C832.452 135.944 832.345 135.57 831.704 132.585C831.421 131.264 830.747 130.691 829.485 130.86Z" fill="#2E2719"/>
<path d="M828.158 136.65C828.158 136.65 829.209 134.568 830.216 134.922C831.224 135.276 832.013 133.949 832.574 133.55C833.136 133.152 832.574 130.831 832.574 130.831C832.574 130.831 828.421 131.906 827.639 131.933C826.858 131.96 822.85 132.465 822.633 135.734L824.258 134.922C824.258 134.922 825.341 135.001 826.1 134.727C826.1 134.727 824.396 136.473 828.158 136.65Z" fill="#FFCF99"/>
<path d="M829.485 130.831L841.592 127.194L844.3 132.677L831.063 136.163C831.063 136.163 833.196 133.71 829.485 130.831Z" fill="#54482F"/>
<path d="M860.333 143.742C861.227 140.167 860.008 136.649 860.008 136.649L858.343 137.445L858.816 107.044L847.696 102.02C847.696 102.02 839.079 106.448 839.1 133.152C839.102 135.665 839.275 138.225 839.949 140.656C839.95 140.657 839.95 140.658 839.95 140.66C841.581 141.118 843.722 141.901 846.453 143.227C850.019 144.96 853.151 147.092 854.811 148.401C857.319 148.624 859.563 146.822 860.333 143.742Z" fill="#C7AA6F"/>
<path d="M846.521 104.985C846.521 104.985 845.221 103.468 844.845 100.868C844.69 99.7963 844.845 97.2935 844.845 97.2935C844.845 97.2935 847.008 95.3435 848.308 95.1267C849.608 94.9099 856.975 94.0435 856.975 94.0435L857.625 102.06L846.521 104.985Z" fill="#730938"/>
<path d="M845.167 98.4311C845.167 98.4311 844.788 98.8104 845.059 99.5143C845.059 99.5143 853.075 95.6013 857.124 95.3569C857.124 95.3569 848.444 96.3862 845.167 98.4311Z" fill="#5C072D"/>
<path d="M845.627 102.02C845.627 102.02 845.342 101.613 845.302 101.085C845.302 101.085 852.817 97.338 855.255 96.4692C855.255 96.4692 847.292 100.557 845.627 102.02Z" fill="#5C072D"/>
<path d="M845.516 99.7243C848.531 97.7805 852.116 96.9709 855.426 95.5874C853.342 96.7434 851.214 97.8221 849.02 98.7523C847.898 99.2277 846.733 99.6701 845.516 99.7243Z" fill="#5C072D"/>
<path d="M854.267 96.6439C854.267 96.6439 860.486 94.9106 863.39 94.9106C868.856 94.9106 871.662 97.1385 873.171 97.1044C876.746 97.0231 881.539 95.2626 883.489 95.1544C883.489 95.1544 882.74 98.1606 883.932 100.869C883.932 100.869 881.388 102.382 876.502 102.386C871.139 102.389 869.693 99.3414 865.046 98.991C860.496 98.6481 855.566 100.677 855.566 100.677L854.267 96.6439Z" fill="#5C072D"/>
<path d="M875.745 99.7218C875.159 99.8986 874.553 100.052 873.943 100.005C873.26 99.9516 872.626 99.6509 871.985 99.4088C868.738 98.1806 865.079 98.4163 861.757 99.4257C859.534 100.101 857.125 101.109 854.993 100.188C854.992 100.004 854.991 99.819 854.99 99.6344C859.155 97.1081 863.805 95.385 868.61 94.5868C869.207 94.4877 869.829 94.4038 870.41 94.5744C870.979 94.7415 871.453 95.137 872.007 95.347C873.351 95.8559 874.822 95.1981 876.142 94.631C877.77 93.9313 879.45 93.3524 881.164 92.901C882.397 92.5763 883.667 92.316 884.94 92.3966C885.099 92.4067 885.274 92.4301 885.379 92.5497C885.485 92.6699 885.485 92.8467 885.48 93.0066C885.429 94.4844 885.379 95.9622 885.329 97.4403C882.036 97.074 878.917 98.7643 875.745 99.7218Z" fill="#730938"/>
<path d="M858.196 98.2725C861.312 97.0944 864.499 96.107 867.736 95.3169C868.451 95.1424 869.361 95.0465 869.775 95.6556C869.966 95.9367 870 96.3196 870.252 96.5477C870.485 96.7596 870.833 96.772 871.148 96.7645C872.486 96.733 873.819 96.5575 875.119 96.2416C873.969 97.1239 872.487 97.5627 871.042 97.4486C870.419 97.3995 869.765 97.2283 869.348 96.7635C869.172 96.5682 869.045 96.3274 868.839 96.1645C868.404 95.8207 867.778 95.9299 867.237 96.056C865.88 96.3732 864.521 96.6907 863.164 97.0079C860.809 97.5581 858.413 98.1246 856.334 99.3593C856.813 98.8136 857.516 98.5292 858.196 98.2725Z" fill="#5C072D"/>
<path d="M871.367 98.5495C869.862 98.4988 868.447 97.8228 866.954 97.6307C865.495 97.4428 864.021 97.723 862.577 98.0018C861.1 98.2869 859.624 98.5719 858.147 98.8569C860.52 98.1049 862.934 97.4848 865.375 96.9999C865.793 96.9167 866.224 96.8377 866.643 96.915C867.077 96.995 867.46 97.2355 867.857 97.4285C869.24 98.1023 870.846 98.2134 872.369 97.9986C873.893 97.7834 875.354 97.2599 876.791 96.71C875.099 97.6486 873.3 98.6148 871.367 98.5495Z" fill="#5C072D"/>
<path d="M860.334 127.194C861.232 125.996 862.044 124.598 862.762 123.165C862.957 113.962 862.802 102.074 858.167 99.6768C858.167 99.6768 858.059 97.5101 858.6 96.7518C859.142 95.9936 860.658 94.4768 860.225 94.0436C859.792 93.6104 856.975 94.0436 856.975 94.0436C856.975 94.0436 850.15 97.9436 846.521 103.685C842.892 109.427 839.533 123.619 839.967 129.685C840.113 131.74 840.348 133.552 840.684 135.097C846.192 133.861 857.533 130.928 860.334 127.194Z" fill="#54482F"/>
<path d="M848.065 103.937C848.065 103.937 851.724 96.8599 856.976 95.1536C859.231 94.4207 859.471 94.9099 859.471 94.9099C859.471 94.9099 857.095 96.4266 857.42 99.5141C857.42 99.5141 852.642 100.381 848.065 103.937Z" fill="#473D26"/>
<path d="M840.133 131.561C843.116 131.029 847.196 130.019 850.08 129.091C851.795 128.538 853.581 127.753 854.516 126.213C855.146 125.175 855.304 123.927 855.415 122.719C855.927 117.166 855.749 111.551 854.886 106.042C854.859 105.872 854.83 105.698 854.743 105.549C854.501 105.132 853.877 105.082 853.462 105.328C853.047 105.573 852.8 106.021 852.601 106.46C851.427 109.055 851.29 112.001 851.472 114.843C851.654 117.686 852.136 120.512 852.124 123.361C852.122 123.733 852.107 124.124 851.911 124.44C851.656 124.85 851.164 125.033 850.706 125.185C847.325 126.308 843.424 128.049 839.931 128.752C839.858 129.969 840.025 130.472 840.133 131.561Z" fill="#473D26"/>
<path d="M869.059 158.61C869.059 158.61 878.208 166.085 887.525 159.043C887.525 159.043 874.525 159.585 868.458 151.026C862.918 143.211 862.708 139.82 862.631 133.352C858.799 137.122 848.741 139.588 843.741 140.62C843.817 140.659 843.891 140.703 843.969 140.735C846.358 141.71 851.045 143.698 852.345 146.623C853.645 149.548 861.85 164.351 867.808 167.818C873.767 171.285 882.217 171.501 882.217 171.501C882.217 171.501 871.718 168.577 869.059 158.61Z" fill="#54482F"/>
<path d="M864.632 158.059C863.444 155.528 862.645 152.779 860.996 150.52C860.953 151.239 859.994 151.575 859.323 151.316C858.651 151.057 858.195 150.445 857.697 149.924C857.199 149.404 856.523 148.926 855.816 149.065C857.523 151.97 858.82 155.099 860.482 158.03C862.144 160.961 864.242 163.754 867.118 165.509C868.723 166.488 870.518 167.111 872.318 167.656C869.047 165.122 866.39 161.804 864.632 158.059Z" fill="#473D26"/>
<path d="M865.838 153.04C868.656 157.882 874.336 160.904 879.927 160.537C874.683 159.889 869.854 156.505 867.453 151.797C866.915 152.211 866.376 152.625 865.838 153.04Z" fill="#473D26"/>
<path d="M862.608 131.418C862.58 129.372 862.693 126.438 862.762 123.165C862.044 124.598 861.231 125.996 860.333 127.193C857.533 130.928 846.192 133.861 840.685 135.097C841.308 137.963 842.289 139.883 843.741 140.62C848.741 139.588 858.799 137.122 862.631 133.352C862.624 132.737 862.618 132.096 862.608 131.418Z" fill="#473D26"/>
<path d="M838.343 130.877C836.311 131.147 837.696 139.354 839.93 139.002C842.164 138.65 842.944 138.454 841.913 133.652C841.458 131.527 840.374 130.606 838.343 130.877Z" fill="#2E2719"/>
<path d="M840.932 131.933C840.932 131.933 839.513 132.162 838.917 132.116C838.322 132.071 835.437 131.979 834.339 132.483C833.24 132.986 831.408 134.177 831.225 135.276C831.042 136.375 830.538 138.115 831.729 138.573C831.729 138.573 831.389 141.173 833.724 141.173C833.724 141.173 834.567 142.19 835.712 141.411C835.712 141.411 836.719 142.373 837.543 141.411C838.368 140.45 836.994 139.671 837.04 138.939C837.085 138.206 837.543 137.611 838.276 137.428C839.009 137.245 841.023 137.794 841.985 136.558C841.985 136.558 842.473 132.777 840.932 131.933Z" fill="#FFCF99"/>
<path d="M831.728 138.572C831.728 138.572 831.667 138.294 831.664 137.869C831.66 137.657 831.674 137.409 831.709 137.145C831.733 137.014 831.744 136.876 831.782 136.74C831.814 136.603 831.85 136.464 831.896 136.328C831.939 136.191 831.999 136.058 832.057 135.928C832.107 135.795 832.196 135.68 832.261 135.561C832.334 135.446 832.426 135.347 832.503 135.25C832.594 135.161 832.685 135.084 832.767 135.013C832.859 134.951 832.948 134.904 833.024 134.86C833.096 134.81 833.178 134.801 833.236 134.779C833.356 134.742 833.423 134.726 833.423 134.726C833.423 134.726 833.365 134.766 833.264 134.837C833.216 134.874 833.149 134.902 833.092 134.964C833.032 135.02 832.965 135.083 832.892 135.152C832.83 135.23 832.762 135.314 832.691 135.403C832.633 135.502 832.566 135.6 832.506 135.709C832.454 135.823 832.389 135.932 832.343 136.056C832.293 136.178 832.241 136.301 832.204 136.431C832.111 136.683 832.052 136.949 831.99 137.196C831.933 137.445 831.886 137.681 831.849 137.885C831.777 138.297 831.728 138.572 831.728 138.572Z" fill="#CF9F6B"/>
<path d="M833.724 141.172C833.724 141.172 833.676 141.094 833.608 140.949C833.541 140.804 833.446 140.594 833.357 140.333C833.271 140.072 833.182 139.761 833.127 139.419C833.096 139.248 833.071 139.07 833.06 138.887C833.039 138.706 833.049 138.518 833.045 138.332C833.054 138.146 833.076 137.959 833.098 137.777C833.137 137.596 833.166 137.416 833.225 137.249C833.288 137.084 833.328 136.917 833.414 136.778C833.494 136.637 833.553 136.496 833.644 136.387C833.729 136.275 833.811 136.176 833.883 136.09C833.961 136.009 834.04 135.948 834.1 135.894C834.221 135.789 834.293 135.733 834.293 135.733C834.293 135.733 834.24 135.811 834.146 135.937C834.1 136.001 834.037 136.073 833.979 136.165C833.928 136.262 833.87 136.37 833.804 136.484C833.735 136.596 833.699 136.739 833.637 136.874C833.57 137.009 833.553 137.172 833.5 137.326C833.453 137.482 833.446 137.654 833.408 137.822C833.392 137.993 833.375 138.168 833.369 138.343C833.37 138.519 833.356 138.695 833.373 138.869C833.381 139.043 833.388 139.214 833.409 139.38C833.44 139.712 833.493 140.02 833.537 140.287C833.589 140.551 833.627 140.775 833.667 140.928C833.703 141.084 833.724 141.172 833.724 141.172Z" fill="#CF9F6B"/>
<path d="M835.712 141.411C835.712 141.411 835.531 141.165 835.345 140.749C835.298 140.646 835.251 140.531 835.205 140.409C835.165 140.285 835.112 140.156 835.079 140.017C835 139.742 834.944 139.439 834.917 139.131C834.898 138.978 834.911 138.821 834.907 138.67C834.911 138.517 834.938 138.367 834.955 138.222C834.989 138.079 835.019 137.941 835.064 137.815C835.116 137.69 835.163 137.572 835.218 137.469C835.281 137.37 835.341 137.282 835.394 137.205C835.446 137.127 835.515 137.077 835.56 137.028C835.657 136.937 835.712 136.886 835.712 136.886C835.712 136.886 835.675 136.952 835.611 137.067C835.581 137.126 835.532 137.187 835.5 137.271C835.467 137.354 835.431 137.447 835.388 137.545C835.355 137.649 835.332 137.765 835.297 137.881C835.271 138.001 835.262 138.132 835.237 138.262C835.232 138.396 835.226 138.535 835.22 138.676C835.228 138.818 835.219 138.961 835.241 139.105C835.258 139.393 835.308 139.681 835.357 139.951C835.408 140.221 835.467 140.472 835.52 140.688C835.63 141.119 835.712 141.411 835.712 141.411Z" fill="#CF9F6B"/>
<path d="M852.642 110.294C852.642 110.294 853.4 116.36 853.509 118.744C853.617 121.127 852.642 125.46 852.642 125.46C852.642 125.46 839.534 129.794 838.342 130.877C838.342 130.877 840.041 130.619 840.725 133.531C841.33 136.109 841.624 139.002 839.929 139.002C839.929 139.002 858.383 135.776 861.525 132.677C864.667 129.577 863.258 110.402 861.525 106.394C861.525 106.394 853.617 98.8101 852.642 110.294Z" fill="#54482F"/>
<path d="M843.092 77.2303C843.092 77.2303 844.048 76.7554 844.943 76.1708C845.39 75.8792 845.819 75.5588 846.105 75.279C846.177 75.2097 846.243 75.1454 846.293 75.081C846.343 75.0177 846.396 74.9679 846.423 74.9159C846.486 74.8168 846.522 74.7603 846.522 74.7603C846.522 74.7603 846.49 74.8197 846.435 74.9234C846.411 74.9783 846.363 75.0316 846.316 75.0996C846.271 75.1685 846.21 75.2383 846.142 75.3137C845.874 75.6186 845.466 75.9751 845.037 76.3034C844.18 76.9612 843.248 77.5153 843.248 77.5153C843.171 77.5614 843.072 77.5367 843.025 77.4597C842.979 77.3827 843.004 77.2829 843.081 77.2364C843.084 77.2345 843.089 77.2322 843.092 77.2303Z" fill="#BD703F"/>
<path d="M843.188 76.5008C843.188 76.5008 843.185 76.5197 843.184 76.5158C843.182 76.5197 843.177 76.5476 843.179 76.5811C843.178 76.6487 843.187 76.7605 843.23 76.898C843.271 77.0348 843.336 77.1983 843.434 77.3653C843.479 77.4508 843.536 77.535 843.595 77.6205C843.65 77.7085 843.721 77.7885 843.785 77.874C843.849 77.9601 843.926 78.0358 843.995 78.1167C844.064 78.1983 844.142 78.2692 844.214 78.342C844.356 78.4898 844.506 78.6101 844.628 78.7212C844.754 78.8285 844.864 78.911 844.939 78.9721C845.015 79.0323 845.058 79.067 845.058 79.067C845.058 79.067 845.01 79.041 844.924 78.9959C844.839 78.9494 844.714 78.888 844.57 78.8044C844.428 78.7167 844.255 78.6237 844.084 78.5012C843.998 78.4411 843.905 78.3832 843.818 78.313C843.731 78.2432 843.637 78.1795 843.553 78.1015C843.205 77.806 842.891 77.4466 842.723 77.1053C842.635 76.9383 842.586 76.7777 842.561 76.6546C842.548 76.5925 842.544 76.5441 842.542 76.4966C842.542 76.4547 842.542 76.4323 842.542 76.4323C842.542 76.2519 842.689 76.106 842.869 76.106C843.049 76.106 843.195 76.2525 843.195 76.4329C843.195 76.4488 843.194 76.4641 843.192 76.4794L843.188 76.5008Z" fill="#8F552F"/>
<path d="M838.289 85.6526C838.289 85.6526 837.612 87.8025 840.103 88.1275C842.595 88.4525 843.759 86.8398 843.759 86.8398C843.759 86.8398 843.759 89.2773 846.467 88.8441C849.175 88.4109 855.35 82.2359 855.35 82.2359C855.35 82.2359 852.75 78.0109 856.433 73.8941C856.433 73.8941 848.294 75.1515 846.893 70.298C845.492 65.4444 848.092 63.1691 851.883 63.2776C851.883 63.2776 850.367 64.2526 851.342 65.9859C851.342 65.9859 853.075 63.8191 855.783 64.3609C855.783 64.3609 854.267 66.9609 856.433 67.9359C858.6 68.9109 865.1 67.1776 867.7 73.1359C870.3 79.0941 867.7 79.7441 867.7 79.7441C867.7 79.7441 869.758 86.6724 862.283 88.8958C862.283 88.8958 861.633 89.7109 862.825 91.1191C862.825 91.1191 861.186 91.1269 860.658 89.9273C860.658 89.9273 860.442 91.6605 861.633 92.9605C860.91 92.8728 860.176 92.6706 859.509 92.3807C859.008 92.1627 858.508 91.8747 858.152 91.4509C857.747 90.9689 857.692 90.279 857.552 89.6858C857.332 88.7576 857.088 87.8418 856.975 86.8938C856.975 86.8938 851.125 97.2938 844.083 99.352C837.042 101.41 832.925 101.085 830.867 98.2688C828.808 95.452 829.458 94.477 830.217 94.0438C830.975 93.6105 833.988 93.177 834.648 90.7938C835.309 88.4102 837.263 85.7849 838.289 85.6526Z" fill="#BD703F"/>
<path d="M845.443 94.7262C845.64 94.3726 845.803 93.9202 845.581 93.5822C845.09 93.5247 844.68 93.9546 844.198 94.0622C843.585 94.1987 842.958 93.7713 842.658 93.2195C842.358 92.6676 842.31 92.0186 842.269 91.392C841.766 92.0768 841.191 92.8097 840.362 92.9952C839.372 93.2166 838.358 92.5334 837.866 91.6465C837.373 90.7596 837.283 89.7127 837.203 88.7017C836.219 89.1011 836.083 90.3949 835.758 91.406C835.318 92.7742 834.245 93.9244 832.911 94.4584C832.097 94.7844 831.002 95.1266 830.997 96.0038C830.995 96.2852 831.125 96.5517 831.283 96.7847C832.004 97.8511 833.298 98.3737 834.552 98.6639C836.571 99.1309 838.719 99.1433 840.689 98.5024C842.659 97.8615 844.435 96.5361 845.443 94.7262Z" fill="#BD5B1C"/>
<path d="M857.334 74.7057C856.896 75.4285 856.524 76.2104 856.414 77.0486C856.305 77.8868 856.487 78.7919 857.047 79.425C857.667 80.1267 858.679 80.4016 859.607 80.2749C860.535 80.1481 861.384 79.6639 862.097 79.0574C861.587 79.5245 860.759 79.5193 860.165 79.166C859.57 78.8127 859.188 78.1783 858.984 77.5176C858.779 76.8569 858.731 76.1601 858.656 75.4727C858.62 75.1331 858.573 74.785 858.407 74.4863C858.241 74.1876 857.927 73.9471 857.586 73.967C857.474 74.0108 857.501 74.173 857.498 74.2939C857.494 74.4434 857.412 74.578 857.334 74.7057Z" fill="#BD5B1C"/>
<path d="M849.179 64.5151C848.364 65.4134 848.179 66.7173 848.206 67.9302C848.217 68.4411 848.264 68.9676 848.498 69.4217C848.949 70.2927 849.965 70.6911 850.914 70.941C852.075 71.2469 853.385 71.4188 854.418 70.8042C853.632 70.827 852.822 70.8455 852.091 70.5575C851.35 70.266 850.753 69.6758 850.341 68.9943C849.93 68.3128 849.691 67.5409 849.515 66.7645C849.348 66.0244 849.236 65.2721 849.179 64.5151Z" fill="#BD5B1C"/>
<path d="M853.275 65.3706C852.538 66.0577 851.924 67.0619 852.199 68.0314C852.365 68.6183 852.84 69.0828 853.387 69.3515C853.934 69.6206 854.55 69.7155 855.159 69.7565C853.841 68.7438 853.102 67.0239 853.275 65.3706Z" fill="#BD5B1C"/>
<path d="M863.015 78.2302C862.439 78.2562 861.964 77.758 861.739 77.2279C861.513 76.6975 861.452 76.1086 861.226 75.5788C860.934 74.8947 860.361 74.3357 859.67 74.0598C859.287 73.907 858.826 73.8476 858.481 74.0747C859.076 74.2346 859.44 74.8372 859.621 75.4254C859.802 76.0137 859.867 76.6455 860.161 77.1863C860.689 78.1587 861.984 78.6322 863.015 78.2302Z" fill="#BD5B1C"/>
<path d="M863.967 78.3837C864.626 77.6713 865.033 76.7119 865.003 75.7424C864.973 74.7729 864.48 73.8106 863.664 73.2864C862.848 72.7622 861.721 72.7274 860.915 73.2666C861.962 73.4827 862.803 74.3134 863.271 75.2741C863.74 76.2348 863.886 77.318 863.967 78.3837Z" fill="#BD5B1C"/>
<path d="M867.648 75.907C867.607 74.8692 867.253 73.8149 866.52 73.0795C865.787 72.344 864.642 71.9858 863.663 72.3336C864.393 72.2686 864.972 72.9212 865.363 73.541C865.8 74.2335 866.176 74.9765 866.354 75.7757C866.532 76.5748 866.501 77.438 866.155 78.18C866.663 78.1842 867.128 77.8339 867.371 77.3877C867.615 76.9414 867.668 76.4149 867.648 75.907Z" fill="#BD5B1C"/>
<path d="M850.406 72.1597C851.86 72.8932 853.564 73.1181 855.158 72.787C855.532 72.7093 855.908 72.6014 856.289 72.6241C856.67 72.6472 857.071 72.8348 857.219 73.1867C857.373 72.4776 856.864 71.6927 856.154 71.5442C855.641 71.4369 855.12 71.6261 854.618 71.7762C853.258 72.1821 851.817 72.3134 850.406 72.1597Z" fill="#BD5B1C"/>
<path d="M858.817 73.0107C859.448 72.6636 859.761 71.8498 859.575 71.1536C859.39 70.4575 858.752 69.9206 858.041 69.7994C857.331 69.6785 856.579 69.9524 856.069 70.4617C856.739 70.2557 857.485 70.5894 857.947 71.1172C858.408 71.6454 858.637 72.3331 858.817 73.0107Z" fill="#BD5B1C"/>
<path d="M862.486 70.1449C862.321 69.983 862.083 69.9255 861.857 69.8816C861.11 69.7367 860.349 69.6629 859.588 69.6616C860.174 69.7373 860.721 70.0721 861.056 70.5593C861.39 71.0461 861.505 71.6776 861.366 72.2515C862.052 72.1644 862.636 71.5596 862.7 70.8709C862.724 70.6109 862.672 70.3279 862.486 70.1449Z" fill="#BD5B1C"/>
<path d="M862.22 81.1896C862.705 81.3316 863.078 81.7418 863.283 82.2039C863.488 82.6661 863.548 83.1786 863.579 83.6833C863.615 84.2621 863.613 84.8663 863.367 85.3915C862.804 86.5914 861.193 86.9778 860.552 88.1378C860.814 87.7101 861.305 87.4904 861.759 87.2762C862.508 86.9226 863.252 86.5046 863.784 85.8689C864.325 85.2212 864.608 84.3863 864.701 83.5471C864.784 82.797 864.702 81.9767 864.215 81.4005C863.728 80.8243 862.74 80.6429 862.22 81.1896Z" fill="#BD5B1C"/>
<path d="M865.067 80.9757C865.996 82.3296 866.048 84.2315 865.194 85.6339C864.736 86.3869 864.06 86.9781 863.395 87.5563C864.788 86.4549 866.234 85.2075 866.688 83.4899C866.821 82.9874 866.861 82.4635 866.846 81.9439C866.829 81.393 866.731 80.8008 866.34 80.4128C865.837 79.9142 864.904 79.9627 864.455 80.5109C864.718 80.5366 864.917 80.7573 865.067 80.9757Z" fill="#BD5B1C"/>
<path d="M859.366 91.1183C859.536 91.286 859.763 91.4351 859.997 91.3887C859.687 90.8862 859.612 90.2778 859.561 89.6896C859.504 89.0347 859.469 88.3779 859.456 87.7207C858.981 88.1422 858.691 88.7653 858.674 89.4C858.657 90.0347 858.914 90.672 859.366 91.1183Z" fill="#BD5B1C"/>
<path d="M861.348 87.8794C860.747 88.5034 860.883 89.6705 861.612 90.1391C861.528 89.4257 861.443 88.712 861.359 87.9987" fill="#BD5B1C"/>
<path d="M849.517 91.0952C849.884 92.8369 849.363 94.7424 848.16 96.0537C846.956 97.3651 845.103 98.0489 843.336 97.8328C844.823 96.8753 846.122 95.6517 847.33 94.3595C848.231 93.3946 849.108 92.3513 849.517 91.0952Z" fill="#BD5B1C"/>
<path d="M850.226 88.3071C849.344 89.1099 848.418 89.9006 847.316 90.3566C846.214 90.8126 844.893 90.8889 843.865 90.2841C843.529 90.5997 843.496 91.1597 843.73 91.5568C843.963 91.954 844.414 92.1919 844.871 92.2468C845.329 92.3017 845.792 92.1935 846.221 92.0251C847.941 91.3508 849.129 89.793 850.226 88.3071Z" fill="#BD5B1C"/>
<path d="M838.071 84.0229C838.071 84.0229 837.746 81.9104 838.559 81.5041C839.371 81.0979 840.671 81.2272 841.24 81.975C841.809 82.7229 842.784 85.2416 843.921 85.4041C845.059 85.5666 846.602 85.8104 846.927 84.4291C846.927 84.4291 847.334 86.2166 844.815 86.1354C842.296 86.0541 838.721 84.5916 838.071 84.0229Z" fill="#BD703F"/>
<path d="M842.357 88.9028C841.113 89.8443 839.218 89.7949 838.025 88.79C838.229 89.7384 838.898 90.7079 839.866 90.7813C840.412 90.8229 840.946 90.5639 841.354 90.1979C841.761 89.8317 842.062 89.364 842.357 88.9028Z" fill="#BD5B1C"/>
<path d="M856.177 83.5405C855.678 85.3589 855.097 87.1679 854.205 88.8296C853.315 90.4913 852.096 92.01 850.516 93.0393C850.562 92.2843 850.43 91.5193 850.132 90.8241C850.785 90.5615 851.229 89.9239 851.433 89.2498C851.638 88.5758 851.636 87.8591 851.633 87.1549C853.437 86.3898 855.026 85.1259 856.177 83.5405Z" fill="#BD5B1C"/>
<path d="M859.036 81.2395C857.985 81.246 856.969 80.7078 856.291 79.9047C855.613 79.1016 855.257 78.0574 855.182 77.0093C854.845 77.8442 854.957 78.7981 855.234 79.6548C855.433 80.2697 855.743 80.8901 856.291 81.2317C857.092 81.7299 858.127 81.4923 859.036 81.2395Z" fill="#BD5B1C"/>
<path d="M838.884 82.0762C838.589 82.4983 838.681 83.1422 839.082 83.4649C839.415 83.733 839.899 83.7831 840.188 84.098C839.826 83.9098 839.709 83.4603 839.611 83.0648C839.513 82.6693 839.345 82.2214 838.957 82.0989" fill="#BD5B1C"/>
<path d="M839.976 82.376C840.14 82.7868 840.305 83.1976 840.47 83.6081C840.571 83.8597 840.676 84.1167 840.858 84.3173C841.04 84.5178 841.318 84.6533 841.582 84.5909C841.196 84.2623 841.145 83.6991 841.001 83.2129C840.856 82.7267 840.436 82.2048 839.946 82.338" fill="#BD5B1C"/>
<path d="M858.465 82.3976C858.465 82.3976 860.496 81.0163 861.471 82.3976C862.446 83.7788 861.796 85.1656 861.065 86.1377C860.334 87.1098 859.061 88.2203 856.976 86.8933C856.976 86.8933 858.14 84.9976 858.465 82.3976Z" fill="#FFCF99"/>
<path d="M860.048 83.2461C859.807 83.0667 859.341 82.7797 859.313 82.8369C859.46 82.5324 859.88 82.4394 860.193 82.5678C860.505 82.6962 860.722 82.9871 860.874 83.2893C861.149 83.8379 861.26 84.4788 861.124 85.0775C860.988 85.6761 860.591 86.2228 860.036 86.486C859.741 86.6264 859.413 86.6843 859.088 86.7259C858.837 86.758 858.543 86.7658 858.376 86.5757C858.241 86.4223 858.241 86.1922 858.286 85.993C858.436 85.3271 859.041 84.7895 859.72 84.7183C859.456 84.8558 859.262 85.121 859.211 85.4148C859.204 85.4548 859.2 85.498 859.219 85.5341C859.24 85.5744 859.284 85.5971 859.327 85.6127C859.827 85.796 860.205 85.393 860.265 84.9195C860.316 84.5149 860.312 84.0046 860.257 83.6016C860.246 83.5207 860.228 83.4391 860.187 83.368C860.174 83.3462 860.122 83.3013 860.048 83.2461Z" fill="#FFAD73"/>
<path d="M889.376 59.3105C881.955 66.9282 880.348 78.1251 880.348 78.1251C882.031 78.2941 883.693 78.6071 885.307 79.014C885.918 70.7232 888.334 65.8362 892.581 61.4874C890.658 60.2277 889.376 59.3105 889.376 59.3105Z" fill="#730938"/>
<path d="M907.095 68.6711C903.217 68.1293 896.538 64.0795 892.581 61.4873C888.334 65.8358 885.919 70.7232 885.308 79.0139C894.938 81.4397 902.829 87.3086 902.829 87.3086C910.863 77.1575 907.095 68.6711 907.095 68.6711Z" fill="#473D26"/>
<path d="M893.351 55.7168C893.351 55.7168 886.196 59.037 883.272 68.5809C880.348 78.1249 881.467 85.0321 881.467 85.0321" stroke="#473D26" stroke-width="9" stroke-miterlimit="10" stroke-linecap="round"/>
</svg>
