<svg width="1561" height="272" viewBox="0 0 1561 272" fill="none" xmlns="http://www.w3.org/2000/svg">
<path d="M212.782 237.243C212.782 237.243 141.404 117.158 212.782 37.608C254.835 -9.25928 332.872 -10.3883 382.303 23.5001C450.921 70.5422 410.382 215.809 386.142 231.244L212.782 237.243Z" fill="#599EA8"/>
<path d="M249.613 226.528C249.613 226.528 175.844 118.498 236.209 53.5052C269.722 17.4228 360.385 28.6873 382.303 62.2536C420.302 120.447 368.636 205.903 355.178 217.923L249.613 226.528Z" fill="#397D87"/>
<path opacity="0.5" d="M1479.98 142.595C1491.29 145.733 1500.78 153.966 1497.53 172.925C1494.28 191.883 1476.89 189.005 1467.71 186.544C1458.53 184.083 1445.82 173.683 1450.97 157.605C1455.61 143.082 1469.77 139.766 1479.98 142.595Z" fill="white"/>
<path opacity="0.5" d="M1478.68 147.418C1487.57 149.881 1495.01 156.342 1492.46 171.219C1489.91 186.097 1476.26 183.838 1469.06 181.907C1461.85 179.976 1451.88 171.814 1455.92 159.197C1459.57 147.801 1470.68 145.198 1478.68 147.418Z" fill="white"/>
<path d="M1459.61 209.657C1459.61 209.657 1462.86 208.475 1466.32 210.409L1457.22 252.187C1457.22 252.187 1453.32 252.777 1449.42 249.46L1459.61 209.657Z" fill="#13353A"/>
<path d="M1461.56 211.536C1461.56 211.536 1468.71 177.995 1469.36 175.236H1471.31C1471.31 175.236 1464.37 209.093 1463.94 212.777L1461.56 211.536Z" fill="#13353A"/>
<path d="M1466.9 174.101L1472.08 174.837L1473.98 176.527L1481.33 163.281L1476.42 153.938L1468.11 157.934L1466.9 174.101Z" fill="white" stroke="#13353A" stroke-width="2" stroke-miterlimit="10"/>
<path d="M1468.11 157.934L1476.74 159.378L1481.33 163.281" stroke="#13353A" stroke-width="2" stroke-miterlimit="10"/>
<path d="M1472.08 174.837L1476.74 159.378L1476.42 153.938" stroke="#13353A" stroke-width="2" stroke-miterlimit="10"/>
<path d="M1466.72 174.288L1470.44 176.001L1473.98 176.713L1472.08 174.837L1466.72 174.288Z" fill="#13353A"/>
<path d="M1469.12 181.852C1468.92 180.237 1469.88 178.543 1471.38 177.893C1472.87 177.242 1474.76 177.689 1475.81 178.938C1476.16 179.352 1476.41 179.837 1476.62 180.336C1477.05 181.37 1477.28 182.576 1476.81 183.594C1476.34 184.618 1475.15 185.26 1474.04 185.095C1472.92 184.929 1471.97 183.969 1471.82 182.852C1471.77 182.455 1471.81 182.029 1472.03 181.697C1472.25 181.377 1472.6 181.178 1472.97 181.07C1473.54 180.906 1474.24 180.978 1474.58 181.454C1474.92 181.929 1474.56 182.79 1473.98 182.696" stroke="#13353A" stroke-width="2" stroke-miterlimit="10" stroke-linecap="round"/>
<path d="M1468.22 183.928C1468.32 183.103 1468.41 182.279 1468.5 181.455C1468.69 179.801 1468.77 177.859 1467.51 176.772C1466.47 175.871 1464.75 176.001 1463.73 176.929C1462.71 177.858 1462.38 179.416 1462.77 180.74C1462.96 181.363 1463.3 181.959 1463.82 182.344C1464.35 182.729 1465.07 182.871 1465.66 182.608C1466.26 182.344 1466.65 181.633 1466.46 181.012C1466.27 180.39 1465.44 180.029 1464.9 180.385" stroke="#13353A" stroke-width="2" stroke-miterlimit="10" stroke-linecap="round"/>
<path d="M1452.91 249.95L1457.56 230.827C1457.6 230.653 1457.77 230.546 1457.95 230.588C1458.12 230.63 1458.23 230.804 1458.19 230.977L1453.76 250.15C1453.7 250.383 1453.47 250.529 1453.24 250.475C1453 250.421 1452.86 250.188 1452.91 249.955C1452.91 249.954 1452.91 249.951 1452.91 249.95Z" fill="#0E282C"/>
<path d="M1451 248.875L1455.64 229.752C1455.68 229.577 1455.86 229.47 1456.03 229.513C1456.21 229.555 1456.31 229.728 1456.27 229.902L1451.84 249.075C1451.79 249.308 1451.56 249.453 1451.32 249.399C1451.09 249.345 1450.94 249.113 1451 248.879C1451 248.879 1451 248.876 1451 248.875Z" fill="#0E282C"/>
<path d="M1455.43 250.133L1459.98 230.693C1460.02 230.519 1460.2 230.41 1460.37 230.451C1460.55 230.491 1460.65 230.661 1460.62 230.833L1456.58 250.387C1456.52 250.707 1456.2 250.912 1455.88 250.846C1455.56 250.78 1455.36 250.468 1455.42 250.148C1455.43 250.144 1455.43 250.137 1455.43 250.133Z" fill="#0E282C"/>
<path d="M1452.83 151.831C1452.83 151.831 1457.36 156.651 1450.19 168.639C1450.19 168.639 1445 160.548 1452.83 151.831Z" fill="#BD5B1C"/>
<path d="M1509.67 181.888C1509.67 181.888 1509.98 187.655 1501.15 193.025C1501.15 193.025 1501.89 184.526 1509.67 181.888Z" fill="#BD5B1C"/>
<path d="M1454.97 122.947C1454.97 122.947 1458.11 126.847 1454.97 131.614C1451.83 136.381 1442.19 134.972 1442.19 134.972C1442.19 134.972 1452.8 128.689 1454.97 122.947Z" fill="#BD703F"/>
<path d="M1436.99 133.269C1436.99 133.269 1440.89 136.235 1445.87 132.408C1450.85 128.58 1454.54 122.297 1454.97 122.947C1455.4 123.597 1456.52 129.556 1452.8 132.408C1448.58 135.647 1442.4 137.957 1436.99 133.269Z" fill="#BD5B1C"/>
<path d="M1499.9 199.489C1499.9 199.489 1498.99 203.642 1494.16 204.099C1489.34 204.556 1485.14 197.427 1485.14 197.427C1485.14 197.427 1494.95 201.109 1499.9 199.489Z" fill="#BD703F"/>
<path d="M1483.5 193.08C1483.5 193.08 1483.61 197.238 1488.8 198.5C1493.98 199.761 1500.1 198.856 1499.9 199.489C1499.7 200.121 1496.35 204.032 1492.49 203.088C1488.09 202.016 1483.28 199.158 1483.5 193.08Z" fill="#BD5B1C"/>
<path d="M1476.03 133.99C1476.03 133.99 1478.69 141.253 1475.1 144.828C1471.51 148.403 1466.09 145.362 1466.09 145.362C1466.09 145.362 1476.22 143.518 1476.03 133.99Z" fill="#BD703F"/>
<path d="M1465.63 145.362C1465.63 145.362 1475.06 141.241 1476.1 133.556C1476.1 133.556 1478.83 148.603 1465.63 145.362Z" fill="#BD5B1C"/>
<path d="M1439.04 187.108C1439.04 187.108 1433.19 186.792 1431.78 183.231C1430.36 179.67 1434.09 176.809 1434.09 176.809C1434.09 176.809 1432.35 184.402 1439.04 187.108Z" fill="#BD703F"/>
<path d="M1434.23 176.491C1434.23 176.491 1434.28 184.273 1439.32 187.286C1439.32 187.286 1428.04 184.7 1434.23 176.491Z" fill="#BD5B1C"/>
<path d="M1424.76 163.049C1424.76 163.049 1426.12 156.717 1432.29 152.817C1432.29 152.817 1435.11 161.744 1424.76 163.049Z" fill="#BD703F"/>
<path d="M1424.76 163.049C1424.76 163.049 1424.22 156.284 1432.29 152.817C1432.29 152.817 1430.29 161.798 1424.76 163.049Z" fill="#BD5B1C"/>
<path d="M81.0586 249.383V267.546L1521.06 269V261.655C1144.26 163.477 404.059 212.566 81.0586 249.383Z" fill="#69826E"/>
<path d="M831.233 218.77C831.233 218.77 829.89 218.753 827.537 218.724C825.184 218.696 821.83 218.642 817.772 218.64C809.668 218.607 798.863 218.565 788.059 218.522C777.288 218.438 766.365 218.527 758.211 218.548C750.049 218.578 744.608 218.597 744.608 218.597C737.399 218.625 731.278 217.581 730.949 216.285L729.76 211.415C729.422 210.102 735.326 209.028 742.937 208.999C742.937 208.999 748.657 208.978 757.239 208.946C765.817 208.924 777.273 208.834 788.676 208.92C800.09 208.965 811.505 209.011 820.067 209.045C824.352 209.049 827.903 209.105 830.393 209.134C832.883 209.165 834.305 209.182 834.305 209.182C841.881 209.274 847.586 210.403 847.048 211.706L845.106 216.569C844.567 217.871 838.356 218.857 831.233 218.77Z" fill="#7B9982"/>
<path d="M890.109 231.31C890.109 231.31 885.149 231.211 877.706 231.062C873.986 230.986 869.647 230.898 864.997 230.803C862.667 230.761 860.283 230.693 857.818 230.666C855.356 230.638 852.855 230.609 850.354 230.58C840.352 230.458 830.351 230.337 822.851 230.245C819.11 230.185 815.954 230.186 813.752 230.178C811.55 230.17 810.29 230.165 810.29 230.165C803.621 230.141 798.341 229.061 798.495 227.756L799.142 222.882C799.296 221.577 805.187 220.542 812.297 220.569C812.297 220.569 813.631 220.574 815.969 220.583C818.305 220.592 821.65 220.593 825.627 220.655C833.597 220.751 844.225 220.88 854.853 221.009C857.51 221.04 860.167 221.072 862.784 221.102C865.4 221.132 867.944 221.202 870.422 221.247C875.37 221.347 879.99 221.441 883.948 221.521C891.868 221.68 897.148 221.786 897.148 221.786C900.653 221.859 903.637 222.174 905.573 222.656C907.504 223.145 908.417 223.77 907.883 224.416L903.918 229.241C903.386 229.887 901.567 230.434 899.082 230.795C896.592 231.165 893.398 231.378 890.109 231.31Z" fill="#7B9982"/>
<path d="M122.144 263.925C125.318 263.769 127.721 263.352 129.99 262.947C132.908 262.415 135.996 261.906 139.031 261.388C142.088 260.875 145.078 260.35 148.187 259.843L157.56 258.329L162.243 257.571L167.05 256.833C171.693 256.124 176.688 255.232 176.024 254.118C175.575 253.319 172.166 252.656 168.927 252.063C159.463 250.331 147.599 248.449 134.095 248.937C130.67 249.059 127.52 249.325 124.577 249.664C121.654 250.006 119.007 250.435 116.45 250.856C113.074 251.419 109.744 251.991 106.566 252.587C103.433 253.191 100.391 253.808 97.4435 254.436C94.4665 255.06 91.6939 255.712 89.0402 256.377C86.394 257.043 83.7737 257.707 81.4062 258.4C86.1468 260.857 97.8598 262.832 111.544 263.714C114.96 263.933 118.723 264.091 122.144 263.925Z" fill="#7B9982"/>
<path d="M251.649 235.79C246.689 235.791 242.043 236.212 237.667 236.633L233.987 236.989L230.393 237.37L223.254 238.147C218.517 238.672 213.808 239.205 209.171 239.757C204.62 240.331 200.116 240.916 195.667 241.512C191.215 242.107 186.792 242.708 182.594 243.359C179.152 243.879 175.426 244.539 175.939 245.322C176.255 245.803 178.134 246.202 179.931 246.573L200.746 250.873C203.097 251.361 205.84 251.886 209.361 251.953C211.769 251.999 214.035 251.817 216.144 251.633C222.011 251.106 227.946 250.588 233.696 250.023C239.466 249.462 244.976 248.836 250.61 248.237C256.185 247.623 261.609 246.97 266.881 246.277C272.237 245.607 277.513 244.916 282.595 244.175C284.35 243.921 286.206 243.622 286.448 243.209C286.661 242.844 285.546 242.492 284.472 242.17L274.339 239.136C269.082 237.564 262.078 235.789 251.649 235.79Z" fill="#7B9982"/>
<path d="M373.103 233.594C380.341 231.729 375.227 228.802 364.092 227.494C358.524 226.841 351.972 226.524 345.189 226.47C338.49 226.446 331.556 226.68 325.149 227.078C312.224 227.843 301.255 229.331 289.759 230.584C287.966 230.784 286.067 230.982 284.487 231.234C282.907 231.486 281.584 231.773 280.852 232.121C279.654 232.691 280.28 233.321 281.181 233.903C284.387 235.971 290.987 237.867 299.721 239.352C309.992 239.178 319.901 238.708 329.365 238.016C331.733 237.844 334.076 237.659 336.399 237.465L339.874 237.169L343.384 236.883C348.047 236.494 352.644 236.082 357.192 235.67C360.154 235.403 363.177 235.124 365.92 234.787C368.654 234.446 371.218 234.087 373.103 233.594Z" fill="#7B9982"/>
<path d="M489.806 226.192C490.299 225.945 490.022 225.669 489.721 225.409C486.768 222.872 482.02 220.4 475.389 218.095C474.168 217.67 472.678 217.218 470.11 217.055C468.207 216.934 466.079 216.998 464.07 217.065C456.498 217.319 448.925 217.6 441.395 217.916C433.958 218.279 426.549 218.672 419.186 219.093C415.505 219.303 411.837 219.521 408.182 219.745C404.524 219.969 400.979 220.243 397.396 220.5C390.256 221.025 383.183 221.577 376.194 222.155C382.784 224.898 391.581 227.485 401.93 229.844C403.547 230.213 405.32 230.591 407.73 230.764C410.947 230.994 414.474 230.802 417.674 230.609L424.696 230.183L428.203 229.968L431.76 229.777L445.976 229.012L460.151 228.238C464.894 227.991 469.709 227.78 474.475 227.547C478.485 227.355 482.522 227.159 486.192 226.813C487.697 226.672 489.223 226.485 489.806 226.192Z" fill="#7B9982"/>
<path d="M615.36 222.697C613.639 219.647 609.973 216.624 604.149 213.721C600.239 211.731 584.124 211.46 566.953 211.913C562.675 212.033 558.315 212.18 554.129 212.396C549.955 212.622 545.907 212.881 542.161 213.158C534.668 213.711 528.397 214.334 524.697 214.91C522.5 215.251 520.632 215.629 519.068 216.035C517.524 216.455 516.282 216.903 515.31 217.37C513.365 218.303 512.501 219.313 512.456 220.338C512.367 222.389 515.541 224.505 519.861 226.206C523.779 226.116 527.703 226.001 531.632 225.866C535.568 225.737 539.58 225.631 543.557 225.486C551.527 225.208 559.512 224.869 567.486 224.504C569.471 224.407 571.483 224.327 573.5 224.252L579.536 224.015C583.555 223.854 587.569 223.694 591.563 223.534C599.566 223.228 607.44 222.87 615.36 222.697Z" fill="#7B9982"/>
<path d="M631.555 211.517C629.985 211.57 628.268 211.639 627.298 211.86C626.551 212.031 626.419 212.257 626.329 212.47C625.064 215.471 626.839 218.5 631.148 221.406L641.484 221.263C644.924 221.21 648.358 221.155 651.831 221.137C658.755 221.08 665.666 221.011 672.566 220.932L682.91 220.804C686.355 220.759 689.793 220.703 693.266 220.691C700.194 220.645 707.112 220.587 714.029 220.519C714.053 217.221 710.24 213.923 702.338 210.918C701.394 210.56 700.259 210.18 698.213 210.003C696.414 209.848 694.288 209.881 692.294 209.918L684.649 210.061L677.041 210.258L661.842 210.657L646.661 211.054C644.136 211.125 641.597 211.176 639.087 211.262L631.555 211.517Z" fill="#7B9982"/>
<path d="M179.804 257.694C174.957 259.732 181.755 262.418 193.533 263.402C205.385 264.393 219.525 263.528 224.266 261.607C225.239 261.199 225.823 260.741 225.451 260.274C225.206 259.965 224.552 259.664 223.881 259.368C221.045 258.122 217.513 256.827 211.332 256.04C202.8 254.947 189.82 255.245 183.903 256.684C185.217 256.314 186.627 255.961 188.014 255.601" fill="#7B9982"/>
<path d="M319.103 252.305C312.9 249.911 304.183 247.11 289.972 246.918C283.304 246.834 276.988 247.36 271.409 247.968C265.803 248.591 260.39 249.268 255.216 249.994C252.605 250.351 250.141 250.742 247.755 251.146C245.359 251.549 243.031 251.962 240.773 252.386C242.21 253.205 241.312 253.989 239.786 254.762C238.294 255.542 236.261 256.332 235.247 257.125C232.53 259.259 238.53 261.735 249.08 263.104C276.667 261.691 300.505 258.855 317.982 254.847C319.542 254.485 321.101 254.083 321.186 253.591C321.264 253.155 320.17 252.718 319.103 252.305Z" fill="#7B9982"/>
<path d="M389.711 240.08C386.227 239.371 382.053 238.658 377.004 238.509C373.112 238.404 369.295 238.651 365.661 238.894C357.263 239.466 348.689 239.988 340.434 240.629L327.918 241.551C323.733 241.857 319.535 242.161 315.456 242.504C313.793 242.639 312.031 242.789 311.112 243.073C309.878 243.454 310.53 243.952 311.312 244.39C315.215 246.574 321.661 248.629 329.853 250.416C331.356 250.744 333.081 251.083 335.253 251.185C337.152 251.274 339.016 251.165 340.754 251.053C346.903 250.639 353.176 250.263 359.301 249.84C362.366 249.629 365.404 249.411 368.42 249.183C371.429 248.955 374.415 248.718 377.468 248.504C382.766 248.115 388.323 247.608 392.615 246.915C394.766 246.57 396.589 246.174 397.93 245.73C399.302 245.298 400.166 244.809 400.327 244.253C400.768 242.738 395.535 241.266 389.711 240.08Z" fill="#7B9982"/>
<path d="M419.37 240.363C421.272 240.76 423.297 241.175 425.91 241.359C427.891 241.498 429.994 241.487 432.014 241.46C438.299 241.376 444.421 241.15 450.269 240.789C456.16 240.446 461.881 240.013 467.163 239.426C465.28 237.959 463.394 236.459 459.19 235.149C454.991 233.839 447.918 232.733 439.749 232.6C437.742 232.569 435.731 232.59 433.772 232.654C431.827 232.723 429.903 232.825 428.006 232.929C422.225 233.245 416.486 233.592 410.811 233.968C407.977 234.158 405.141 234.348 402.356 234.558C399.602 234.78 396.864 235.01 394.149 235.246C402.713 236.943 411.058 238.624 419.37 240.363Z" fill="#7B9982"/>
<path d="M561.136 235.441C563.087 234.849 562.217 234.048 561.273 233.34L557.265 230.327C556.057 229.42 554.403 228.4 549.904 227.972C546.903 227.687 543.378 227.745 540.077 227.81C519.5 228.327 498.778 228.865 478.303 229.624C476.332 229.691 474.209 229.774 472.922 230.049C471.496 230.352 471.509 230.803 471.671 231.212C472.412 233.102 474.828 234.981 478.656 236.772C479.671 237.247 480.845 237.732 482.832 238.09C486.381 238.729 491.544 238.812 496.154 238.807C506.607 238.806 516.731 238.506 526.794 238.124C531.791 237.915 536.697 237.646 541.493 237.318C543.893 237.154 546.264 236.975 548.605 236.781C550.965 236.598 553.325 236.417 555.637 236.212C557.731 236.028 559.895 235.817 561.136 235.441Z" fill="#7B9982"/>
<path d="M653.218 233.762C654.458 233.71 655.753 233.641 656.913 233.54C658.078 233.445 659.094 233.308 659.75 233.098C660.763 232.774 660.637 232.359 660.477 231.971L658.94 228.19C658.388 226.82 657.041 225.199 650.362 224.564C646.714 224.237 642.437 224.336 638.428 224.437L611.72 225.107C602.877 225.378 594.076 225.682 585.245 225.964C583.24 228.511 584.448 231.147 588.378 233.652C588.93 234.004 589.606 234.375 591.06 234.619C592.946 234.935 595.6 234.955 598.004 234.95C602.667 234.94 607.307 234.903 611.925 234.837C614.233 234.804 616.535 234.764 618.832 234.716L625.775 234.605C635.022 234.437 644.17 234.156 653.218 233.762Z" fill="#7B9982"/>
<path d="M758.776 226.385C758.475 225.544 757.977 224.626 754.78 224.027C752.424 223.585 749.021 223.402 745.754 223.253C742.826 223.119 739.875 222.998 736.903 222.892C735.419 222.841 733.924 222.784 732.436 222.747C730.949 222.713 729.459 222.682 727.965 222.654C721.99 222.543 715.966 222.488 709.934 222.487C703.903 222.486 697.868 222.54 691.874 222.649C685.902 222.78 680.007 223.01 674.183 223.27C672.197 226.313 672.648 229.406 675.172 232.442C681.509 232.735 687.847 232.869 694.201 232.882C700.59 232.932 707.025 232.893 713.451 232.756C719.881 232.624 726.322 232.41 732.748 232.155C735.95 232.014 739.206 231.931 742.424 231.808C745.65 231.687 748.869 231.568 752.067 231.448C754.81 231.344 757.915 231.189 759.209 230.707C759.967 230.424 759.907 230.088 759.824 229.77C759.525 228.641 759.177 227.513 758.776 226.385Z" fill="#7B9982"/>
<path d="M831.233 218.77C831.233 218.77 829.89 218.753 827.537 218.724C825.184 218.696 821.83 218.642 817.772 218.64C809.668 218.607 798.863 218.565 788.059 218.522C777.288 218.438 766.365 218.527 758.211 218.548C750.049 218.578 744.608 218.597 744.608 218.597C737.399 218.625 731.278 217.581 730.949 216.285L729.76 211.415C729.422 210.102 735.326 209.028 742.937 208.999C742.937 208.999 748.657 208.978 757.239 208.946C765.817 208.924 777.273 208.834 788.676 208.92C800.09 208.965 811.505 209.011 820.067 209.045C824.352 209.049 827.903 209.105 830.393 209.134C832.883 209.165 834.305 209.182 834.305 209.182C841.881 209.274 847.586 210.403 847.048 211.706L845.106 216.569C844.567 217.871 838.356 218.857 831.233 218.77Z" fill="#7B9982"/>
<path d="M875.733 219.54C878.472 219.875 881.892 219.941 885.166 219.996L897.968 220.212C902.231 220.289 906.524 220.338 910.744 220.462L936.173 221.1C939.237 221.176 942.564 221.236 945.684 221.175C948.8 221.117 951.673 220.973 953.916 220.573C957.148 220.004 957.887 219.122 958.424 218.307C959.212 217.12 959.779 215.825 958.815 214.63C958.333 214.033 957.466 213.461 956.051 212.94C954.624 212.429 952.634 211.982 949.938 211.611C944.461 210.862 937.158 210.633 930.182 210.475C925.545 210.37 920.898 210.285 916.25 210.22C911.591 210.168 906.893 210.179 902.227 210.187C892.883 210.214 883.581 210.322 874.403 210.512C870.439 211.593 868.099 212.84 867.352 214.13C866.611 215.411 867.462 216.729 869.874 217.952C871.084 218.565 872.793 219.181 875.733 219.54Z" fill="#7B9982"/>
<path d="M1082.83 219.032C1081.26 218.694 1079.27 218.433 1077.11 218.214C1076.02 218.106 1074.89 218.005 1073.74 217.916C1072.58 217.833 1071.4 217.757 1070.22 217.683C1059.7 217.017 1049.04 216.404 1038.3 215.846C1027.46 215.343 1016.46 214.947 1005.47 214.58C1001.01 214.435 995.764 214.328 992.612 214.923C990.689 215.278 990.133 215.786 989.654 216.264L984.045 221.805C983.4 222.434 982.854 223.131 984.815 223.645C986.142 224.005 988.379 224.201 990.522 224.376C996.535 224.867 1002.63 225.313 1008.8 225.713C1011.88 225.913 1014.99 226.102 1018.11 226.279C1021.23 226.458 1024.3 226.669 1027.43 226.844C1033.67 227.206 1039.98 227.522 1046.38 227.793C1049.56 227.932 1052.8 228.044 1056.01 228.173C1059.19 228.311 1062.4 228.437 1065.63 228.552C1067.85 228.631 1070.33 228.697 1072.29 228.469C1074.03 228.268 1074.87 227.893 1075.6 227.544L1082.5 224.244C1086.08 222.533 1089.44 220.456 1082.83 219.032Z" fill="#7B9982"/>
<path d="M1169.65 234.004C1182.5 233.783 1192.18 231.23 1190.87 228.904C1189.54 226.587 1179.79 224.553 1167.97 223.386C1162.12 222.785 1155.86 222.324 1149.49 221.915C1146.32 221.699 1143.01 221.55 1139.75 221.375C1136.49 221.206 1133.22 221.038 1129.99 220.859C1125.93 220.635 1121.55 220.39 1117.57 220.626C1114.32 220.818 1111.95 221.299 1109.97 221.788C1102.93 223.527 1098.78 225.626 1097.76 227.761C1104.93 229.094 1113.38 230.085 1122.48 230.898C1131.48 231.75 1140.99 232.483 1150.45 233.163C1151.98 233.275 1153.54 233.387 1155.12 233.491C1156.69 233.595 1158.24 233.708 1159.84 233.792C1163.02 233.965 1166.29 234.061 1169.65 234.004Z" fill="#7B9982"/>
<path d="M1276.28 245.061C1277.68 244.974 1278.72 244.762 1279.67 244.557C1289.01 242.553 1296.93 240.343 1302.95 237.977C1304.06 237.542 1305.12 237.052 1304.24 236.595C1303.59 236.256 1301.98 236.003 1300.43 235.768C1294.49 234.911 1288.36 234.091 1282.15 233.284C1279.03 232.885 1275.92 232.479 1272.72 232.1C1269.48 231.73 1266.22 231.366 1262.94 231.007C1256.36 230.296 1249.76 229.584 1242.93 228.945C1236.06 228.322 1229.11 227.725 1222.09 227.156C1214.16 229.788 1208.33 232.617 1204.48 235.508C1203.88 235.96 1203.34 236.438 1204.11 236.871C1205.14 237.448 1208.23 237.799 1211.12 238.104C1215.4 238.537 1219.49 239.033 1223.65 239.501L1236.11 240.913C1238.18 241.15 1240.29 241.376 1242.33 241.621L1248.43 242.362L1260.64 243.836C1262.35 244.041 1264.07 244.247 1265.84 244.435C1267.62 244.623 1269.39 244.812 1271.3 244.954C1272.86 245.072 1274.63 245.165 1276.28 245.061Z" fill="#7B9982"/>
<path d="M1371.06 259.795C1383.48 257.639 1394.63 255.226 1403.76 252.618C1406.83 251.742 1406.21 250.707 1403.21 249.628C1401.71 249.089 1399.62 248.54 1397.11 247.996C1394.6 247.452 1391.55 246.941 1388.31 246.438C1375.44 244.404 1358.05 242.892 1348.34 242.613C1324.73 242.037 1304.87 245.79 1295.29 249.119C1298.15 249.597 1301.11 250.062 1304.16 250.514C1307.24 250.961 1310.35 251.41 1313.47 251.862C1319.71 252.769 1326.32 253.617 1332.87 254.485C1339.35 255.37 1345.98 256.227 1352.45 257.1C1358.79 257.997 1365.09 258.885 1371.06 259.795Z" fill="#7B9982"/>
<path d="M1430.81 254.931C1429.62 254.745 1428.24 254.555 1426.64 254.564C1425.41 254.571 1424.33 254.696 1423.32 254.818C1409.2 256.54 1396.88 258.691 1386.69 261.106C1405.45 264.619 1423.65 265.959 1441.56 269.5C1456.35 267.454 1469.06 267.091 1477.62 264.151C1478.65 263.8 1479.64 263.41 1479.17 263.021C1478.75 262.681 1477.29 262.411 1475.85 262.171C1461.3 259.669 1446.19 257.268 1430.81 254.931Z" fill="#7B9982"/>
<path d="M880.109 233.611C885.593 233.649 891.87 233.568 895.631 232.723C898.179 232.15 898.865 231.383 899.452 230.643L903.871 225.082C904.085 224.812 904.289 224.526 903.717 224.276C902.959 223.951 901.06 223.794 899.3 223.663C869.892 221.431 836.381 220.634 804.448 221.665L804.405 228.146C804.392 228.973 804.578 229.894 807.544 230.473C809.212 230.799 811.518 230.961 813.756 231.105C819.188 231.43 824.581 231.82 830.057 232.109C835.526 232.408 841.04 232.655 846.59 232.851C857.742 233.196 868.836 233.545 880.109 233.611Z" fill="#7B9982"/>
<path d="M940.573 223.347C928.419 224.03 920.871 226.668 924.101 228.87C925.704 229.97 929.795 230.86 934.896 231.384C939.969 231.934 946.006 232.166 951.788 231.855C954.207 231.727 956.601 231.515 958.422 231.167C959.624 230.937 960.533 230.657 961.406 230.378C965.082 229.202 968.52 227.901 968.033 226.565C967.39 224.711 957.758 223.166 947.657 223.258L955.045 223.137" fill="#7B9982"/>
<path d="M1053.05 238.669C1059.62 236.312 1066.4 233.353 1058.27 231.29C1056.36 230.805 1053.83 230.432 1050.99 230.136C1048.11 229.862 1044.95 229.659 1041.83 229.48C1029.23 228.77 1016.25 228.238 1002.92 228.179C997.544 229.618 986.837 229.722 978.595 230.441C977.214 230.562 975.897 230.703 974.644 230.866C973.381 231.037 972.188 231.225 971.073 231.429C968.843 231.838 966.929 232.308 965.392 232.816C962.314 233.833 960.742 235.006 961.106 236.143C967.139 236.804 973.241 237.481 979.636 238C986.015 238.529 992.622 238.941 999.399 239.249C1006.08 239.613 1012.94 239.862 1019.94 239.997C1023.45 240.064 1026.99 240.103 1030.56 240.112C1034.14 240.114 1037.64 240.149 1041.22 240.12C1043.79 240.105 1046.53 240.065 1048.74 239.766C1050.69 239.501 1051.91 239.076 1053.05 238.669Z" fill="#7B9982"/>
<path d="M1151.56 240.369C1152.49 239.446 1152.96 238.442 1150.44 237.658C1149.46 237.355 1148.11 237.105 1146.58 236.894C1145.03 236.692 1143.3 236.521 1141.61 236.357L1118 234.05L1093.85 231.908C1092.22 231.763 1090.46 231.613 1088.64 231.665C1086.2 231.733 1084.43 232.135 1082.99 232.524C1075.84 234.452 1070.9 236.633 1068.24 238.868C1067.75 239.28 1067.37 239.721 1068.3 240.079C1069.09 240.397 1070.74 240.586 1072.31 240.756C1077.93 241.364 1083.62 241.937 1089.38 242.476L1093.72 242.875L1095.9 243.069L1098.05 243.279C1100.91 243.557 1103.8 243.826 1106.7 244.087C1111.79 244.544 1117.55 244.959 1123.34 245.087C1129.08 245.231 1134.77 245.126 1139.89 244.454C1146.86 243.545 1150.03 241.905 1151.56 240.369Z" fill="#7B9982"/>
<path d="M1169.08 244.551C1168.53 245.06 1167.98 245.595 1168.83 246.062C1169.48 246.416 1170.86 246.69 1172.27 246.943C1174.45 247.337 1176.77 247.702 1179.2 248.038C1180.42 248.206 1181.66 248.367 1182.93 248.52C1184.19 248.68 1185.45 248.838 1186.75 248.985C1191.95 249.578 1197.57 250.047 1203.52 250.383C1208.81 249.196 1214.25 247.987 1217.37 246.591C1220.49 245.194 1220.87 243.545 1216.25 242.368C1213.98 241.789 1210.7 241.367 1207.44 240.967C1202.36 240.393 1197.17 239.847 1191.9 239.327C1189.26 239.067 1186.6 238.813 1183.92 238.567L1179.88 238.203C1178.51 238.09 1177.12 237.984 1175.74 237.877C1173.74 240.089 1171.47 242.332 1169.08 244.551Z" fill="#7B9982"/>
<path d="M1280.54 260.545C1284.38 260.434 1287.38 259.809 1289.91 259.232L1300.71 256.782C1303.96 256.045 1307.43 255.175 1306.48 254.296C1305.83 253.713 1303.4 253.262 1300.96 252.873L1289.45 251.032C1285.59 250.421 1281.81 249.786 1277.81 249.206L1265.93 247.424L1259.98 246.529C1257.97 246.237 1255.91 245.957 1253.88 245.67C1252.31 245.451 1250.59 245.221 1248.54 245.226C1246.28 245.23 1244.3 245.519 1242.58 245.802C1234.68 247.107 1227.9 248.629 1222.41 250.281C1220.95 250.72 1219.55 251.185 1219.24 251.678C1218.68 252.557 1221.62 253.295 1224.59 253.904C1226.26 254.253 1228.04 254.573 1229.78 254.912C1231.53 255.248 1233.33 255.571 1235.19 255.883C1238.91 256.506 1242.85 257.081 1247 257.605C1251.15 258.128 1255.32 258.651 1259.79 259.093C1264.22 259.547 1268.92 259.93 1273.66 260.291C1275.79 260.457 1278.09 260.615 1280.54 260.545Z" fill="#7B9982"/>
<path d="M1345.52 269.037C1347.49 269.309 1349.8 269.131 1352.5 269.037C1354.58 268.964 1356.35 269.303 1357.97 269.037L1373.82 269.136C1379.57 268.198 1385.93 266.997 1384.51 265.717C1383.71 265.015 1380.73 264.479 1377.8 263.998L1367.94 262.415C1364.66 261.887 1361.41 261.353 1358 260.847L1347.9 259.308C1346.21 259.053 1344.55 258.791 1342.83 258.541L1337.66 257.796C1325.08 259.147 1314.16 260.983 1305.56 263.097C1304.35 263.395 1303.14 263.72 1302.98 264.068C1302.78 264.52 1304.38 264.885 1305.93 265.201C1308.99 265.805 1311.96 266.428 1315.1 267.016C1318.23 267.607 1321.48 268.175 1324.83 268.725C1328.08 269.292 1331.09 268.513 1334.56 269.037C1336.29 269.299 1338.27 268.786 1340.06 269.037C1341.83 269.291 1343.72 268.789 1345.52 269.037Z" fill="#7B9982"/>
<path d="M1481.21 257.577L1481.54 262.29L1481.56 262.586L1481.21 262.614L1481.21 262.615L1477.26 262.29L1481.21 261.965L1481.21 261.965L1480.89 262.29L1481.21 257.577Z" fill="black"/>
<path d="M1478.11 263.256C1478.59 262.981 1479.09 262.786 1479.6 262.608C1479.85 262.526 1480.1 262.44 1480.36 262.37C1480.62 262.296 1480.88 262.233 1481.14 262.172L1481.15 262.17C1481.32 262.129 1481.49 262.236 1481.53 262.408C1481.56 262.524 1481.52 262.64 1481.44 262.715C1481.27 262.871 1481.1 263.023 1480.92 263.171C1480.75 263.323 1480.57 263.466 1480.39 263.608C1480.21 263.751 1480.02 263.887 1479.83 264.02C1479.64 264.151 1479.44 264.279 1479.24 264.393C1479.36 264.19 1479.49 263.999 1479.63 263.813C1479.77 263.627 1479.91 263.444 1480.06 263.269C1480.21 263.093 1480.36 262.918 1480.52 262.752C1480.67 262.581 1480.83 262.415 1480.99 262.253L1481.29 262.796C1481.03 262.864 1480.78 262.929 1480.51 262.984C1480.25 263.043 1479.99 263.085 1479.73 263.132C1479.2 263.212 1478.67 263.274 1478.11 263.256Z" fill="black"/>
<path d="M1463.62 240.127C1463.62 240.127 1469.95 234.595 1476.23 238.444C1482.51 242.294 1485.55 251.327 1489.45 252.444C1493.35 253.56 1501.15 254.661 1501.15 254.661C1501.15 254.661 1490.64 264.692 1478.02 259.776C1465.4 254.86 1474.63 242.293 1463.62 240.127Z" fill="white"/>
<path d="M1470.38 240.668C1470.8 240.668 1471.14 240.329 1471.14 239.91C1471.14 239.491 1470.8 239.152 1470.38 239.152C1469.96 239.152 1469.62 239.491 1469.62 239.91C1469.62 240.329 1469.96 240.668 1470.38 240.668Z" fill="black"/>
<path d="M1476.92 248.062C1476.93 249.171 1477.06 250.274 1477.36 251.331C1477.51 251.858 1477.69 252.375 1477.91 252.876C1478.12 253.381 1478.39 253.846 1478.71 254.272C1479.03 254.693 1479.41 255.068 1479.86 255.304C1480.08 255.425 1480.32 255.504 1480.56 255.539C1480.8 255.575 1481.05 255.579 1481.28 255.52C1481.74 255.419 1482.05 255.062 1482.15 254.602C1482.25 254.15 1482.12 253.666 1481.86 253.242C1481.79 253.136 1481.72 253.033 1481.64 252.934C1481.56 252.83 1481.49 252.744 1481.41 252.69C1481.34 252.629 1481.26 252.61 1481.26 252.616C1481.28 252.618 1481.28 252.587 1481.23 252.685C1481.07 253.122 1481.08 253.638 1481.22 254.11C1481.36 254.589 1481.63 255.022 1481.99 255.372C1482.35 255.721 1482.81 255.987 1483.29 256.173C1483.77 256.349 1484.31 256.501 1484.77 256.458C1485 256.433 1485.18 256.355 1485.29 256.2C1485.4 256.06 1485.46 255.824 1485.48 255.57C1485.51 255.057 1485.47 254.511 1485.32 254.02C1485.25 253.776 1485.14 253.542 1485 253.372C1484.85 253.203 1484.67 253.125 1484.45 253.15L1484.52 253.13C1484.43 253.171 1484.37 253.224 1484.34 253.296C1484.3 253.369 1484.3 253.471 1484.31 253.58C1484.35 253.8 1484.46 254.033 1484.59 254.246C1484.86 254.668 1485.23 255.065 1485.66 255.323C1485.76 255.381 1485.89 255.441 1486.01 255.48C1486.12 255.524 1486.25 255.559 1486.37 255.584C1486.63 255.636 1486.89 255.653 1487.15 255.638C1487.68 255.606 1488.2 255.467 1488.68 255.231C1488.22 255.511 1487.71 255.712 1487.17 255.779C1486.89 255.813 1486.62 255.817 1486.34 255.781C1486.2 255.763 1486.07 255.737 1485.93 255.696C1485.79 255.657 1485.67 255.614 1485.54 255.551C1485.03 255.289 1484.62 254.9 1484.29 254.441C1484.14 254.208 1483.99 253.956 1483.93 253.647C1483.9 253.494 1483.89 253.317 1483.96 253.141C1484.03 252.964 1484.17 252.82 1484.33 252.744L1484.35 252.73L1484.39 252.724C1484.56 252.695 1484.74 252.705 1484.91 252.769C1485.08 252.832 1485.23 252.939 1485.34 253.059C1485.56 253.304 1485.69 253.588 1485.79 253.869C1485.98 254.437 1486.04 255.012 1486.02 255.605C1486.01 255.898 1485.97 256.235 1485.74 256.548C1485.64 256.688 1485.49 256.816 1485.33 256.895C1485.17 256.977 1485 257.019 1484.84 257.04C1484.52 257.083 1484.2 257.046 1483.92 256.99C1483.63 256.934 1483.35 256.859 1483.07 256.756C1482.52 256.548 1481.99 256.249 1481.55 255.83C1481.11 255.418 1480.77 254.881 1480.6 254.293C1480.42 253.706 1480.41 253.057 1480.64 252.449C1480.67 252.365 1480.72 252.264 1480.81 252.167C1480.91 252.068 1481.04 252 1481.19 251.983C1481.47 251.961 1481.65 252.083 1481.8 252.186C1481.95 252.299 1482.05 252.431 1482.14 252.543C1482.23 252.662 1482.32 252.786 1482.4 252.917C1482.71 253.431 1482.89 254.1 1482.73 254.739C1482.65 255.052 1482.5 255.356 1482.27 255.598C1482.03 255.843 1481.72 256.002 1481.4 256.068C1480.78 256.202 1480.13 256.057 1479.61 255.75C1479.09 255.445 1478.68 255.006 1478.35 254.536C1478.02 254.064 1477.76 253.538 1477.57 253.012C1477.37 252.485 1477.22 251.942 1477.11 251.392C1476.88 250.294 1476.81 249.167 1476.92 248.062Z" fill="black"/>
<path d="M1485.06 259.681C1485.19 260.466 1485.26 261.251 1485.31 262.037C1485.34 262.43 1485.35 262.822 1485.37 263.215C1485.38 263.608 1485.38 264.001 1485.38 264.393L1485.39 264.608L1485.19 264.691C1484.83 264.842 1484.47 264.996 1484.1 265.142C1483.74 265.281 1483.38 265.432 1483.01 265.56C1482.27 265.828 1481.52 266.074 1480.75 266.262C1481.42 265.826 1482.11 265.45 1482.8 265.095C1483.15 264.912 1483.51 264.751 1483.86 264.578C1484.21 264.414 1484.57 264.256 1484.93 264.095L1484.73 264.393C1484.74 264.001 1484.74 263.608 1484.75 263.215C1484.77 262.822 1484.78 262.43 1484.81 262.037C1484.85 261.252 1484.92 260.466 1485.06 259.681Z" fill="black"/>
<path d="M1482.38 267.047C1482.72 266.498 1483.12 266.007 1483.53 265.528C1483.74 265.295 1483.95 265.057 1484.17 264.831C1484.38 264.604 1484.61 264.383 1484.83 264.165L1485.39 263.621L1485.38 264.393C1485.37 264.641 1485.37 264.89 1485.35 265.138C1485.34 265.386 1485.32 265.634 1485.29 265.883C1485.27 266.131 1485.24 266.379 1485.2 266.628C1485.16 266.876 1485.12 267.124 1485.06 267.373C1485 267.124 1484.95 266.876 1484.91 266.628C1484.88 266.379 1484.84 266.131 1484.82 265.883C1484.8 265.634 1484.78 265.386 1484.77 265.138C1484.75 264.89 1484.74 264.641 1484.74 264.393L1485.28 264.621C1485.06 264.845 1484.84 265.067 1484.61 265.282C1484.38 265.498 1484.14 265.703 1483.91 265.912C1483.43 266.318 1482.93 266.712 1482.38 267.047Z" fill="black"/>
<path d="M1130.34 121.47C1131.86 109.535 1137.52 96.7314 1137.52 96.7314L1146.99 99.634L1142.1 133.74L1140.15 141.411L1131.86 145.285C1131.86 145.285 1128.83 133.404 1130.34 121.47Z" fill="#54482F"/>
<path d="M1137.91 99.73C1137.81 99.6357 1137.7 99.5473 1137.57 99.5226C1137.19 99.4518 1136.94 99.8986 1136.82 100.264C1136.4 101.54 1135.98 102.815 1135.56 104.09C1134.53 107.228 1133.49 110.424 1133.43 113.726C1135.53 110.687 1137.16 107.324 1138.24 103.793C1138.66 102.424 1138.92 100.738 1137.91 99.73Z" fill="#473D26"/>
<path d="M1110.57 183.31C1110.57 183.31 1111.22 188.347 1109.27 190.46C1107.32 192.572 1101.96 195.172 1101.8 196.472C1101.63 197.772 1101.92 198.923 1103.96 198.517C1106.01 198.112 1113.36 194.915 1113.69 194.704C1114.03 194.493 1116.03 191.956 1116.03 191.956L1116.62 193.883C1116.62 193.883 1120.43 192.75 1121.84 190.955C1121.84 190.955 1119.67 185.26 1117.23 184.122L1114.96 180.129L1110.57 183.31Z" fill="#1B1F30"/>
<path d="M1112.49 182.835C1113.81 182.695 1114.83 181.519 1115.2 180.248C1115.58 178.977 1115.44 177.62 1115.3 176.302C1114.95 173.065 1114.6 169.828 1114.25 166.59C1114.06 164.837 1113.87 163.06 1113.22 161.419C1112.58 159.778 1111.42 158.262 1109.79 157.584C1111.09 157.632 1112.4 157.679 1113.7 157.727C1113.08 156.947 1112.46 156.168 1111.85 155.388C1113.2 155.195 1114.4 156.416 1115.77 156.429C1116.38 156.435 1116.96 156.201 1117.52 155.97C1121.48 154.349 1125.43 152.729 1129.39 151.108C1129.17 149.458 1128.74 147.837 1128.11 146.299C1128.9 147.542 1129.92 148.638 1131.1 149.519C1131.17 146.802 1130.31 144.076 1128.73 141.866C1119.7 144.865 1106.17 149.579 1104.88 151.297C1102.93 153.897 1104.44 162.411 1106.12 169.773C1107.81 177.134 1109.39 185.038 1109.39 185.038C1109.39 185.038 1110.34 185.878 1112.12 185.916C1113.24 184.804 1114.36 183.692 1115.49 182.58C1114.49 182.665 1113.49 182.75 1112.49 182.835Z" fill="#323859"/>
<path d="M1136.81 139.24C1136.81 139.24 1133.36 140.328 1128.73 141.866C1130.31 144.077 1131.17 146.802 1131.1 149.52C1129.92 148.639 1128.9 147.542 1128.11 146.3C1128.74 147.838 1129.17 149.459 1129.39 151.108C1125.43 152.729 1121.48 154.35 1117.53 155.971C1116.96 156.201 1116.38 156.436 1115.77 156.43C1114.4 156.416 1113.2 155.196 1111.85 155.389C1112.47 156.168 1113.08 156.948 1113.7 157.727C1112.4 157.68 1111.09 157.632 1109.79 157.585C1111.42 158.263 1112.58 159.779 1113.23 161.42C1113.87 163.061 1114.06 164.838 1114.25 166.591C1114.6 169.828 1114.95 173.066 1115.3 176.303C1115.44 177.62 1115.58 178.978 1115.2 180.249C1114.83 181.519 1113.81 182.696 1112.49 182.836C1113.49 182.751 1114.49 182.666 1115.49 182.581C1114.37 183.693 1113.24 184.805 1112.12 185.917C1113.4 185.945 1115.12 185.555 1117.24 184.123C1117.24 184.123 1116.1 164.298 1115.77 160.236C1115.77 160.236 1134.12 154.386 1136.81 153.248C1139.5 152.111 1144 140.063 1144 140.063L1136.81 139.24Z" fill="#23294D"/>
<path d="M1192.37 259.685C1202.2 259.685 1210.17 251.717 1210.17 241.889C1210.17 232.06 1202.2 224.092 1192.37 224.092C1182.54 224.092 1174.58 232.06 1174.58 241.889C1174.58 251.717 1182.54 259.685 1192.37 259.685Z" stroke="black" stroke-width="6" stroke-miterlimit="10"/>
<path d="M1192.37 243.707C1193.38 243.707 1194.19 242.893 1194.19 241.889C1194.19 240.884 1193.38 240.07 1192.37 240.07C1191.37 240.07 1190.55 240.884 1190.55 241.889C1190.55 242.893 1191.37 243.707 1192.37 243.707Z" fill="black"/>
<path d="M1192.37 224.092V259.685" stroke="black" stroke-width="2" stroke-miterlimit="10"/>
<path d="M1188.17 224.596L1196.58 259.182" stroke="black" stroke-width="2" stroke-miterlimit="10"/>
<path d="M1184.2 226.077L1200.54 257.7" stroke="black" stroke-width="2" stroke-miterlimit="10"/>
<path d="M1180.7 228.454L1204.04 255.323" stroke="black" stroke-width="2" stroke-miterlimit="10"/>
<path d="M1177.86 231.59L1206.89 252.187" stroke="black" stroke-width="2" stroke-miterlimit="10"/>
<path d="M1175.84 235.31L1208.91 248.468" stroke="black" stroke-width="2" stroke-miterlimit="10"/>
<path d="M1174.75 239.401L1209.99 244.376" stroke="black" stroke-width="2" stroke-miterlimit="10"/>
<path d="M1174.66 243.633L1210.08 240.145" stroke="black" stroke-width="2" stroke-miterlimit="10"/>
<path d="M1175.57 247.767L1209.17 236.011" stroke="black" stroke-width="2" stroke-miterlimit="10"/>
<path d="M1177.44 251.568L1207.31 232.21" stroke="black" stroke-width="2" stroke-miterlimit="10"/>
<path d="M1180.15 254.821L1204.6 228.957" stroke="black" stroke-width="2" stroke-miterlimit="10"/>
<path d="M1183.55 257.343L1201.2 226.435" stroke="black" stroke-width="2" stroke-miterlimit="10"/>
<path d="M1187.45 258.989L1197.3 224.788" stroke="black" stroke-width="2" stroke-miterlimit="10"/>
<path d="M1121.46 259.035C1148.74 259.035 1170.86 236.918 1170.86 209.635C1170.86 182.352 1148.74 160.235 1121.46 160.235C1094.18 160.235 1072.06 182.352 1072.06 209.635C1072.06 236.918 1094.18 259.035 1121.46 259.035Z" stroke="black" stroke-width="14" stroke-miterlimit="10"/>
<path d="M1121.46 211.454C1122.46 211.454 1123.28 210.64 1123.28 209.635C1123.28 208.631 1122.46 207.817 1121.46 207.817C1120.45 207.817 1119.64 208.631 1119.64 209.635C1119.64 210.64 1120.45 211.454 1121.46 211.454Z" fill="black"/>
<path d="M1121.46 160.235V258.99" stroke="black" stroke-width="2" stroke-miterlimit="10"/>
<path d="M1114.14 160.78L1128.77 258.446" stroke="black" stroke-width="2" stroke-miterlimit="10"/>
<path d="M1129.23 160.851L1113.69 258.376" stroke="black" stroke-width="2" stroke-miterlimit="10"/>
<path d="M1136.81 162.681L1106.12 256.547" stroke="black" stroke-width="2" stroke-miterlimit="10"/>
<path d="M1144 165.68L1098.93 253.551" stroke="black" stroke-width="2" stroke-miterlimit="10"/>
<path d="M1150.64 169.774L1092.31 249.461" stroke="black" stroke-width="2" stroke-miterlimit="10"/>
<path d="M1156.54 174.86L1086.4 244.379" stroke="black" stroke-width="2" stroke-miterlimit="10"/>
<path d="M1161.58 180.812L1081.38 238.431" stroke="black" stroke-width="2" stroke-miterlimit="10"/>
<path d="M1165.61 187.483L1077.34 231.767" stroke="black" stroke-width="2" stroke-miterlimit="10"/>
<path d="M1168.55 194.705L1074.41 224.552" stroke="black" stroke-width="2" stroke-miterlimit="10"/>
<path d="M1170.31 202.299L1072.65 216.965" stroke="black" stroke-width="2" stroke-miterlimit="10"/>
<path d="M1170.86 210.075L1072.11 209.196" stroke="black" stroke-width="2" stroke-miterlimit="10"/>
<path d="M1170.17 217.841L1072.79 201.438" stroke="black" stroke-width="2" stroke-miterlimit="10"/>
<path d="M1168.28 225.402L1074.69 193.884" stroke="black" stroke-width="2" stroke-miterlimit="10"/>
<path d="M1165.21 232.571L1077.75 186.722" stroke="black" stroke-width="2" stroke-miterlimit="10"/>
<path d="M1161.06 239.168L1081.89 180.13" stroke="black" stroke-width="2" stroke-miterlimit="10"/>
<path d="M1155.92 245.03L1087.03 174.274" stroke="black" stroke-width="2" stroke-miterlimit="10"/>
<path d="M1149.92 250.011L1093.02 169.298" stroke="black" stroke-width="2" stroke-miterlimit="10"/>
<path d="M1143.22 253.986L1099.72 165.326" stroke="black" stroke-width="2" stroke-miterlimit="10"/>
<path d="M1135.97 256.856L1106.96 162.458" stroke="black" stroke-width="2" stroke-miterlimit="10"/>
<path d="M1119.64 137.377V154.71C1119.64 154.71 1136.71 153.06 1156.78 167.71C1183.86 187.483 1176.01 240.386 1193.91 242.381" stroke="black" stroke-width="5" stroke-miterlimit="10"/>
<path d="M1119.64 151.798C1119.64 151.798 1128.92 149.918 1142.14 154.101" stroke="black" stroke-width="5" stroke-miterlimit="10"/>
<path d="M1122.44 206.1C1122.44 206.1 1121.12 211.007 1118.52 212.22C1115.91 213.433 1109.96 213.801 1109.32 214.942C1108.67 216.082 1108.5 217.256 1110.55 217.657C1112.59 218.058 1120.6 217.895 1121 217.827C1121.39 217.759 1124.2 216.171 1124.2 216.171L1124.01 218.178C1124.01 218.178 1127.97 218.577 1129.95 217.453C1129.95 217.453 1130.11 211.362 1128.29 209.383L1127.7 204.826L1122.44 206.1Z" fill="#1B1F30"/>
<path d="M1143.94 157.834C1142.32 153.448 1139.29 149.601 1135.41 146.99C1131.46 154.158 1120.5 174.365 1120.93 177.298C1121.46 180.873 1119.64 208.682 1119.64 208.682C1119.64 208.682 1120.17 209.133 1121.19 209.574C1122.65 209.507 1124.2 209.582 1125.61 209.31C1126.08 209.221 1126.65 208.9 1126.52 208.449C1125.49 208.171 1124.45 207.893 1123.42 207.615C1124.49 207.789 1125.57 207.244 1126.29 206.438C1127.01 205.633 1127.41 204.6 1127.72 203.569C1129.24 198.578 1128.98 193.25 1129.24 188.039C1129.49 182.828 1130.4 177.342 1133.76 173.351C1134.85 172.058 1136.16 170.971 1137.37 169.792C1139.77 167.457 1142.11 164.204 1143.98 160.324C1143.27 158.808 1142.16 157.502 1141.06 156.227C1142.12 156.538 1143.11 157.091 1143.94 157.834Z" fill="#323859"/>
<path d="M1148.14 143.733L1146.16 141.222L1139.82 140.062L1136.81 144.472C1136.81 144.472 1136.28 145.42 1135.41 146.99C1139.29 149.601 1142.32 153.448 1143.93 157.833C1143.11 157.091 1142.12 156.537 1141.06 156.227C1142.16 157.503 1143.27 158.808 1143.98 160.324C1144.12 160.031 1144.26 159.736 1144.4 159.437C1142.46 163.709 1139.96 167.281 1137.37 169.792C1136.16 170.97 1134.85 172.057 1133.76 173.351C1130.4 177.342 1129.49 182.828 1129.24 188.039C1128.98 193.25 1129.24 198.578 1127.72 203.569C1127.41 204.6 1127.01 205.633 1126.29 206.438C1125.57 207.243 1124.49 207.789 1123.42 207.615C1124.45 207.893 1125.48 208.171 1126.51 208.449C1126.65 208.9 1126.08 209.221 1125.61 209.31C1124.2 209.582 1122.65 209.507 1121.18 209.574C1122.85 210.301 1125.83 211 1129.91 209.612C1129.91 209.612 1131.05 182.54 1132.83 180.813C1134.62 179.085 1152.11 161.535 1155.39 152.923L1148.14 143.733ZM1146.83 152.576C1146.38 154.301 1145.83 155.96 1145.21 157.538C1145.83 155.96 1146.38 154.3 1146.83 152.576ZM1147.68 148.478C1147.64 148.7 1147.61 148.921 1147.57 149.141C1147.61 148.921 1147.64 148.699 1147.68 148.478ZM1147.5 149.525C1147.46 149.755 1147.42 149.983 1147.37 150.211C1147.42 149.983 1147.46 149.755 1147.5 149.525ZM1147.08 151.573C1147.01 151.855 1146.94 152.135 1146.87 152.413C1146.94 152.135 1147.01 151.855 1147.08 151.573ZM1144.8 158.524C1144.68 158.82 1144.55 159.113 1144.41 159.403C1144.55 159.113 1144.67 158.82 1144.8 158.524ZM1145.19 157.576C1145.07 157.878 1144.95 158.178 1144.82 158.474C1144.95 158.178 1145.07 157.878 1145.19 157.576Z" fill="#23294D"/>
<path d="M1141.07 69.127C1141.07 69.127 1136 70.8602 1135.43 72.1602C1134.86 73.4602 1134.57 75.5184 1134.57 75.5184C1134.57 75.5184 1129.15 76.8184 1126.66 76.1684C1126.66 76.1684 1127.68 79.2289 1130.71 81.0704C1130.71 81.0704 1130.88 83.1016 1130.88 84.0766C1130.88 85.0516 1129.15 87.4349 1129.15 87.4349C1129.15 87.4349 1128.82 93.0681 1132.07 94.0431C1135.32 95.0181 1138.25 96.3181 1138.25 96.3181L1138.36 100.868L1148.92 99.7849C1148.92 99.7849 1148.92 94.396 1149.57 92.7974C1150.63 90.1974 1152.66 88.0849 1152.66 88.0849L1156.12 84.9974V79.0931C1156.12 79.0931 1151.57 72.1599 1151.25 72.1599C1150.92 72.1599 1141.07 69.127 1141.07 69.127Z" fill="#FFCF99"/>
<path d="M1138.35 82.3277C1137.96 82.5773 1137.61 82.875 1137.33 83.2406C1136.67 84.1113 1136.54 85.3212 1136.87 86.3622C1137.2 87.4032 1137.96 88.2758 1138.88 88.8758C1139.7 89.4149 1140.65 89.751 1141.63 89.8459C1143.18 89.996 1144.96 89.3623 1145.51 87.9099C1145.79 87.164 1145.71 86.3177 1145.44 85.5673C1145.16 84.8168 1144.72 84.1441 1144.27 83.4808C1144.04 83.1268 1143.8 82.7706 1143.49 82.4723C1142.17 81.1752 1139.91 81.3198 1138.35 82.3277Z" fill="#FFAD73"/>
<path d="M1132.54 80.0704C1132.53 79.9641 1132.47 79.8646 1132.46 79.7574C1132.44 79.5481 1132.55 79.3508 1132.67 79.1727C1132.97 78.693 1133.27 78.2136 1133.57 77.7339C1134 77.0534 1134.44 76.3065 1134.53 75.5278C1134.06 75.6383 1129.03 76.7879 1126.66 76.1684C1126.66 76.1684 1127.68 79.2208 1130.7 81.0632C1131.06 80.9934 1131.43 81.0164 1131.78 80.9352C1132.2 80.8403 1132.62 80.4883 1132.54 80.0704Z" fill="#FFAD73"/>
<path d="M1116.5 134.397C1116.5 134.397 1112.03 137.044 1114.63 138.189C1117.23 139.334 1122.43 139.412 1124.57 139.002C1125.19 138.883 1128.12 137.729 1128.12 137.729L1127.06 136.169C1127.06 136.169 1125.25 136.683 1122.58 136.886C1120.23 137.064 1119.17 136.844 1118.52 136.387C1117.87 135.93 1119.64 134.922 1119.64 134.922C1119.64 134.922 1118.86 133.91 1116.5 134.397Z" fill="black"/>
<path d="M1121.48 130.86C1120.22 131.028 1121.67 136.382 1123.06 136.163C1124.45 135.944 1124.34 135.57 1123.7 132.585C1123.42 131.264 1122.75 130.691 1121.48 130.86Z" fill="#2E2719"/>
<path d="M1120.16 136.65C1120.16 136.65 1121.21 134.568 1122.22 134.922C1123.22 135.276 1124.01 133.949 1124.57 133.55C1125.14 133.152 1124.57 130.831 1124.57 130.831C1124.57 130.831 1120.42 131.906 1119.64 131.933C1118.86 131.96 1114.85 132.465 1114.63 135.734L1116.26 134.922C1116.26 134.922 1117.34 135.001 1118.1 134.727C1118.1 134.727 1116.4 136.473 1120.16 136.65Z" fill="#FFCF99"/>
<path d="M1121.49 130.831L1133.59 127.194L1136.3 132.677L1123.06 136.163C1123.06 136.163 1125.2 133.71 1121.49 130.831Z" fill="#54482F"/>
<path d="M1152.33 143.742C1153.23 140.167 1152.01 136.649 1152.01 136.649L1150.34 137.445L1150.82 107.044L1139.7 102.02C1139.7 102.02 1131.08 106.448 1131.1 133.152C1131.1 135.665 1131.27 138.225 1131.95 140.656C1131.95 140.657 1131.95 140.658 1131.95 140.66C1133.58 141.118 1135.72 141.901 1138.45 143.227C1142.02 144.96 1145.15 147.092 1146.81 148.401C1149.32 148.624 1151.56 146.822 1152.33 143.742Z" fill="#C7AA6F"/>
<path d="M1138.52 104.985C1138.52 104.985 1137.22 103.468 1136.85 100.868C1136.69 99.7963 1136.85 97.2935 1136.85 97.2935C1136.85 97.2935 1139.01 95.3435 1140.31 95.1267C1141.61 94.9099 1148.98 94.0435 1148.98 94.0435L1149.63 102.06L1138.52 104.985Z" fill="#730938"/>
<path d="M1137.17 98.4311C1137.17 98.4311 1136.79 98.8104 1137.06 99.5143C1137.06 99.5143 1145.07 95.6013 1149.12 95.3569C1149.12 95.3569 1140.44 96.3862 1137.17 98.4311Z" fill="#5C072D"/>
<path d="M1137.63 102.02C1137.63 102.02 1137.34 101.613 1137.3 101.085C1137.3 101.085 1144.82 97.338 1147.25 96.4692C1147.25 96.4692 1139.29 100.557 1137.63 102.02Z" fill="#5C072D"/>
<path d="M1137.52 99.7243C1140.53 97.7805 1144.12 96.9709 1147.43 95.5874C1145.34 96.7434 1143.21 97.8221 1141.02 98.7523C1139.9 99.2277 1138.73 99.6701 1137.52 99.7243Z" fill="#5C072D"/>
<path d="M1146.27 96.6439C1146.27 96.6439 1152.49 94.9106 1155.39 94.9106C1160.86 94.9106 1163.66 97.1385 1165.17 97.1044C1168.75 97.0231 1173.54 95.2626 1175.49 95.1544C1175.49 95.1544 1174.74 98.1606 1175.93 100.869C1175.93 100.869 1173.39 102.382 1168.5 102.386C1163.14 102.389 1161.69 99.3414 1157.05 98.991C1152.5 98.6481 1147.57 100.677 1147.57 100.677L1146.27 96.6439Z" fill="#5C072D"/>
<path d="M1167.75 99.7218C1167.16 99.8986 1166.55 100.052 1165.94 100.005C1165.26 99.9516 1164.63 99.6509 1163.99 99.4088C1160.74 98.1806 1157.08 98.4163 1153.76 99.4257C1151.53 100.101 1149.12 101.109 1146.99 100.188C1146.99 100.004 1146.99 99.819 1146.99 99.6344C1151.16 97.1081 1155.81 95.385 1160.61 94.5868C1161.21 94.4877 1161.83 94.4038 1162.41 94.5744C1162.98 94.7415 1163.45 95.137 1164.01 95.347C1165.35 95.8559 1166.82 95.1981 1168.14 94.631C1169.77 93.9313 1171.45 93.3524 1173.16 92.901C1174.4 92.5763 1175.67 92.316 1176.94 92.3966C1177.1 92.4067 1177.27 92.4301 1177.38 92.5497C1177.48 92.6699 1177.49 92.8467 1177.48 93.0066C1177.43 94.4844 1177.38 95.9622 1177.33 97.4403C1174.04 97.074 1170.92 98.7643 1167.75 99.7218Z" fill="#730938"/>
<path d="M1150.2 98.2725C1153.31 97.0944 1156.5 96.107 1159.74 95.3169C1160.45 95.1424 1161.36 95.0465 1161.78 95.6556C1161.97 95.9367 1162 96.3196 1162.25 96.5477C1162.49 96.7596 1162.83 96.772 1163.15 96.7645C1164.49 96.733 1165.82 96.5575 1167.12 96.2416C1165.97 97.1239 1164.49 97.5627 1163.04 97.4486C1162.42 97.3995 1161.76 97.2283 1161.35 96.7635C1161.17 96.5682 1161.05 96.3274 1160.84 96.1645C1160.4 95.8207 1159.78 95.9299 1159.24 96.056C1157.88 96.3732 1156.52 96.6907 1155.16 97.0079C1152.81 97.5581 1150.41 98.1246 1148.33 99.3593C1148.81 98.8136 1149.52 98.5292 1150.2 98.2725Z" fill="#5C072D"/>
<path d="M1163.37 98.5495C1161.86 98.4988 1160.45 97.8228 1158.95 97.6307C1157.5 97.4428 1156.02 97.723 1154.58 98.0018C1153.1 98.2869 1151.62 98.5719 1150.15 98.8569C1152.52 98.1049 1154.93 97.4848 1157.37 96.9999C1157.79 96.9167 1158.22 96.8377 1158.64 96.915C1159.08 96.995 1159.46 97.2355 1159.86 97.4285C1161.24 98.1023 1162.85 98.2134 1164.37 97.9986C1165.89 97.7834 1167.35 97.2599 1168.79 96.71C1167.1 97.6486 1165.3 98.6148 1163.37 98.5495Z" fill="#5C072D"/>
<path d="M1152.33 127.194C1153.23 125.996 1154.04 124.598 1154.76 123.165C1154.96 113.962 1154.8 102.074 1150.17 99.6768C1150.17 99.6768 1150.06 97.5101 1150.6 96.7518C1151.14 95.9936 1152.66 94.4768 1152.23 94.0436C1151.79 93.6104 1148.98 94.0436 1148.98 94.0436C1148.98 94.0436 1142.15 97.9436 1138.52 103.685C1134.89 109.427 1131.53 123.619 1131.97 129.685C1132.11 131.74 1132.35 133.552 1132.68 135.097C1138.19 133.861 1149.53 130.928 1152.33 127.194Z" fill="#54482F"/>
<path d="M1140.07 103.937C1140.07 103.937 1143.72 96.8599 1148.98 95.1536C1151.23 94.4207 1151.47 94.9099 1151.47 94.9099C1151.47 94.9099 1149.09 96.4266 1149.42 99.5141C1149.42 99.5141 1144.64 100.381 1140.07 103.937Z" fill="#473D26"/>
<path d="M1132.13 131.561C1135.12 131.029 1139.2 130.019 1142.08 129.091C1143.8 128.538 1145.58 127.753 1146.52 126.213C1147.15 125.175 1147.3 123.927 1147.42 122.719C1147.93 117.166 1147.75 111.551 1146.89 106.042C1146.86 105.872 1146.83 105.698 1146.74 105.549C1146.5 105.132 1145.88 105.082 1145.46 105.328C1145.05 105.573 1144.8 106.021 1144.6 106.46C1143.43 109.055 1143.29 112.001 1143.47 114.843C1143.65 117.686 1144.14 120.512 1144.12 123.361C1144.12 123.733 1144.11 124.124 1143.91 124.44C1143.66 124.85 1143.16 125.033 1142.71 125.185C1139.32 126.308 1135.42 128.049 1131.93 128.752C1131.86 129.969 1132.02 130.472 1132.13 131.561Z" fill="#473D26"/>
<path d="M1161.06 158.61C1161.06 158.61 1170.21 166.085 1179.52 159.043C1179.52 159.043 1166.52 159.585 1160.46 151.026C1154.92 143.211 1154.71 139.82 1154.63 133.352C1150.8 137.122 1140.74 139.588 1135.74 140.62C1135.82 140.659 1135.89 140.703 1135.97 140.735C1138.36 141.71 1143.05 143.698 1144.35 146.623C1145.65 149.548 1153.85 164.351 1159.81 167.818C1165.77 171.285 1174.22 171.501 1174.22 171.501C1174.22 171.501 1163.72 168.577 1161.06 158.61Z" fill="#54482F"/>
<path d="M1156.63 158.059C1155.44 155.528 1154.64 152.779 1153 150.52C1152.95 151.239 1151.99 151.575 1151.32 151.316C1150.65 151.057 1150.2 150.445 1149.7 149.924C1149.2 149.404 1148.52 148.926 1147.82 149.065C1149.52 151.97 1150.82 155.099 1152.48 158.03C1154.14 160.961 1156.24 163.754 1159.12 165.509C1160.72 166.488 1162.52 167.111 1164.32 167.656C1161.05 165.122 1158.39 161.804 1156.63 158.059Z" fill="#473D26"/>
<path d="M1157.84 153.04C1160.66 157.882 1166.34 160.904 1171.93 160.537C1166.68 159.889 1161.85 156.505 1159.45 151.797C1158.91 152.211 1158.38 152.625 1157.84 153.04Z" fill="#473D26"/>
<path d="M1154.61 131.418C1154.58 129.372 1154.69 126.438 1154.76 123.165C1154.04 124.598 1153.23 125.996 1152.33 127.193C1149.53 130.928 1138.19 133.861 1132.68 135.097C1133.31 137.963 1134.29 139.883 1135.74 140.62C1140.74 139.588 1150.8 137.122 1154.63 133.352C1154.62 132.737 1154.62 132.096 1154.61 131.418Z" fill="#473D26"/>
<path d="M1130.34 130.877C1128.31 131.147 1129.7 139.354 1131.93 139.002C1134.16 138.65 1134.94 138.454 1133.91 133.652C1133.46 131.527 1132.37 130.606 1130.34 130.877Z" fill="#2E2719"/>
<path d="M1132.93 131.933C1132.93 131.933 1131.51 132.162 1130.92 132.116C1130.32 132.071 1127.44 131.979 1126.34 132.483C1125.24 132.986 1123.41 134.177 1123.23 135.276C1123.04 136.375 1122.54 138.115 1123.73 138.573C1123.73 138.573 1123.39 141.173 1125.72 141.173C1125.72 141.173 1126.57 142.19 1127.71 141.411C1127.71 141.411 1128.72 142.373 1129.54 141.411C1130.37 140.45 1128.99 139.671 1129.04 138.939C1129.09 138.206 1129.54 137.611 1130.28 137.428C1131.01 137.245 1133.02 137.794 1133.98 136.558C1133.98 136.558 1134.47 132.777 1132.93 131.933Z" fill="#FFCF99"/>
<path d="M1123.73 138.572C1123.73 138.572 1123.67 138.294 1123.66 137.869C1123.66 137.657 1123.67 137.409 1123.71 137.145C1123.73 137.014 1123.74 136.876 1123.78 136.74C1123.81 136.603 1123.85 136.464 1123.9 136.328C1123.94 136.191 1124 136.058 1124.06 135.928C1124.11 135.795 1124.2 135.68 1124.26 135.561C1124.33 135.446 1124.43 135.347 1124.5 135.25C1124.59 135.161 1124.69 135.084 1124.77 135.013C1124.86 134.951 1124.95 134.904 1125.02 134.86C1125.1 134.81 1125.18 134.801 1125.24 134.779C1125.36 134.742 1125.42 134.726 1125.42 134.726C1125.42 134.726 1125.37 134.766 1125.26 134.837C1125.22 134.874 1125.15 134.902 1125.09 134.964C1125.03 135.02 1124.97 135.083 1124.89 135.152C1124.83 135.23 1124.76 135.314 1124.69 135.403C1124.63 135.502 1124.57 135.6 1124.51 135.709C1124.45 135.823 1124.39 135.932 1124.34 136.056C1124.29 136.178 1124.24 136.301 1124.2 136.431C1124.11 136.683 1124.05 136.949 1123.99 137.196C1123.93 137.445 1123.89 137.681 1123.85 137.885C1123.78 138.297 1123.73 138.572 1123.73 138.572Z" fill="#CF9F6B"/>
<path d="M1125.72 141.172C1125.72 141.172 1125.68 141.094 1125.61 140.949C1125.54 140.804 1125.45 140.594 1125.36 140.333C1125.27 140.072 1125.18 139.761 1125.13 139.419C1125.1 139.248 1125.07 139.07 1125.06 138.887C1125.04 138.706 1125.05 138.518 1125.04 138.332C1125.05 138.146 1125.08 137.959 1125.1 137.777C1125.14 137.596 1125.17 137.416 1125.22 137.249C1125.29 137.084 1125.33 136.917 1125.41 136.778C1125.49 136.637 1125.55 136.496 1125.64 136.387C1125.73 136.275 1125.81 136.176 1125.88 136.09C1125.96 136.009 1126.04 135.948 1126.1 135.894C1126.22 135.789 1126.29 135.733 1126.29 135.733C1126.29 135.733 1126.24 135.811 1126.15 135.937C1126.1 136.001 1126.04 136.073 1125.98 136.165C1125.93 136.262 1125.87 136.37 1125.8 136.484C1125.73 136.596 1125.7 136.739 1125.64 136.874C1125.57 137.009 1125.55 137.172 1125.5 137.326C1125.45 137.482 1125.45 137.654 1125.41 137.822C1125.39 137.993 1125.38 138.168 1125.37 138.343C1125.37 138.519 1125.36 138.695 1125.37 138.869C1125.38 139.043 1125.39 139.214 1125.41 139.38C1125.44 139.712 1125.49 140.02 1125.54 140.287C1125.59 140.551 1125.63 140.775 1125.67 140.928C1125.7 141.084 1125.72 141.172 1125.72 141.172Z" fill="#CF9F6B"/>
<path d="M1127.71 141.411C1127.71 141.411 1127.53 141.165 1127.34 140.749C1127.3 140.646 1127.25 140.531 1127.21 140.409C1127.16 140.285 1127.11 140.156 1127.08 140.017C1127 139.742 1126.94 139.439 1126.92 139.131C1126.9 138.978 1126.91 138.821 1126.91 138.67C1126.91 138.517 1126.94 138.367 1126.95 138.222C1126.99 138.079 1127.02 137.941 1127.06 137.815C1127.12 137.69 1127.16 137.572 1127.22 137.469C1127.28 137.37 1127.34 137.282 1127.39 137.205C1127.45 137.127 1127.52 137.077 1127.56 137.028C1127.66 136.937 1127.71 136.886 1127.71 136.886C1127.71 136.886 1127.68 136.952 1127.61 137.067C1127.58 137.126 1127.53 137.187 1127.5 137.271C1127.47 137.354 1127.43 137.447 1127.39 137.545C1127.35 137.649 1127.33 137.765 1127.3 137.881C1127.27 138.001 1127.26 138.132 1127.24 138.262C1127.23 138.396 1127.23 138.535 1127.22 138.676C1127.23 138.818 1127.22 138.961 1127.24 139.105C1127.26 139.393 1127.31 139.681 1127.36 139.951C1127.41 140.221 1127.47 140.472 1127.52 140.688C1127.63 141.119 1127.71 141.411 1127.71 141.411Z" fill="#CF9F6B"/>
<path d="M1144.64 110.294C1144.64 110.294 1145.4 116.36 1145.51 118.744C1145.62 121.127 1144.64 125.46 1144.64 125.46C1144.64 125.46 1131.53 129.794 1130.34 130.877C1130.34 130.877 1132.04 130.619 1132.73 133.531C1133.33 136.109 1133.62 139.002 1131.93 139.002C1131.93 139.002 1150.38 135.776 1153.53 132.677C1156.67 129.577 1155.26 110.402 1153.53 106.394C1153.53 106.394 1145.62 98.8101 1144.64 110.294Z" fill="#54482F"/>
<path d="M1135.09 77.2303C1135.09 77.2303 1136.05 76.7554 1136.94 76.1708C1137.39 75.8792 1137.82 75.5588 1138.1 75.279C1138.18 75.2097 1138.24 75.1454 1138.29 75.081C1138.34 75.0177 1138.4 74.9679 1138.42 74.9159C1138.49 74.8168 1138.52 74.7603 1138.52 74.7603C1138.52 74.7603 1138.49 74.8197 1138.44 74.9234C1138.41 74.9783 1138.36 75.0316 1138.32 75.0996C1138.27 75.1685 1138.21 75.2383 1138.14 75.3137C1137.87 75.6186 1137.47 75.9751 1137.04 76.3034C1136.18 76.9612 1135.25 77.5153 1135.25 77.5153C1135.17 77.5614 1135.07 77.5367 1135.03 77.4597C1134.98 77.3827 1135 77.2829 1135.08 77.2364C1135.08 77.2345 1135.09 77.2322 1135.09 77.2303Z" fill="#BD703F"/>
<path d="M1135.19 76.5008C1135.19 76.5008 1135.18 76.5197 1135.18 76.5158C1135.18 76.5197 1135.18 76.5476 1135.18 76.5811C1135.18 76.6487 1135.19 76.7605 1135.23 76.898C1135.27 77.0348 1135.34 77.1983 1135.43 77.3653C1135.48 77.4508 1135.54 77.535 1135.59 77.6205C1135.65 77.7085 1135.72 77.7885 1135.79 77.874C1135.85 77.9601 1135.93 78.0358 1136 78.1167C1136.06 78.1983 1136.14 78.2692 1136.21 78.342C1136.36 78.4898 1136.51 78.6101 1136.63 78.7212C1136.75 78.8285 1136.86 78.911 1136.94 78.9721C1137.02 79.0323 1137.06 79.067 1137.06 79.067C1137.06 79.067 1137.01 79.041 1136.92 78.9959C1136.84 78.9494 1136.71 78.888 1136.57 78.8044C1136.43 78.7167 1136.26 78.6237 1136.08 78.5012C1136 78.4411 1135.9 78.3832 1135.82 78.313C1135.73 78.2432 1135.64 78.1795 1135.55 78.1015C1135.21 77.806 1134.89 77.4466 1134.72 77.1053C1134.63 76.9383 1134.59 76.7777 1134.56 76.6546C1134.55 76.5925 1134.54 76.5441 1134.54 76.4966C1134.54 76.4547 1134.54 76.4323 1134.54 76.4323C1134.54 76.2519 1134.69 76.106 1134.87 76.106C1135.05 76.106 1135.2 76.2525 1135.2 76.4329C1135.2 76.4488 1135.19 76.4641 1135.19 76.4794L1135.19 76.5008Z" fill="#8F552F"/>
<path d="M1130.29 85.6526C1130.29 85.6526 1129.61 87.8025 1132.1 88.1275C1134.6 88.4525 1135.76 86.8398 1135.76 86.8398C1135.76 86.8398 1135.76 89.2773 1138.47 88.8441C1141.18 88.4109 1147.35 82.2359 1147.35 82.2359C1147.35 82.2359 1144.75 78.0109 1148.43 73.8941C1148.43 73.8941 1140.29 75.1515 1138.89 70.298C1137.49 65.4444 1140.09 63.1691 1143.88 63.2776C1143.88 63.2776 1142.37 64.2526 1143.34 65.9859C1143.34 65.9859 1145.07 63.8191 1147.78 64.3609C1147.78 64.3609 1146.27 66.9609 1148.43 67.9359C1150.6 68.9109 1157.1 67.1776 1159.7 73.1359C1162.3 79.0941 1159.7 79.7441 1159.7 79.7441C1159.7 79.7441 1161.76 86.6724 1154.28 88.8958C1154.28 88.8958 1153.63 89.7109 1154.83 91.1191C1154.83 91.1191 1153.19 91.1269 1152.66 89.9273C1152.66 89.9273 1152.44 91.6605 1153.63 92.9605C1152.91 92.8728 1152.18 92.6706 1151.51 92.3807C1151.01 92.1627 1150.51 91.8747 1150.15 91.4509C1149.75 90.9689 1149.69 90.279 1149.55 89.6858C1149.33 88.7576 1149.09 87.8418 1148.98 86.8938C1148.98 86.8938 1143.13 97.2938 1136.08 99.352C1129.04 101.41 1124.93 101.085 1122.87 98.2688C1120.81 95.452 1121.46 94.477 1122.22 94.0438C1122.97 93.6105 1125.99 93.177 1126.65 90.7938C1127.31 88.4102 1129.26 85.7849 1130.29 85.6526Z" fill="#BD703F"/>
<path d="M1137.44 94.7262C1137.64 94.3726 1137.8 93.9202 1137.58 93.5822C1137.09 93.5247 1136.68 93.9546 1136.2 94.0622C1135.58 94.1987 1134.96 93.7713 1134.66 93.2195C1134.36 92.6676 1134.31 92.0186 1134.27 91.392C1133.77 92.0768 1133.19 92.8097 1132.36 92.9952C1131.37 93.2166 1130.36 92.5334 1129.87 91.6465C1129.37 90.7596 1129.28 89.7127 1129.2 88.7017C1128.22 89.1011 1128.08 90.3949 1127.76 91.406C1127.32 92.7742 1126.25 93.9244 1124.91 94.4584C1124.1 94.7844 1123 95.1266 1123 96.0038C1123 96.2852 1123.12 96.5517 1123.28 96.7847C1124 97.8511 1125.3 98.3737 1126.55 98.6639C1128.57 99.1309 1130.72 99.1433 1132.69 98.5024C1134.66 97.8615 1136.43 96.5361 1137.44 94.7262Z" fill="#BD5B1C"/>
<path d="M1149.33 74.7057C1148.9 75.4285 1148.52 76.2104 1148.41 77.0486C1148.3 77.8868 1148.49 78.7919 1149.05 79.425C1149.67 80.1267 1150.68 80.4016 1151.61 80.2749C1152.54 80.1481 1153.38 79.6639 1154.1 79.0574C1153.59 79.5245 1152.76 79.5193 1152.16 79.166C1151.57 78.8127 1151.19 78.1783 1150.98 77.5176C1150.78 76.8569 1150.73 76.1601 1150.66 75.4727C1150.62 75.1331 1150.57 74.785 1150.41 74.4863C1150.24 74.1876 1149.93 73.9471 1149.59 73.967C1149.47 74.0108 1149.5 74.173 1149.5 74.2939C1149.49 74.4434 1149.41 74.578 1149.33 74.7057Z" fill="#BD5B1C"/>
<path d="M1141.18 64.5151C1140.36 65.4134 1140.18 66.7173 1140.21 67.9302C1140.22 68.4411 1140.26 68.9676 1140.5 69.4217C1140.95 70.2927 1141.97 70.6911 1142.91 70.941C1144.08 71.2469 1145.39 71.4188 1146.42 70.8042C1145.63 70.827 1144.82 70.8455 1144.09 70.5575C1143.35 70.266 1142.75 69.6758 1142.34 68.9943C1141.93 68.3128 1141.69 67.5409 1141.52 66.7645C1141.35 66.0244 1141.24 65.2721 1141.18 64.5151Z" fill="#BD5B1C"/>
<path d="M1145.27 65.3706C1144.54 66.0577 1143.92 67.0619 1144.2 68.0314C1144.36 68.6183 1144.84 69.0828 1145.39 69.3515C1145.93 69.6206 1146.55 69.7155 1147.16 69.7565C1145.84 68.7438 1145.1 67.0239 1145.27 65.3706Z" fill="#BD5B1C"/>
<path d="M1155.01 78.2302C1154.44 78.2562 1153.96 77.758 1153.74 77.2279C1153.51 76.6975 1153.45 76.1086 1153.23 75.5788C1152.93 74.8947 1152.36 74.3357 1151.67 74.0598C1151.29 73.907 1150.83 73.8476 1150.48 74.0747C1151.08 74.2346 1151.44 74.8372 1151.62 75.4254C1151.8 76.0137 1151.87 76.6455 1152.16 77.1863C1152.69 78.1587 1153.98 78.6322 1155.01 78.2302Z" fill="#BD5B1C"/>
<path d="M1155.97 78.3837C1156.63 77.6713 1157.03 76.7119 1157 75.7424C1156.97 74.7729 1156.48 73.8106 1155.66 73.2864C1154.85 72.7622 1153.72 72.7274 1152.92 73.2666C1153.96 73.4827 1154.8 74.3134 1155.27 75.2741C1155.74 76.2348 1155.89 77.318 1155.97 78.3837Z" fill="#BD5B1C"/>
<path d="M1159.65 75.907C1159.61 74.8692 1159.25 73.8149 1158.52 73.0795C1157.79 72.344 1156.64 71.9858 1155.66 72.3336C1156.39 72.2686 1156.97 72.9212 1157.36 73.541C1157.8 74.2335 1158.18 74.9765 1158.35 75.7757C1158.53 76.5748 1158.5 77.438 1158.15 78.18C1158.66 78.1842 1159.13 77.8339 1159.37 77.3877C1159.62 76.9414 1159.67 76.4149 1159.65 75.907Z" fill="#BD5B1C"/>
<path d="M1142.41 72.1597C1143.86 72.8932 1145.56 73.1181 1147.16 72.787C1147.53 72.7093 1147.91 72.6014 1148.29 72.6241C1148.67 72.6472 1149.07 72.8348 1149.22 73.1867C1149.37 72.4776 1148.86 71.6927 1148.15 71.5442C1147.64 71.4369 1147.12 71.6261 1146.62 71.7762C1145.26 72.1821 1143.82 72.3134 1142.41 72.1597Z" fill="#BD5B1C"/>
<path d="M1150.82 73.0107C1151.45 72.6636 1151.76 71.8498 1151.58 71.1536C1151.39 70.4575 1150.75 69.9206 1150.04 69.7994C1149.33 69.6785 1148.58 69.9524 1148.07 70.4617C1148.74 70.2557 1149.49 70.5894 1149.95 71.1172C1150.41 71.6454 1150.64 72.3331 1150.82 73.0107Z" fill="#BD5B1C"/>
<path d="M1154.49 70.1449C1154.32 69.983 1154.08 69.9255 1153.86 69.8816C1153.11 69.7367 1152.35 69.6629 1151.59 69.6616C1152.17 69.7373 1152.72 70.0721 1153.06 70.5593C1153.39 71.0461 1153.51 71.6776 1153.37 72.2515C1154.05 72.1644 1154.64 71.5596 1154.7 70.8709C1154.72 70.6109 1154.67 70.3279 1154.49 70.1449Z" fill="#BD5B1C"/>
<path d="M1154.22 81.1896C1154.7 81.3316 1155.08 81.7418 1155.28 82.2039C1155.49 82.6661 1155.55 83.1786 1155.58 83.6833C1155.61 84.2621 1155.61 84.8663 1155.37 85.3915C1154.8 86.5914 1153.19 86.9778 1152.55 88.1378C1152.81 87.7101 1153.3 87.4904 1153.76 87.2762C1154.51 86.9226 1155.25 86.5046 1155.78 85.8689C1156.33 85.2212 1156.61 84.3863 1156.7 83.5471C1156.78 82.797 1156.7 81.9767 1156.21 81.4005C1155.73 80.8243 1154.74 80.6429 1154.22 81.1896Z" fill="#BD5B1C"/>
<path d="M1157.07 80.9757C1158 82.3296 1158.05 84.2315 1157.19 85.6339C1156.74 86.3869 1156.06 86.9781 1155.39 87.5563C1156.79 86.4549 1158.23 85.2075 1158.69 83.4899C1158.82 82.9874 1158.86 82.4635 1158.85 81.9439C1158.83 81.393 1158.73 80.8008 1158.34 80.4128C1157.84 79.9142 1156.9 79.9627 1156.46 80.5109C1156.72 80.5366 1156.92 80.7573 1157.07 80.9757Z" fill="#BD5B1C"/>
<path d="M1151.37 91.1183C1151.54 91.286 1151.76 91.4351 1152 91.3887C1151.69 90.8862 1151.61 90.2778 1151.56 89.6896C1151.5 89.0347 1151.47 88.3779 1151.46 87.7207C1150.98 88.1422 1150.69 88.7653 1150.67 89.4C1150.66 90.0347 1150.91 90.672 1151.37 91.1183Z" fill="#BD5B1C"/>
<path d="M1153.35 87.8794C1152.75 88.5034 1152.88 89.6705 1153.61 90.1391C1153.53 89.4257 1153.44 88.712 1153.36 87.9987" fill="#BD5B1C"/>
<path d="M1141.52 91.0952C1141.88 92.8369 1141.36 94.7424 1140.16 96.0537C1138.96 97.3651 1137.1 98.0489 1135.34 97.8328C1136.82 96.8753 1138.12 95.6517 1139.33 94.3595C1140.23 93.3946 1141.11 92.3513 1141.52 91.0952Z" fill="#BD5B1C"/>
<path d="M1142.23 88.3071C1141.34 89.1099 1140.42 89.9006 1139.32 90.3566C1138.21 90.8126 1136.89 90.8889 1135.86 90.2841C1135.53 90.5997 1135.5 91.1597 1135.73 91.5568C1135.96 91.954 1136.41 92.1919 1136.87 92.2468C1137.33 92.3017 1137.79 92.1935 1138.22 92.0251C1139.94 91.3508 1141.13 89.793 1142.23 88.3071Z" fill="#BD5B1C"/>
<path d="M1130.07 84.0229C1130.07 84.0229 1129.75 81.9104 1130.56 81.5041C1131.37 81.0979 1132.67 81.2272 1133.24 81.975C1133.81 82.7229 1134.78 85.2416 1135.92 85.4041C1137.06 85.5666 1138.6 85.8104 1138.93 84.4291C1138.93 84.4291 1139.33 86.2166 1136.81 86.1354C1134.3 86.0541 1130.72 84.5916 1130.07 84.0229Z" fill="#BD703F"/>
<path d="M1134.36 88.9028C1133.11 89.8443 1131.22 89.7949 1130.03 88.79C1130.23 89.7384 1130.9 90.7079 1131.87 90.7813C1132.41 90.8229 1132.95 90.5639 1133.35 90.1979C1133.76 89.8317 1134.06 89.364 1134.36 88.9028Z" fill="#BD5B1C"/>
<path d="M1148.18 83.5405C1147.68 85.3589 1147.1 87.1679 1146.21 88.8296C1145.31 90.4913 1144.1 92.01 1142.52 93.0393C1142.56 92.2843 1142.43 91.5193 1142.13 90.8241C1142.79 90.5615 1143.23 89.9239 1143.43 89.2498C1143.64 88.5758 1143.64 87.8591 1143.63 87.1549C1145.44 86.3898 1147.03 85.1259 1148.18 83.5405Z" fill="#BD5B1C"/>
<path d="M1151.04 81.2395C1149.99 81.246 1148.97 80.7078 1148.29 79.9047C1147.61 79.1016 1147.26 78.0574 1147.18 77.0093C1146.85 77.8442 1146.96 78.7981 1147.23 79.6548C1147.43 80.2697 1147.74 80.8901 1148.29 81.2317C1149.09 81.7299 1150.13 81.4923 1151.04 81.2395Z" fill="#BD5B1C"/>
<path d="M1130.88 82.0762C1130.59 82.4983 1130.68 83.1422 1131.08 83.4649C1131.41 83.733 1131.9 83.7831 1132.19 84.098C1131.83 83.9098 1131.71 83.4603 1131.61 83.0648C1131.51 82.6693 1131.34 82.2214 1130.96 82.0989" fill="#BD5B1C"/>
<path d="M1131.98 82.376C1132.14 82.7868 1132.31 83.1976 1132.47 83.6081C1132.57 83.8597 1132.68 84.1167 1132.86 84.3173C1133.04 84.5178 1133.32 84.6533 1133.58 84.5909C1133.2 84.2623 1133.14 83.6991 1133 83.2129C1132.86 82.7267 1132.44 82.2048 1131.95 82.338" fill="#BD5B1C"/>
<path d="M1150.47 82.3976C1150.47 82.3976 1152.5 81.0163 1153.47 82.3976C1154.45 83.7788 1153.8 85.1656 1153.07 86.1377C1152.33 87.1098 1151.06 88.2203 1148.98 86.8933C1148.98 86.8933 1150.14 84.9976 1150.47 82.3976Z" fill="#FFCF99"/>
<path d="M1152.05 83.2461C1151.81 83.0667 1151.34 82.7797 1151.31 82.8369C1151.46 82.5324 1151.88 82.4394 1152.19 82.5678C1152.51 82.6962 1152.72 82.9871 1152.87 83.2893C1153.15 83.8379 1153.26 84.4788 1153.12 85.0775C1152.99 85.6761 1152.59 86.2228 1152.04 86.486C1151.74 86.6264 1151.41 86.6843 1151.09 86.7259C1150.84 86.758 1150.54 86.7658 1150.38 86.5757C1150.24 86.4223 1150.24 86.1922 1150.29 85.993C1150.44 85.3271 1151.04 84.7895 1151.72 84.7183C1151.46 84.8558 1151.26 85.121 1151.21 85.4148C1151.2 85.4548 1151.2 85.498 1151.22 85.5341C1151.24 85.5744 1151.28 85.5971 1151.33 85.6127C1151.83 85.796 1152.2 85.393 1152.26 84.9195C1152.32 84.5149 1152.31 84.0046 1152.26 83.6016C1152.25 83.5207 1152.23 83.4391 1152.19 83.368C1152.17 83.3462 1152.12 83.3013 1152.05 83.2461Z" fill="#FFAD73"/>
<path d="M1181.38 59.3105C1173.96 66.9282 1172.35 78.1251 1172.35 78.1251C1174.03 78.2941 1175.69 78.6071 1177.31 79.014C1177.92 70.7232 1180.33 65.8362 1184.58 61.4874C1182.66 60.2277 1181.38 59.3105 1181.38 59.3105Z" fill="#730938"/>
<path d="M1199.09 68.6711C1195.22 68.1293 1188.54 64.0795 1184.58 61.4873C1180.33 65.8358 1177.92 70.7232 1177.31 79.0139C1186.94 81.4397 1194.83 87.3086 1194.83 87.3086C1202.86 77.1575 1199.09 68.6711 1199.09 68.6711Z" fill="#473D26"/>
<path d="M1185.35 55.7168C1185.35 55.7168 1178.2 59.037 1175.27 68.5809C1172.35 78.1249 1173.47 85.0321 1173.47 85.0321" stroke="#473D26" stroke-width="9" stroke-miterlimit="10" stroke-linecap="round"/>
</svg>
