<svg width="1561" height="271" viewBox="0 0 1561 271" fill="none" xmlns="http://www.w3.org/2000/svg">
<path d="M213.723 237.243C213.723 237.243 142.346 117.158 213.723 37.608C255.776 -9.25928 333.813 -10.3883 383.244 23.5001C451.862 70.5422 411.323 215.809 387.083 231.244L213.723 237.243Z" fill="#599EA8"/>
<path d="M250.555 226.528C250.555 226.528 176.785 118.498 237.15 53.5052C270.664 17.4228 361.326 28.6873 383.244 62.2536C421.244 120.447 369.577 205.903 356.12 217.923L250.555 226.528Z" fill="#397D87"/>
<path opacity="0.5" d="M1480.92 142.595C1492.23 145.733 1501.72 153.966 1498.47 172.925C1495.22 191.883 1477.83 189.005 1468.65 186.544C1459.47 184.083 1446.76 173.683 1451.91 157.605C1456.55 143.082 1470.71 139.766 1480.92 142.595Z" fill="white"/>
<path opacity="0.5" d="M1479.63 147.418C1488.51 149.881 1495.95 156.342 1493.4 171.219C1490.85 186.097 1477.2 183.838 1470 181.907C1462.79 179.976 1452.82 171.814 1456.86 159.197C1460.51 147.801 1471.62 145.198 1479.63 147.418Z" fill="white"/>
<path d="M1460.55 209.657C1460.55 209.657 1463.8 208.475 1467.26 210.409L1458.16 252.187C1458.16 252.187 1454.26 252.777 1450.36 249.46L1460.55 209.657Z" fill="#13353A"/>
<path d="M1462.5 211.536C1462.5 211.536 1469.65 177.995 1470.3 175.236H1472.25C1472.25 175.236 1465.31 209.093 1464.88 212.777L1462.5 211.536Z" fill="#13353A"/>
<path d="M1467.85 174.101L1473.02 174.837L1474.92 176.527L1482.28 163.281L1477.36 153.938L1469.05 157.934L1467.85 174.101Z" fill="white" stroke="#13353A" stroke-width="2" stroke-miterlimit="10"/>
<path d="M1469.05 157.934L1477.68 159.378L1482.27 163.281" stroke="#13353A" stroke-width="2" stroke-miterlimit="10"/>
<path d="M1473.02 174.837L1477.68 159.378L1477.36 153.938" stroke="#13353A" stroke-width="2" stroke-miterlimit="10"/>
<path d="M1467.66 174.288L1471.38 176.001L1474.92 176.713L1473.02 174.837L1467.66 174.288Z" fill="#13353A"/>
<path d="M1470.06 181.852C1469.86 180.237 1470.82 178.543 1472.32 177.893C1473.81 177.242 1475.7 177.689 1476.75 178.938C1477.1 179.352 1477.35 179.837 1477.56 180.336C1477.99 181.37 1478.22 182.576 1477.75 183.594C1477.28 184.618 1476.09 185.26 1474.98 185.095C1473.86 184.929 1472.91 183.969 1472.76 182.852C1472.71 182.455 1472.75 182.029 1472.97 181.697C1473.19 181.377 1473.54 181.178 1473.91 181.07C1474.48 180.906 1475.18 180.978 1475.52 181.454C1475.86 181.929 1475.5 182.79 1474.92 182.696" stroke="#13353A" stroke-width="2" stroke-miterlimit="10" stroke-linecap="round"/>
<path d="M1469.16 183.928C1469.26 183.103 1469.35 182.279 1469.44 181.455C1469.63 179.801 1469.72 177.859 1468.45 176.772C1467.41 175.871 1465.69 176.001 1464.67 176.929C1463.65 177.858 1463.32 179.416 1463.72 180.74C1463.9 181.363 1464.24 181.959 1464.76 182.344C1465.29 182.729 1466.01 182.871 1466.6 182.608C1467.2 182.344 1467.59 181.633 1467.4 181.012C1467.21 180.39 1466.38 180.029 1465.84 180.385" stroke="#13353A" stroke-width="2" stroke-miterlimit="10" stroke-linecap="round"/>
<path d="M1453.86 249.95L1458.5 230.827C1458.54 230.653 1458.72 230.546 1458.89 230.588C1459.06 230.63 1459.17 230.804 1459.13 230.977L1454.7 250.15C1454.65 250.383 1454.41 250.529 1454.18 250.475C1453.95 250.421 1453.8 250.188 1453.85 249.955C1453.85 249.954 1453.86 249.951 1453.86 249.95Z" fill="#0E282C"/>
<path d="M1451.94 248.875L1456.58 229.752C1456.62 229.577 1456.8 229.47 1456.97 229.513C1457.15 229.555 1457.25 229.728 1457.21 229.902L1452.78 249.075C1452.73 249.308 1452.5 249.453 1452.26 249.399C1452.03 249.345 1451.88 249.113 1451.94 248.879C1451.94 248.879 1451.94 248.876 1451.94 248.875Z" fill="#0E282C"/>
<path d="M1456.37 250.133L1460.92 230.693C1460.96 230.519 1461.14 230.41 1461.31 230.451C1461.49 230.491 1461.59 230.661 1461.56 230.833L1457.52 250.387C1457.45 250.707 1457.14 250.912 1456.82 250.846C1456.5 250.78 1456.3 250.468 1456.36 250.148C1456.36 250.144 1456.37 250.137 1456.37 250.133Z" fill="#0E282C"/>
<path d="M1453.77 151.831C1453.77 151.831 1458.31 156.651 1451.13 168.639C1451.13 168.639 1445.94 160.548 1453.77 151.831Z" fill="#BD5B1C"/>
<path d="M1510.61 181.888C1510.61 181.888 1510.93 187.655 1502.09 193.025C1502.09 193.025 1502.83 184.526 1510.61 181.888Z" fill="#BD5B1C"/>
<path d="M1455.91 122.947C1455.91 122.947 1459.05 126.847 1455.91 131.614C1452.77 136.381 1443.13 134.972 1443.13 134.972C1443.13 134.972 1453.74 128.689 1455.91 122.947Z" fill="#BD703F"/>
<path d="M1437.93 133.269C1437.93 133.269 1441.83 136.235 1446.81 132.408C1451.79 128.58 1455.48 122.297 1455.91 122.947C1456.34 123.597 1457.46 129.556 1453.74 132.408C1449.52 135.647 1443.34 137.957 1437.93 133.269Z" fill="#BD5B1C"/>
<path d="M1500.84 199.489C1500.84 199.489 1499.93 203.642 1495.1 204.099C1490.28 204.556 1486.08 197.427 1486.08 197.427C1486.08 197.427 1495.89 201.109 1500.84 199.489Z" fill="#BD703F"/>
<path d="M1484.44 193.08C1484.44 193.08 1484.55 197.238 1489.74 198.5C1494.92 199.761 1501.04 198.856 1500.84 199.489C1500.64 200.121 1497.29 204.032 1493.43 203.088C1489.03 202.016 1484.22 199.158 1484.44 193.08Z" fill="#BD5B1C"/>
<path d="M1476.97 133.99C1476.97 133.99 1479.63 141.253 1476.04 144.828C1472.45 148.403 1467.03 145.362 1467.03 145.362C1467.03 145.362 1477.16 143.518 1476.97 133.99Z" fill="#BD703F"/>
<path d="M1466.57 145.362C1466.57 145.362 1476 141.241 1477.04 133.556C1477.04 133.556 1479.77 148.603 1466.57 145.362Z" fill="#BD5B1C"/>
<path d="M1439.98 187.108C1439.98 187.108 1434.14 186.792 1432.72 183.231C1431.3 179.67 1435.03 176.809 1435.03 176.809C1435.03 176.809 1433.3 184.402 1439.98 187.108Z" fill="#BD703F"/>
<path d="M1435.17 176.491C1435.17 176.491 1435.23 184.273 1440.26 187.286C1440.26 187.286 1428.98 184.7 1435.17 176.491Z" fill="#BD5B1C"/>
<path d="M1425.7 163.049C1425.7 163.049 1427.06 156.717 1433.23 152.817C1433.23 152.817 1436.05 161.744 1425.7 163.049Z" fill="#BD703F"/>
<path d="M1425.7 163.049C1425.7 163.049 1425.16 156.284 1433.23 152.817C1433.23 152.817 1431.23 161.798 1425.7 163.049Z" fill="#BD5B1C"/>
<path d="M81.0586 248.383V266.546L1521.06 268V260.655C1144.26 162.477 404.059 211.566 81.0586 248.383Z" fill="#69826E"/>
<path d="M831.233 217.77C831.233 217.77 829.89 217.753 827.537 217.724C825.184 217.696 821.83 217.642 817.772 217.64C809.668 217.607 798.863 217.565 788.059 217.522C777.288 217.438 766.365 217.527 758.211 217.548C750.049 217.578 744.608 217.597 744.608 217.597C737.399 217.625 731.278 216.581 730.949 215.285L729.76 210.415C729.422 209.102 735.326 208.028 742.937 207.999C742.937 207.999 748.657 207.978 757.239 207.946C765.817 207.924 777.273 207.834 788.676 207.92C800.09 207.965 811.505 208.011 820.067 208.045C824.352 208.049 827.903 208.105 830.393 208.134C832.883 208.165 834.305 208.182 834.305 208.182C841.881 208.274 847.586 209.403 847.048 210.706L845.106 215.569C844.567 216.871 838.356 217.857 831.233 217.77Z" fill="#7B9982"/>
<path d="M890.109 230.31C890.109 230.31 885.149 230.211 877.706 230.062C873.986 229.986 869.647 229.898 864.997 229.803C862.667 229.761 860.283 229.693 857.818 229.666C855.356 229.638 852.855 229.609 850.354 229.58C840.352 229.458 830.351 229.337 822.851 229.245C819.11 229.185 815.954 229.186 813.752 229.178C811.55 229.17 810.29 229.165 810.29 229.165C803.621 229.141 798.341 228.061 798.495 226.756L799.142 221.882C799.296 220.577 805.187 219.542 812.297 219.569C812.297 219.569 813.631 219.574 815.969 219.583C818.305 219.592 821.65 219.593 825.627 219.655C833.597 219.751 844.225 219.88 854.853 220.009C857.51 220.04 860.167 220.072 862.784 220.102C865.4 220.132 867.944 220.202 870.422 220.247C875.37 220.347 879.99 220.441 883.948 220.521C891.868 220.68 897.148 220.786 897.148 220.786C900.653 220.859 903.637 221.174 905.573 221.656C907.504 222.145 908.417 222.77 907.883 223.416L903.918 228.241C903.386 228.887 901.567 229.434 899.082 229.795C896.592 230.165 893.398 230.378 890.109 230.31Z" fill="#7B9982"/>
<path d="M122.144 262.925C125.318 262.769 127.721 262.352 129.99 261.947C132.908 261.415 135.996 260.906 139.031 260.388C142.088 259.875 145.078 259.35 148.187 258.843L157.56 257.329L162.243 256.571L167.05 255.833C171.693 255.124 176.688 254.232 176.024 253.118C175.575 252.319 172.166 251.656 168.927 251.063C159.463 249.331 147.599 247.449 134.095 247.937C130.67 248.059 127.52 248.325 124.577 248.664C121.654 249.006 119.007 249.435 116.45 249.856C113.074 250.419 109.744 250.991 106.566 251.587C103.433 252.191 100.391 252.808 97.4435 253.436C94.4665 254.06 91.6939 254.712 89.0402 255.377C86.394 256.043 83.7737 256.707 81.4062 257.4C86.1468 259.857 97.8598 261.832 111.544 262.714C114.96 262.933 118.723 263.091 122.144 262.925Z" fill="#7B9982"/>
<path d="M251.649 234.79C246.689 234.791 242.043 235.212 237.667 235.633L233.987 235.989L230.393 236.37L223.254 237.147C218.517 237.672 213.808 238.205 209.171 238.757C204.62 239.331 200.116 239.916 195.667 240.512C191.215 241.107 186.792 241.708 182.594 242.359C179.152 242.879 175.426 243.539 175.939 244.322C176.255 244.803 178.134 245.202 179.931 245.573L200.746 249.873C203.097 250.361 205.84 250.886 209.361 250.953C211.769 250.999 214.035 250.817 216.144 250.633C222.011 250.106 227.946 249.588 233.696 249.023C239.466 248.462 244.976 247.836 250.61 247.237C256.185 246.623 261.609 245.97 266.881 245.277C272.237 244.607 277.513 243.916 282.595 243.175C284.35 242.921 286.206 242.622 286.448 242.209C286.661 241.844 285.546 241.492 284.472 241.17L274.339 238.136C269.082 236.564 262.078 234.789 251.649 234.79Z" fill="#7B9982"/>
<path d="M373.103 232.594C380.341 230.729 375.227 227.802 364.092 226.494C358.524 225.841 351.972 225.524 345.189 225.47C338.49 225.446 331.556 225.68 325.149 226.078C312.224 226.843 301.255 228.331 289.759 229.584C287.966 229.784 286.067 229.982 284.487 230.234C282.907 230.486 281.584 230.773 280.852 231.121C279.654 231.691 280.28 232.321 281.181 232.903C284.387 234.971 290.987 236.867 299.721 238.352C309.992 238.178 319.901 237.708 329.365 237.016C331.733 236.844 334.076 236.659 336.399 236.465L339.874 236.169L343.384 235.883C348.047 235.494 352.644 235.082 357.192 234.67C360.154 234.403 363.177 234.124 365.92 233.787C368.654 233.446 371.218 233.087 373.103 232.594Z" fill="#7B9982"/>
<path d="M489.806 225.192C490.299 224.945 490.022 224.669 489.721 224.409C486.768 221.872 482.02 219.4 475.389 217.095C474.168 216.67 472.678 216.218 470.11 216.055C468.207 215.934 466.079 215.998 464.07 216.065C456.498 216.319 448.925 216.6 441.395 216.916C433.958 217.279 426.549 217.672 419.186 218.093C415.505 218.303 411.837 218.521 408.182 218.745C404.524 218.969 400.979 219.243 397.396 219.5C390.256 220.025 383.183 220.577 376.194 221.155C382.784 223.898 391.581 226.485 401.93 228.844C403.547 229.213 405.32 229.591 407.73 229.764C410.947 229.994 414.474 229.802 417.674 229.609L424.696 229.183L428.203 228.968L431.76 228.777L445.976 228.012L460.151 227.238C464.894 226.991 469.709 226.78 474.475 226.547C478.485 226.355 482.522 226.159 486.192 225.813C487.697 225.672 489.223 225.485 489.806 225.192Z" fill="#7B9982"/>
<path d="M615.36 221.697C613.639 218.647 609.973 215.624 604.149 212.721C600.239 210.731 584.124 210.46 566.953 210.913C562.675 211.033 558.315 211.18 554.129 211.396C549.955 211.622 545.907 211.881 542.161 212.158C534.668 212.711 528.397 213.334 524.697 213.91C522.5 214.251 520.632 214.629 519.068 215.035C517.524 215.455 516.282 215.903 515.31 216.37C513.365 217.303 512.501 218.313 512.456 219.338C512.367 221.389 515.541 223.505 519.861 225.206C523.779 225.116 527.703 225.001 531.632 224.866C535.568 224.737 539.58 224.631 543.557 224.486C551.527 224.208 559.512 223.869 567.486 223.504C569.471 223.407 571.483 223.327 573.5 223.252L579.536 223.015C583.555 222.854 587.569 222.694 591.563 222.534C599.566 222.228 607.44 221.87 615.36 221.697Z" fill="#7B9982"/>
<path d="M631.555 210.517C629.985 210.57 628.268 210.639 627.298 210.86C626.551 211.031 626.419 211.257 626.329 211.47C625.064 214.471 626.839 217.5 631.148 220.406L641.484 220.263C644.924 220.21 648.358 220.155 651.831 220.137C658.755 220.08 665.666 220.011 672.566 219.932L682.91 219.804C686.355 219.759 689.793 219.703 693.266 219.691C700.194 219.645 707.112 219.587 714.029 219.519C714.053 216.221 710.24 212.923 702.338 209.918C701.394 209.56 700.259 209.18 698.213 209.003C696.414 208.848 694.288 208.881 692.294 208.918L684.649 209.061L677.041 209.258L661.842 209.657L646.661 210.054C644.136 210.125 641.597 210.176 639.087 210.262L631.555 210.517Z" fill="#7B9982"/>
<path d="M179.804 256.694C174.957 258.732 181.755 261.418 193.533 262.402C205.385 263.393 219.525 262.528 224.266 260.607C225.239 260.199 225.823 259.741 225.451 259.274C225.206 258.965 224.552 258.664 223.881 258.368C221.045 257.122 217.513 255.827 211.332 255.04C202.8 253.947 189.82 254.245 183.903 255.684C185.217 255.314 186.627 254.961 188.014 254.601" fill="#7B9982"/>
<path d="M319.103 251.305C312.9 248.911 304.183 246.11 289.972 245.918C283.304 245.834 276.988 246.36 271.409 246.968C265.803 247.591 260.39 248.268 255.216 248.994C252.605 249.351 250.141 249.742 247.755 250.146C245.359 250.549 243.031 250.962 240.773 251.386C242.21 252.205 241.312 252.989 239.786 253.762C238.294 254.542 236.261 255.332 235.247 256.125C232.53 258.259 238.53 260.735 249.08 262.104C276.667 260.691 300.505 257.855 317.982 253.847C319.542 253.485 321.101 253.083 321.186 252.591C321.264 252.155 320.17 251.718 319.103 251.305Z" fill="#7B9982"/>
<path d="M389.711 239.08C386.227 238.371 382.053 237.658 377.004 237.509C373.112 237.404 369.295 237.651 365.661 237.894C357.263 238.466 348.689 238.988 340.434 239.629L327.918 240.551C323.733 240.857 319.535 241.161 315.456 241.504C313.793 241.639 312.031 241.789 311.112 242.073C309.878 242.454 310.53 242.952 311.312 243.39C315.215 245.574 321.661 247.629 329.853 249.416C331.356 249.744 333.081 250.083 335.253 250.185C337.152 250.274 339.016 250.165 340.754 250.053C346.903 249.639 353.176 249.263 359.301 248.84C362.366 248.629 365.404 248.411 368.42 248.183C371.429 247.955 374.415 247.718 377.468 247.504C382.766 247.115 388.323 246.608 392.615 245.915C394.766 245.57 396.589 245.174 397.93 244.73C399.302 244.298 400.166 243.809 400.327 243.253C400.768 241.738 395.535 240.266 389.711 239.08Z" fill="#7B9982"/>
<path d="M419.37 239.363C421.272 239.76 423.297 240.175 425.91 240.359C427.891 240.498 429.994 240.487 432.014 240.46C438.299 240.376 444.421 240.15 450.269 239.789C456.16 239.446 461.881 239.013 467.163 238.426C465.28 236.959 463.394 235.459 459.19 234.149C454.991 232.839 447.918 231.733 439.749 231.6C437.742 231.569 435.731 231.59 433.772 231.654C431.827 231.723 429.903 231.825 428.006 231.929C422.225 232.245 416.486 232.592 410.811 232.968C407.977 233.158 405.141 233.348 402.356 233.558C399.602 233.78 396.864 234.01 394.149 234.246C402.713 235.943 411.058 237.624 419.37 239.363Z" fill="#7B9982"/>
<path d="M561.136 234.441C563.087 233.849 562.217 233.048 561.273 232.34L557.265 229.327C556.057 228.42 554.403 227.4 549.904 226.972C546.903 226.687 543.378 226.745 540.077 226.81C519.5 227.327 498.778 227.865 478.303 228.624C476.332 228.691 474.209 228.774 472.922 229.049C471.496 229.352 471.509 229.803 471.671 230.212C472.412 232.102 474.828 233.981 478.656 235.772C479.671 236.247 480.845 236.732 482.832 237.09C486.381 237.729 491.544 237.812 496.154 237.807C506.607 237.806 516.731 237.506 526.794 237.124C531.791 236.915 536.697 236.646 541.493 236.318C543.893 236.154 546.264 235.975 548.605 235.781C550.965 235.598 553.325 235.417 555.637 235.212C557.731 235.028 559.895 234.817 561.136 234.441Z" fill="#7B9982"/>
<path d="M653.218 232.762C654.458 232.71 655.753 232.641 656.913 232.54C658.078 232.445 659.094 232.308 659.75 232.098C660.763 231.774 660.637 231.359 660.477 230.971L658.94 227.19C658.388 225.82 657.041 224.199 650.362 223.564C646.714 223.237 642.437 223.336 638.428 223.437L611.72 224.107C602.877 224.378 594.076 224.682 585.245 224.964C583.24 227.511 584.448 230.147 588.378 232.652C588.93 233.004 589.606 233.375 591.06 233.619C592.946 233.935 595.6 233.955 598.004 233.95C602.667 233.94 607.307 233.903 611.925 233.837C614.233 233.804 616.535 233.764 618.832 233.716L625.775 233.605C635.022 233.437 644.17 233.156 653.218 232.762Z" fill="#7B9982"/>
<path d="M758.776 225.385C758.475 224.544 757.977 223.626 754.78 223.027C752.424 222.585 749.021 222.402 745.754 222.253C742.826 222.119 739.875 221.998 736.903 221.892C735.419 221.841 733.924 221.784 732.436 221.747C730.949 221.713 729.459 221.682 727.965 221.654C721.99 221.543 715.966 221.488 709.934 221.487C703.903 221.486 697.868 221.54 691.874 221.649C685.902 221.78 680.007 222.01 674.183 222.27C672.197 225.313 672.648 228.406 675.172 231.442C681.509 231.735 687.847 231.869 694.201 231.882C700.59 231.932 707.025 231.893 713.451 231.756C719.881 231.624 726.322 231.41 732.748 231.155C735.95 231.014 739.206 230.931 742.424 230.808C745.65 230.687 748.869 230.568 752.067 230.448C754.81 230.344 757.915 230.189 759.209 229.707C759.967 229.424 759.907 229.088 759.824 228.77C759.525 227.641 759.177 226.513 758.776 225.385Z" fill="#7B9982"/>
<path d="M831.233 217.77C831.233 217.77 829.89 217.753 827.537 217.724C825.184 217.696 821.83 217.642 817.772 217.64C809.668 217.607 798.863 217.565 788.059 217.522C777.288 217.438 766.365 217.527 758.211 217.548C750.049 217.578 744.608 217.597 744.608 217.597C737.399 217.625 731.278 216.581 730.949 215.285L729.76 210.415C729.422 209.102 735.326 208.028 742.937 207.999C742.937 207.999 748.657 207.978 757.239 207.946C765.817 207.924 777.273 207.834 788.676 207.92C800.09 207.965 811.505 208.011 820.067 208.045C824.352 208.049 827.903 208.105 830.393 208.134C832.883 208.165 834.305 208.182 834.305 208.182C841.881 208.274 847.586 209.403 847.048 210.706L845.106 215.569C844.567 216.871 838.356 217.857 831.233 217.77Z" fill="#7B9982"/>
<path d="M875.733 218.54C878.472 218.875 881.892 218.941 885.166 218.996L897.968 219.212C902.231 219.289 906.524 219.338 910.744 219.462L936.173 220.1C939.237 220.176 942.564 220.236 945.684 220.175C948.8 220.117 951.673 219.973 953.916 219.573C957.148 219.004 957.887 218.122 958.424 217.307C959.212 216.12 959.779 214.825 958.815 213.63C958.333 213.033 957.466 212.461 956.051 211.94C954.624 211.429 952.634 210.982 949.938 210.611C944.461 209.862 937.158 209.633 930.182 209.475C925.545 209.37 920.898 209.285 916.25 209.22C911.591 209.168 906.893 209.179 902.227 209.187C892.883 209.214 883.581 209.322 874.403 209.512C870.439 210.593 868.099 211.84 867.352 213.13C866.611 214.411 867.462 215.729 869.874 216.952C871.084 217.565 872.793 218.181 875.733 218.54Z" fill="#7B9982"/>
<path d="M1082.83 218.032C1081.26 217.694 1079.27 217.433 1077.11 217.214C1076.02 217.106 1074.89 217.005 1073.74 216.916C1072.58 216.833 1071.4 216.757 1070.22 216.683C1059.7 216.017 1049.04 215.404 1038.3 214.846C1027.46 214.343 1016.46 213.947 1005.47 213.58C1001.01 213.435 995.764 213.328 992.612 213.923C990.689 214.278 990.133 214.786 989.654 215.264L984.045 220.805C983.4 221.434 982.854 222.131 984.815 222.645C986.142 223.005 988.379 223.201 990.522 223.376C996.535 223.867 1002.63 224.313 1008.8 224.713C1011.88 224.913 1014.99 225.102 1018.11 225.279C1021.23 225.458 1024.3 225.669 1027.43 225.844C1033.67 226.206 1039.98 226.522 1046.38 226.793C1049.56 226.932 1052.8 227.044 1056.01 227.173C1059.19 227.311 1062.4 227.437 1065.63 227.552C1067.85 227.631 1070.33 227.697 1072.29 227.469C1074.03 227.268 1074.87 226.893 1075.6 226.544L1082.5 223.244C1086.08 221.533 1089.44 219.456 1082.83 218.032Z" fill="#7B9982"/>
<path d="M1169.65 233.004C1182.5 232.783 1192.18 230.23 1190.87 227.904C1189.54 225.587 1179.79 223.553 1167.97 222.386C1162.12 221.785 1155.86 221.324 1149.49 220.915C1146.32 220.699 1143.01 220.55 1139.75 220.375C1136.49 220.206 1133.22 220.038 1129.99 219.859C1125.93 219.635 1121.55 219.39 1117.57 219.626C1114.32 219.818 1111.95 220.299 1109.97 220.788C1102.93 222.527 1098.78 224.626 1097.76 226.761C1104.93 228.094 1113.38 229.085 1122.48 229.898C1131.48 230.75 1140.99 231.483 1150.45 232.163C1151.98 232.275 1153.54 232.387 1155.12 232.491C1156.69 232.595 1158.24 232.708 1159.84 232.792C1163.02 232.965 1166.29 233.061 1169.65 233.004Z" fill="#7B9982"/>
<path d="M1276.28 244.061C1277.68 243.974 1278.72 243.762 1279.67 243.557C1289.01 241.553 1296.93 239.343 1302.96 236.977C1304.06 236.542 1305.13 236.052 1304.24 235.595C1303.59 235.256 1301.98 235.003 1300.43 234.768C1294.49 233.911 1288.36 233.091 1282.15 232.284C1279.03 231.885 1275.92 231.479 1272.72 231.1C1269.48 230.73 1266.23 230.366 1262.94 230.007C1256.36 229.296 1249.76 228.584 1242.94 227.945C1236.06 227.322 1229.11 226.725 1222.09 226.156C1214.16 228.788 1208.33 231.617 1204.48 234.508C1203.88 234.96 1203.34 235.438 1204.11 235.871C1205.14 236.448 1208.23 236.799 1211.12 237.104C1215.4 237.537 1219.49 238.033 1223.66 238.501L1236.11 239.913C1238.18 240.15 1240.29 240.376 1242.33 240.621L1248.43 241.362L1260.64 242.836C1262.35 243.041 1264.07 243.247 1265.84 243.435C1267.62 243.623 1269.39 243.812 1271.3 243.954C1272.86 244.072 1274.63 244.165 1276.28 244.061Z" fill="#7B9982"/>
<path d="M1371.06 258.795C1383.48 256.639 1394.63 254.226 1403.76 251.618C1406.83 250.742 1406.21 249.707 1403.21 248.628C1401.71 248.089 1399.62 247.54 1397.11 246.996C1394.6 246.452 1391.55 245.941 1388.31 245.438C1375.44 243.404 1358.05 241.892 1348.34 241.613C1324.73 241.037 1304.87 244.79 1295.29 248.119C1298.15 248.597 1301.11 249.062 1304.16 249.514C1307.24 249.961 1310.35 250.41 1313.47 250.862C1319.71 251.769 1326.32 252.617 1332.87 253.485C1339.35 254.37 1345.98 255.227 1352.45 256.1C1358.79 256.997 1365.09 257.885 1371.06 258.795Z" fill="#7B9982"/>
<path d="M1430.81 253.931C1429.62 253.745 1428.24 253.555 1426.64 253.564C1425.41 253.571 1424.32 253.696 1423.32 253.818C1409.2 255.54 1396.88 257.691 1386.69 260.106C1405.45 263.619 1423.65 264.959 1441.56 268.5C1456.35 266.454 1469.06 266.091 1477.62 263.151C1478.65 262.8 1479.64 262.41 1479.17 262.021C1478.75 261.681 1477.29 261.411 1475.84 261.171C1461.3 258.669 1446.19 256.268 1430.81 253.931Z" fill="#7B9982"/>
<path d="M880.109 232.611C885.593 232.649 891.87 232.568 895.631 231.723C898.179 231.15 898.865 230.383 899.452 229.643L903.871 224.082C904.085 223.812 904.289 223.526 903.717 223.276C902.959 222.951 901.06 222.794 899.3 222.663C869.892 220.431 836.381 219.634 804.448 220.665L804.405 227.146C804.392 227.973 804.578 228.894 807.544 229.473C809.212 229.799 811.518 229.961 813.756 230.105C819.188 230.43 824.581 230.82 830.057 231.109C835.526 231.408 841.04 231.655 846.59 231.851C857.742 232.196 868.836 232.545 880.109 232.611Z" fill="#7B9982"/>
<path d="M940.573 222.347C928.419 223.03 920.871 225.668 924.101 227.87C925.704 228.97 929.795 229.86 934.896 230.384C939.969 230.934 946.006 231.166 951.788 230.855C954.207 230.727 956.601 230.515 958.422 230.167C959.624 229.937 960.533 229.657 961.406 229.378C965.082 228.202 968.52 226.901 968.033 225.565C967.39 223.711 957.758 222.166 947.657 222.258L955.045 222.137" fill="#7B9982"/>
<path d="M1053.05 237.669C1059.62 235.312 1066.4 232.353 1058.27 230.29C1056.36 229.805 1053.83 229.432 1050.99 229.136C1048.11 228.862 1044.95 228.659 1041.83 228.48C1029.23 227.77 1016.25 227.238 1002.92 227.179C997.544 228.618 986.837 228.722 978.595 229.441C977.214 229.562 975.897 229.703 974.644 229.866C973.381 230.037 972.188 230.225 971.073 230.429C968.843 230.838 966.929 231.308 965.392 231.816C962.314 232.833 960.742 234.006 961.106 235.143C967.139 235.804 973.241 236.481 979.636 237C986.015 237.529 992.622 237.941 999.399 238.249C1006.08 238.613 1012.94 238.862 1019.94 238.997C1023.45 239.064 1026.99 239.103 1030.56 239.112C1034.14 239.114 1037.64 239.149 1041.22 239.12C1043.79 239.105 1046.53 239.065 1048.74 238.766C1050.69 238.501 1051.91 238.076 1053.05 237.669Z" fill="#7B9982"/>
<path d="M1151.56 239.369C1152.49 238.446 1152.96 237.442 1150.44 236.658C1149.46 236.355 1148.11 236.105 1146.58 235.894C1145.03 235.692 1143.3 235.521 1141.61 235.357L1118 233.05L1093.85 230.908C1092.22 230.763 1090.46 230.613 1088.64 230.665C1086.2 230.733 1084.43 231.135 1082.99 231.524C1075.84 233.452 1070.9 235.633 1068.24 237.868C1067.75 238.28 1067.37 238.721 1068.3 239.079C1069.09 239.397 1070.74 239.586 1072.31 239.756C1077.93 240.364 1083.62 240.937 1089.38 241.476L1093.72 241.875L1095.9 242.069L1098.05 242.279C1100.91 242.557 1103.8 242.826 1106.7 243.087C1111.79 243.544 1117.55 243.959 1123.34 244.087C1129.08 244.231 1134.77 244.126 1139.89 243.454C1146.86 242.545 1150.03 240.905 1151.56 239.369Z" fill="#7B9982"/>
<path d="M1169.08 243.551C1168.53 244.06 1167.98 244.595 1168.83 245.062C1169.48 245.416 1170.86 245.69 1172.27 245.943C1174.45 246.337 1176.77 246.702 1179.2 247.038C1180.42 247.206 1181.66 247.367 1182.93 247.52C1184.19 247.68 1185.45 247.838 1186.75 247.985C1191.95 248.578 1197.57 249.047 1203.52 249.383C1208.81 248.196 1214.25 246.987 1217.37 245.591C1220.49 244.194 1220.87 242.545 1216.25 241.368C1213.98 240.789 1210.7 240.367 1207.44 239.967C1202.36 239.393 1197.17 238.847 1191.9 238.327C1189.26 238.067 1186.6 237.813 1183.92 237.567L1179.88 237.203C1178.51 237.09 1177.12 236.984 1175.74 236.877C1173.74 239.089 1171.47 241.332 1169.08 243.551Z" fill="#7B9982"/>
<path d="M1280.54 259.545C1284.38 259.434 1287.38 258.809 1289.91 258.232L1300.71 255.782C1303.96 255.045 1307.43 254.175 1306.48 253.296C1305.83 252.713 1303.4 252.262 1300.96 251.873L1289.45 250.032C1285.6 249.421 1281.82 248.786 1277.81 248.206L1265.93 246.424L1259.98 245.529C1257.97 245.237 1255.91 244.957 1253.88 244.67C1252.31 244.451 1250.59 244.221 1248.54 244.226C1246.28 244.23 1244.3 244.519 1242.58 244.802C1234.68 246.107 1227.9 247.629 1222.41 249.281C1220.95 249.72 1219.55 250.185 1219.24 250.678C1218.68 251.557 1221.62 252.295 1224.59 252.904C1226.26 253.253 1228.05 253.573 1229.78 253.912C1231.53 254.248 1233.33 254.571 1235.19 254.883C1238.91 255.506 1242.85 256.081 1247 256.605C1251.16 257.128 1255.33 257.651 1259.79 258.093C1264.22 258.547 1268.92 258.93 1273.66 259.291C1275.79 259.457 1278.09 259.615 1280.54 259.545Z" fill="#7B9982"/>
<path d="M1345.52 268.037C1347.49 268.309 1349.8 268.131 1352.5 268.037C1354.58 267.964 1356.35 268.303 1357.97 268.037L1373.82 268.136C1379.57 267.198 1385.93 265.997 1384.51 264.717C1383.71 264.015 1380.73 263.479 1377.8 262.998L1367.95 261.415C1364.66 260.887 1361.41 260.353 1358 259.847L1347.9 258.308C1346.21 258.053 1344.55 257.791 1342.84 257.541L1337.66 256.796C1325.08 258.147 1314.16 259.983 1305.56 262.097C1304.35 262.395 1303.14 262.72 1302.98 263.068C1302.78 263.52 1304.38 263.885 1305.94 264.201C1308.99 264.805 1311.96 265.428 1315.1 266.016C1318.23 266.607 1321.48 267.175 1324.83 267.725C1328.08 268.292 1331.09 267.513 1334.56 268.037C1336.29 268.299 1338.27 267.786 1340.06 268.037C1341.83 268.291 1343.72 267.789 1345.52 268.037Z" fill="#7B9982"/>
<path d="M318.284 121.469C319.799 109.535 325.457 96.731 325.457 96.731L334.931 99.6335L330.038 133.739L328.088 141.41L319.799 145.284C319.799 145.284 316.768 133.404 318.284 121.469Z" fill="#54482F"/>
<path d="M325.847 99.7295C325.752 99.6352 325.642 99.5468 325.51 99.5221C325.132 99.4513 324.885 99.8982 324.764 100.263C324.345 101.539 323.925 102.814 323.505 104.09C322.473 107.227 321.43 110.423 321.376 113.726C323.473 110.687 325.1 107.323 326.18 103.793C326.599 102.424 326.863 100.738 325.847 99.7295Z" fill="#473D26"/>
<path d="M298.513 183.309C298.513 183.309 299.163 188.347 297.213 190.459C295.263 192.572 289.9 195.172 289.738 196.472C289.575 197.772 289.862 198.922 291.905 198.517C293.949 198.111 301.3 194.915 301.636 194.704C301.972 194.493 303.968 191.956 303.968 191.956L304.56 193.882C304.56 193.882 308.369 192.75 309.778 190.954C309.778 190.954 307.613 185.259 305.175 184.122L302.9 180.129L298.513 183.309Z" fill="#1B1F30"/>
<path d="M300.434 182.835C301.752 182.695 302.77 181.518 303.143 180.247C303.517 178.977 303.379 177.619 303.237 176.302C302.89 173.065 302.541 169.827 302.194 166.59C302.005 164.837 301.811 163.06 301.166 161.419C300.522 159.778 299.36 158.262 297.733 157.584C299.036 157.631 300.339 157.679 301.642 157.726C301.024 156.947 300.406 156.168 299.788 155.388C301.144 155.195 302.344 156.415 303.713 156.429C304.321 156.435 304.903 156.2 305.466 155.97C309.421 154.349 313.375 152.728 317.33 151.107C317.114 149.458 316.682 147.836 316.047 146.299C316.839 147.541 317.859 148.638 319.04 149.519C319.108 146.801 318.248 144.076 316.67 141.865C307.643 144.865 294.114 149.578 292.825 151.297C290.875 153.897 292.38 162.411 294.065 169.772C295.75 177.134 297.333 185.038 297.333 185.038C297.333 185.038 298.28 185.877 300.058 185.915C301.182 184.803 302.306 183.691 303.43 182.579C302.432 182.665 301.433 182.75 300.434 182.835Z" fill="#323859"/>
<path d="M324.75 139.239C324.75 139.239 321.302 140.327 316.671 141.866C318.249 144.077 319.108 146.802 319.04 149.519C317.859 148.638 316.84 147.542 316.047 146.3C316.683 147.837 317.115 149.458 317.33 151.108C313.376 152.729 309.421 154.349 305.467 155.97C304.904 156.201 304.322 156.436 303.714 156.429C302.344 156.416 301.144 155.196 299.789 155.389C300.407 156.168 301.025 156.947 301.643 157.727C300.34 157.679 299.036 157.632 297.733 157.585C299.361 158.262 300.522 159.779 301.167 161.42C301.812 163.06 302.006 164.838 302.194 166.591C302.542 169.828 302.89 173.065 303.238 176.303C303.379 177.619 303.518 178.977 303.144 180.248C302.77 181.519 301.752 182.695 300.435 182.835C301.434 182.75 302.433 182.665 303.431 182.58C302.307 183.692 301.183 184.804 300.059 185.916C301.344 185.944 303.063 185.554 305.177 184.123C305.177 184.123 304.039 164.298 303.714 160.235C303.714 160.235 322.062 154.385 324.751 153.248C327.439 152.11 331.946 140.063 331.946 140.063L324.75 139.239Z" fill="#23294D"/>
<path d="M380.314 259.684C390.143 259.684 398.11 251.717 398.11 241.888C398.11 232.059 390.143 224.092 380.314 224.092C370.485 224.092 362.518 232.059 362.518 241.888C362.518 251.717 370.485 259.684 380.314 259.684Z" stroke="black" stroke-width="6" stroke-miterlimit="10"/>
<path d="M380.313 243.707C381.318 243.707 382.132 242.892 382.132 241.888C382.132 240.884 381.318 240.07 380.313 240.07C379.309 240.07 378.495 240.884 378.495 241.888C378.495 242.892 379.309 243.707 380.313 243.707Z" fill="black"/>
<path d="M380.313 224.092V259.684" stroke="black" stroke-width="2" stroke-miterlimit="10"/>
<path d="M376.11 224.595L384.516 259.181" stroke="black" stroke-width="2" stroke-miterlimit="10"/>
<path d="M372.146 226.077L388.482 257.699" stroke="black" stroke-width="2" stroke-miterlimit="10"/>
<path d="M368.643 228.453L391.985 255.323" stroke="black" stroke-width="2" stroke-miterlimit="10"/>
<path d="M365.8 231.59L394.828 252.186" stroke="black" stroke-width="2" stroke-miterlimit="10"/>
<path d="M363.778 235.309L396.85 248.467" stroke="black" stroke-width="2" stroke-miterlimit="10"/>
<path d="M362.692 239.4L397.936 244.375" stroke="black" stroke-width="2" stroke-miterlimit="10"/>
<path d="M362.604 243.633L398.025 240.144" stroke="black" stroke-width="2" stroke-miterlimit="10"/>
<path d="M363.516 247.766L397.111 236.01" stroke="black" stroke-width="2" stroke-miterlimit="10"/>
<path d="M365.38 251.567L395.249 232.209" stroke="black" stroke-width="2" stroke-miterlimit="10"/>
<path d="M368.088 254.82L392.54 228.956" stroke="black" stroke-width="2" stroke-miterlimit="10"/>
<path d="M371.488 257.342L389.14 226.435" stroke="black" stroke-width="2" stroke-miterlimit="10"/>
<path d="M375.388 258.989L385.241 224.787" stroke="black" stroke-width="2" stroke-miterlimit="10"/>
<path d="M309.4 259.035C336.683 259.035 358.8 236.918 358.8 209.635C358.8 182.352 336.683 160.235 309.4 160.235C282.117 160.235 260 182.352 260 209.635C260 236.918 282.117 259.035 309.4 259.035Z" stroke="black" stroke-width="14" stroke-miterlimit="10"/>
<path d="M309.4 211.453C310.405 211.453 311.219 210.639 311.219 209.635C311.219 208.631 310.405 207.816 309.4 207.816C308.396 207.816 307.582 208.631 307.582 209.635C307.582 210.639 308.396 211.453 309.4 211.453Z" fill="black"/>
<path d="M309.4 160.235V258.989" stroke="black" stroke-width="2" stroke-miterlimit="10"/>
<path d="M302.086 160.78L316.707 258.446" stroke="black" stroke-width="2" stroke-miterlimit="10"/>
<path d="M317.171 160.85L301.636 258.375" stroke="black" stroke-width="2" stroke-miterlimit="10"/>
<path d="M324.749 162.68L294.065 256.547" stroke="black" stroke-width="2" stroke-miterlimit="10"/>
<path d="M331.944 165.679L286.876 253.55" stroke="black" stroke-width="2" stroke-miterlimit="10"/>
<path d="M338.579 169.773L280.248 249.46" stroke="black" stroke-width="2" stroke-miterlimit="10"/>
<path d="M344.486 174.86L274.346 244.378" stroke="black" stroke-width="2" stroke-miterlimit="10"/>
<path d="M349.52 180.812L269.317 238.431" stroke="black" stroke-width="2" stroke-miterlimit="10"/>
<path d="M353.555 187.482L265.286 231.767" stroke="black" stroke-width="2" stroke-miterlimit="10"/>
<path d="M356.49 194.705L262.354 224.552" stroke="black" stroke-width="2" stroke-miterlimit="10"/>
<path d="M358.252 202.298L260.593 216.965" stroke="black" stroke-width="2" stroke-miterlimit="10"/>
<path d="M358.798 210.075L260.048 209.195" stroke="black" stroke-width="2" stroke-miterlimit="10"/>
<path d="M358.114 217.84L260.731 201.437" stroke="black" stroke-width="2" stroke-miterlimit="10"/>
<path d="M356.217 225.402L262.627 193.883" stroke="black" stroke-width="2" stroke-miterlimit="10"/>
<path d="M353.153 232.57L265.688 186.721" stroke="black" stroke-width="2" stroke-miterlimit="10"/>
<path d="M349 239.168L269.836 180.13" stroke="black" stroke-width="2" stroke-miterlimit="10"/>
<path d="M343.861 245.03L274.97 174.273" stroke="black" stroke-width="2" stroke-miterlimit="10"/>
<path d="M337.865 250.01L280.962 169.297" stroke="black" stroke-width="2" stroke-miterlimit="10"/>
<path d="M331.159 253.985L287.662 165.326" stroke="black" stroke-width="2" stroke-miterlimit="10"/>
<path d="M323.91 256.856L294.902 162.458" stroke="black" stroke-width="2" stroke-miterlimit="10"/>
<path d="M307.582 137.376V154.71C307.582 154.71 324.649 153.059 344.717 167.71C371.8 187.482 363.949 240.385 381.852 242.381" stroke="black" stroke-width="5" stroke-miterlimit="10"/>
<path d="M307.582 151.797C307.582 151.797 316.859 149.917 330.084 154.101" stroke="black" stroke-width="5" stroke-miterlimit="10"/>
<path d="M310.377 206.1C310.377 206.1 309.064 211.007 306.458 212.22C303.851 213.433 297.903 213.8 297.259 214.941C296.615 216.082 296.443 217.255 298.487 217.657C300.531 218.058 308.546 217.894 308.937 217.826C309.327 217.759 312.138 216.171 312.138 216.171L311.953 218.177C311.953 218.177 315.908 218.577 317.893 217.452C317.893 217.452 318.053 211.361 316.231 209.383L315.644 204.825L310.377 206.1Z" fill="#1B1F30"/>
<path d="M331.877 157.833C330.261 153.448 327.228 149.601 323.352 146.99C319.399 154.157 308.439 174.364 308.872 177.297C309.4 180.872 307.582 208.682 307.582 208.682C307.582 208.682 308.113 209.133 309.126 209.574C310.596 209.506 312.138 209.581 313.555 209.309C314.017 209.22 314.59 208.9 314.457 208.449C313.427 208.171 312.396 207.893 311.366 207.615C312.43 207.788 313.515 207.243 314.231 206.438C314.947 205.632 315.35 204.6 315.664 203.569C317.185 198.578 316.925 193.25 317.179 188.039C317.432 182.827 318.343 177.342 321.703 173.351C322.792 172.057 324.1 170.97 325.313 169.792C327.716 167.456 330.047 164.204 331.925 160.323C331.211 158.808 330.098 157.502 328.999 156.227C330.062 156.537 331.054 157.091 331.877 157.833Z" fill="#323859"/>
<path d="M336.08 143.732L334.1 141.222L327.762 140.062L324.749 144.472C324.749 144.472 324.218 145.42 323.352 146.989C327.227 149.6 330.26 153.447 331.876 157.833C331.054 157.09 330.062 156.537 328.998 156.227C330.097 157.502 331.21 158.808 331.925 160.323C332.066 160.031 332.205 159.735 332.341 159.436C330.397 163.709 327.897 167.28 325.313 169.792C324.1 170.97 322.792 172.057 321.703 173.35C318.342 177.342 317.432 182.827 317.179 188.039C316.925 193.25 317.184 198.578 315.664 203.569C315.35 204.6 314.947 205.632 314.231 206.438C313.515 207.243 312.429 207.788 311.366 207.615C312.396 207.893 313.426 208.171 314.456 208.449C314.59 208.9 314.017 209.22 313.554 209.309C312.137 209.581 310.596 209.506 309.126 209.574C310.795 210.3 313.773 211 317.85 209.612C317.85 209.612 318.987 182.54 320.775 180.812C322.562 179.085 340.05 161.535 343.332 152.922L336.08 143.732ZM334.77 152.575C334.322 154.3 333.774 155.959 333.148 157.537C333.774 155.959 334.322 154.3 334.77 152.575ZM335.619 148.477C335.585 148.699 335.548 148.92 335.51 149.141C335.548 148.92 335.585 148.699 335.619 148.477ZM335.443 149.524C335.401 149.754 335.357 149.983 335.312 150.211C335.357 149.983 335.401 149.754 335.443 149.524ZM335.018 151.573C334.952 151.854 334.883 152.134 334.811 152.413C334.883 152.134 334.951 151.854 335.018 151.573ZM332.743 158.524C332.617 158.82 332.488 159.113 332.356 159.402C332.488 159.113 332.616 158.819 332.743 158.524ZM333.133 157.575C333.013 157.878 332.89 158.178 332.764 158.474C332.89 158.178 333.013 157.878 333.133 157.575Z" fill="#23294D"/>
<path d="M329.008 69.1265C329.008 69.1265 323.946 70.8597 323.375 72.1597C322.804 73.4597 322.508 75.5179 322.508 75.5179C322.508 75.5179 317.091 76.8179 314.6 76.1679C314.6 76.1679 315.619 79.2284 318.652 81.0699C318.652 81.0699 318.825 83.1011 318.825 84.0761C318.825 85.0511 317.091 87.4344 317.091 87.4344C317.091 87.4344 316.766 93.0676 320.016 94.0426C323.266 95.0176 326.191 96.3176 326.191 96.3176L326.3 100.868L336.862 99.7844C336.862 99.7844 336.863 94.3955 337.512 92.7969C338.568 90.1969 340.6 88.0844 340.6 88.0844L344.066 84.9969V79.0926C344.066 79.0926 339.516 72.1594 339.191 72.1594C338.866 72.1594 329.008 69.1265 329.008 69.1265Z" fill="#FFCF99"/>
<path d="M326.292 82.3272C325.906 82.5768 325.547 82.8745 325.269 83.2401C324.608 84.1108 324.477 85.3208 324.811 86.3617C325.145 87.4027 325.905 88.2753 326.819 88.8753C327.64 89.4145 328.593 89.7505 329.571 89.8454C331.118 89.9956 332.898 89.3618 333.451 87.9094C333.734 87.1635 333.649 86.3172 333.376 85.5668C333.104 84.8164 332.659 84.1436 332.215 83.4803C331.978 83.1264 331.738 82.7702 331.434 82.4718C330.111 81.1747 327.847 81.3194 326.292 82.3272Z" fill="#FFAD73"/>
<path d="M320.486 80.0699C320.467 79.9636 320.416 79.8641 320.403 79.7569C320.377 79.5476 320.494 79.3503 320.607 79.1722C320.909 78.6925 321.212 78.2131 321.516 77.7334C321.946 77.0529 322.384 76.306 322.469 75.5273C321.997 75.6378 316.973 76.7874 314.6 76.1679C314.6 76.1679 315.617 79.2203 318.641 81.0627C318.997 80.9929 319.37 81.0159 319.725 80.9347C320.139 80.8398 320.562 80.4878 320.486 80.0699Z" fill="#FFAD73"/>
<path d="M304.443 134.397C304.443 134.397 299.975 137.044 302.575 138.189C305.175 139.334 310.375 139.411 312.516 139.001C313.136 138.883 316.062 137.728 316.062 137.728L315.002 136.169C315.002 136.169 313.194 136.682 310.521 136.885C308.171 137.064 307.11 136.843 306.46 136.386C305.81 135.929 307.581 134.921 307.581 134.921C307.581 134.921 306.8 133.909 304.443 134.397Z" fill="black"/>
<path d="M309.426 130.859C308.164 131.028 309.615 136.381 311.004 136.162C312.393 135.944 312.286 135.57 311.646 132.584C311.362 131.264 310.689 130.691 309.426 130.859Z" fill="#2E2719"/>
<path d="M308.1 136.649C308.1 136.649 309.15 134.568 310.158 134.922C311.165 135.276 311.954 133.948 312.516 133.55C313.077 133.151 312.516 130.831 312.516 130.831C312.516 130.831 308.362 131.906 307.581 131.933C306.799 131.96 302.791 132.465 302.574 135.733L304.199 134.922C304.199 134.922 305.282 135 306.041 134.726C306.041 134.726 304.337 136.473 308.1 136.649Z" fill="#FFCF99"/>
<path d="M309.427 130.83L321.533 127.193L324.241 132.676L311.004 136.162C311.004 136.162 313.137 133.709 309.427 130.83Z" fill="#54482F"/>
<path d="M340.275 143.741C341.168 140.166 339.95 136.649 339.95 136.649L338.285 137.444L338.758 107.043L327.638 102.02C327.638 102.02 319.021 106.448 319.041 133.152C319.043 135.664 319.216 138.225 319.891 140.656C319.891 140.657 319.891 140.658 319.892 140.659C321.522 141.118 323.664 141.9 326.395 143.227C329.96 144.96 333.092 147.092 334.752 148.4C337.261 148.624 339.505 146.821 340.275 143.741Z" fill="#C7AA6F"/>
<path d="M326.462 104.985C326.462 104.985 325.162 103.468 324.787 100.868C324.632 99.7958 324.787 97.293 324.787 97.293C324.787 97.293 326.95 95.343 328.25 95.1262C329.55 94.9094 336.917 94.043 336.917 94.043L337.567 102.06L326.462 104.985Z" fill="#730938"/>
<path d="M325.108 98.4306C325.108 98.4306 324.729 98.8099 325 99.5138C325 99.5138 333.016 95.6008 337.066 95.3564C337.066 95.3564 328.386 96.3857 325.108 98.4306Z" fill="#5C072D"/>
<path d="M325.568 102.019C325.568 102.019 325.284 101.613 325.243 101.085C325.243 101.085 332.759 97.3375 335.196 96.4688C335.196 96.4688 327.234 100.557 325.568 102.019Z" fill="#5C072D"/>
<path d="M325.457 99.7238C328.472 97.78 332.058 96.9704 335.368 95.5869C333.284 96.7429 331.155 97.8216 328.961 98.7518C327.839 99.2272 326.674 99.6696 325.457 99.7238Z" fill="#5C072D"/>
<path d="M334.208 96.6434C334.208 96.6434 340.427 94.9102 343.331 94.9102C348.797 94.9102 351.604 97.138 353.112 97.1039C356.687 97.0227 361.481 95.2621 363.431 95.1539C363.431 95.1539 362.682 98.1602 363.873 100.868C363.873 100.868 361.33 102.382 356.443 102.385C351.081 102.389 349.634 99.3409 344.987 98.9905C340.437 98.6477 335.508 100.676 335.508 100.676L334.208 96.6434Z" fill="#5C072D"/>
<path d="M355.686 99.7213C355.101 99.8981 354.494 100.052 353.885 100.004C353.202 99.9511 352.567 99.6505 351.927 99.4083C348.679 98.1802 345.02 98.4158 341.698 99.4252C339.476 100.101 337.066 101.109 334.934 100.188C334.933 100.003 334.932 99.8185 334.932 99.6339C339.097 97.1077 343.747 95.3845 348.552 94.5863C349.149 94.4872 349.771 94.4033 350.352 94.574C350.92 94.741 351.395 95.1365 351.949 95.3465C353.292 95.8554 354.763 95.1976 356.083 94.6305C357.711 93.9308 359.391 93.352 361.106 92.9005C362.339 92.5759 363.608 92.3155 364.881 92.3961C365.04 92.4062 365.215 92.4296 365.321 92.5492C365.426 92.6695 365.427 92.8463 365.421 93.0062C365.371 94.4839 365.32 95.9617 365.27 97.4398C361.977 97.0735 358.858 98.7639 355.686 99.7213Z" fill="#730938"/>
<path d="M338.137 98.272C341.253 97.0939 344.441 96.1065 347.677 95.3165C348.392 95.1419 349.303 95.0461 349.716 95.6551C349.907 95.9362 349.942 96.3191 350.193 96.5472C350.427 96.7591 350.775 96.7715 351.09 96.764C352.427 96.7325 353.761 96.557 355.06 96.2411C353.91 97.1235 352.429 97.5622 350.983 97.4481C350.361 97.3991 349.706 97.2278 349.289 96.763C349.114 96.5677 348.987 96.3269 348.781 96.1641C348.345 95.8202 347.719 95.9294 347.179 96.0555C345.821 96.3727 344.463 96.6902 343.105 97.0074C340.751 97.5577 338.354 98.1241 336.275 99.3588C336.755 98.8131 337.458 98.5288 338.137 98.272Z" fill="#5C072D"/>
<path d="M351.308 98.549C349.803 98.4983 348.388 97.8223 346.895 97.6302C345.436 97.4423 343.963 97.7225 342.518 98.0013C341.042 98.2864 339.565 98.5714 338.089 98.8564C340.461 98.1044 342.875 97.4843 345.316 96.9994C345.734 96.9162 346.165 96.8372 346.584 96.9145C347.018 96.9945 347.401 97.235 347.798 97.428C349.181 98.1018 350.787 98.2129 352.311 97.9981C353.834 97.7829 355.296 97.2594 356.733 96.7095C355.041 97.6481 353.241 98.6143 351.308 98.549Z" fill="#5C072D"/>
<path d="M340.275 127.193C341.173 125.996 341.986 124.597 342.704 123.165C342.898 113.961 342.743 102.074 338.108 99.6764C338.108 99.6764 338 97.5096 338.541 96.7514C339.083 95.9931 340.6 94.4764 340.166 94.0431C339.733 93.6099 336.916 94.0431 336.916 94.0431C336.916 94.0431 330.091 97.9431 326.462 103.685C322.833 109.427 319.475 123.618 319.908 129.685C320.055 131.74 320.29 133.552 320.626 135.097C326.134 133.861 337.474 130.928 340.275 127.193Z" fill="#54482F"/>
<path d="M328.007 103.937C328.007 103.937 331.666 96.8594 336.917 95.1531C339.173 94.4203 339.412 94.9094 339.412 94.9094C339.412 94.9094 337.036 96.4262 337.361 99.5137C337.361 99.5137 332.584 100.38 328.007 103.937Z" fill="#473D26"/>
<path d="M320.075 131.56C323.057 131.029 327.138 130.019 330.021 129.09C331.737 128.538 333.523 127.753 334.457 126.212C335.087 125.175 335.245 123.926 335.357 122.718C335.869 117.166 335.69 111.55 334.827 106.042C334.8 105.872 334.771 105.697 334.685 105.548C334.442 105.132 333.819 105.082 333.404 105.327C332.989 105.573 332.741 106.021 332.543 106.46C331.368 109.055 331.232 112 331.414 114.843C331.596 117.686 332.077 120.512 332.065 123.36C332.064 123.732 332.048 124.124 331.852 124.44C331.598 124.849 331.105 125.033 330.647 125.185C327.266 126.307 323.365 128.048 319.873 128.751C319.799 129.969 319.966 130.472 320.075 131.56Z" fill="#473D26"/>
<path d="M349 158.609C349 158.609 358.15 166.084 367.466 159.043C367.466 159.043 354.466 159.584 348.4 151.026C342.86 143.211 342.65 139.82 342.573 133.351C338.741 137.122 328.683 139.588 323.683 140.62C323.758 140.658 323.832 140.702 323.91 140.734C326.3 141.709 330.987 143.697 332.287 146.622C333.587 149.547 341.791 164.351 347.75 167.817C353.708 171.284 362.158 171.501 362.158 171.501C362.158 171.501 351.659 168.576 349 158.609Z" fill="#54482F"/>
<path d="M344.573 158.058C343.386 155.527 342.586 152.778 340.938 150.519C340.895 151.238 339.936 151.574 339.264 151.315C338.592 151.056 338.136 150.444 337.639 149.924C337.141 149.404 336.464 148.925 335.758 149.064C337.464 151.97 338.762 155.098 340.424 158.029C342.086 160.96 344.183 163.753 347.06 165.508C348.665 166.488 350.459 167.111 352.259 167.655C348.989 165.122 346.331 161.803 344.573 158.058Z" fill="#473D26"/>
<path d="M345.779 153.039C348.598 157.881 354.278 160.904 359.868 160.536C354.624 159.888 349.795 156.504 347.395 151.797C346.856 152.211 346.318 152.625 345.779 153.039Z" fill="#473D26"/>
<path d="M342.55 131.418C342.522 129.372 342.635 126.438 342.704 123.165C341.986 124.597 341.173 125.995 340.275 127.193C337.474 130.927 326.133 133.861 320.626 135.096C321.249 137.962 322.231 139.883 323.683 140.62C328.683 139.588 338.741 137.122 342.573 133.351C342.565 132.736 342.559 132.095 342.55 131.418Z" fill="#473D26"/>
<path d="M318.284 130.876C316.253 131.147 317.637 139.353 319.871 139.001C322.105 138.649 322.885 138.454 321.855 133.651C321.399 131.526 320.315 130.605 318.284 130.876Z" fill="#2E2719"/>
<path d="M320.873 131.933C320.873 131.933 319.454 132.161 318.859 132.116C318.264 132.07 315.379 131.978 314.28 132.482C313.181 132.986 311.349 134.176 311.166 135.275C310.984 136.374 310.48 138.114 311.67 138.572C311.67 138.572 311.331 141.172 313.666 141.172C313.666 141.172 314.509 142.189 315.653 141.411C315.653 141.411 316.661 142.373 317.485 141.411C318.309 140.449 316.935 139.671 316.981 138.938C317.027 138.206 317.485 137.61 318.217 137.427C318.95 137.244 320.965 137.794 321.926 136.557C321.926 136.557 322.415 132.777 320.873 131.933Z" fill="#FFCF99"/>
<path d="M311.67 138.571C311.67 138.571 311.608 138.293 311.605 137.869C311.601 137.657 311.615 137.409 311.65 137.145C311.674 137.014 311.686 136.875 311.724 136.739C311.755 136.602 311.791 136.464 311.838 136.327C311.88 136.19 311.94 136.058 311.998 135.928C312.048 135.795 312.137 135.68 312.202 135.561C312.276 135.446 312.368 135.347 312.445 135.249C312.535 135.161 312.627 135.084 312.709 135.012C312.8 134.951 312.889 134.903 312.965 134.86C313.037 134.81 313.12 134.801 313.177 134.778C313.297 134.742 313.364 134.725 313.364 134.725C313.364 134.725 313.306 134.765 313.205 134.836C313.158 134.874 313.09 134.901 313.033 134.964C312.974 135.02 312.907 135.083 312.833 135.152C312.771 135.229 312.704 135.313 312.633 135.402C312.575 135.502 312.508 135.6 312.447 135.708C312.395 135.822 312.33 135.932 312.284 136.056C312.234 136.178 312.182 136.3 312.146 136.43C312.053 136.682 311.994 136.948 311.931 137.195C311.875 137.445 311.828 137.68 311.79 137.884C311.718 138.297 311.67 138.571 311.67 138.571Z" fill="#CF9F6B"/>
<path d="M313.666 141.172C313.666 141.172 313.617 141.094 313.549 140.949C313.482 140.803 313.388 140.594 313.299 140.333C313.213 140.072 313.123 139.761 313.068 139.418C313.038 139.247 313.012 139.07 313.002 138.887C312.981 138.705 312.991 138.518 312.986 138.332C312.995 138.145 313.018 137.959 313.039 137.776C313.079 137.595 313.107 137.415 313.166 137.248C313.23 137.083 313.269 136.917 313.356 136.777C313.436 136.637 313.495 136.495 313.586 136.387C313.671 136.275 313.753 136.176 313.825 136.09C313.903 136.009 313.982 135.948 314.041 135.893C314.163 135.788 314.234 135.733 314.234 135.733C314.234 135.733 314.182 135.81 314.087 135.937C314.041 136.001 313.978 136.073 313.92 136.164C313.869 136.261 313.812 136.37 313.746 136.483C313.676 136.595 313.641 136.738 313.578 136.874C313.512 137.008 313.494 137.171 313.442 137.325C313.394 137.481 313.387 137.654 313.35 137.821C313.333 137.993 313.317 138.167 313.311 138.343C313.311 138.519 313.298 138.695 313.314 138.869C313.323 139.042 313.329 139.214 313.351 139.379C313.381 139.712 313.434 140.02 313.478 140.286C313.53 140.55 313.568 140.774 313.609 140.928C313.645 141.083 313.666 141.172 313.666 141.172Z" fill="#CF9F6B"/>
<path d="M315.654 141.411C315.654 141.411 315.472 141.165 315.286 140.749C315.239 140.645 315.192 140.531 315.147 140.408C315.106 140.284 315.054 140.156 315.021 140.016C314.942 139.741 314.885 139.438 314.859 139.131C314.839 138.978 314.852 138.821 314.848 138.669C314.852 138.516 314.879 138.366 314.896 138.222C314.931 138.079 314.961 137.941 315.006 137.814C315.058 137.69 315.104 137.572 315.159 137.469C315.222 137.37 315.283 137.281 315.336 137.205C315.387 137.126 315.457 137.076 315.501 137.027C315.598 136.937 315.653 136.885 315.653 136.885C315.653 136.885 315.617 136.951 315.552 137.067C315.523 137.125 315.474 137.186 315.441 137.27C315.409 137.354 315.372 137.447 315.329 137.545C315.296 137.648 315.274 137.764 315.238 137.88C315.212 138 315.203 138.131 315.179 138.262C315.173 138.396 315.167 138.534 315.162 138.675C315.169 138.817 315.161 138.961 315.182 139.104C315.2 139.393 315.249 139.681 315.298 139.95C315.349 140.22 315.409 140.471 315.461 140.687C315.571 141.118 315.654 141.411 315.654 141.411Z" fill="#CF9F6B"/>
<path d="M332.583 110.293C332.583 110.293 333.341 116.36 333.45 118.743C333.558 121.126 332.583 125.46 332.583 125.46C332.583 125.46 319.475 129.793 318.283 130.877C318.283 130.877 319.983 130.618 320.666 133.531C321.272 136.109 321.566 139.002 319.87 139.002C319.87 139.002 338.325 135.776 341.466 132.676C344.608 129.577 343.2 110.402 341.466 106.394C341.466 106.394 333.558 98.8096 332.583 110.293Z" fill="#54482F"/>
<path d="M323.034 77.2298C323.034 77.2298 323.99 76.7549 324.884 76.1703C325.331 75.8787 325.76 75.5583 326.046 75.2785C326.119 75.2092 326.184 75.1449 326.234 75.0805C326.285 75.0172 326.337 74.9674 326.365 74.9154C326.428 74.8163 326.463 74.7598 326.463 74.7598C326.463 74.7598 326.432 74.8192 326.376 74.9229C326.352 74.9778 326.304 75.0311 326.258 75.0991C326.212 75.168 326.151 75.2378 326.083 75.3132C325.816 75.6181 325.407 75.9746 324.978 76.3029C324.121 76.9607 323.19 77.5148 323.19 77.5148C323.113 77.5609 323.013 77.5362 322.967 77.4592C322.92 77.3822 322.945 77.2824 323.022 77.2359C323.025 77.234 323.03 77.2317 323.034 77.2298Z" fill="#BD703F"/>
<path d="M323.129 76.5003C323.129 76.5003 323.126 76.5192 323.125 76.5153C323.124 76.5192 323.119 76.5471 323.12 76.5806C323.12 76.6482 323.129 76.76 323.171 76.8975C323.212 77.0343 323.277 77.1978 323.376 77.3648C323.421 77.4503 323.477 77.5345 323.536 77.62C323.591 77.708 323.662 77.788 323.727 77.8735C323.79 77.9596 323.868 78.0353 323.937 78.1162C324.006 78.1978 324.084 78.2687 324.156 78.3415C324.298 78.4893 324.447 78.6096 324.57 78.7207C324.695 78.828 324.806 78.9105 324.881 78.9716C324.957 79.0318 325 79.0665 325 79.0665C325 79.0665 324.951 79.0405 324.866 78.9954C324.781 78.9489 324.656 78.8875 324.511 78.8039C324.37 78.7162 324.197 78.6232 324.026 78.5007C323.939 78.4406 323.846 78.3827 323.76 78.3125C323.673 78.2427 323.578 78.179 323.494 78.101C323.147 77.8055 322.832 77.4461 322.664 77.1048C322.576 76.9378 322.527 76.7772 322.503 76.6541C322.49 76.592 322.486 76.5436 322.483 76.4961C322.483 76.4542 322.483 76.4318 322.483 76.4318C322.484 76.2514 322.63 76.1055 322.81 76.1055C322.991 76.1055 323.137 76.252 323.137 76.4324C323.137 76.4483 323.135 76.4636 323.133 76.4789L323.129 76.5003Z" fill="#8F552F"/>
<path d="M318.23 85.6521C318.23 85.6521 317.553 87.802 320.045 88.127C322.537 88.452 323.7 86.8393 323.7 86.8393C323.7 86.8393 323.7 89.2768 326.408 88.8436C329.116 88.4104 335.291 82.2354 335.291 82.2354C335.291 82.2354 332.691 78.0104 336.375 73.8936C336.375 73.8936 328.236 75.151 326.834 70.2975C325.433 65.4439 328.033 63.1686 331.825 63.2771C331.825 63.2771 330.308 64.2521 331.283 65.9854C331.283 65.9854 333.016 63.8186 335.725 64.3604C335.725 64.3604 334.208 66.9604 336.375 67.9354C338.541 68.9104 345.041 67.1771 347.641 73.1354C350.241 79.0936 347.641 79.7436 347.641 79.7436C347.641 79.7436 349.7 86.6719 342.225 88.8953C342.225 88.8953 341.575 89.7104 342.766 91.1186C342.766 91.1186 341.128 91.1264 340.6 89.9268C340.6 89.9268 340.383 91.66 341.575 92.96C340.852 92.8723 340.118 92.6701 339.451 92.3802C338.95 92.1622 338.449 91.8742 338.093 91.4504C337.688 90.9684 337.633 90.2785 337.493 89.6853C337.274 88.7571 337.03 87.8413 336.916 86.8933C336.916 86.8933 331.066 97.2933 324.025 99.3515C316.983 101.41 312.866 101.085 310.808 98.2683C308.75 95.4515 309.4 94.4765 310.158 94.0433C310.916 93.61 313.929 93.1765 314.59 90.7933C315.25 88.4097 317.205 85.7844 318.23 85.6521Z" fill="#BD703F"/>
<path d="M325.384 94.7257C325.581 94.3721 325.745 93.9197 325.522 93.5817C325.031 93.5242 324.622 93.9541 324.139 94.0617C323.526 94.1982 322.9 93.7708 322.6 93.219C322.3 92.6671 322.252 92.0181 322.21 91.3915C321.707 92.0763 321.132 92.8092 320.303 92.9947C319.313 93.2161 318.299 92.5329 317.807 91.646C317.315 90.7591 317.224 89.7122 317.144 88.7012C316.16 89.1006 316.024 90.3944 315.699 91.4055C315.26 92.7737 314.187 93.9239 312.853 94.4579C312.039 94.7839 310.943 95.1261 310.938 96.0033C310.937 96.2847 311.066 96.5512 311.224 96.7842C311.946 97.8506 313.239 98.3732 314.494 98.6634C316.512 99.1304 318.661 99.1428 320.631 98.5019C322.6 97.861 324.376 96.5356 325.384 94.7257Z" fill="#BD5B1C"/>
<path d="M337.276 74.7052C336.837 75.428 336.465 76.21 336.356 77.0481C336.246 77.8863 336.428 78.7914 336.988 79.4245C337.608 80.1262 338.62 80.4012 339.549 80.2744C340.477 80.1477 341.325 79.6634 342.039 79.057C341.529 79.524 340.7 79.5188 340.106 79.1655C339.512 78.8122 339.129 78.1778 338.925 77.5171C338.721 76.8564 338.672 76.1596 338.598 75.4722C338.561 75.1326 338.514 74.7845 338.348 74.4858C338.182 74.1872 337.868 73.9467 337.528 73.9665C337.415 74.0104 337.443 74.1725 337.439 74.2934C337.435 74.4429 337.353 74.5775 337.276 74.7052Z" fill="#BD5B1C"/>
<path d="M329.121 64.5146C328.305 65.4129 328.12 66.7168 328.147 67.9297C328.158 68.4406 328.205 68.9671 328.44 69.4212C328.89 70.2922 329.907 70.6906 330.855 70.9405C332.017 71.2464 333.327 71.4183 334.359 70.8037C333.574 70.8265 332.763 70.845 332.032 70.557C331.291 70.2655 330.694 69.6753 330.283 68.9938C329.871 68.3123 329.632 67.5404 329.457 66.764C329.289 66.0239 329.177 65.2716 329.121 64.5146Z" fill="#BD5B1C"/>
<path d="M333.216 65.3701C332.479 66.0572 331.865 67.0614 332.14 68.0309C332.306 68.6178 332.781 69.0823 333.328 69.351C333.876 69.6201 334.492 69.715 335.1 69.756C333.782 68.7433 333.043 67.0234 333.216 65.3701Z" fill="#BD5B1C"/>
<path d="M342.956 78.2297C342.381 78.2557 341.905 77.7575 341.68 77.2274C341.455 76.697 341.394 76.1081 341.167 75.5784C340.875 74.8942 340.303 74.3352 339.612 74.0593C339.229 73.9066 338.767 73.8471 338.423 74.0743C339.017 74.2342 339.382 74.8367 339.563 75.425C339.744 76.0132 339.808 76.645 340.102 77.1858C340.631 78.1582 341.925 78.6317 342.956 78.2297Z" fill="#BD5B1C"/>
<path d="M343.909 78.3832C344.567 77.6708 344.975 76.7114 344.945 75.7419C344.915 74.7725 344.422 73.8101 343.606 73.2859C342.79 72.7617 341.663 72.7269 340.856 73.2661C341.903 73.4822 342.744 74.3129 343.213 75.2736C343.681 76.2343 343.828 77.3175 343.909 78.3832Z" fill="#BD5B1C"/>
<path d="M347.59 75.9065C347.548 74.8687 347.195 73.8144 346.462 73.079C345.728 72.3435 344.583 71.9853 343.604 72.3331C344.334 72.2681 344.914 72.9207 345.305 73.5405C345.742 74.233 346.117 74.976 346.295 75.7752C346.473 76.5743 346.443 77.4375 346.096 78.1795C346.604 78.1837 347.069 77.8334 347.312 77.3872C347.557 76.9409 347.61 76.4144 347.59 75.9065Z" fill="#BD5B1C"/>
<path d="M330.348 72.1592C331.801 72.8928 333.506 73.1177 335.1 72.7865C335.474 72.7088 335.849 72.6009 336.23 72.6237C336.611 72.6467 337.012 72.8343 337.161 73.1862C337.315 72.4771 336.806 71.6922 336.096 71.5437C335.583 71.4364 335.061 71.6256 334.559 71.7757C333.199 72.1817 331.758 72.313 330.348 72.1592Z" fill="#BD5B1C"/>
<path d="M338.758 73.0102C339.39 72.6631 339.702 71.8493 339.517 71.1531C339.331 70.457 338.693 69.9201 337.983 69.7989C337.273 69.678 336.52 69.9519 336.011 70.4612C336.681 70.2552 337.426 70.5889 337.888 71.1167C338.349 71.6449 338.579 72.3326 338.758 73.0102Z" fill="#BD5B1C"/>
<path d="M342.427 70.1444C342.263 69.9826 342.025 69.925 341.798 69.8812C341.051 69.7362 340.29 69.6624 339.529 69.6611C340.115 69.7369 340.663 70.0716 340.997 70.5588C341.331 71.0456 341.447 71.6771 341.307 72.2511C341.993 72.164 342.578 71.5591 342.642 70.8705C342.666 70.6105 342.613 70.3274 342.427 70.1444Z" fill="#BD5B1C"/>
<path d="M342.161 81.1891C342.646 81.3311 343.019 81.7413 343.224 82.2034C343.43 82.6656 343.489 83.1781 343.52 83.6828C343.556 84.2616 343.554 84.8658 343.308 85.391C342.746 86.5909 341.134 86.9773 340.493 88.1373C340.756 87.7096 341.246 87.4899 341.7 87.2757C342.45 86.9221 343.193 86.5041 343.725 85.8684C344.266 85.2207 344.549 84.3858 344.642 83.5466C344.726 82.7965 344.644 81.9762 344.156 81.4C343.669 80.8238 342.681 80.6424 342.161 81.1891Z" fill="#BD5B1C"/>
<path d="M345.009 80.9752C345.938 82.3291 345.99 84.2311 345.136 85.6334C344.677 86.3865 344.001 86.9776 343.336 87.5558C344.73 86.4544 346.175 85.207 346.629 83.4894C346.762 82.987 346.802 82.4631 346.787 81.9434C346.771 81.3925 346.672 80.8004 346.281 80.4123C345.778 79.9138 344.845 79.9622 344.396 80.5105C344.66 80.5361 344.859 80.7568 345.009 80.9752Z" fill="#BD5B1C"/>
<path d="M339.307 91.1178C339.477 91.2855 339.704 91.4346 339.938 91.3882C339.628 90.8857 339.553 90.2773 339.502 89.6891C339.446 89.0342 339.411 88.3774 339.397 87.7202C338.922 88.1417 338.632 88.7648 338.615 89.3995C338.598 90.0342 338.855 90.6715 339.307 91.1178Z" fill="#BD5B1C"/>
<path d="M341.289 87.8789C340.688 88.5029 340.824 89.67 341.553 90.1386C341.469 89.4253 341.384 88.7116 341.3 87.9982" fill="#BD5B1C"/>
<path d="M329.459 91.0947C329.826 92.8364 329.304 94.7419 328.101 96.0532C326.898 97.3646 325.044 98.0484 323.277 97.8323C324.765 96.8748 326.063 95.6512 327.271 94.359C328.172 93.3941 329.05 92.3509 329.459 91.0947Z" fill="#BD5B1C"/>
<path d="M330.167 88.3066C329.285 89.1094 328.359 89.9001 327.257 90.3561C326.155 90.8121 324.834 90.8884 323.806 90.2836C323.47 90.5992 323.438 91.1592 323.671 91.5563C323.904 91.9535 324.355 92.1914 324.812 92.2463C325.27 92.3012 325.733 92.193 326.162 92.0246C327.882 91.3503 329.07 89.7925 330.167 88.3066Z" fill="#BD5B1C"/>
<path d="M318.012 84.0224C318.012 84.0224 317.687 81.9099 318.5 81.5036C319.312 81.0974 320.612 81.2267 321.181 81.9746C321.75 82.7224 322.725 85.2411 323.862 85.4036C325 85.5661 326.544 85.8099 326.869 84.4286C326.869 84.4286 327.275 86.2161 324.756 86.1349C322.237 86.0536 318.662 84.5911 318.012 84.0224Z" fill="#BD703F"/>
<path d="M322.298 88.9023C321.055 89.8439 319.16 89.7945 317.967 88.7896C318.17 89.7379 318.84 90.7074 319.807 90.7808C320.353 90.8224 320.888 90.5634 321.295 90.1975C321.703 89.8312 322.003 89.3635 322.298 88.9023Z" fill="#BD5B1C"/>
<path d="M336.118 83.54C335.62 85.3584 335.038 87.1674 334.147 88.8291C333.256 90.4908 332.038 92.0095 330.458 93.0388C330.504 92.2838 330.371 91.5188 330.073 90.8236C330.727 90.561 331.171 89.9234 331.375 89.2493C331.579 88.5753 331.578 87.8586 331.575 87.1544C333.378 86.3893 334.967 85.1254 336.118 83.54Z" fill="#BD5B1C"/>
<path d="M338.977 81.239C337.927 81.2455 336.91 80.7073 336.232 79.9042C335.554 79.1011 335.199 78.0569 335.123 77.0088C334.787 77.8437 334.898 78.7976 335.176 79.6543C335.375 80.2692 335.684 80.8896 336.233 81.2312C337.033 81.7294 338.068 81.4918 338.977 81.239Z" fill="#BD5B1C"/>
<path d="M318.825 82.0757C318.531 82.4979 318.623 83.1417 319.023 83.4644C319.356 83.7325 319.84 83.7826 320.129 84.0975C319.768 83.9093 319.65 83.4599 319.553 83.0643C319.454 82.6688 319.286 82.221 318.898 82.0984" fill="#BD5B1C"/>
<path d="M319.917 82.3755C320.082 82.7863 320.246 83.1971 320.412 83.6076C320.512 83.8592 320.617 84.1162 320.799 84.3168C320.981 84.5173 321.26 84.6528 321.523 84.5904C321.137 84.2618 321.086 83.6986 320.942 83.2124C320.798 82.7262 320.377 82.2043 319.888 82.3375" fill="#BD5B1C"/>
<path d="M338.406 82.3971C338.406 82.3971 340.438 81.0158 341.413 82.3971C342.388 83.7783 341.738 85.1651 341.006 86.1372C340.275 87.1093 339.002 88.2198 336.917 86.8928C336.917 86.8928 338.081 84.9971 338.406 82.3971Z" fill="#FFCF99"/>
<path d="M339.989 83.2456C339.748 83.0662 339.282 82.7792 339.254 82.8364C339.402 82.5319 339.821 82.4389 340.134 82.5673C340.447 82.6957 340.664 82.9866 340.815 83.2888C341.091 83.8374 341.201 84.4783 341.065 85.077C340.929 85.6756 340.532 86.2223 339.978 86.4855C339.682 86.6259 339.354 86.6838 339.03 86.7254C338.779 86.7575 338.484 86.7653 338.317 86.5752C338.182 86.4218 338.182 86.1917 338.227 85.9925C338.377 85.3266 338.982 84.789 339.661 84.7178C339.397 84.8553 339.203 85.1205 339.153 85.4143C339.146 85.4543 339.142 85.4975 339.16 85.5336C339.181 85.5739 339.225 85.5966 339.268 85.6122C339.768 85.7955 340.146 85.3925 340.206 84.919C340.257 84.5144 340.253 84.0041 340.198 83.6011C340.187 83.5202 340.169 83.4386 340.129 83.3675C340.116 83.3457 340.063 83.3008 339.989 83.2456Z" fill="#FFAD73"/>
<path d="M327.594 66.6015C335.211 74.0219 346.408 75.6294 346.408 75.6294C346.577 73.9459 346.89 72.2842 347.297 70.6699C339.006 70.0589 334.119 67.6432 329.771 63.3964C328.511 65.3188 327.594 66.6015 327.594 66.6015Z" fill="#730938"/>
<path d="M336.954 48.8826C336.413 52.7608 332.363 59.4399 329.771 63.3964C334.119 67.6432 339.006 70.0589 347.297 70.6699C349.723 61.0392 355.592 53.1485 355.592 53.1485C345.441 45.1145 336.954 48.8826 336.954 48.8826Z" fill="#473D26"/>
<path d="M324 62.6263C324 62.6263 327.32 69.7815 336.864 72.7055C346.408 75.6295 353.315 74.5102 353.315 74.5102" stroke="#473D26" stroke-width="9" stroke-miterlimit="10" stroke-linecap="round"/>
<path d="M1482.15 257.577L1482.48 262.29L1482.5 262.586L1482.15 262.614L1482.15 262.615L1478.2 262.29L1482.15 261.965L1482.15 261.965L1481.83 262.29L1482.15 257.577Z" fill="black"/>
<path d="M1479.05 263.256C1479.53 262.981 1480.03 262.786 1480.54 262.608C1480.79 262.526 1481.04 262.44 1481.3 262.37C1481.56 262.296 1481.82 262.233 1482.08 262.172L1482.09 262.17C1482.26 262.129 1482.43 262.236 1482.47 262.408C1482.5 262.524 1482.46 262.64 1482.38 262.715C1482.21 262.871 1482.04 263.023 1481.86 263.171C1481.69 263.323 1481.51 263.466 1481.33 263.608C1481.15 263.751 1480.96 263.887 1480.77 264.02C1480.58 264.151 1480.38 264.279 1480.18 264.393C1480.3 264.19 1480.43 263.999 1480.57 263.813C1480.71 263.627 1480.85 263.444 1481 263.269C1481.15 263.093 1481.3 262.918 1481.46 262.752C1481.61 262.581 1481.77 262.415 1481.93 262.253L1482.23 262.796C1481.97 262.864 1481.72 262.929 1481.45 262.984C1481.19 263.043 1480.93 263.085 1480.67 263.132C1480.14 263.212 1479.61 263.274 1479.05 263.256Z" fill="black"/>
<path d="M1464.56 240.127C1464.56 240.127 1470.89 234.595 1477.17 238.444C1483.45 242.294 1486.49 251.327 1490.39 252.444C1494.29 253.56 1502.09 254.661 1502.09 254.661C1502.09 254.661 1491.58 264.692 1478.96 259.776C1466.34 254.86 1475.57 242.293 1464.56 240.127Z" fill="white"/>
<path d="M1471.32 240.668C1471.74 240.668 1472.08 240.329 1472.08 239.91C1472.08 239.491 1471.74 239.152 1471.32 239.152C1470.9 239.152 1470.56 239.491 1470.56 239.91C1470.56 240.329 1470.9 240.668 1471.32 240.668Z" fill="black"/>
<path d="M1477.86 248.062C1477.87 249.171 1478 250.274 1478.3 251.331C1478.45 251.858 1478.63 252.375 1478.85 252.876C1479.06 253.381 1479.33 253.846 1479.65 254.272C1479.97 254.693 1480.35 255.068 1480.8 255.304C1481.02 255.425 1481.26 255.504 1481.5 255.539C1481.74 255.575 1481.99 255.579 1482.22 255.52C1482.68 255.419 1482.99 255.062 1483.09 254.602C1483.19 254.15 1483.06 253.666 1482.8 253.242C1482.74 253.136 1482.66 253.033 1482.58 252.934C1482.5 252.83 1482.43 252.744 1482.35 252.69C1482.28 252.629 1482.2 252.61 1482.2 252.616C1482.22 252.618 1482.22 252.587 1482.17 252.685C1482.01 253.122 1482.02 253.638 1482.16 254.11C1482.3 254.589 1482.57 255.022 1482.93 255.372C1483.29 255.721 1483.75 255.987 1484.23 256.173C1484.71 256.349 1485.25 256.501 1485.71 256.458C1485.94 256.433 1486.12 256.355 1486.23 256.2C1486.34 256.06 1486.4 255.824 1486.42 255.57C1486.45 255.057 1486.41 254.511 1486.26 254.02C1486.19 253.776 1486.08 253.542 1485.94 253.372C1485.79 253.203 1485.61 253.125 1485.39 253.15L1485.46 253.13C1485.37 253.171 1485.31 253.224 1485.28 253.296C1485.25 253.369 1485.24 253.471 1485.25 253.58C1485.29 253.8 1485.4 254.033 1485.53 254.246C1485.8 254.668 1486.17 255.065 1486.6 255.323C1486.7 255.381 1486.83 255.441 1486.95 255.48C1487.06 255.524 1487.19 255.559 1487.32 255.584C1487.57 255.636 1487.83 255.653 1488.09 255.638C1488.62 255.606 1489.14 255.467 1489.62 255.231C1489.16 255.511 1488.65 255.712 1488.11 255.779C1487.83 255.813 1487.56 255.817 1487.28 255.781C1487.14 255.763 1487.01 255.737 1486.87 255.696C1486.73 255.657 1486.61 255.614 1486.48 255.551C1485.97 255.289 1485.56 254.9 1485.23 254.441C1485.08 254.208 1484.93 253.956 1484.87 253.647C1484.84 253.494 1484.83 253.317 1484.9 253.141C1484.97 252.964 1485.11 252.82 1485.27 252.744L1485.29 252.73L1485.33 252.724C1485.5 252.695 1485.68 252.705 1485.85 252.769C1486.02 252.832 1486.17 252.939 1486.28 253.059C1486.5 253.304 1486.63 253.588 1486.73 253.869C1486.92 254.437 1486.98 255.012 1486.96 255.605C1486.95 255.898 1486.91 256.235 1486.68 256.548C1486.58 256.688 1486.43 256.816 1486.27 256.895C1486.11 256.977 1485.94 257.019 1485.78 257.04C1485.46 257.083 1485.14 257.046 1484.86 256.99C1484.57 256.934 1484.29 256.859 1484.01 256.756C1483.46 256.548 1482.93 256.249 1482.49 255.83C1482.05 255.418 1481.71 254.881 1481.54 254.293C1481.36 253.706 1481.35 253.057 1481.58 252.449C1481.61 252.365 1481.66 252.264 1481.75 252.167C1481.85 252.068 1481.98 252 1482.13 251.983C1482.41 251.961 1482.6 252.083 1482.74 252.186C1482.89 252.299 1482.99 252.431 1483.08 252.543C1483.17 252.662 1483.26 252.786 1483.34 252.917C1483.65 253.431 1483.84 254.1 1483.67 254.739C1483.59 255.052 1483.44 255.356 1483.21 255.598C1482.97 255.843 1482.66 256.002 1482.34 256.068C1481.72 256.202 1481.07 256.057 1480.55 255.75C1480.03 255.445 1479.62 255.006 1479.29 254.536C1478.96 254.064 1478.7 253.538 1478.51 253.012C1478.31 252.485 1478.16 251.942 1478.05 251.392C1477.82 250.294 1477.75 249.167 1477.86 248.062Z" fill="black"/>
<path d="M1486 259.681C1486.13 260.466 1486.2 261.251 1486.25 262.037C1486.28 262.43 1486.29 262.822 1486.31 263.215C1486.32 263.608 1486.32 264.001 1486.32 264.393L1486.33 264.608L1486.13 264.691C1485.77 264.842 1485.41 264.996 1485.05 265.142C1484.68 265.281 1484.32 265.432 1483.95 265.56C1483.21 265.828 1482.46 266.074 1481.69 266.262C1482.36 265.826 1483.05 265.45 1483.75 265.095C1484.09 264.912 1484.45 264.751 1484.8 264.578C1485.16 264.414 1485.51 264.256 1485.87 264.095L1485.67 264.393C1485.68 264.001 1485.68 263.608 1485.69 263.215C1485.71 262.822 1485.72 262.43 1485.75 262.037C1485.79 261.252 1485.86 260.466 1486 259.681Z" fill="black"/>
<path d="M1483.32 267.047C1483.66 266.498 1484.06 266.007 1484.47 265.528C1484.68 265.295 1484.89 265.057 1485.11 264.831C1485.32 264.604 1485.55 264.383 1485.77 264.165L1486.34 263.621L1486.32 264.393C1486.32 264.641 1486.31 264.89 1486.29 265.138C1486.28 265.386 1486.26 265.634 1486.24 265.883C1486.21 266.131 1486.18 266.379 1486.14 266.628C1486.11 266.876 1486.06 267.124 1486 267.373C1485.94 267.124 1485.89 266.876 1485.86 266.628C1485.82 266.379 1485.79 266.131 1485.76 265.883C1485.74 265.634 1485.72 265.386 1485.71 265.138C1485.69 264.89 1485.68 264.641 1485.68 264.393L1486.23 264.621C1486.01 264.845 1485.78 265.067 1485.55 265.282C1485.33 265.498 1485.09 265.703 1484.85 265.912C1484.37 266.318 1483.88 266.712 1483.32 267.047Z" fill="black"/>
</svg>
