<svg width="1561" height="271" viewBox="0 0 1561 271" fill="none" xmlns="http://www.w3.org/2000/svg">
<path d="M213.723 237.243C213.723 237.243 142.346 117.158 213.723 37.608C255.776 -9.25928 333.813 -10.3883 383.244 23.5001C451.862 70.5422 411.323 215.809 387.083 231.244L213.723 237.243Z" fill="#599EA8"/>
<path d="M250.555 226.528C250.555 226.528 176.785 118.498 237.15 53.5052C270.664 17.4228 361.326 28.6873 383.244 62.2536C421.244 120.447 369.577 205.903 356.12 217.923L250.555 226.528Z" fill="#397D87"/>
<path opacity="0.5" d="M1480.92 142.595C1492.23 145.733 1501.72 153.966 1498.47 172.925C1495.22 191.883 1477.83 189.005 1468.65 186.544C1459.47 184.083 1446.76 173.683 1451.91 157.605C1456.56 143.082 1470.72 139.766 1480.92 142.595Z" fill="white"/>
<path opacity="0.5" d="M1479.63 147.418C1488.51 149.881 1495.95 156.342 1493.4 171.219C1490.85 186.097 1477.2 183.838 1470 181.907C1462.79 179.976 1452.82 171.814 1456.86 159.197C1460.51 147.801 1471.62 145.198 1479.63 147.418Z" fill="white"/>
<path d="M1460.55 209.657C1460.55 209.657 1463.8 208.475 1467.26 210.409L1458.16 252.187C1458.16 252.187 1454.26 252.777 1450.36 249.46L1460.55 209.657Z" fill="#13353A"/>
<path d="M1462.5 211.536C1462.5 211.536 1469.65 177.995 1470.3 175.236H1472.25C1472.25 175.236 1465.31 209.093 1464.88 212.777L1462.5 211.536Z" fill="#13353A"/>
<path d="M1467.85 174.101L1473.02 174.837L1474.92 176.527L1482.28 163.281L1477.36 153.938L1469.05 157.934L1467.85 174.101Z" fill="white" stroke="#13353A" stroke-width="2" stroke-miterlimit="10"/>
<path d="M1469.05 157.934L1477.68 159.378L1482.28 163.281" stroke="#13353A" stroke-width="2" stroke-miterlimit="10"/>
<path d="M1473.02 174.837L1477.68 159.378L1477.36 153.938" stroke="#13353A" stroke-width="2" stroke-miterlimit="10"/>
<path d="M1467.66 174.288L1471.38 176.001L1474.92 176.713L1473.02 174.837L1467.66 174.288Z" fill="#13353A"/>
<path d="M1470.07 181.852C1469.86 180.237 1470.82 178.543 1472.32 177.893C1473.81 177.242 1475.71 177.689 1476.75 178.938C1477.1 179.352 1477.35 179.837 1477.56 180.336C1477.99 181.37 1478.22 182.576 1477.75 183.594C1477.28 184.618 1476.09 185.26 1474.98 185.095C1473.86 184.929 1472.91 183.969 1472.76 182.852C1472.71 182.455 1472.75 182.029 1472.97 181.697C1473.19 181.377 1473.55 181.178 1473.92 181.07C1474.48 180.906 1475.18 180.978 1475.52 181.454C1475.86 181.929 1475.5 182.79 1474.92 182.696" stroke="#13353A" stroke-width="2" stroke-miterlimit="10" stroke-linecap="round"/>
<path d="M1469.16 183.928C1469.26 183.103 1469.35 182.279 1469.44 181.455C1469.63 179.801 1469.72 177.859 1468.46 176.772C1467.41 175.871 1465.69 176.001 1464.67 176.929C1463.65 177.858 1463.33 179.416 1463.72 180.74C1463.9 181.363 1464.24 181.959 1464.76 182.344C1465.29 182.729 1466.01 182.871 1466.61 182.608C1467.2 182.344 1467.59 181.633 1467.4 181.012C1467.21 180.39 1466.38 180.029 1465.84 180.385" stroke="#13353A" stroke-width="2" stroke-miterlimit="10" stroke-linecap="round"/>
<path d="M1453.86 249.95L1458.5 230.827C1458.54 230.653 1458.72 230.546 1458.89 230.588C1459.06 230.63 1459.17 230.804 1459.13 230.977L1454.7 250.15C1454.65 250.383 1454.41 250.529 1454.18 250.475C1453.95 250.421 1453.8 250.188 1453.85 249.955C1453.85 249.954 1453.86 249.951 1453.86 249.95Z" fill="#0E282C"/>
<path d="M1451.94 248.875L1456.58 229.752C1456.62 229.577 1456.8 229.47 1456.97 229.513C1457.15 229.555 1457.25 229.728 1457.21 229.902L1452.78 249.075C1452.73 249.308 1452.5 249.453 1452.26 249.399C1452.03 249.345 1451.89 249.113 1451.94 248.879C1451.94 248.879 1451.94 248.876 1451.94 248.875Z" fill="#0E282C"/>
<path d="M1456.37 250.133L1460.92 230.693C1460.97 230.519 1461.14 230.41 1461.32 230.451C1461.49 230.491 1461.59 230.661 1461.56 230.833L1457.52 250.387C1457.46 250.707 1457.14 250.912 1456.82 250.846C1456.51 250.78 1456.3 250.468 1456.37 250.148C1456.37 250.144 1456.37 250.137 1456.37 250.133Z" fill="#0E282C"/>
<path d="M81.0586 248.383V266.546L1521.06 268V260.655C1144.26 162.477 404.059 211.566 81.0586 248.383Z" fill="#69826E"/>
<path d="M831.233 217.77C831.233 217.77 829.89 217.753 827.537 217.724C825.184 217.696 821.83 217.642 817.772 217.64C809.668 217.607 798.863 217.565 788.059 217.522C777.288 217.438 766.365 217.527 758.211 217.548C750.049 217.578 744.608 217.597 744.608 217.597C737.399 217.625 731.278 216.581 730.949 215.285L729.76 210.415C729.422 209.102 735.326 208.028 742.937 207.999C742.937 207.999 748.657 207.978 757.239 207.946C765.817 207.924 777.273 207.834 788.676 207.92C800.09 207.965 811.505 208.011 820.067 208.045C824.352 208.049 827.903 208.105 830.393 208.134C832.883 208.165 834.305 208.182 834.305 208.182C841.881 208.274 847.586 209.403 847.048 210.706L845.106 215.569C844.567 216.871 838.356 217.857 831.233 217.77Z" fill="#7B9982"/>
<path d="M890.109 230.31C890.109 230.31 885.149 230.211 877.706 230.062C873.986 229.986 869.647 229.898 864.997 229.803C862.667 229.761 860.283 229.693 857.818 229.666C855.356 229.638 852.855 229.609 850.354 229.58C840.352 229.458 830.351 229.337 822.851 229.245C819.11 229.185 815.954 229.186 813.752 229.178C811.55 229.17 810.29 229.165 810.29 229.165C803.621 229.141 798.341 228.061 798.495 226.756L799.142 221.882C799.296 220.577 805.187 219.542 812.297 219.569C812.297 219.569 813.631 219.574 815.969 219.583C818.305 219.592 821.65 219.593 825.627 219.655C833.597 219.751 844.225 219.88 854.853 220.009C857.51 220.04 860.167 220.072 862.784 220.102C865.4 220.132 867.944 220.202 870.422 220.247C875.37 220.347 879.99 220.441 883.948 220.521C891.868 220.68 897.148 220.786 897.148 220.786C900.653 220.859 903.637 221.174 905.573 221.656C907.504 222.145 908.417 222.77 907.883 223.416L903.918 228.241C903.386 228.887 901.567 229.434 899.082 229.795C896.592 230.165 893.398 230.378 890.109 230.31Z" fill="#7B9982"/>
<path d="M122.144 262.925C125.318 262.769 127.721 262.352 129.99 261.947C132.908 261.415 135.996 260.906 139.031 260.388C142.088 259.875 145.078 259.35 148.187 258.843L157.56 257.329L162.243 256.571L167.05 255.833C171.693 255.124 176.688 254.232 176.024 253.118C175.575 252.319 172.166 251.656 168.927 251.063C159.463 249.331 147.599 247.449 134.095 247.937C130.67 248.059 127.52 248.325 124.577 248.664C121.654 249.006 119.007 249.435 116.45 249.856C113.074 250.419 109.744 250.991 106.566 251.587C103.433 252.191 100.391 252.808 97.4435 253.436C94.4665 254.06 91.6939 254.712 89.0402 255.377C86.394 256.043 83.7737 256.707 81.4062 257.4C86.1468 259.857 97.8598 261.832 111.544 262.714C114.96 262.933 118.723 263.091 122.144 262.925Z" fill="#7B9982"/>
<path d="M251.649 234.79C246.689 234.791 242.043 235.212 237.667 235.633L233.987 235.989L230.393 236.37L223.254 237.147C218.517 237.672 213.808 238.205 209.171 238.757C204.62 239.331 200.116 239.916 195.667 240.512C191.215 241.107 186.792 241.708 182.594 242.359C179.152 242.879 175.426 243.539 175.939 244.322C176.255 244.803 178.134 245.202 179.931 245.573L200.746 249.873C203.097 250.361 205.84 250.886 209.361 250.953C211.769 250.999 214.035 250.817 216.144 250.633C222.011 250.106 227.946 249.588 233.696 249.023C239.466 248.462 244.976 247.836 250.61 247.237C256.185 246.623 261.609 245.97 266.881 245.277C272.237 244.607 277.513 243.916 282.595 243.175C284.35 242.921 286.206 242.622 286.448 242.209C286.661 241.844 285.546 241.492 284.472 241.17L274.339 238.136C269.082 236.564 262.078 234.789 251.649 234.79Z" fill="#7B9982"/>
<path d="M373.103 232.594C380.341 230.729 375.227 227.802 364.092 226.494C358.524 225.841 351.972 225.524 345.189 225.47C338.49 225.446 331.556 225.68 325.149 226.078C312.224 226.843 301.255 228.331 289.759 229.584C287.966 229.784 286.067 229.982 284.487 230.234C282.907 230.486 281.584 230.773 280.852 231.121C279.654 231.691 280.28 232.321 281.181 232.903C284.387 234.971 290.987 236.867 299.721 238.352C309.992 238.178 319.901 237.708 329.365 237.016C331.733 236.844 334.076 236.659 336.399 236.465L339.874 236.169L343.384 235.883C348.047 235.494 352.644 235.082 357.192 234.67C360.154 234.403 363.177 234.124 365.92 233.787C368.654 233.446 371.218 233.087 373.103 232.594Z" fill="#7B9982"/>
<path d="M489.806 225.192C490.299 224.945 490.022 224.669 489.721 224.409C486.768 221.872 482.02 219.4 475.389 217.095C474.168 216.67 472.678 216.218 470.11 216.055C468.207 215.934 466.079 215.998 464.07 216.065C456.498 216.319 448.925 216.6 441.395 216.916C433.958 217.279 426.549 217.672 419.186 218.093C415.505 218.303 411.837 218.521 408.182 218.745C404.524 218.969 400.979 219.243 397.396 219.5C390.256 220.025 383.183 220.577 376.194 221.155C382.784 223.898 391.581 226.485 401.93 228.844C403.547 229.213 405.32 229.591 407.73 229.764C410.947 229.994 414.474 229.802 417.674 229.609L424.696 229.183L428.203 228.968L431.76 228.777L445.976 228.012L460.151 227.238C464.894 226.991 469.709 226.78 474.475 226.547C478.485 226.355 482.522 226.159 486.192 225.813C487.697 225.672 489.223 225.485 489.806 225.192Z" fill="#7B9982"/>
<path d="M615.36 221.697C613.639 218.647 609.973 215.624 604.149 212.721C600.239 210.731 584.124 210.46 566.953 210.913C562.675 211.033 558.315 211.18 554.129 211.396C549.955 211.622 545.907 211.881 542.161 212.158C534.668 212.711 528.397 213.334 524.697 213.91C522.5 214.251 520.632 214.629 519.068 215.035C517.524 215.455 516.282 215.903 515.31 216.37C513.365 217.303 512.501 218.313 512.456 219.338C512.367 221.389 515.541 223.505 519.861 225.206C523.779 225.116 527.703 225.001 531.632 224.866C535.568 224.737 539.58 224.631 543.557 224.486C551.527 224.208 559.512 223.869 567.486 223.504C569.471 223.407 571.483 223.327 573.5 223.252L579.536 223.015C583.555 222.854 587.569 222.694 591.563 222.534C599.566 222.228 607.44 221.87 615.36 221.697Z" fill="#7B9982"/>
<path d="M631.555 210.517C629.985 210.57 628.268 210.639 627.298 210.86C626.551 211.031 626.419 211.257 626.329 211.47C625.064 214.471 626.839 217.5 631.148 220.406L641.484 220.263C644.924 220.21 648.358 220.155 651.831 220.137C658.755 220.08 665.666 220.011 672.566 219.932L682.91 219.804C686.355 219.759 689.793 219.703 693.266 219.691C700.194 219.645 707.112 219.587 714.029 219.519C714.053 216.221 710.24 212.923 702.338 209.918C701.394 209.56 700.259 209.18 698.213 209.003C696.414 208.848 694.288 208.881 692.294 208.918L684.649 209.061L677.041 209.258L661.842 209.657L646.661 210.054C644.136 210.125 641.597 210.176 639.087 210.262L631.555 210.517Z" fill="#7B9982"/>
<path d="M179.804 256.694C174.957 258.732 181.755 261.418 193.533 262.402C205.385 263.393 219.525 262.528 224.266 260.607C225.239 260.199 225.823 259.741 225.451 259.274C225.206 258.965 224.552 258.664 223.881 258.368C221.045 257.122 217.513 255.827 211.332 255.04C202.8 253.947 189.82 254.245 183.903 255.684C185.217 255.314 186.627 254.961 188.014 254.601" fill="#7B9982"/>
<path d="M319.103 251.305C312.9 248.911 304.183 246.11 289.972 245.918C283.304 245.834 276.988 246.36 271.409 246.968C265.803 247.591 260.39 248.268 255.216 248.994C252.605 249.351 250.141 249.742 247.755 250.146C245.359 250.549 243.031 250.962 240.773 251.386C242.21 252.205 241.312 252.989 239.786 253.762C238.294 254.542 236.261 255.332 235.247 256.125C232.53 258.259 238.53 260.735 249.08 262.104C276.667 260.691 300.505 257.855 317.982 253.847C319.542 253.485 321.101 253.083 321.186 252.591C321.264 252.155 320.17 251.718 319.103 251.305Z" fill="#7B9982"/>
<path d="M389.711 239.08C386.227 238.371 382.053 237.658 377.004 237.509C373.112 237.404 369.295 237.651 365.661 237.894C357.263 238.466 348.689 238.988 340.434 239.629L327.918 240.551C323.733 240.857 319.535 241.161 315.456 241.504C313.793 241.639 312.031 241.789 311.112 242.073C309.878 242.454 310.53 242.952 311.312 243.39C315.215 245.574 321.661 247.629 329.853 249.416C331.356 249.744 333.081 250.083 335.253 250.185C337.152 250.274 339.016 250.165 340.754 250.053C346.903 249.639 353.176 249.263 359.301 248.84C362.366 248.629 365.404 248.411 368.42 248.183C371.429 247.955 374.415 247.718 377.468 247.504C382.766 247.115 388.323 246.608 392.615 245.915C394.766 245.57 396.589 245.174 397.93 244.73C399.302 244.298 400.166 243.809 400.327 243.253C400.768 241.738 395.535 240.266 389.711 239.08Z" fill="#7B9982"/>
<path d="M419.37 239.363C421.272 239.76 423.297 240.175 425.91 240.359C427.891 240.498 429.994 240.487 432.014 240.46C438.299 240.376 444.421 240.15 450.269 239.789C456.16 239.446 461.881 239.013 467.163 238.426C465.28 236.959 463.394 235.459 459.19 234.149C454.991 232.839 447.918 231.733 439.749 231.6C437.742 231.569 435.731 231.59 433.772 231.654C431.827 231.723 429.903 231.825 428.006 231.929C422.225 232.245 416.486 232.592 410.811 232.968C407.977 233.158 405.141 233.348 402.356 233.558C399.602 233.78 396.864 234.01 394.149 234.246C402.713 235.943 411.058 237.624 419.37 239.363Z" fill="#7B9982"/>
<path d="M561.136 234.441C563.087 233.849 562.217 233.048 561.273 232.34L557.265 229.327C556.057 228.42 554.403 227.4 549.904 226.972C546.903 226.687 543.378 226.745 540.077 226.81C519.5 227.327 498.778 227.865 478.303 228.624C476.332 228.691 474.209 228.774 472.922 229.049C471.496 229.352 471.509 229.803 471.671 230.212C472.412 232.102 474.828 233.981 478.656 235.772C479.671 236.247 480.845 236.732 482.832 237.09C486.381 237.729 491.544 237.812 496.154 237.807C506.607 237.806 516.731 237.506 526.794 237.124C531.791 236.915 536.697 236.646 541.493 236.318C543.893 236.154 546.264 235.975 548.605 235.781C550.965 235.598 553.325 235.417 555.637 235.212C557.731 235.028 559.895 234.817 561.136 234.441Z" fill="#7B9982"/>
<path d="M653.218 232.762C654.458 232.71 655.753 232.641 656.913 232.54C658.078 232.445 659.094 232.308 659.75 232.098C660.763 231.774 660.637 231.359 660.477 230.971L658.94 227.19C658.388 225.82 657.041 224.199 650.362 223.564C646.714 223.237 642.437 223.336 638.428 223.437L611.72 224.107C602.877 224.378 594.076 224.682 585.245 224.964C583.24 227.511 584.448 230.147 588.378 232.652C588.93 233.004 589.606 233.375 591.06 233.619C592.946 233.935 595.6 233.955 598.004 233.95C602.667 233.94 607.307 233.903 611.925 233.837C614.233 233.804 616.535 233.764 618.832 233.716L625.775 233.605C635.022 233.437 644.17 233.156 653.218 232.762Z" fill="#7B9982"/>
<path d="M758.776 225.385C758.475 224.544 757.977 223.626 754.78 223.027C752.424 222.585 749.021 222.402 745.754 222.253C742.826 222.119 739.875 221.998 736.903 221.892C735.419 221.841 733.924 221.784 732.436 221.747C730.949 221.713 729.459 221.682 727.965 221.654C721.99 221.543 715.966 221.488 709.934 221.487C703.903 221.486 697.868 221.54 691.874 221.649C685.902 221.78 680.007 222.01 674.183 222.27C672.197 225.313 672.648 228.406 675.172 231.442C681.509 231.735 687.847 231.869 694.201 231.882C700.59 231.932 707.025 231.893 713.451 231.756C719.881 231.624 726.322 231.41 732.748 231.155C735.95 231.014 739.206 230.931 742.424 230.808C745.65 230.687 748.869 230.568 752.067 230.448C754.81 230.344 757.915 230.189 759.209 229.707C759.967 229.424 759.907 229.088 759.824 228.77C759.525 227.641 759.177 226.513 758.776 225.385Z" fill="#7B9982"/>
<path d="M831.233 217.77C831.233 217.77 829.89 217.753 827.537 217.724C825.184 217.696 821.83 217.642 817.772 217.64C809.668 217.607 798.863 217.565 788.059 217.522C777.288 217.438 766.365 217.527 758.211 217.548C750.049 217.578 744.608 217.597 744.608 217.597C737.399 217.625 731.278 216.581 730.949 215.285L729.76 210.415C729.422 209.102 735.326 208.028 742.937 207.999C742.937 207.999 748.657 207.978 757.239 207.946C765.817 207.924 777.273 207.834 788.676 207.92C800.09 207.965 811.505 208.011 820.067 208.045C824.352 208.049 827.903 208.105 830.393 208.134C832.883 208.165 834.305 208.182 834.305 208.182C841.881 208.274 847.586 209.403 847.048 210.706L845.106 215.569C844.567 216.871 838.356 217.857 831.233 217.77Z" fill="#7B9982"/>
<path d="M875.733 218.54C878.472 218.875 881.892 218.941 885.166 218.996L897.968 219.212C902.231 219.289 906.524 219.338 910.744 219.462L936.173 220.1C939.237 220.176 942.564 220.236 945.684 220.175C948.8 220.117 951.673 219.973 953.916 219.573C957.148 219.004 957.887 218.122 958.424 217.307C959.212 216.12 959.779 214.825 958.815 213.63C958.333 213.033 957.466 212.461 956.051 211.94C954.624 211.429 952.634 210.982 949.938 210.611C944.461 209.862 937.158 209.633 930.182 209.475C925.545 209.37 920.898 209.285 916.25 209.22C911.591 209.168 906.893 209.179 902.227 209.187C892.883 209.214 883.581 209.322 874.403 209.512C870.439 210.593 868.099 211.84 867.352 213.13C866.611 214.411 867.462 215.729 869.874 216.952C871.084 217.565 872.793 218.181 875.733 218.54Z" fill="#7B9982"/>
<path d="M1082.83 218.032C1081.26 217.694 1079.27 217.433 1077.11 217.214C1076.02 217.106 1074.89 217.005 1073.74 216.916C1072.58 216.833 1071.4 216.757 1070.22 216.683C1059.7 216.017 1049.04 215.404 1038.3 214.846C1027.46 214.343 1016.46 213.947 1005.47 213.58C1001.01 213.435 995.764 213.328 992.612 213.923C990.689 214.278 990.133 214.786 989.654 215.264L984.045 220.805C983.4 221.434 982.854 222.131 984.815 222.645C986.142 223.005 988.379 223.201 990.522 223.376C996.535 223.867 1002.63 224.313 1008.8 224.713C1011.88 224.913 1014.99 225.102 1018.11 225.279C1021.23 225.458 1024.3 225.669 1027.43 225.844C1033.67 226.206 1039.98 226.522 1046.38 226.793C1049.56 226.932 1052.8 227.044 1056.01 227.173C1059.19 227.311 1062.4 227.437 1065.63 227.552C1067.85 227.631 1070.33 227.697 1072.29 227.469C1074.03 227.268 1074.87 226.893 1075.6 226.544L1082.5 223.244C1086.08 221.533 1089.44 219.456 1082.83 218.032Z" fill="#7B9982"/>
<path d="M1169.65 233.004C1182.5 232.783 1192.18 230.23 1190.87 227.904C1189.54 225.587 1179.79 223.553 1167.97 222.386C1162.12 221.785 1155.86 221.324 1149.49 220.915C1146.32 220.699 1143.01 220.55 1139.75 220.375C1136.49 220.206 1133.22 220.038 1129.99 219.859C1125.93 219.635 1121.55 219.39 1117.57 219.626C1114.32 219.818 1111.95 220.299 1109.97 220.788C1102.93 222.527 1098.78 224.626 1097.76 226.761C1104.93 228.094 1113.38 229.085 1122.48 229.898C1131.48 230.75 1140.99 231.483 1150.45 232.163C1151.98 232.275 1153.54 232.387 1155.12 232.491C1156.69 232.595 1158.24 232.708 1159.84 232.792C1163.02 232.965 1166.29 233.061 1169.65 233.004Z" fill="#7B9982"/>
<path d="M1276.28 244.061C1277.68 243.974 1278.72 243.762 1279.67 243.557C1289.01 241.553 1296.93 239.343 1302.95 236.977C1304.06 236.542 1305.12 236.052 1304.24 235.595C1303.59 235.256 1301.98 235.003 1300.43 234.768C1294.49 233.911 1288.36 233.091 1282.15 232.284C1279.03 231.885 1275.92 231.479 1272.72 231.1C1269.48 230.73 1266.22 230.366 1262.94 230.007C1256.36 229.296 1249.76 228.584 1242.93 227.945C1236.06 227.322 1229.11 226.725 1222.09 226.156C1214.16 228.788 1208.33 231.617 1204.48 234.508C1203.88 234.96 1203.34 235.438 1204.11 235.871C1205.14 236.448 1208.23 236.799 1211.12 237.104C1215.4 237.537 1219.49 238.033 1223.65 238.501L1236.11 239.913C1238.18 240.15 1240.29 240.376 1242.33 240.621L1248.43 241.362L1260.64 242.836C1262.35 243.041 1264.07 243.247 1265.84 243.435C1267.62 243.623 1269.39 243.812 1271.3 243.954C1272.86 244.072 1274.63 244.165 1276.28 244.061Z" fill="#7B9982"/>
<path d="M1371.06 258.795C1383.48 256.639 1394.63 254.226 1403.76 251.618C1406.83 250.742 1406.21 249.707 1403.21 248.628C1401.71 248.089 1399.62 247.54 1397.11 246.996C1394.6 246.452 1391.55 245.941 1388.31 245.438C1375.44 243.404 1358.05 241.892 1348.34 241.613C1324.73 241.037 1304.87 244.79 1295.29 248.119C1298.15 248.597 1301.11 249.062 1304.16 249.514C1307.24 249.961 1310.35 250.41 1313.47 250.862C1319.71 251.769 1326.32 252.617 1332.87 253.485C1339.35 254.37 1345.98 255.227 1352.45 256.1C1358.79 256.997 1365.09 257.885 1371.06 258.795Z" fill="#7B9982"/>
<path d="M1430.81 253.931C1429.62 253.745 1428.24 253.555 1426.64 253.564C1425.41 253.571 1424.33 253.696 1423.32 253.818C1409.2 255.54 1396.88 257.691 1386.69 260.106C1405.45 263.619 1423.65 264.959 1441.56 268.5C1456.35 266.454 1469.06 266.091 1477.62 263.151C1478.65 262.8 1479.64 262.41 1479.17 262.021C1478.75 261.681 1477.29 261.411 1475.85 261.171C1461.3 258.669 1446.19 256.268 1430.81 253.931Z" fill="#7B9982"/>
<path d="M880.109 232.611C885.593 232.649 891.87 232.568 895.631 231.723C898.179 231.15 898.865 230.383 899.452 229.643L903.871 224.082C904.085 223.812 904.289 223.526 903.717 223.276C902.959 222.951 901.06 222.794 899.3 222.663C869.892 220.431 836.381 219.634 804.448 220.665L804.405 227.146C804.392 227.973 804.578 228.894 807.544 229.473C809.212 229.799 811.518 229.961 813.756 230.105C819.188 230.43 824.581 230.82 830.057 231.109C835.526 231.408 841.04 231.655 846.59 231.851C857.742 232.196 868.836 232.545 880.109 232.611Z" fill="#7B9982"/>
<path d="M940.573 222.347C928.419 223.03 920.871 225.668 924.101 227.87C925.704 228.97 929.795 229.86 934.896 230.384C939.969 230.934 946.006 231.166 951.788 230.855C954.207 230.727 956.601 230.515 958.422 230.167C959.624 229.937 960.533 229.657 961.406 229.378C965.082 228.202 968.52 226.901 968.033 225.565C967.39 223.711 957.758 222.166 947.657 222.258L955.045 222.137" fill="#7B9982"/>
<path d="M1053.05 237.669C1059.62 235.312 1066.4 232.353 1058.27 230.29C1056.36 229.805 1053.83 229.432 1050.99 229.136C1048.11 228.862 1044.95 228.659 1041.83 228.48C1029.23 227.77 1016.25 227.238 1002.92 227.179C997.544 228.618 986.837 228.722 978.595 229.441C977.214 229.562 975.897 229.703 974.644 229.866C973.381 230.037 972.188 230.225 971.073 230.429C968.843 230.838 966.929 231.308 965.392 231.816C962.314 232.833 960.742 234.006 961.106 235.143C967.139 235.804 973.241 236.481 979.636 237C986.015 237.529 992.622 237.941 999.399 238.249C1006.08 238.613 1012.94 238.862 1019.94 238.997C1023.45 239.064 1026.99 239.103 1030.56 239.112C1034.14 239.114 1037.64 239.149 1041.22 239.12C1043.79 239.105 1046.53 239.065 1048.74 238.766C1050.69 238.501 1051.91 238.076 1053.05 237.669Z" fill="#7B9982"/>
<path d="M1151.56 239.369C1152.49 238.446 1152.96 237.442 1150.44 236.658C1149.46 236.355 1148.11 236.105 1146.58 235.894C1145.03 235.692 1143.3 235.521 1141.61 235.357L1118 233.05L1093.85 230.908C1092.22 230.763 1090.46 230.613 1088.64 230.665C1086.2 230.733 1084.43 231.135 1082.99 231.524C1075.84 233.452 1070.9 235.633 1068.24 237.868C1067.75 238.28 1067.37 238.721 1068.3 239.079C1069.09 239.397 1070.74 239.586 1072.31 239.756C1077.93 240.364 1083.62 240.937 1089.38 241.476L1093.72 241.875L1095.9 242.069L1098.05 242.279C1100.91 242.557 1103.8 242.826 1106.7 243.087C1111.79 243.544 1117.55 243.959 1123.34 244.087C1129.08 244.231 1134.77 244.126 1139.89 243.454C1146.86 242.545 1150.03 240.905 1151.56 239.369Z" fill="#7B9982"/>
<path d="M1169.08 243.551C1168.53 244.06 1167.98 244.595 1168.83 245.062C1169.48 245.416 1170.86 245.69 1172.27 245.943C1174.45 246.337 1176.77 246.702 1179.2 247.038C1180.42 247.206 1181.66 247.367 1182.93 247.52C1184.19 247.68 1185.45 247.838 1186.75 247.985C1191.95 248.578 1197.57 249.047 1203.52 249.383C1208.81 248.196 1214.25 246.987 1217.37 245.591C1220.49 244.194 1220.87 242.545 1216.25 241.368C1213.98 240.789 1210.7 240.367 1207.44 239.967C1202.36 239.393 1197.17 238.847 1191.9 238.327C1189.26 238.067 1186.6 237.813 1183.92 237.567L1179.88 237.203C1178.51 237.09 1177.12 236.984 1175.74 236.877C1173.74 239.089 1171.47 241.332 1169.08 243.551Z" fill="#7B9982"/>
<path d="M1280.54 259.545C1284.38 259.434 1287.38 258.809 1289.91 258.232L1300.71 255.782C1303.96 255.045 1307.43 254.175 1306.48 253.296C1305.83 252.713 1303.4 252.262 1300.96 251.873L1289.45 250.032C1285.59 249.421 1281.81 248.786 1277.81 248.206L1265.93 246.424L1259.98 245.529C1257.97 245.237 1255.91 244.957 1253.88 244.67C1252.31 244.451 1250.59 244.221 1248.54 244.226C1246.28 244.23 1244.3 244.519 1242.58 244.802C1234.68 246.107 1227.9 247.629 1222.41 249.281C1220.95 249.72 1219.55 250.185 1219.24 250.678C1218.68 251.557 1221.62 252.295 1224.59 252.904C1226.26 253.253 1228.04 253.573 1229.78 253.912C1231.53 254.248 1233.33 254.571 1235.19 254.883C1238.91 255.506 1242.85 256.081 1247 256.605C1251.15 257.128 1255.32 257.651 1259.79 258.093C1264.22 258.547 1268.92 258.93 1273.66 259.291C1275.79 259.457 1278.09 259.615 1280.54 259.545Z" fill="#7B9982"/>
<path d="M1345.52 268.037C1347.49 268.309 1349.8 268.131 1352.5 268.037C1354.58 267.964 1356.35 268.303 1357.97 268.037L1373.82 268.136C1379.57 267.198 1385.93 265.997 1384.51 264.717C1383.71 264.015 1380.73 263.479 1377.8 262.998L1367.94 261.415C1364.66 260.887 1361.41 260.353 1358 259.847L1347.9 258.308C1346.21 258.053 1344.55 257.791 1342.83 257.541L1337.66 256.796C1325.08 258.147 1314.16 259.983 1305.56 262.097C1304.35 262.395 1303.14 262.72 1302.98 263.068C1302.78 263.52 1304.38 263.885 1305.93 264.201C1308.99 264.805 1311.96 265.428 1315.1 266.016C1318.23 266.607 1321.48 267.175 1324.83 267.725C1328.08 268.292 1331.09 267.513 1334.56 268.037C1336.29 268.299 1338.27 267.786 1340.06 268.037C1341.83 268.291 1343.72 267.789 1345.52 268.037Z" fill="#7B9982"/>
<path d="M1453.77 151.831C1453.77 151.831 1458.3 156.651 1451.13 168.639C1451.13 168.639 1445.94 160.548 1453.77 151.831Z" fill="#BD5B1C"/>
<path d="M1510.61 181.888C1510.61 181.888 1510.93 187.655 1502.09 193.025C1502.09 193.025 1502.83 184.526 1510.61 181.888Z" fill="#BD5B1C"/>
<path d="M1455.91 122.947C1455.91 122.947 1459.05 126.847 1455.91 131.614C1452.77 136.381 1443.13 134.972 1443.13 134.972C1443.13 134.972 1453.74 128.689 1455.91 122.947Z" fill="#BD703F"/>
<path d="M1437.93 133.269C1437.93 133.269 1441.83 136.235 1446.81 132.408C1451.79 128.58 1455.48 122.297 1455.91 122.947C1456.34 123.597 1457.46 129.556 1453.74 132.408C1449.52 135.647 1443.34 137.957 1437.93 133.269Z" fill="#BD5B1C"/>
<path d="M1500.84 199.489C1500.84 199.489 1499.93 203.642 1495.1 204.099C1490.28 204.556 1486.08 197.427 1486.08 197.427C1486.08 197.427 1495.89 201.109 1500.84 199.489Z" fill="#BD703F"/>
<path d="M1484.44 193.08C1484.44 193.08 1484.55 197.238 1489.74 198.5C1494.92 199.761 1501.04 198.856 1500.84 199.489C1500.64 200.121 1497.29 204.032 1493.43 203.088C1489.04 202.016 1484.22 199.158 1484.44 193.08Z" fill="#BD5B1C"/>
<path d="M1476.97 133.99C1476.97 133.99 1479.63 141.253 1476.04 144.828C1472.45 148.403 1467.03 145.362 1467.03 145.362C1467.03 145.362 1477.16 143.518 1476.97 133.99Z" fill="#BD703F"/>
<path d="M1466.58 145.362C1466.58 145.362 1476 141.241 1477.04 133.556C1477.04 133.556 1479.77 148.603 1466.58 145.362Z" fill="#BD5B1C"/>
<path d="M1439.98 187.108C1439.98 187.108 1434.14 186.792 1432.72 183.231C1431.3 179.67 1435.03 176.809 1435.03 176.809C1435.03 176.809 1433.3 184.402 1439.98 187.108Z" fill="#BD703F"/>
<path d="M1435.17 176.491C1435.17 176.491 1435.23 184.273 1440.26 187.286C1440.26 187.286 1428.98 184.7 1435.17 176.491Z" fill="#BD5B1C"/>
<path d="M1425.7 163.049C1425.7 163.049 1427.06 156.717 1433.23 152.817C1433.23 152.817 1436.05 161.744 1425.7 163.049Z" fill="#BD703F"/>
<path d="M1425.7 163.049C1425.7 163.049 1425.16 156.284 1433.23 152.817C1433.23 152.817 1431.23 161.798 1425.7 163.049Z" fill="#BD5B1C"/>
<path d="M1482.15 257.577L1482.48 262.29L1482.5 262.586L1482.15 262.614L1482.15 262.615L1478.2 262.29L1482.15 261.965L1482.15 261.965L1481.83 262.29L1482.15 257.577Z" fill="black"/>
<path d="M1479.05 263.256C1479.53 262.981 1480.03 262.786 1480.54 262.608C1480.79 262.526 1481.05 262.44 1481.3 262.37C1481.56 262.296 1481.82 262.233 1482.08 262.172L1482.09 262.17C1482.26 262.129 1482.43 262.236 1482.47 262.408C1482.5 262.524 1482.46 262.64 1482.38 262.715C1482.21 262.871 1482.04 263.023 1481.86 263.171C1481.69 263.323 1481.51 263.466 1481.33 263.608C1481.15 263.751 1480.96 263.887 1480.77 264.02C1480.58 264.151 1480.39 264.279 1480.18 264.393C1480.3 264.19 1480.43 263.999 1480.57 263.813C1480.71 263.627 1480.85 263.444 1481 263.269C1481.15 263.093 1481.3 262.918 1481.46 262.752C1481.61 262.581 1481.77 262.415 1481.93 262.253L1482.23 262.796C1481.97 262.864 1481.72 262.929 1481.46 262.984C1481.2 263.043 1480.93 263.085 1480.67 263.132C1480.14 263.212 1479.61 263.274 1479.05 263.256Z" fill="black"/>
<path d="M1464.56 240.127C1464.56 240.127 1470.89 234.595 1477.17 238.444C1483.45 242.294 1486.49 251.327 1490.39 252.444C1494.29 253.56 1502.09 254.661 1502.09 254.661C1502.09 254.661 1491.58 264.692 1478.96 259.776C1466.34 254.86 1475.57 242.293 1464.56 240.127Z" fill="white"/>
<path d="M1471.32 240.668C1471.74 240.668 1472.08 240.329 1472.08 239.91C1472.08 239.491 1471.74 239.152 1471.32 239.152C1470.9 239.152 1470.56 239.491 1470.56 239.91C1470.56 240.329 1470.9 240.668 1471.32 240.668Z" fill="black"/>
<path d="M1477.86 248.062C1477.87 249.171 1478 250.274 1478.3 251.331C1478.45 251.858 1478.63 252.375 1478.85 252.876C1479.07 253.381 1479.33 253.846 1479.65 254.272C1479.97 254.693 1480.36 255.068 1480.8 255.304C1481.02 255.425 1481.26 255.504 1481.5 255.539C1481.74 255.575 1481.99 255.579 1482.22 255.52C1482.68 255.419 1482.99 255.062 1483.09 254.602C1483.19 254.15 1483.06 253.666 1482.8 253.242C1482.74 253.136 1482.66 253.033 1482.59 252.934C1482.5 252.83 1482.43 252.744 1482.35 252.69C1482.28 252.629 1482.2 252.61 1482.2 252.616C1482.22 252.618 1482.22 252.587 1482.17 252.685C1482.01 253.122 1482.02 253.638 1482.16 254.11C1482.3 254.589 1482.57 255.022 1482.93 255.372C1483.29 255.721 1483.75 255.987 1484.23 256.173C1484.71 256.349 1485.26 256.501 1485.71 256.458C1485.94 256.433 1486.12 256.355 1486.24 256.2C1486.34 256.06 1486.4 255.824 1486.42 255.57C1486.45 255.057 1486.41 254.511 1486.26 254.02C1486.19 253.776 1486.08 253.542 1485.94 253.372C1485.79 253.203 1485.61 253.125 1485.4 253.15L1485.46 253.13C1485.37 253.171 1485.32 253.224 1485.28 253.296C1485.25 253.369 1485.24 253.471 1485.25 253.58C1485.29 253.8 1485.4 254.033 1485.53 254.246C1485.8 254.668 1486.17 255.065 1486.6 255.323C1486.7 255.381 1486.83 255.441 1486.95 255.48C1487.06 255.524 1487.19 255.559 1487.32 255.584C1487.57 255.636 1487.83 255.653 1488.09 255.638C1488.62 255.606 1489.14 255.467 1489.62 255.231C1489.17 255.511 1488.65 255.712 1488.11 255.779C1487.84 255.813 1487.56 255.817 1487.28 255.781C1487.15 255.763 1487.01 255.737 1486.87 255.696C1486.73 255.657 1486.62 255.614 1486.48 255.551C1485.97 255.289 1485.56 254.9 1485.24 254.441C1485.08 254.208 1484.93 253.956 1484.87 253.647C1484.84 253.494 1484.83 253.317 1484.9 253.141C1484.97 252.964 1485.12 252.82 1485.27 252.744L1485.3 252.73L1485.33 252.724C1485.5 252.695 1485.69 252.705 1485.85 252.769C1486.02 252.832 1486.17 252.939 1486.28 253.059C1486.51 253.304 1486.63 253.588 1486.73 253.869C1486.92 254.437 1486.99 255.012 1486.97 255.605C1486.95 255.898 1486.91 256.235 1486.69 256.548C1486.58 256.688 1486.43 256.816 1486.27 256.895C1486.11 256.977 1485.94 257.019 1485.78 257.04C1485.46 257.083 1485.14 257.046 1484.86 256.99C1484.57 256.934 1484.29 256.859 1484.01 256.756C1483.46 256.548 1482.93 256.249 1482.49 255.83C1482.05 255.418 1481.71 254.881 1481.54 254.293C1481.36 253.706 1481.35 253.057 1481.58 252.449C1481.61 252.365 1481.66 252.264 1481.75 252.167C1481.85 252.068 1481.98 252 1482.13 251.983C1482.41 251.961 1482.6 252.083 1482.74 252.186C1482.89 252.299 1482.99 252.431 1483.08 252.543C1483.17 252.662 1483.26 252.786 1483.34 252.917C1483.65 253.431 1483.84 254.1 1483.67 254.739C1483.6 255.052 1483.44 255.356 1483.21 255.598C1482.97 255.843 1482.66 256.002 1482.35 256.068C1481.72 256.202 1481.07 256.057 1480.55 255.75C1480.03 255.445 1479.62 255.006 1479.29 254.536C1478.96 254.064 1478.7 253.538 1478.51 253.012C1478.31 252.485 1478.16 251.942 1478.05 251.392C1477.82 250.294 1477.75 249.167 1477.86 248.062Z" fill="black"/>
<path d="M1486 259.681C1486.13 260.466 1486.2 261.251 1486.25 262.037C1486.28 262.43 1486.29 262.822 1486.31 263.215C1486.32 263.608 1486.32 264.001 1486.32 264.393L1486.33 264.608L1486.13 264.691C1485.77 264.842 1485.41 264.996 1485.05 265.142C1484.68 265.281 1484.32 265.432 1483.95 265.56C1483.21 265.828 1482.46 266.074 1481.69 266.262C1482.36 265.826 1483.05 265.45 1483.75 265.095C1484.09 264.912 1484.45 264.751 1484.8 264.578C1485.16 264.414 1485.51 264.256 1485.87 264.095L1485.67 264.393C1485.68 264.001 1485.68 263.608 1485.69 263.215C1485.71 262.822 1485.72 262.43 1485.75 262.037C1485.79 261.252 1485.86 260.466 1486 259.681Z" fill="black"/>
<path d="M1483.32 267.047C1483.66 266.498 1484.06 266.007 1484.47 265.528C1484.68 265.295 1484.89 265.057 1485.11 264.831C1485.32 264.604 1485.55 264.383 1485.77 264.165L1486.33 263.621L1486.32 264.393C1486.32 264.641 1486.31 264.89 1486.29 265.138C1486.28 265.386 1486.26 265.634 1486.23 265.883C1486.21 266.131 1486.18 266.379 1486.14 266.628C1486.1 266.876 1486.06 267.124 1486 267.373C1485.94 267.124 1485.89 266.876 1485.86 266.628C1485.82 266.379 1485.79 266.131 1485.76 265.883C1485.74 265.634 1485.72 265.386 1485.71 265.138C1485.69 264.89 1485.68 264.641 1485.68 264.393L1486.23 264.621C1486 264.845 1485.78 265.067 1485.55 265.282C1485.33 265.498 1485.09 265.703 1484.85 265.912C1484.37 266.318 1483.88 266.712 1483.32 267.047Z" fill="black"/>
<path d="M600.284 121.47C601.799 109.535 607.457 96.7314 607.457 96.7314L616.931 99.634L612.038 133.74L610.088 141.411L601.799 145.285C601.799 145.285 598.768 133.404 600.284 121.47Z" fill="#54482F"/>
<path d="M607.847 99.73C607.752 99.6357 607.642 99.5473 607.51 99.5226C607.132 99.4518 606.885 99.8986 606.764 100.264C606.345 101.54 605.925 102.815 605.505 104.09C604.473 107.228 603.43 110.424 603.376 113.726C605.473 110.687 607.1 107.324 608.18 103.793C608.599 102.424 608.863 100.738 607.847 99.73Z" fill="#473D26"/>
<path d="M580.513 183.31C580.513 183.31 581.163 188.347 579.213 190.46C577.263 192.572 571.9 195.172 571.738 196.472C571.575 197.772 571.862 198.923 573.905 198.517C575.949 198.112 583.3 194.915 583.636 194.704C583.972 194.493 585.968 191.956 585.968 191.956L586.56 193.883C586.56 193.883 590.369 192.75 591.778 190.955C591.778 190.955 589.613 185.26 587.175 184.122L584.9 180.129L580.513 183.31Z" fill="#1B1F30"/>
<path d="M582.434 182.835C583.752 182.695 584.77 181.519 585.143 180.248C585.517 178.977 585.379 177.62 585.237 176.302C584.89 173.065 584.541 169.828 584.194 166.59C584.005 164.837 583.811 163.06 583.166 161.419C582.522 159.778 581.36 158.262 579.733 157.584C581.036 157.632 582.339 157.679 583.642 157.727C583.024 156.947 582.406 156.168 581.788 155.388C583.144 155.195 584.344 156.416 585.713 156.429C586.321 156.435 586.903 156.201 587.466 155.97C591.421 154.349 595.375 152.729 599.33 151.108C599.114 149.458 598.682 147.837 598.047 146.299C598.839 147.542 599.859 148.638 601.04 149.519C601.108 146.802 600.248 144.076 598.67 141.866C589.643 144.865 576.114 149.579 574.825 151.297C572.875 153.897 574.38 162.411 576.065 169.773C577.75 177.134 579.333 185.038 579.333 185.038C579.333 185.038 580.28 185.878 582.058 185.916C583.182 184.804 584.306 183.692 585.43 182.58C584.432 182.665 583.433 182.75 582.434 182.835Z" fill="#323859"/>
<path d="M606.75 139.24C606.75 139.24 603.302 140.328 598.671 141.866C600.249 144.077 601.108 146.802 601.04 149.52C599.859 148.639 598.84 147.542 598.047 146.3C598.683 147.838 599.115 149.459 599.33 151.108C595.376 152.729 591.421 154.35 587.467 155.971C586.904 156.201 586.322 156.436 585.714 156.43C584.344 156.416 583.144 155.196 581.789 155.389C582.407 156.168 583.025 156.948 583.643 157.727C582.34 157.68 581.036 157.632 579.733 157.585C581.361 158.263 582.522 159.779 583.167 161.42C583.812 163.061 584.006 164.838 584.194 166.591C584.542 169.828 584.89 173.066 585.238 176.303C585.379 177.62 585.518 178.978 585.144 180.249C584.77 181.519 583.752 182.696 582.435 182.836C583.434 182.751 584.433 182.666 585.431 182.581C584.307 183.693 583.183 184.805 582.059 185.917C583.344 185.945 585.063 185.555 587.177 184.123C587.177 184.123 586.039 164.298 585.714 160.236C585.714 160.236 604.062 154.386 606.751 153.248C609.439 152.111 613.946 140.063 613.946 140.063L606.75 139.24Z" fill="#23294D"/>
<path d="M662.314 259.685C672.143 259.685 680.11 251.717 680.11 241.889C680.11 232.06 672.143 224.092 662.314 224.092C652.485 224.092 644.518 232.06 644.518 241.889C644.518 251.717 652.485 259.685 662.314 259.685Z" stroke="black" stroke-width="6" stroke-miterlimit="10"/>
<path d="M662.313 243.707C663.318 243.707 664.132 242.893 664.132 241.889C664.132 240.884 663.318 240.07 662.313 240.07C661.309 240.07 660.495 240.884 660.495 241.889C660.495 242.893 661.309 243.707 662.313 243.707Z" fill="black"/>
<path d="M662.313 224.092V259.685" stroke="black" stroke-width="2" stroke-miterlimit="10"/>
<path d="M658.11 224.596L666.516 259.182" stroke="black" stroke-width="2" stroke-miterlimit="10"/>
<path d="M654.146 226.077L670.482 257.7" stroke="black" stroke-width="2" stroke-miterlimit="10"/>
<path d="M650.643 228.454L673.985 255.323" stroke="black" stroke-width="2" stroke-miterlimit="10"/>
<path d="M647.8 231.59L676.828 252.187" stroke="black" stroke-width="2" stroke-miterlimit="10"/>
<path d="M645.778 235.31L678.85 248.468" stroke="black" stroke-width="2" stroke-miterlimit="10"/>
<path d="M644.692 239.401L679.936 244.376" stroke="black" stroke-width="2" stroke-miterlimit="10"/>
<path d="M644.604 243.633L680.025 240.145" stroke="black" stroke-width="2" stroke-miterlimit="10"/>
<path d="M645.516 247.767L679.111 236.011" stroke="black" stroke-width="2" stroke-miterlimit="10"/>
<path d="M647.38 251.568L677.249 232.21" stroke="black" stroke-width="2" stroke-miterlimit="10"/>
<path d="M650.088 254.821L674.54 228.957" stroke="black" stroke-width="2" stroke-miterlimit="10"/>
<path d="M653.488 257.343L671.14 226.435" stroke="black" stroke-width="2" stroke-miterlimit="10"/>
<path d="M657.388 258.989L667.241 224.788" stroke="black" stroke-width="2" stroke-miterlimit="10"/>
<path d="M591.4 259.035C618.683 259.035 640.8 236.918 640.8 209.635C640.8 182.352 618.683 160.235 591.4 160.235C564.117 160.235 542 182.352 542 209.635C542 236.918 564.117 259.035 591.4 259.035Z" stroke="black" stroke-width="14" stroke-miterlimit="10"/>
<path d="M591.4 211.454C592.405 211.454 593.219 210.64 593.219 209.635C593.219 208.631 592.405 207.817 591.4 207.817C590.396 207.817 589.582 208.631 589.582 209.635C589.582 210.64 590.396 211.454 591.4 211.454Z" fill="black"/>
<path d="M591.4 160.235V258.99" stroke="black" stroke-width="2" stroke-miterlimit="10"/>
<path d="M584.086 160.78L598.707 258.446" stroke="black" stroke-width="2" stroke-miterlimit="10"/>
<path d="M599.171 160.851L583.636 258.376" stroke="black" stroke-width="2" stroke-miterlimit="10"/>
<path d="M606.749 162.681L576.065 256.547" stroke="black" stroke-width="2" stroke-miterlimit="10"/>
<path d="M613.944 165.68L568.876 253.551" stroke="black" stroke-width="2" stroke-miterlimit="10"/>
<path d="M620.579 169.774L562.248 249.461" stroke="black" stroke-width="2" stroke-miterlimit="10"/>
<path d="M626.486 174.86L556.346 244.379" stroke="black" stroke-width="2" stroke-miterlimit="10"/>
<path d="M631.52 180.812L551.317 238.431" stroke="black" stroke-width="2" stroke-miterlimit="10"/>
<path d="M635.555 187.483L547.286 231.767" stroke="black" stroke-width="2" stroke-miterlimit="10"/>
<path d="M638.49 194.705L544.354 224.552" stroke="black" stroke-width="2" stroke-miterlimit="10"/>
<path d="M640.252 202.299L542.593 216.965" stroke="black" stroke-width="2" stroke-miterlimit="10"/>
<path d="M640.798 210.075L542.048 209.196" stroke="black" stroke-width="2" stroke-miterlimit="10"/>
<path d="M640.114 217.841L542.731 201.438" stroke="black" stroke-width="2" stroke-miterlimit="10"/>
<path d="M638.217 225.402L544.627 193.884" stroke="black" stroke-width="2" stroke-miterlimit="10"/>
<path d="M635.153 232.571L547.688 186.722" stroke="black" stroke-width="2" stroke-miterlimit="10"/>
<path d="M631 239.168L551.836 180.13" stroke="black" stroke-width="2" stroke-miterlimit="10"/>
<path d="M625.861 245.03L556.97 174.274" stroke="black" stroke-width="2" stroke-miterlimit="10"/>
<path d="M619.865 250.011L562.962 169.298" stroke="black" stroke-width="2" stroke-miterlimit="10"/>
<path d="M613.159 253.986L569.662 165.326" stroke="black" stroke-width="2" stroke-miterlimit="10"/>
<path d="M605.91 256.856L576.902 162.458" stroke="black" stroke-width="2" stroke-miterlimit="10"/>
<path d="M589.582 137.377V154.71C589.582 154.71 606.649 153.06 626.717 167.71C653.8 187.483 645.949 240.386 663.852 242.381" stroke="black" stroke-width="5" stroke-miterlimit="10"/>
<path d="M589.582 151.798C589.582 151.798 598.859 149.918 612.084 154.101" stroke="black" stroke-width="5" stroke-miterlimit="10"/>
<path d="M592.377 206.1C592.377 206.1 591.064 211.007 588.458 212.22C585.851 213.433 579.903 213.801 579.259 214.942C578.615 216.082 578.443 217.256 580.487 217.657C582.531 218.058 590.546 217.895 590.937 217.827C591.327 217.759 594.138 216.171 594.138 216.171L593.953 218.178C593.953 218.178 597.908 218.577 599.893 217.453C599.893 217.453 600.053 211.362 598.231 209.383L597.644 204.826L592.377 206.1Z" fill="#1B1F30"/>
<path d="M613.877 157.834C612.261 153.448 609.228 149.601 605.352 146.99C601.399 154.158 590.439 174.365 590.872 177.298C591.4 180.873 589.582 208.682 589.582 208.682C589.582 208.682 590.113 209.133 591.126 209.574C592.596 209.507 594.138 209.582 595.555 209.31C596.017 209.221 596.59 208.9 596.457 208.449C595.427 208.171 594.396 207.893 593.366 207.615C594.43 207.789 595.515 207.244 596.231 206.438C596.947 205.633 597.35 204.6 597.664 203.569C599.185 198.578 598.925 193.25 599.179 188.039C599.432 182.828 600.343 177.342 603.703 173.351C604.792 172.058 606.1 170.971 607.313 169.792C609.716 167.457 612.047 164.204 613.925 160.324C613.211 158.808 612.098 157.502 610.999 156.227C612.062 156.538 613.054 157.091 613.877 157.834Z" fill="#323859"/>
<path d="M618.08 143.733L616.1 141.222L609.762 140.062L606.749 144.472C606.749 144.472 606.218 145.42 605.352 146.99C609.227 149.601 612.26 153.448 613.876 157.833C613.054 157.091 612.062 156.537 610.998 156.227C612.097 157.503 613.21 158.808 613.925 160.324C614.066 160.031 614.205 159.736 614.341 159.437C612.397 163.709 609.897 167.281 607.313 169.792C606.1 170.97 604.792 172.057 603.703 173.351C600.342 177.342 599.432 182.828 599.179 188.039C598.925 193.25 599.184 198.578 597.664 203.569C597.35 204.6 596.947 205.633 596.231 206.438C595.515 207.243 594.429 207.789 593.366 207.615C594.396 207.893 595.426 208.171 596.456 208.449C596.59 208.9 596.017 209.221 595.554 209.31C594.137 209.582 592.596 209.507 591.126 209.574C592.795 210.301 595.773 211 599.85 209.612C599.85 209.612 600.987 182.54 602.775 180.813C604.562 179.085 622.05 161.535 625.332 152.923L618.08 143.733ZM616.77 152.576C616.322 154.301 615.774 155.96 615.148 157.538C615.774 155.96 616.322 154.3 616.77 152.576ZM617.619 148.478C617.585 148.7 617.548 148.921 617.51 149.141C617.548 148.921 617.585 148.699 617.619 148.478ZM617.443 149.525C617.401 149.755 617.357 149.983 617.312 150.211C617.357 149.983 617.401 149.755 617.443 149.525ZM617.018 151.573C616.952 151.855 616.883 152.135 616.811 152.413C616.883 152.135 616.951 151.855 617.018 151.573ZM614.743 158.524C614.617 158.82 614.488 159.113 614.356 159.403C614.488 159.113 614.616 158.82 614.743 158.524ZM615.133 157.576C615.013 157.878 614.89 158.178 614.764 158.474C614.89 158.178 615.013 157.878 615.133 157.576Z" fill="#23294D"/>
<path d="M611.008 69.127C611.008 69.127 605.946 70.8602 605.375 72.1602C604.804 73.4602 604.508 75.5184 604.508 75.5184C604.508 75.5184 599.091 76.8184 596.6 76.1684C596.6 76.1684 597.619 79.2289 600.652 81.0704C600.652 81.0704 600.825 83.1016 600.825 84.0766C600.825 85.0516 599.091 87.4349 599.091 87.4349C599.091 87.4349 598.766 93.0681 602.016 94.0431C605.266 95.0181 608.191 96.3181 608.191 96.3181L608.3 100.868L618.862 99.7849C618.862 99.7849 618.863 94.396 619.512 92.7974C620.568 90.1974 622.6 88.0849 622.6 88.0849L626.066 84.9974V79.0931C626.066 79.0931 621.516 72.1599 621.191 72.1599C620.866 72.1599 611.008 69.127 611.008 69.127Z" fill="#FFCF99"/>
<path d="M608.292 82.3277C607.906 82.5773 607.547 82.875 607.269 83.2406C606.608 84.1113 606.477 85.3212 606.811 86.3622C607.145 87.4032 607.905 88.2758 608.819 88.8758C609.64 89.4149 610.593 89.751 611.571 89.8459C613.118 89.996 614.898 89.3623 615.451 87.9099C615.734 87.164 615.649 86.3177 615.376 85.5673C615.104 84.8168 614.659 84.1441 614.215 83.4808C613.978 83.1268 613.738 82.7706 613.434 82.4723C612.111 81.1752 609.847 81.3198 608.292 82.3277Z" fill="#FFAD73"/>
<path d="M602.486 80.0704C602.467 79.9641 602.416 79.8646 602.403 79.7574C602.377 79.5481 602.494 79.3508 602.607 79.1727C602.909 78.693 603.212 78.2136 603.516 77.7339C603.946 77.0534 604.384 76.3065 604.469 75.5278C603.997 75.6383 598.973 76.7879 596.6 76.1684C596.6 76.1684 597.617 79.2208 600.641 81.0632C600.997 80.9934 601.37 81.0164 601.725 80.9352C602.139 80.8403 602.562 80.4883 602.486 80.0704Z" fill="#FFAD73"/>
<path d="M586.443 134.397C586.443 134.397 581.975 137.044 584.575 138.189C587.175 139.334 592.375 139.412 594.516 139.002C595.136 138.883 598.062 137.729 598.062 137.729L597.002 136.169C597.002 136.169 595.194 136.683 592.521 136.886C590.171 137.064 589.11 136.844 588.46 136.387C587.81 135.93 589.581 134.922 589.581 134.922C589.581 134.922 588.8 133.91 586.443 134.397Z" fill="black"/>
<path d="M591.426 130.86C590.164 131.028 591.615 136.382 593.004 136.163C594.393 135.944 594.286 135.57 593.646 132.585C593.362 131.264 592.689 130.691 591.426 130.86Z" fill="#2E2719"/>
<path d="M590.1 136.65C590.1 136.65 591.15 134.568 592.158 134.922C593.165 135.276 593.954 133.949 594.516 133.55C595.077 133.152 594.516 130.831 594.516 130.831C594.516 130.831 590.362 131.906 589.581 131.933C588.799 131.96 584.791 132.465 584.574 135.734L586.199 134.922C586.199 134.922 587.282 135.001 588.041 134.727C588.041 134.727 586.337 136.473 590.1 136.65Z" fill="#FFCF99"/>
<path d="M591.427 130.831L603.533 127.194L606.241 132.677L593.004 136.163C593.004 136.163 595.137 133.71 591.427 130.831Z" fill="#54482F"/>
<path d="M622.275 143.742C623.168 140.167 621.95 136.649 621.95 136.649L620.285 137.445L620.758 107.044L609.638 102.02C609.638 102.02 601.021 106.448 601.041 133.152C601.043 135.665 601.216 138.225 601.891 140.656C601.891 140.657 601.891 140.658 601.892 140.66C603.522 141.118 605.664 141.901 608.395 143.227C611.96 144.96 615.092 147.092 616.752 148.401C619.261 148.624 621.505 146.822 622.275 143.742Z" fill="#C7AA6F"/>
<path d="M608.462 104.985C608.462 104.985 607.162 103.468 606.787 100.868C606.632 99.7963 606.787 97.2935 606.787 97.2935C606.787 97.2935 608.95 95.3435 610.25 95.1267C611.55 94.9099 618.917 94.0435 618.917 94.0435L619.567 102.06L608.462 104.985Z" fill="#730938"/>
<path d="M607.108 98.4311C607.108 98.4311 606.729 98.8104 607 99.5143C607 99.5143 615.016 95.6013 619.066 95.3569C619.066 95.3569 610.386 96.3862 607.108 98.4311Z" fill="#5C072D"/>
<path d="M607.568 102.02C607.568 102.02 607.284 101.613 607.243 101.085C607.243 101.085 614.759 97.338 617.196 96.4692C617.196 96.4692 609.234 100.557 607.568 102.02Z" fill="#5C072D"/>
<path d="M607.457 99.7243C610.472 97.7805 614.058 96.9709 617.368 95.5874C615.284 96.7434 613.155 97.8221 610.961 98.7523C609.839 99.2277 608.674 99.6701 607.457 99.7243Z" fill="#5C072D"/>
<path d="M616.208 96.6439C616.208 96.6439 622.427 94.9106 625.331 94.9106C630.797 94.9106 633.604 97.1385 635.112 97.1044C638.687 97.0231 643.481 95.2626 645.431 95.1544C645.431 95.1544 644.682 98.1606 645.873 100.869C645.873 100.869 643.33 102.382 638.443 102.386C633.081 102.389 631.634 99.3414 626.987 98.991C622.437 98.6481 617.508 100.677 617.508 100.677L616.208 96.6439Z" fill="#5C072D"/>
<path d="M637.686 99.7218C637.101 99.8986 636.494 100.052 635.885 100.005C635.202 99.9516 634.567 99.6509 633.927 99.4088C630.679 98.1806 627.02 98.4163 623.698 99.4257C621.476 100.101 619.066 101.109 616.934 100.188C616.933 100.004 616.932 99.819 616.932 99.6344C621.097 97.1081 625.747 95.385 630.552 94.5868C631.149 94.4877 631.771 94.4038 632.352 94.5744C632.92 94.7415 633.395 95.137 633.949 95.347C635.292 95.8559 636.763 95.1981 638.083 94.631C639.711 93.9313 641.391 93.3524 643.106 92.901C644.339 92.5763 645.608 92.316 646.881 92.3966C647.04 92.4067 647.215 92.4301 647.321 92.5497C647.426 92.6699 647.427 92.8467 647.421 93.0066C647.371 94.4844 647.32 95.9622 647.27 97.4403C643.977 97.074 640.858 98.7643 637.686 99.7218Z" fill="#730938"/>
<path d="M620.137 98.2725C623.253 97.0944 626.441 96.107 629.677 95.3169C630.392 95.1424 631.303 95.0465 631.716 95.6556C631.907 95.9367 631.942 96.3196 632.193 96.5477C632.427 96.7596 632.775 96.772 633.09 96.7645C634.427 96.733 635.761 96.5575 637.06 96.2416C635.91 97.1239 634.429 97.5627 632.983 97.4486C632.361 97.3995 631.706 97.2283 631.289 96.7635C631.114 96.5682 630.987 96.3274 630.781 96.1645C630.345 95.8207 629.719 95.9299 629.179 96.056C627.821 96.3732 626.463 96.6907 625.105 97.0079C622.751 97.5581 620.354 98.1246 618.275 99.3593C618.755 98.8136 619.458 98.5292 620.137 98.2725Z" fill="#5C072D"/>
<path d="M633.308 98.5495C631.803 98.4988 630.388 97.8228 628.895 97.6307C627.436 97.4428 625.963 97.723 624.518 98.0018C623.042 98.2869 621.565 98.5719 620.089 98.8569C622.461 98.1049 624.875 97.4848 627.316 96.9999C627.734 96.9167 628.165 96.8377 628.584 96.915C629.018 96.995 629.401 97.2355 629.798 97.4285C631.181 98.1023 632.787 98.2134 634.311 97.9986C635.834 97.7834 637.296 97.2599 638.733 96.71C637.041 97.6486 635.241 98.6148 633.308 98.5495Z" fill="#5C072D"/>
<path d="M622.275 127.194C623.173 125.996 623.986 124.598 624.704 123.165C624.898 113.962 624.743 102.074 620.108 99.6768C620.108 99.6768 620 97.5101 620.541 96.7518C621.083 95.9936 622.6 94.4768 622.166 94.0436C621.733 93.6104 618.916 94.0436 618.916 94.0436C618.916 94.0436 612.091 97.9436 608.462 103.685C604.833 109.427 601.475 123.619 601.908 129.685C602.055 131.74 602.29 133.552 602.626 135.097C608.134 133.861 619.474 130.928 622.275 127.194Z" fill="#54482F"/>
<path d="M610.007 103.937C610.007 103.937 613.666 96.8599 618.917 95.1536C621.173 94.4207 621.412 94.9099 621.412 94.9099C621.412 94.9099 619.036 96.4266 619.361 99.5141C619.361 99.5141 614.584 100.381 610.007 103.937Z" fill="#473D26"/>
<path d="M602.075 131.561C605.057 131.029 609.138 130.019 612.021 129.091C613.737 128.538 615.523 127.753 616.457 126.213C617.087 125.175 617.245 123.927 617.357 122.719C617.869 117.166 617.69 111.551 616.827 106.042C616.8 105.872 616.771 105.698 616.685 105.549C616.442 105.132 615.819 105.082 615.404 105.328C614.989 105.573 614.741 106.021 614.543 106.46C613.368 109.055 613.232 112.001 613.414 114.843C613.596 117.686 614.077 120.512 614.065 123.361C614.064 123.733 614.048 124.124 613.852 124.44C613.598 124.85 613.105 125.033 612.647 125.185C609.266 126.308 605.365 128.049 601.873 128.752C601.799 129.969 601.966 130.472 602.075 131.561Z" fill="#473D26"/>
<path d="M631 158.61C631 158.61 640.15 166.085 649.466 159.043C649.466 159.043 636.466 159.585 630.4 151.026C624.86 143.211 624.65 139.82 624.573 133.352C620.741 137.122 610.683 139.588 605.683 140.62C605.758 140.659 605.832 140.703 605.91 140.735C608.3 141.71 612.987 143.698 614.287 146.623C615.587 149.548 623.791 164.351 629.75 167.818C635.708 171.285 644.158 171.501 644.158 171.501C644.158 171.501 633.659 168.577 631 158.61Z" fill="#54482F"/>
<path d="M626.573 158.059C625.386 155.528 624.586 152.779 622.938 150.52C622.895 151.239 621.936 151.575 621.264 151.316C620.592 151.057 620.136 150.445 619.639 149.924C619.141 149.404 618.464 148.926 617.758 149.065C619.464 151.97 620.762 155.099 622.424 158.03C624.086 160.961 626.183 163.754 629.06 165.509C630.665 166.488 632.459 167.111 634.259 167.656C630.989 165.122 628.331 161.804 626.573 158.059Z" fill="#473D26"/>
<path d="M627.779 153.04C630.598 157.882 636.278 160.904 641.868 160.537C636.624 159.889 631.795 156.505 629.395 151.797C628.856 152.211 628.318 152.625 627.779 153.04Z" fill="#473D26"/>
<path d="M624.55 131.418C624.522 129.372 624.635 126.438 624.704 123.165C623.986 124.598 623.173 125.996 622.275 127.193C619.474 130.928 608.133 133.861 602.626 135.097C603.249 137.963 604.231 139.883 605.683 140.62C610.683 139.588 620.741 137.122 624.573 133.352C624.565 132.737 624.559 132.096 624.55 131.418Z" fill="#473D26"/>
<path d="M600.284 130.877C598.253 131.147 599.637 139.354 601.871 139.002C604.105 138.65 604.885 138.454 603.855 133.652C603.399 131.527 602.315 130.606 600.284 130.877Z" fill="#2E2719"/>
<path d="M602.873 131.933C602.873 131.933 601.454 132.162 600.859 132.116C600.264 132.071 597.379 131.979 596.28 132.483C595.181 132.986 593.349 134.177 593.166 135.276C592.984 136.375 592.48 138.115 593.67 138.573C593.67 138.573 593.331 141.173 595.666 141.173C595.666 141.173 596.509 142.19 597.653 141.411C597.653 141.411 598.661 142.373 599.485 141.411C600.309 140.45 598.935 139.671 598.981 138.939C599.027 138.206 599.485 137.611 600.217 137.428C600.95 137.245 602.965 137.794 603.926 136.558C603.926 136.558 604.415 132.777 602.873 131.933Z" fill="#FFCF99"/>
<path d="M593.67 138.572C593.67 138.572 593.608 138.294 593.605 137.869C593.601 137.657 593.615 137.409 593.65 137.145C593.674 137.014 593.686 136.876 593.724 136.74C593.755 136.603 593.791 136.464 593.838 136.328C593.88 136.191 593.94 136.058 593.998 135.928C594.048 135.795 594.137 135.68 594.202 135.561C594.276 135.446 594.368 135.347 594.445 135.25C594.535 135.161 594.627 135.084 594.709 135.013C594.8 134.951 594.889 134.904 594.965 134.86C595.037 134.81 595.12 134.801 595.177 134.779C595.297 134.742 595.364 134.726 595.364 134.726C595.364 134.726 595.306 134.766 595.205 134.837C595.158 134.874 595.09 134.902 595.033 134.964C594.974 135.02 594.907 135.083 594.833 135.152C594.771 135.23 594.704 135.314 594.633 135.403C594.575 135.502 594.508 135.6 594.447 135.709C594.395 135.823 594.33 135.932 594.284 136.056C594.234 136.178 594.182 136.301 594.146 136.431C594.053 136.683 593.994 136.949 593.931 137.196C593.875 137.445 593.828 137.681 593.79 137.885C593.718 138.297 593.67 138.572 593.67 138.572Z" fill="#CF9F6B"/>
<path d="M595.666 141.172C595.666 141.172 595.617 141.094 595.549 140.949C595.482 140.804 595.388 140.594 595.299 140.333C595.213 140.072 595.123 139.761 595.068 139.419C595.038 139.248 595.012 139.07 595.002 138.887C594.981 138.706 594.991 138.518 594.986 138.332C594.995 138.146 595.018 137.959 595.039 137.777C595.079 137.596 595.107 137.416 595.166 137.249C595.23 137.084 595.269 136.917 595.356 136.778C595.436 136.637 595.495 136.496 595.586 136.387C595.671 136.275 595.753 136.176 595.825 136.09C595.903 136.009 595.982 135.948 596.041 135.894C596.163 135.789 596.234 135.733 596.234 135.733C596.234 135.733 596.182 135.811 596.087 135.937C596.041 136.001 595.978 136.073 595.92 136.165C595.869 136.262 595.812 136.37 595.746 136.484C595.676 136.596 595.641 136.739 595.578 136.874C595.512 137.009 595.494 137.172 595.442 137.326C595.394 137.482 595.387 137.654 595.35 137.822C595.333 137.993 595.317 138.168 595.311 138.343C595.311 138.519 595.298 138.695 595.314 138.869C595.323 139.043 595.329 139.214 595.351 139.38C595.381 139.712 595.434 140.02 595.478 140.287C595.53 140.551 595.568 140.775 595.609 140.928C595.645 141.084 595.666 141.172 595.666 141.172Z" fill="#CF9F6B"/>
<path d="M597.654 141.411C597.654 141.411 597.472 141.165 597.286 140.749C597.239 140.646 597.192 140.531 597.147 140.409C597.106 140.285 597.054 140.156 597.021 140.017C596.942 139.742 596.885 139.439 596.859 139.131C596.839 138.978 596.852 138.821 596.848 138.67C596.852 138.517 596.879 138.367 596.896 138.222C596.931 138.079 596.961 137.941 597.006 137.815C597.058 137.69 597.104 137.572 597.159 137.469C597.222 137.37 597.283 137.282 597.336 137.205C597.387 137.127 597.457 137.077 597.501 137.028C597.598 136.937 597.653 136.886 597.653 136.886C597.653 136.886 597.617 136.952 597.552 137.067C597.523 137.126 597.474 137.187 597.441 137.271C597.409 137.354 597.372 137.447 597.329 137.545C597.296 137.649 597.274 137.765 597.238 137.881C597.212 138.001 597.203 138.132 597.179 138.262C597.173 138.396 597.167 138.535 597.162 138.676C597.169 138.818 597.161 138.961 597.182 139.105C597.2 139.393 597.249 139.681 597.298 139.951C597.349 140.221 597.409 140.472 597.461 140.688C597.571 141.119 597.654 141.411 597.654 141.411Z" fill="#CF9F6B"/>
<path d="M614.583 110.294C614.583 110.294 615.341 116.36 615.45 118.744C615.558 121.127 614.583 125.46 614.583 125.46C614.583 125.46 601.475 129.794 600.283 130.877C600.283 130.877 601.983 130.619 602.666 133.531C603.272 136.109 603.566 139.002 601.87 139.002C601.87 139.002 620.325 135.776 623.466 132.677C626.608 129.577 625.2 110.402 623.466 106.394C623.466 106.394 615.558 98.8101 614.583 110.294Z" fill="#54482F"/>
<path d="M605.034 77.2303C605.034 77.2303 605.99 76.7554 606.884 76.1708C607.331 75.8792 607.76 75.5588 608.046 75.279C608.119 75.2097 608.184 75.1454 608.234 75.081C608.285 75.0177 608.337 74.9679 608.365 74.9159C608.428 74.8168 608.463 74.7603 608.463 74.7603C608.463 74.7603 608.432 74.8197 608.376 74.9234C608.352 74.9783 608.304 75.0316 608.258 75.0996C608.212 75.1685 608.151 75.2383 608.083 75.3137C607.816 75.6186 607.407 75.9751 606.978 76.3034C606.121 76.9612 605.19 77.5153 605.19 77.5153C605.113 77.5614 605.013 77.5367 604.967 77.4597C604.92 77.3827 604.945 77.2829 605.022 77.2364C605.025 77.2345 605.03 77.2322 605.034 77.2303Z" fill="#BD703F"/>
<path d="M605.129 76.5008C605.129 76.5008 605.126 76.5197 605.125 76.5158C605.124 76.5197 605.119 76.5476 605.12 76.5811C605.12 76.6487 605.129 76.7605 605.171 76.898C605.212 77.0348 605.277 77.1983 605.376 77.3653C605.421 77.4508 605.477 77.535 605.536 77.6205C605.591 77.7085 605.662 77.7885 605.727 77.874C605.79 77.9601 605.868 78.0358 605.937 78.1167C606.006 78.1983 606.084 78.2692 606.156 78.342C606.298 78.4898 606.447 78.6101 606.57 78.7212C606.695 78.8285 606.806 78.911 606.881 78.9721C606.957 79.0323 607 79.067 607 79.067C607 79.067 606.951 79.041 606.866 78.9959C606.781 78.9494 606.656 78.888 606.511 78.8044C606.37 78.7167 606.197 78.6237 606.026 78.5012C605.939 78.4411 605.846 78.3832 605.76 78.313C605.673 78.2432 605.578 78.1795 605.494 78.1015C605.147 77.806 604.832 77.4466 604.664 77.1053C604.576 76.9383 604.527 76.7777 604.503 76.6546C604.49 76.5925 604.486 76.5441 604.483 76.4966C604.483 76.4547 604.483 76.4323 604.483 76.4323C604.484 76.2519 604.63 76.106 604.81 76.106C604.991 76.106 605.137 76.2525 605.137 76.4329C605.137 76.4488 605.135 76.4641 605.133 76.4794L605.129 76.5008Z" fill="#8F552F"/>
<path d="M600.23 85.6526C600.23 85.6526 599.553 87.8025 602.045 88.1275C604.537 88.4525 605.7 86.8398 605.7 86.8398C605.7 86.8398 605.7 89.2773 608.408 88.8441C611.116 88.4109 617.291 82.2359 617.291 82.2359C617.291 82.2359 614.691 78.0109 618.375 73.8941C618.375 73.8941 610.236 75.1515 608.834 70.298C607.433 65.4444 610.033 63.1691 613.825 63.2776C613.825 63.2776 612.308 64.2526 613.283 65.9859C613.283 65.9859 615.016 63.8191 617.725 64.3609C617.725 64.3609 616.208 66.9609 618.375 67.9359C620.541 68.9109 627.041 67.1776 629.641 73.1359C632.241 79.0941 629.641 79.7441 629.641 79.7441C629.641 79.7441 631.7 86.6724 624.225 88.8958C624.225 88.8958 623.575 89.7109 624.766 91.1191C624.766 91.1191 623.128 91.1269 622.6 89.9273C622.6 89.9273 622.383 91.6605 623.575 92.9605C622.852 92.8728 622.118 92.6706 621.451 92.3807C620.95 92.1627 620.449 91.8747 620.093 91.4509C619.688 90.9689 619.633 90.279 619.493 89.6858C619.274 88.7576 619.03 87.8418 618.916 86.8938C618.916 86.8938 613.066 97.2938 606.025 99.352C598.983 101.41 594.866 101.085 592.808 98.2688C590.75 95.452 591.4 94.477 592.158 94.0438C592.916 93.6105 595.929 93.177 596.59 90.7938C597.25 88.4102 599.205 85.7849 600.23 85.6526Z" fill="#BD703F"/>
<path d="M607.384 94.7262C607.581 94.3726 607.745 93.9202 607.522 93.5822C607.031 93.5247 606.622 93.9546 606.139 94.0622C605.526 94.1987 604.9 93.7713 604.6 93.2195C604.3 92.6676 604.252 92.0186 604.21 91.392C603.707 92.0768 603.132 92.8097 602.303 92.9952C601.313 93.2166 600.299 92.5334 599.807 91.6465C599.315 90.7596 599.224 89.7127 599.144 88.7017C598.16 89.1011 598.024 90.3949 597.699 91.406C597.26 92.7742 596.187 93.9244 594.853 94.4584C594.039 94.7844 592.943 95.1266 592.938 96.0038C592.937 96.2852 593.066 96.5517 593.224 96.7847C593.946 97.8511 595.239 98.3737 596.494 98.6639C598.512 99.1309 600.661 99.1433 602.631 98.5024C604.6 97.8615 606.376 96.5361 607.384 94.7262Z" fill="#BD5B1C"/>
<path d="M619.276 74.7057C618.837 75.4285 618.465 76.2104 618.356 77.0486C618.246 77.8868 618.428 78.7919 618.988 79.425C619.608 80.1267 620.62 80.4016 621.549 80.2749C622.477 80.1481 623.325 79.6639 624.039 79.0574C623.529 79.5245 622.7 79.5193 622.106 79.166C621.512 78.8127 621.129 78.1783 620.925 77.5176C620.721 76.8569 620.672 76.1601 620.598 75.4727C620.561 75.1331 620.514 74.785 620.348 74.4863C620.182 74.1876 619.868 73.9471 619.528 73.967C619.415 74.0108 619.443 74.173 619.439 74.2939C619.435 74.4434 619.353 74.578 619.276 74.7057Z" fill="#BD5B1C"/>
<path d="M611.121 64.5151C610.305 65.4134 610.12 66.7173 610.147 67.9302C610.158 68.4411 610.205 68.9676 610.44 69.4217C610.89 70.2927 611.907 70.6911 612.855 70.941C614.017 71.2469 615.327 71.4188 616.359 70.8042C615.574 70.827 614.763 70.8455 614.032 70.5575C613.291 70.266 612.694 69.6758 612.283 68.9943C611.871 68.3128 611.632 67.5409 611.457 66.7645C611.289 66.0244 611.177 65.2721 611.121 64.5151Z" fill="#BD5B1C"/>
<path d="M615.216 65.3706C614.479 66.0577 613.865 67.0619 614.14 68.0314C614.306 68.6183 614.781 69.0828 615.328 69.3515C615.876 69.6206 616.492 69.7155 617.1 69.7565C615.782 68.7438 615.043 67.0239 615.216 65.3706Z" fill="#BD5B1C"/>
<path d="M624.956 78.2302C624.381 78.2562 623.905 77.758 623.68 77.2279C623.455 76.6975 623.394 76.1086 623.167 75.5788C622.875 74.8947 622.303 74.3357 621.612 74.0598C621.229 73.907 620.767 73.8476 620.423 74.0747C621.017 74.2346 621.382 74.8372 621.563 75.4254C621.744 76.0137 621.808 76.6455 622.102 77.1863C622.631 78.1587 623.925 78.6322 624.956 78.2302Z" fill="#BD5B1C"/>
<path d="M625.909 78.3837C626.567 77.6713 626.975 76.7119 626.945 75.7424C626.915 74.7729 626.422 73.8106 625.606 73.2864C624.79 72.7622 623.663 72.7274 622.856 73.2666C623.903 73.4827 624.744 74.3134 625.213 75.2741C625.681 76.2348 625.828 77.318 625.909 78.3837Z" fill="#BD5B1C"/>
<path d="M629.59 75.907C629.548 74.8692 629.195 73.8149 628.462 73.0795C627.728 72.344 626.583 71.9858 625.604 72.3336C626.334 72.2686 626.914 72.9212 627.305 73.541C627.742 74.2335 628.117 74.9765 628.295 75.7757C628.473 76.5748 628.443 77.438 628.096 78.18C628.604 78.1842 629.069 77.8339 629.312 77.3877C629.557 76.9414 629.61 76.4149 629.59 75.907Z" fill="#BD5B1C"/>
<path d="M612.348 72.1597C613.801 72.8932 615.506 73.1181 617.1 72.787C617.474 72.7093 617.849 72.6014 618.23 72.6241C618.611 72.6472 619.012 72.8348 619.161 73.1867C619.315 72.4776 618.806 71.6927 618.096 71.5442C617.583 71.4369 617.061 71.6261 616.559 71.7762C615.199 72.1821 613.758 72.3134 612.348 72.1597Z" fill="#BD5B1C"/>
<path d="M620.758 73.0107C621.39 72.6636 621.702 71.8498 621.517 71.1536C621.331 70.4575 620.693 69.9206 619.983 69.7994C619.273 69.6785 618.52 69.9524 618.011 70.4617C618.681 70.2557 619.426 70.5894 619.888 71.1172C620.349 71.6454 620.579 72.3331 620.758 73.0107Z" fill="#BD5B1C"/>
<path d="M624.427 70.1449C624.263 69.983 624.025 69.9255 623.798 69.8816C623.051 69.7367 622.29 69.6629 621.529 69.6616C622.115 69.7373 622.663 70.0721 622.997 70.5593C623.331 71.0461 623.447 71.6776 623.307 72.2515C623.993 72.1644 624.578 71.5596 624.642 70.8709C624.666 70.6109 624.613 70.3279 624.427 70.1449Z" fill="#BD5B1C"/>
<path d="M624.161 81.1896C624.646 81.3316 625.019 81.7418 625.224 82.2039C625.43 82.6661 625.489 83.1786 625.52 83.6833C625.556 84.2621 625.554 84.8663 625.308 85.3915C624.746 86.5914 623.134 86.9778 622.493 88.1378C622.756 87.7101 623.246 87.4904 623.7 87.2762C624.45 86.9226 625.193 86.5046 625.725 85.8689C626.266 85.2212 626.549 84.3863 626.642 83.5471C626.726 82.797 626.644 81.9767 626.156 81.4005C625.669 80.8243 624.681 80.6429 624.161 81.1896Z" fill="#BD5B1C"/>
<path d="M627.009 80.9757C627.938 82.3296 627.99 84.2315 627.136 85.6339C626.677 86.3869 626.001 86.9781 625.336 87.5563C626.73 86.4549 628.175 85.2075 628.629 83.4899C628.762 82.9874 628.802 82.4635 628.787 81.9439C628.771 81.393 628.672 80.8008 628.281 80.4128C627.778 79.9142 626.845 79.9627 626.396 80.5109C626.66 80.5366 626.859 80.7573 627.009 80.9757Z" fill="#BD5B1C"/>
<path d="M621.307 91.1183C621.477 91.286 621.704 91.4351 621.938 91.3887C621.628 90.8862 621.553 90.2778 621.502 89.6896C621.446 89.0347 621.411 88.3779 621.397 87.7207C620.922 88.1422 620.632 88.7653 620.615 89.4C620.598 90.0347 620.855 90.672 621.307 91.1183Z" fill="#BD5B1C"/>
<path d="M623.289 87.8794C622.688 88.5034 622.824 89.6705 623.553 90.1391C623.469 89.4257 623.384 88.712 623.3 87.9987" fill="#BD5B1C"/>
<path d="M611.459 91.0952C611.826 92.8369 611.304 94.7424 610.101 96.0537C608.898 97.3651 607.044 98.0489 605.277 97.8328C606.765 96.8753 608.063 95.6517 609.271 94.3595C610.172 93.3946 611.05 92.3513 611.459 91.0952Z" fill="#BD5B1C"/>
<path d="M612.167 88.3071C611.285 89.1099 610.359 89.9006 609.257 90.3566C608.155 90.8126 606.834 90.8889 605.806 90.2841C605.47 90.5997 605.438 91.1597 605.671 91.5568C605.904 91.954 606.355 92.1919 606.812 92.2468C607.27 92.3017 607.733 92.1935 608.162 92.0251C609.882 91.3508 611.07 89.793 612.167 88.3071Z" fill="#BD5B1C"/>
<path d="M600.012 84.0229C600.012 84.0229 599.687 81.9104 600.5 81.5041C601.312 81.0979 602.612 81.2272 603.181 81.975C603.75 82.7229 604.725 85.2416 605.862 85.4041C607 85.5666 608.544 85.8104 608.869 84.4291C608.869 84.4291 609.275 86.2166 606.756 86.1354C604.237 86.0541 600.662 84.5916 600.012 84.0229Z" fill="#BD703F"/>
<path d="M604.298 88.9028C603.055 89.8443 601.16 89.7949 599.967 88.79C600.17 89.7384 600.84 90.7079 601.807 90.7813C602.353 90.8229 602.888 90.5639 603.295 90.1979C603.703 89.8317 604.003 89.364 604.298 88.9028Z" fill="#BD5B1C"/>
<path d="M618.118 83.5405C617.62 85.3589 617.038 87.1679 616.147 88.8296C615.256 90.4913 614.038 92.01 612.458 93.0393C612.504 92.2843 612.371 91.5193 612.073 90.8241C612.727 90.5615 613.171 89.9239 613.375 89.2498C613.579 88.5758 613.578 87.8591 613.575 87.1549C615.378 86.3898 616.967 85.1259 618.118 83.5405Z" fill="#BD5B1C"/>
<path d="M620.977 81.2395C619.927 81.246 618.91 80.7078 618.232 79.9047C617.554 79.1016 617.199 78.0574 617.123 77.0093C616.787 77.8442 616.898 78.7981 617.176 79.6548C617.375 80.2697 617.684 80.8901 618.233 81.2317C619.033 81.7299 620.068 81.4923 620.977 81.2395Z" fill="#BD5B1C"/>
<path d="M600.825 82.0762C600.531 82.4983 600.623 83.1422 601.023 83.4649C601.356 83.733 601.84 83.7831 602.129 84.098C601.768 83.9098 601.65 83.4603 601.553 83.0648C601.454 82.6693 601.286 82.2214 600.898 82.0989" fill="#BD5B1C"/>
<path d="M601.917 82.376C602.082 82.7868 602.246 83.1976 602.412 83.6081C602.512 83.8597 602.617 84.1167 602.799 84.3173C602.981 84.5178 603.26 84.6533 603.523 84.5909C603.137 84.2623 603.086 83.6991 602.942 83.2129C602.798 82.7267 602.377 82.2048 601.888 82.338" fill="#BD5B1C"/>
<path d="M620.406 82.3976C620.406 82.3976 622.438 81.0163 623.413 82.3976C624.388 83.7788 623.738 85.1656 623.006 86.1377C622.275 87.1098 621.002 88.2203 618.917 86.8933C618.917 86.8933 620.081 84.9976 620.406 82.3976Z" fill="#FFCF99"/>
<path d="M621.989 83.2461C621.748 83.0667 621.282 82.7797 621.254 82.8369C621.402 82.5324 621.821 82.4394 622.134 82.5678C622.447 82.6962 622.664 82.9871 622.815 83.2893C623.091 83.8379 623.201 84.4788 623.065 85.0775C622.929 85.6761 622.532 86.2228 621.978 86.486C621.682 86.6264 621.354 86.6843 621.03 86.7259C620.779 86.758 620.484 86.7658 620.317 86.5757C620.182 86.4223 620.182 86.1922 620.227 85.993C620.377 85.3271 620.982 84.7895 621.661 84.7183C621.397 84.8558 621.203 85.121 621.153 85.4148C621.146 85.4548 621.142 85.498 621.16 85.5341C621.181 85.5744 621.225 85.5971 621.268 85.6127C621.768 85.796 622.146 85.393 622.206 84.9195C622.257 84.5149 622.253 84.0046 622.198 83.6016C622.187 83.5207 622.169 83.4391 622.129 83.368C622.116 83.3462 622.063 83.3013 621.989 83.2461Z" fill="#FFAD73"/>
<path d="M651.317 59.3105C643.897 66.9282 642.289 78.1251 642.289 78.1251C643.973 78.2941 645.634 78.6071 647.249 79.014C647.86 70.7232 650.275 65.8362 654.522 61.4874C652.6 60.2277 651.317 59.3105 651.317 59.3105Z" fill="#730938"/>
<path d="M669.036 68.6711C665.158 68.1293 658.479 64.0795 654.523 61.4873C650.276 65.8358 647.86 70.7232 647.249 79.0139C656.88 81.4397 664.77 87.3086 664.77 87.3086C672.804 77.1575 669.036 68.6711 669.036 68.6711Z" fill="#473D26"/>
<path d="M655.293 55.7168C655.293 55.7168 648.137 59.037 645.213 68.5809C642.289 78.1249 643.409 85.0321 643.409 85.0321" stroke="#473D26" stroke-width="9" stroke-miterlimit="10" stroke-linecap="round"/>
</svg>
