<svg width="68" height="64" viewBox="0 0 68 64" fill="none" xmlns="http://www.w3.org/2000/svg">
<ellipse cx="33.9482" cy="31.8906" rx="33.174" ry="31.875" fill="#C6D9B5"/>
<path d="M34.9705 35.9988C33.4943 35.9988 32.334 37.1006 32.334 38.503C32.334 39.2542 32.7031 40.0055 33.3358 40.4562V41.6081C33.3358 41.9587 33.6522 42.2592 34.0213 42.2592H36.0249C36.394 42.2592 36.7104 41.9587 36.7104 41.6081V40.4562C37.3432 40.0055 37.7122 39.2542 37.7122 38.503C37.6074 37.1011 36.4472 35.9988 34.9705 35.9988ZM35.6033 39.6053C35.3927 39.7055 35.2874 39.9058 35.2874 40.1562V41.0076H34.6019V40.1061C34.6019 39.9058 34.4967 39.6554 34.2861 39.5547C33.9165 39.3549 33.6533 38.9542 33.6533 38.503C33.6533 37.8018 34.2329 37.2509 34.971 37.2509C35.7091 37.2509 36.2892 37.8018 36.2892 38.503C36.2887 38.9542 36.0255 39.3549 35.6033 39.6053Z" fill="#153230"/>
<path d="M47.5204 24.8804H42.8802V21.9756C42.8802 18.67 40.0332 16.0156 36.6055 16.0156H30.0675C26.5872 16.0156 23.7928 18.7201 23.7928 21.9756V22.827H19.4159C19.0468 22.827 18.7831 23.1275 18.7831 23.428L18.5725 43.5114C18.5725 44.9639 19.7849 46.0156 21.2616 46.0156H47.4672C47.8362 46.0156 48.1526 45.7151 48.1526 45.3645C48.1526 43.7118 48.1526 26.1826 48.1526 25.4814C48.1531 25.1308 47.8368 24.8804 47.5204 24.8804ZM25.111 21.926C25.111 19.3216 27.3252 17.2181 30.0675 17.2181H36.6055C39.3478 17.2181 41.5625 19.3216 41.5625 21.926V24.8308H29.9091L26.9562 22.8776C26.8509 22.8275 26.6925 22.7774 26.5872 22.7774H25.111V21.926ZM19.8902 43.5114L20.0487 24.029H26.3766L29.3289 25.9822C29.4347 26.0323 29.5927 26.0824 29.6985 26.0824H46.8349V28.1358H23.16C22.7909 28.1358 22.5272 28.3862 22.5272 28.7368V43.5615C22.5272 44.3128 22.105 44.7139 21.3142 44.7139C20.4709 44.7635 19.8902 44.2627 19.8902 43.5114ZM46.8349 44.7635H23.5822C23.7401 44.413 23.8459 44.0624 23.8459 43.6116V29.438H46.8354L46.8349 44.7635Z" fill="#153230"/>
<path d="M26.4285 31.9426H31.016C31.385 31.9426 31.7014 31.6416 31.7014 31.291C31.7014 30.9409 31.385 30.6399 31.016 30.6399H26.3764C26.0074 30.6399 25.691 30.9409 25.691 31.291C25.6904 31.6416 26.0595 31.9426 26.4285 31.9426Z" fill="#153230"/>
<path d="M26.4278 33.7951H38.9247C39.2937 33.7951 39.6101 33.4946 39.6101 33.144C39.6101 32.7934 39.2937 32.4929 38.9247 32.4929H26.4278C26.0588 32.4929 25.7429 32.7934 25.7429 33.144C25.7429 33.4946 26.0588 33.7951 26.4278 33.7951Z" fill="#153230"/>
<path d="M46.5176 23.478C47.4142 23.478 48.1523 22.7768 48.1523 21.9254C48.1523 21.074 47.4142 20.3723 46.5176 20.3723C45.6211 20.3723 44.883 21.0735 44.883 21.9254C44.8835 22.7768 45.6216 23.478 46.5176 23.478ZM46.5176 21.6249C46.6761 21.6249 46.834 21.7752 46.834 21.9259C46.834 22.0762 46.6761 22.2264 46.5176 22.2264C46.3592 22.2264 46.2012 22.0762 46.2012 21.9259C46.2012 21.7251 46.3065 21.6249 46.5176 21.6249Z" fill="#153230"/>
<path d="M20.4705 20.373C21.5776 20.373 22.4741 19.5216 22.4741 18.4698C22.4741 17.4181 21.5776 16.5667 20.4705 16.5667C19.3633 16.5672 18.4668 17.4186 18.4668 18.4698C18.4668 19.5211 19.3633 20.373 20.4705 20.373ZM20.4705 17.8688C20.8395 17.8688 21.1559 18.1698 21.1559 18.5199C21.1559 18.8705 20.8395 19.1715 20.4705 19.1715C20.1014 19.1715 19.7845 18.8705 19.7845 18.5199C19.8377 18.1192 20.1014 17.8688 20.4705 17.8688Z" fill="#153230"/>
<path d="M22.4737 25.6821H21.156V26.9342H22.4737V25.6821Z" fill="#153230"/>
<path d="M24.4248 25.6821H23.1066V26.9342H24.4248V25.6821Z" fill="#153230"/>
<path d="M26.4283 25.6821H25.1106V26.9342H26.4283V25.6821Z" fill="#153230"/>
</svg>
