<svg width="68" height="64" viewBox="0 0 68 64" fill="none" xmlns="http://www.w3.org/2000/svg">
<ellipse cx="33.9482" cy="31.8906" rx="33.174" ry="31.875" fill="#C6D9B5"/>
<path d="M48.0885 22.9956C47.8731 22.689 47.4965 22.5867 47.1737 22.7912C46.8508 22.9956 46.7429 23.3533 46.9583 23.66C48.1423 25.3976 48.0885 27.493 46.9583 29.1795C46.6891 29.5883 47.0125 30.1505 47.5503 30.1505C47.7651 30.1505 47.9811 30.0483 48.1417 29.8439C49.5417 27.7996 49.5417 25.1421 48.0885 22.9956Z" fill="#153230"/>
<path d="M46.2594 24.3245C46.0977 24.0179 45.6674 23.9157 45.3445 24.069C45.0211 24.2223 44.9137 24.6311 45.0754 24.9378C45.6668 25.9599 45.6136 27.0331 45.0754 27.9531C44.9137 28.2597 45.0211 28.6686 45.3445 28.8219C45.6668 28.9752 46.0977 28.873 46.2594 28.5663C46.6359 27.902 46.8508 27.1865 46.8508 26.4199C46.8508 25.7044 46.6359 24.9889 46.2594 24.3245Z" fill="#153230"/>
<path d="M19.6254 29.2307C18.4414 27.4931 18.4957 25.3978 19.6254 23.7112C19.8408 23.4046 19.7328 22.9958 19.4105 22.8424C19.0877 22.638 18.6574 22.7402 18.4957 23.0469C17.0968 25.1933 17.0431 27.7998 18.4957 29.9462C18.6031 30.1507 18.818 30.2529 19.0871 30.2529C19.5717 30.2018 19.8945 29.6396 19.6254 29.2307Z" fill="#153230"/>
<path d="M21.5089 27.9531C20.9169 26.9309 20.9706 25.8577 21.5089 24.9378C21.6706 24.6311 21.5626 24.2223 21.2397 24.069C20.9169 23.9157 20.4866 24.0179 20.3249 24.3245C19.5717 25.6533 19.4643 27.1865 20.3249 28.5663C20.4323 28.7708 20.7015 28.873 20.9163 28.873C21.4546 28.9241 21.778 28.413 21.5089 27.9531Z" fill="#153230"/>
<path d="M33.3461 29.4861C34.9067 29.4861 36.1976 28.2596 36.1976 26.7775C36.1976 25.2954 34.9061 24.0688 33.3461 24.0688C31.7861 24.0688 30.4946 25.2954 30.4946 26.7775C30.4941 28.2596 31.7855 29.4861 33.3461 29.4861ZM33.3461 25.2954C34.2067 25.2954 34.8524 25.9598 34.8524 26.7264C34.8524 27.5441 34.1535 28.1574 33.3461 28.1574C32.4855 28.1574 31.8398 27.493 31.8398 26.7264C31.8398 25.9598 32.5387 25.2954 33.3461 25.2954Z" fill="#153230"/>
<path d="M31.7313 31.6838L32.0542 33.0636C32.1079 33.3703 32.3765 33.5747 32.6999 33.5747H33.9371C34.2599 33.5747 34.5291 33.3703 34.5828 33.0636L34.9056 31.6838C35.228 31.5816 35.5514 31.4793 35.8205 31.326L37.1119 32.0926C37.3811 32.2459 37.7034 32.1948 37.9725 31.9904L38.8337 31.1727C39.0485 30.9683 39.1028 30.6105 38.9411 30.355L38.1337 29.1284C38.2954 28.8218 38.4028 28.5663 38.5103 28.2596L39.9629 27.953C40.2857 27.9019 40.5011 27.6464 40.5011 27.3397V26.1643C40.5011 25.8576 40.2863 25.6021 39.9629 25.551L38.5103 25.2444C38.4028 24.9377 38.2954 24.6311 38.1337 24.3755L38.9411 23.149C39.1028 22.8935 39.0485 22.5868 38.8337 22.3313L37.9725 21.5136C37.7576 21.3092 37.3811 21.258 37.1119 21.4114L35.8205 22.178C35.5514 22.0246 35.2285 21.9224 34.9056 21.8202L34.6365 20.3892C34.5823 20.0826 34.3142 19.8782 33.9908 19.8782H32.7536C32.4302 19.8782 32.1616 20.0826 32.1074 20.3892L31.785 21.7691C31.4622 21.8713 31.1393 21.9735 30.8702 22.1269L29.5787 21.3603C29.3096 21.2069 28.9868 21.258 28.7181 21.4625L27.857 22.2802C27.6421 22.4846 27.5879 22.8423 27.7496 23.0979L28.5565 24.3244C28.3948 24.6311 28.2873 24.8866 28.1799 25.1932L26.7273 25.4999C26.4044 25.551 26.189 25.8065 26.189 26.1132V27.2886C26.189 27.5952 26.4039 27.8508 26.7273 27.9019L28.1799 28.2085C28.2873 28.5152 28.3948 28.8218 28.5565 29.0773L27.7496 30.3039C27.5879 30.5594 27.6421 30.8661 27.857 31.1216L28.7181 31.9393C28.933 32.1437 29.3096 32.1948 29.5787 32.0415L30.8702 31.2749C31.1399 31.4793 31.409 31.5816 31.7313 31.6838ZM30.4404 30.0484L29.2564 30.7127L29.149 30.6105L29.9021 29.4862C30.0638 29.2818 30.0638 29.0262 29.9021 28.8218C29.6335 28.4641 29.4718 28.0041 29.3644 27.5952C29.3101 27.3397 29.0953 27.1864 28.8798 27.1353L27.5352 26.8287V26.6753L28.8798 26.3687C29.149 26.3176 29.3107 26.1132 29.3644 25.9087C29.4718 25.4488 29.6335 25.0399 29.9021 24.6822C30.0638 24.4778 30.0638 24.2222 29.9021 24.0178L29.149 22.8935L29.2564 22.7912L30.4404 23.5067C30.6558 23.6601 30.925 23.6601 31.1399 23.5067C31.5164 23.2512 31.9473 23.0979 32.4313 22.9957C32.7004 22.9446 32.8621 22.7401 32.9153 22.5357L33.2382 21.258H33.3999L33.7227 22.5357C33.7764 22.7912 33.9919 22.9446 34.2067 22.9957C34.6913 23.0979 35.1216 23.2512 35.4982 23.5067C35.7136 23.6601 35.9827 23.6601 36.1976 23.5067L37.3816 22.7912L37.489 22.8935L36.7359 24.0178C36.5742 24.2222 36.5742 24.4778 36.7359 24.6822C37.005 25.091 37.1667 25.4999 37.2742 25.9087C37.3279 26.1643 37.5433 26.3176 37.7582 26.3687L39.1033 26.6753V26.8287L37.8656 27.0842C37.5965 27.1353 37.4353 27.3397 37.3816 27.5441C37.2742 28.0041 37.1125 28.413 36.8433 28.7707C36.6816 28.9751 36.6816 29.2307 36.8433 29.4351L37.5965 30.5594L37.489 30.6616L36.2519 30.0484C36.0364 29.895 35.7673 29.895 35.5519 30.0484C35.1753 30.3039 34.6913 30.4572 34.2605 30.5594C33.9913 30.6105 33.8296 30.815 33.7764 31.0194L33.4536 32.297H33.2919L32.9696 31.0194C32.9153 30.7638 32.7004 30.6105 32.4855 30.5594C32.001 30.4572 31.5707 30.3039 31.1941 30.0484C30.925 29.895 30.6558 29.895 30.4404 30.0484Z" fill="#153230"/>
<path d="M45.0216 45.7381H37.0581C37.4353 45.2271 37.6501 44.6138 37.6501 43.9494V43.1828C38.7799 43.1828 39.6947 42.2629 39.6947 41.1385C39.6947 40.1675 38.9958 39.4009 38.081 39.1965C38.4033 36.9989 39.4256 34.8013 40.8787 33.1659C42.4393 31.3772 43.2999 29.1285 43.2999 26.7776C43.2999 21.5137 38.9958 17.0163 33.4003 17.0163H33.3466C27.8048 16.9652 23.3391 21.4115 23.3391 26.7776C23.3391 29.1285 24.1997 31.3772 25.7065 33.1148C27.0511 34.648 28.074 36.8456 28.3968 39.1454C27.4283 39.2987 26.7288 40.1164 26.7288 41.0874C26.7288 42.2118 27.6437 43.1317 28.7734 43.1317V43.8983C28.7734 44.5627 28.9883 45.176 29.3654 45.687H21.4546C21.078 45.687 20.7557 45.9937 20.7557 46.3514C20.7557 46.7092 21.078 47.0158 21.4546 47.0158C22.4769 47.0158 43.9456 47.0158 45.0216 47.0158C45.3982 47.0158 45.7216 46.7092 45.7216 46.3514C45.6673 45.9937 45.3445 45.7381 45.0216 45.7381ZM26.7278 32.2971C25.3826 30.7639 24.6294 28.7708 24.6294 26.7776C24.6294 22.1269 28.5032 18.294 33.2381 18.294H33.2918C38.0267 18.3451 41.8473 22.1269 41.8473 26.8287C41.8473 28.873 41.0936 30.8662 39.749 32.3993C39.6415 32.5527 39.5336 32.6549 39.4261 32.8082C37.9735 34.5969 37.005 36.7945 36.6821 39.1965H29.7409C29.4181 36.8456 28.5032 34.648 27.1043 32.8593C26.9969 32.6038 26.8352 32.4505 26.7278 32.2971ZM32.0546 45.7381C30.9786 45.7381 30.1712 44.9715 30.1712 43.9494V42.5184C30.1712 42.1607 29.9021 41.9051 29.5255 41.9051H28.8261C28.4495 41.9051 28.1266 41.5474 28.1266 41.1385C28.1266 40.7297 28.4495 40.4231 28.8261 40.4231C29.6867 40.4231 36.2513 40.4231 37.7033 40.4231C38.0804 40.4231 38.4028 40.7297 38.4028 41.1385C38.4028 41.5474 38.0804 41.9051 37.7033 41.9051C36.2513 41.9051 35.0673 41.9051 33.6142 41.9051C33.2376 41.9051 32.9147 42.2118 32.9147 42.5695C32.9147 42.9273 33.2376 43.2339 33.6142 43.2339H36.3582V44.0005C36.3582 45.0226 35.5508 45.7892 34.4748 45.7892L32.0546 45.7381Z" fill="#153230"/>
<path d="M46.5285 45.8913C46.2594 46.1468 46.2594 46.5557 46.5285 46.8112C46.7976 47.0668 47.2274 47.0668 47.4965 46.8112C47.7657 46.5557 47.7657 46.1468 47.4965 45.8913C47.3891 45.7891 46.7976 45.6358 46.5285 45.8913Z" fill="#153230"/>
<path d="M18.9797 45.8913C18.7106 46.1468 18.7106 46.5557 18.9797 46.8112C19.2488 47.0668 19.6791 47.0668 19.9483 46.8112C20.2174 46.5557 20.2174 46.1468 19.9483 45.8913C19.7866 45.7891 19.2488 45.6358 18.9797 45.8913Z" fill="#153230"/>
<path d="M33.561 36.7944H32.2164V38.0721H33.561V36.7944Z" fill="#153230"/>
<path d="M34.9061 35.5168H33.561L33.561 36.7944L34.9061 36.7945V35.5168Z" fill="#153230"/>
<path d="M33.561 34.239H32.2164V35.5167L33.561 35.5168L33.561 34.239Z" fill="#153230"/>
</svg>
