<svg width="68" height="64" viewBox="0 0 68 64" fill="none" xmlns="http://www.w3.org/2000/svg">
<ellipse cx="33.9482" cy="31.8906" rx="33.174" ry="31.875" fill="#C6D9B5"/>
<path d="M38.2542 26.5162C38.2542 24.2442 36.297 22.437 33.9594 22.437C31.5674 22.437 29.665 24.2959 29.665 26.5162C29.665 28.7881 31.6222 30.5954 33.9594 30.5954C36.297 30.647 38.2542 28.7881 38.2542 26.5162ZM33.9046 29.3561C32.2736 29.3561 30.9693 28.1169 30.9693 26.5678C30.9693 25.0188 32.2741 23.7795 33.9046 23.7795C35.5355 23.7795 36.8398 25.0188 36.8398 26.5678C36.8946 28.0652 35.5355 29.3561 33.9046 29.3561Z" fill="#153230"/>
<path d="M47.8757 39.8897H47.7128V35.3458C47.7128 34.9844 47.3867 34.6746 47.0062 34.6746H35.6446L35.9708 33.3321C36.5146 33.1772 37.0579 32.9706 37.5475 32.7125L39.5047 33.9001C39.7766 34.055 40.1028 34.0033 40.3742 33.7968L41.6247 32.6092C41.8418 32.4026 41.8966 32.0412 41.7333 31.783L40.4833 29.9242C40.7552 29.4594 40.9723 28.9431 41.1357 28.4267L43.3643 28.0137C43.6899 27.962 43.9081 27.7038 43.9081 27.394V25.6901C43.9081 25.3803 43.6905 25.1221 43.3643 25.0705L41.1357 24.6057C40.9723 24.0894 40.7552 23.573 40.4833 23.1083L41.7333 21.2495C41.8966 20.9913 41.8418 20.6815 41.6247 20.4233L40.3742 19.2357C40.1571 19.0292 39.7766 18.9775 39.5047 19.1324L37.5475 20.32C37.0585 20.0619 36.5146 19.8553 35.9708 19.7004L35.4812 17.5317C35.4269 17.2219 35.155 17.0154 34.8288 17.0154H33.035C32.7088 17.0154 32.4374 17.2219 32.3826 17.5317L31.8936 19.7004C31.3497 19.8553 30.8064 20.0619 30.3169 20.32L28.3597 19.1324C28.0878 18.9775 27.7616 19.0292 27.4896 19.2357L26.2397 20.4233C26.022 20.6298 25.9677 20.9913 26.1306 21.2495L27.3811 23.1083C27.1097 23.573 26.8921 24.0894 26.7287 24.6057L24.5001 25.0705C24.1739 25.1221 23.9568 25.3803 23.9568 25.6901V27.394C23.9568 27.7038 24.1739 27.962 24.5001 28.0137L26.7287 28.4784C26.8921 28.9947 27.1092 29.5111 27.3811 29.9758L26.1306 31.8347C25.9677 32.0928 26.022 32.4026 26.2397 32.6608L27.4902 33.8484C27.7073 34.055 28.0883 34.1066 28.3602 33.9517L30.3174 32.7641C30.8064 33.0223 31.3503 33.2288 31.8941 33.3837L32.2203 34.7262H21.2392C20.8588 34.7262 20.5326 35.036 20.5326 35.3975V39.8897H20.3692C19.3363 39.8897 18.4668 40.7159 18.4668 41.697V45.2081C18.4668 46.1892 19.3368 47.0154 20.3692 47.0154H24.7183C25.7512 47.0154 26.6207 46.1892 26.6207 45.2081V41.697C26.6207 40.7159 25.7506 39.8897 24.7183 39.8897H24.5549V38.5989H32.0575V40.561C32.0575 41.6453 32.9813 42.5231 34.1232 42.5231C35.2652 42.5231 36.189 41.6453 36.189 40.561V38.5989H43.691V39.8897H43.5276C42.4947 39.8897 41.6253 40.7159 41.6253 41.697V45.2081C41.6253 46.1892 42.4947 47.0154 43.5276 47.0154H47.8768C48.9102 47.0154 49.7797 46.1892 49.7797 45.2081V41.697C49.7786 40.7159 48.9091 39.8897 47.8757 39.8897ZM33.0893 32.7125C33.0345 32.4543 32.8174 32.2994 32.5997 32.2477C31.893 32.0928 31.2407 31.8347 30.6425 31.4732C30.4249 31.3183 30.153 31.3183 29.9359 31.4732L28.0878 32.6092L27.5982 32.1445L28.7944 30.3889C28.9573 30.1823 28.9573 29.9242 28.7944 29.7176C28.414 29.1496 28.142 28.53 27.9792 27.8588C27.9249 27.6006 27.7073 27.4457 27.4902 27.394L25.3702 26.9293V26.2581L27.4902 25.7933C27.7621 25.7417 27.9249 25.5352 27.9792 25.3286C28.1426 24.6574 28.414 24.0378 28.7944 23.4698C28.9573 23.2632 28.9573 23.0051 28.7944 22.7985L27.5982 21.0429L28.0883 20.5782L29.9364 21.7142C30.1535 21.8691 30.4254 21.8691 30.6431 21.7142C31.2412 21.3527 31.8936 21.0946 32.6003 20.9396C32.8722 20.888 33.035 20.6815 33.0898 20.4749L33.5788 18.4612H34.2855L34.7745 20.4749C34.8288 20.7331 35.0465 20.888 35.2641 20.9396C35.9708 21.0946 36.6232 21.3527 37.2208 21.7142C37.4384 21.8691 37.7103 21.8691 37.9274 21.7142L39.7755 20.5782L40.2646 21.0429L39.0683 22.7985C38.9055 23.0051 38.9055 23.2632 39.0683 23.4698C39.4493 24.0378 39.7207 24.6574 39.8841 25.3286C39.9389 25.5868 40.156 25.7417 40.3731 25.7933L42.4931 26.2581V26.9293L40.3731 27.394C40.1017 27.4457 39.9384 27.6522 39.8841 27.8588C39.7207 28.53 39.4493 29.1496 39.0683 29.7176C38.9055 29.9242 38.9055 30.1823 39.0683 30.3889L40.2646 32.1445L39.7755 32.6092L37.9274 31.4732C37.7103 31.3183 37.4384 31.3183 37.2208 31.4732C36.6232 31.8347 35.9708 32.0928 35.2641 32.2477C34.9922 32.2994 34.8288 32.5059 34.7745 32.7125L34.2855 34.7262H33.5788L33.0893 32.7125ZM25.3154 41.697V45.2081C25.3154 45.518 25.0977 45.7245 24.7715 45.7245H20.4224C20.0962 45.7245 19.8791 45.518 19.8791 45.2081V41.697C19.8791 41.3871 20.0962 41.1806 20.4224 41.1806C22.0534 41.1806 23.1405 41.1806 24.7715 41.1806C25.044 41.1806 25.3154 41.3871 25.3154 41.697ZM34.8288 40.561C34.8288 40.9224 34.5026 41.2322 34.1222 41.2322C33.7417 41.2322 33.4155 40.9224 33.4155 40.561V38.5989H34.7745V40.561H34.8288ZM44.3423 37.308C40.2108 37.308 28.0883 37.308 23.9568 37.308C23.5763 37.308 23.2501 37.6178 23.2501 37.9792V39.8897H21.8911V36.0171C22.7068 36.0171 45.43 36.0171 46.3543 36.0171V39.8897H44.9947V37.9276C44.9947 37.6178 44.6685 37.308 44.3423 37.308ZM48.4195 45.2081C48.4195 45.518 48.2024 45.7245 47.8757 45.7245H43.5265C43.2009 45.7245 42.9832 45.518 42.9832 45.2081V41.697C42.9832 41.3871 43.2003 41.1806 43.5265 41.1806C45.1575 41.1806 46.2452 41.1806 47.8757 41.1806C48.2019 41.1806 48.4195 41.3871 48.4195 41.697V45.2081Z" fill="#153230"/>
<path d="M47.0602 21.1978H45.7012V28.943H47.0602V21.1978Z" fill="#153230"/>
<path d="M49.779 18.6162H48.4199V26.3615H49.779V18.6162Z" fill="#153230"/>
<path d="M47.0602 30.2341H45.7012V31.525H47.0602V30.2341Z" fill="#153230"/>
<path d="M22.5975 21.1978H21.2384V28.943H22.5975V21.1978Z" fill="#153230"/>
<path d="M19.8787 18.6162H18.5196V26.3615H19.8787V18.6162Z" fill="#153230"/>
<path d="M22.5975 30.2341H21.2384V31.525H22.5975V30.2341Z" fill="#153230"/>
</svg>
