<svg width="68" height="64" viewBox="0 0 68 64" fill="none" xmlns="http://www.w3.org/2000/svg">
<ellipse cx="33.9076" cy="31.8906" rx="33.174" ry="31.875" fill="#C6D9B5"/>
<path d="M38.1236 35.7499C37.9991 35.4538 37.7495 35.2762 37.3754 35.2762H35.1306L34.4447 33.2034C34.3201 32.9073 34.0705 32.6704 33.6964 32.6704C33.3845 32.6704 33.0727 32.9073 32.9482 33.2034L32.2622 35.2762H30.0174C29.2692 35.2762 28.9573 36.1645 29.581 36.579L31.3894 37.8227L30.704 39.8954C30.5789 40.1916 30.704 40.5469 31.0153 40.7246C31.2649 40.9022 31.639 40.9022 31.9509 40.7246L33.7593 39.4809L35.5676 40.7246C35.6921 40.843 35.8795 40.843 36.004 40.843C36.5655 40.843 36.8774 40.3692 36.7523 39.8954L36.004 37.8227L37.8124 36.579C38.1237 36.3421 38.2488 36.046 38.1236 35.7499ZM34.632 36.9344C34.383 37.112 34.2579 37.4674 34.3208 37.7635L34.4453 38.178L34.0711 37.9411C33.8215 37.7635 33.4474 37.7635 33.1355 37.9411L32.7614 38.178L32.8865 37.7635C33.011 37.4674 32.8865 37.112 32.5746 36.9344L32.2005 36.6975H32.6369C32.9488 36.6975 33.2606 36.4606 33.3851 36.1645L33.5096 35.7499L33.6348 36.1645C33.7593 36.4606 34.0089 36.6975 34.383 36.6975H34.8194L34.632 36.9344Z" fill="#153230"/>
<path d="M46.1676 37.1121C46.1676 32.1375 42.9256 27.8735 38.3738 26.1561V23.7872H40.2444C40.6808 23.7872 41.0549 23.4319 41.0549 23.0173V19.2864C41.0549 18.8718 40.6808 18.5165 40.2444 18.5165H39.9948L43.1746 15.3185C43.3619 15.0816 43.4242 14.7855 43.2991 14.4894C43.1739 14.1933 42.9249 14.0156 42.6131 14.0156H35.7549C35.5676 14.0156 35.3808 14.0748 35.1934 14.2525L33.6353 15.6738L32.0766 14.2525C31.8898 14.1933 31.7024 14.1341 31.5157 14.1341H24.6569C24.345 14.1341 24.0332 14.3117 23.9709 14.6078C23.8464 14.9039 23.9087 15.2001 24.0954 15.4369L27.2752 18.6349H27.1507C26.7143 18.6349 26.3396 18.9902 26.3396 19.4048V23.0173C26.3396 23.4319 26.7137 23.7872 27.1507 23.7872H29.0213V26.1561C24.4695 27.9327 21.2275 32.1967 21.2275 37.1121C21.2275 43.6265 26.8388 48.9564 33.6976 48.9564C40.5563 48.9564 46.1676 43.6265 46.1676 37.1121ZM36.0668 15.6146H40.8053L37.6878 18.7534C37.6256 18.8126 37.6256 18.8126 37.0641 19.3456L34.6948 16.8583L36.0668 15.6146ZM31.2032 15.6146C33.2606 17.5097 33.0116 17.2728 33.0738 17.332L35.3808 19.7601H30.6423L26.5275 15.6146H31.2032ZM27.9612 20.0562H28.7717C29.2081 20.4708 29.645 20.8853 29.7073 20.9446C29.7696 21.0038 29.9563 21.2407 30.331 21.2407H37.0647C37.252 21.2407 37.4388 21.1814 37.6262 21.063C37.8129 20.9446 37.5011 21.1814 38.624 20.0562H39.559V22.3067C38.3122 22.3067 29.8947 22.3067 28.0247 22.3067V20.0562H27.9612ZM30.5801 25.6231V23.7872H36.8151V25.6231C34.8199 25.0901 32.6374 25.0901 30.5801 25.6231ZM33.6976 47.4759C27.7122 47.4759 22.7863 42.7973 22.7863 37.1121C22.7863 30.7161 28.8962 25.7415 35.6298 26.9259C40.6179 27.6958 44.6082 31.9598 44.6082 37.1121C44.6082 42.7973 39.6829 47.4759 33.6976 47.4759Z" fill="#153230"/>
<path d="M33.6976 29.709C29.3954 29.709 25.9038 33.0254 25.9038 37.1117C25.9038 41.198 29.3954 44.5144 33.6976 44.5144C37.9997 44.5144 41.4913 41.198 41.4913 37.1117C41.4913 33.0254 37.9997 29.709 33.6976 29.709ZM33.6976 43.0339C30.2682 43.0339 27.4626 40.3689 27.4626 37.1117C27.4626 33.8545 30.2682 31.1895 33.6976 31.1895C37.1263 31.1895 39.9326 33.8545 39.9326 37.1117C39.9326 40.3689 37.1263 43.0339 33.6976 43.0339Z" fill="#153230"/>
<path d="M21.5387 28.2284C22.8484 28.2284 23.9079 27.2216 23.9079 25.978C23.9079 24.7343 22.8478 23.7275 21.5387 23.7275C20.2295 23.7275 19.1694 24.7343 19.1694 25.978C19.1694 27.2216 20.2289 28.2284 21.5387 28.2284ZM21.5387 25.2673C21.975 25.2673 22.3492 25.6226 22.3492 26.0372C22.3492 26.4517 21.975 26.8071 21.5387 26.8071C21.1023 26.8071 20.7282 26.4517 20.7282 26.0372C20.7282 25.6226 21.1023 25.2673 21.5387 25.2673Z" fill="#153230"/>
<path d="M17.6735 44.5146C16.3643 44.5146 15.3042 45.5214 15.3042 46.7651C15.3042 48.0087 16.3643 49.0155 17.6735 49.0155C18.9826 49.0155 20.0427 48.0087 20.0427 46.7651C20.0427 45.5214 18.9203 44.5146 17.6735 44.5146ZM17.6735 47.4757C17.2371 47.4757 16.863 47.1204 16.863 46.7058C16.863 46.2913 17.2371 45.936 17.6735 45.936C18.1098 45.936 18.4217 46.2913 18.4217 46.7058C18.4217 47.1204 18.0476 47.4757 17.6735 47.4757Z" fill="#153230"/>
<path d="M47.2904 25.2679C49.0365 25.2679 50.4079 23.965 50.4079 22.3068C50.4079 20.6486 49.0365 19.3457 47.2904 19.3457C45.5443 19.3457 44.1729 20.6486 44.1729 22.3068C44.1723 23.965 45.5443 25.2679 47.2904 25.2679ZM47.2904 20.8262C48.1631 20.8262 48.8491 21.4777 48.8491 22.3068C48.8491 23.1359 48.1631 23.7873 47.2904 23.7873C46.417 23.7873 45.7316 23.1359 45.7316 22.3068C45.731 21.4777 46.417 20.8262 47.2904 20.8262Z" fill="#153230"/>
<path d="M45.731 45.2254C45.731 45.64 46.1051 45.9953 46.5415 45.9953H52.0282C52.4646 45.9953 52.8387 45.64 52.8387 45.2254C52.8387 44.8109 52.4646 44.4556 52.0282 44.4556H46.4798C46.0428 44.5148 45.731 44.8109 45.731 45.2254Z" fill="#153230"/>
<path d="M51.9661 47.4756H42.6142C42.1779 47.4756 41.8037 47.8309 41.8037 48.2455C41.8037 48.66 42.1779 49.0153 42.6142 49.0153H51.9668C52.4031 49.0153 52.7773 48.66 52.7773 48.2455C52.7144 47.7717 52.3403 47.4756 51.9661 47.4756Z" fill="#153230"/>
</svg>
