<svg width="68" height="64" viewBox="0 0 68 64" fill="none" xmlns="http://www.w3.org/2000/svg">
<ellipse cx="33.9482" cy="31.8906" rx="33.174" ry="31.875" fill="#C6D9B5"/>
<path d="M21.8391 20.88H22.535V31.0495C22.535 31.4054 22.8562 31.7105 23.2309 31.7105C23.6055 31.7105 23.9268 31.4054 23.9268 31.0495V20.88H45.3396V31.0495C45.3396 31.4054 45.6609 31.7105 46.0355 31.7105C46.4102 31.7105 46.7314 31.4054 46.7314 31.0495V20.88C47.8554 20.88 48.7656 20.0156 48.7656 18.9478C48.7656 17.88 47.8554 17.0156 46.7314 17.0156H21.8386C20.7145 17.0156 19.8043 17.88 19.8043 18.9478C19.8049 20.0156 20.7151 20.88 21.8391 20.88ZM21.8391 18.3377H46.625C46.9997 18.3377 47.3209 18.6427 47.3209 18.9987C47.3209 19.3546 46.9997 19.6597 46.625 19.6597C45.6079 19.6597 22.9102 19.6597 21.8391 19.6597C21.4644 19.6597 21.1432 19.3546 21.1432 18.9987C21.1966 18.5919 21.4644 18.3377 21.8391 18.3377Z" fill="#153230"/>
<path d="M47.2678 39.9478H45.9294V39.2868C45.9294 38.575 45.5013 37.9648 44.9123 37.6597C45.1266 37.3038 45.287 36.897 45.287 36.4902C45.287 35.2699 44.2164 34.2529 42.9315 34.2529C41.6467 34.2529 40.5761 35.2699 40.5761 36.4902C40.5761 36.9478 40.683 37.3038 40.9508 37.6597C40.3618 37.9648 39.9336 38.575 39.9336 39.2868V39.9478H37.257V39.2868C37.257 38.575 36.8288 37.9648 36.2399 37.6597C36.4542 37.3038 36.6145 36.897 36.6145 36.4902C36.6145 35.2699 35.544 34.2529 34.2591 34.2529C32.9742 34.2529 31.9036 35.2699 31.9036 36.4902C31.9036 36.9478 32.0105 37.3038 32.2783 37.6597C31.6893 37.9648 31.2612 38.575 31.2612 39.2868V39.9478H28.5845V39.2868C28.5845 38.575 28.1564 37.9648 27.5674 37.6597C27.7817 37.3038 27.9421 36.897 27.9421 36.4902C27.9421 35.2699 26.8715 34.2529 25.5866 34.2529C24.3017 34.2529 23.1777 35.219 23.1777 36.4394C23.1777 36.897 23.2846 37.2529 23.5524 37.6089C22.9634 37.9139 22.5353 38.5241 22.5353 39.236V39.897H20.501C19.377 39.897 18.4668 40.7614 18.4668 41.8292C18.4668 42.897 19.377 43.7614 20.501 43.7614H25.5332C25.5332 45.3377 25.5332 45.3885 25.5866 45.6936H22.5353C22.1606 45.6936 21.8394 45.9987 21.8394 46.3546C21.8394 46.7106 22.1606 47.0156 22.5353 47.0156H45.287C45.6622 47.0156 45.9834 46.7106 45.9834 46.3546C45.9834 45.9987 45.6622 45.6936 45.287 45.6936H42.2356C42.2896 45.4394 42.2356 45.3377 42.2896 43.7614H47.2683C48.3923 43.7614 49.3025 42.897 49.3025 41.8292C49.3015 40.7614 48.3918 39.9478 47.2678 39.9478ZM42.9315 35.4733C43.4666 35.4733 43.9487 35.88 43.9487 36.4394C43.9487 36.9987 43.52 37.4055 42.9315 37.4055C42.3425 37.4055 41.9144 36.9478 41.9144 36.4394C41.9144 35.9309 42.3425 35.4733 42.9315 35.4733ZM41.272 39.236C41.272 38.9309 41.5397 38.6258 41.9144 38.6258H44.0021C44.3233 38.6258 44.6445 38.88 44.6445 39.236V39.897H41.272V39.236ZM34.2056 35.4733C34.7412 35.4733 35.2227 35.88 35.2227 36.4394C35.2227 36.9987 34.7941 37.4055 34.2056 37.4055C33.6172 37.4055 33.1885 36.9987 33.1885 36.4394C33.1885 35.88 33.6701 35.4733 34.2056 35.4733ZM32.5461 39.236C32.5461 38.9309 32.8138 38.6258 33.1885 38.6258H35.2762C35.5974 38.6258 35.9186 38.88 35.9186 39.236V39.897H32.5461V39.236ZM25.5332 35.4733C26.0687 35.4733 26.5503 35.88 26.5503 36.4394C26.5503 36.9987 26.1216 37.4055 25.5332 37.4055C24.9442 37.4055 24.516 36.9987 24.516 36.4394C24.516 35.88 24.9442 35.4733 25.5332 35.4733ZM23.8736 39.236C23.8736 38.9309 24.1414 38.6258 24.516 38.6258H26.6037C26.9249 38.6258 27.2462 38.88 27.2462 39.236V39.897H23.8736V39.236ZM26.8715 45.3377V43.7614H27.5674V45.3377C27.5674 45.4902 27.4065 45.6428 27.2462 45.6428C27.0853 45.6428 26.8715 45.4902 26.8715 45.3377ZM38.9165 43.7614C38.9165 45.3377 38.9165 45.3885 38.97 45.6936H28.8523C28.9057 45.4394 28.8523 45.3377 28.9057 43.7614H38.9165ZM40.8973 45.3377C40.8973 45.4902 40.737 45.6428 40.5761 45.6428C40.4152 45.6428 40.2549 45.4902 40.2549 45.3377V43.7614H40.9508V45.3377H40.8973ZM47.2678 42.4902C41.1651 42.4902 26.9255 42.4902 20.501 42.4902C20.1264 42.4902 19.8051 42.1851 19.8051 41.8292C19.8051 41.4733 20.1264 41.1682 20.501 41.1682C28.5845 41.1682 39.2912 41.1682 47.2678 41.1682C47.6424 41.1682 47.9637 41.4733 47.9637 41.8292C47.9637 42.1851 47.6424 42.4902 47.2678 42.4902Z" fill="#153230"/>
<path d="M42.6103 32.9311C42.985 32.9311 43.3062 32.626 43.3062 32.2701V30.9989C43.3062 30.643 42.985 30.3379 42.6103 30.3379H38.0063V29.1175C38.0063 28.1006 37.3104 27.1853 36.4002 26.8802C36.8283 26.3718 37.0427 25.7616 37.0427 25.0497C37.0427 23.4226 35.6509 22.1006 33.9379 22.1006C32.2249 22.1006 30.8331 23.4226 30.8331 25.0497C30.8331 25.7107 31.1003 26.3718 31.4755 26.8802C30.5119 27.2362 29.8694 28.1006 29.8694 29.1175V30.3887H25.8544C25.4797 30.3887 25.1585 30.6938 25.1585 31.0497V32.3209C25.1585 32.6769 25.4797 32.9819 25.8544 32.9819C26.2291 32.9819 26.5503 32.6769 26.5503 32.3209V31.6599C27.3531 31.6599 41.1111 31.6599 41.9674 31.6599V32.3209C41.9139 32.626 42.2351 32.9311 42.6103 32.9311ZM33.9379 23.4226C34.9015 23.4226 35.7043 24.1853 35.7043 25.1006C35.7043 25.965 35.0619 26.626 34.2051 26.7277H33.777C32.8133 26.5752 32.1709 25.9141 32.1709 25.0497C32.1714 24.1345 32.9742 23.4226 33.9379 23.4226ZM35.9187 30.3887V29.7277C35.9187 29.3718 35.5974 29.0667 35.2228 29.0667C34.8481 29.0667 34.5269 29.3718 34.5269 29.7277V30.3887H33.1885V29.7277C33.1885 29.3718 32.8673 29.0667 32.4926 29.0667C32.118 29.0667 31.7967 29.3718 31.7967 29.7277V30.3887H31.2078V29.1175C31.2078 28.5074 31.7428 27.948 32.3857 27.948H33.6167C33.831 27.948 33.9913 27.948 34.2056 27.948H35.4371C36.0795 27.948 36.6145 28.4565 36.6145 29.1175V30.3887H35.9187Z" fill="#153230"/>
<path d="M46.7862 45.8463C46.5185 46.1005 46.5185 46.5073 46.7862 46.7615C47.054 47.0158 47.4821 47.0158 47.7499 46.7615C48.0177 46.5073 48.0177 46.1005 47.7499 45.8463C47.643 45.6937 47.054 45.592 46.7862 45.8463Z" fill="#153230"/>
<path d="M20.0191 45.8463C19.9122 45.948 19.8053 46.1513 19.8053 46.3039C19.8053 46.6598 20.1266 46.9649 20.5012 46.9649C20.6621 46.9649 20.8759 46.9141 20.9828 46.7615C21.2506 46.5073 21.2506 46.1005 20.9828 45.8463C20.8759 45.6937 20.2869 45.592 20.0191 45.8463Z" fill="#153230"/>
<path d="M25.8544 23.4226H27.8886C28.2633 23.4226 28.5845 23.1175 28.5845 22.7616C28.5845 22.4057 28.2633 22.1006 27.8886 22.1006H25.8544C25.4797 22.1006 25.1585 22.4057 25.1585 22.7616C25.212 23.1175 25.4797 23.4226 25.8544 23.4226Z" fill="#153230"/>
<path d="M25.8544 25.304H29.227C29.6016 25.304 29.9229 24.9989 29.9229 24.643C29.9229 24.287 29.6016 23.9819 29.227 23.9819H25.8544C25.4797 23.9819 25.1585 24.287 25.1585 24.643C25.212 24.9989 25.4797 25.304 25.8544 25.304Z" fill="#153230"/>
<path d="M43.2529 22.1514H41.2187C40.844 22.1514 40.5228 22.4565 40.5228 22.8124C40.5228 23.1683 40.844 23.4734 41.2187 23.4734H43.2529C43.6276 23.4734 43.9488 23.1683 43.9488 22.8124C43.9488 22.4056 43.6276 22.1514 43.2529 22.1514Z" fill="#153230"/>
<path d="M43.9486 24.6932C43.9486 24.3373 43.6274 24.0322 43.2527 24.0322H39.8802C39.5055 24.0322 39.1843 24.3373 39.1843 24.6932C39.1843 25.0492 39.5055 25.3543 39.8802 25.3543H43.2527C43.6274 25.3034 43.9486 24.9983 43.9486 24.6932Z" fill="#153230"/>
</svg>
